<svg width="89" height="73" viewBox="0 0 89 73" fill="none" xmlns="http://www.w3.org/2000/svg">
<path d="M54.7296 32.4872C54.7296 33.574 54.7296 32.8636 54.7296 33.8573C49.974 34.314 45.2085 34.648 40.4877 35.2569C35.7768 35.8616 31.1156 36.7581 26.4494 38.145C26.7178 36.2506 26.9215 34.5127 27.2147 32.7832C27.5874 30.5633 27.9601 28.3433 28.4669 26.1444C28.7552 24.897 29.2769 23.6834 29.759 22.4741C29.9478 22.0005 29.8683 21.6664 29.3863 21.4339C28.8695 21.1886 28.4322 21.4127 28.2731 21.8102C27.7215 23.2141 27.0805 24.6137 26.7674 26.0641C26.1363 28.948 25.6494 31.853 25.2021 34.7622C24.8642 36.9483 24.7052 39.1556 24.4369 41.3502C24.1238 43.9085 23.7809 46.4583 23.4529 49.0166C23.3883 49.5029 23.3039 49.9891 23.2641 50.4754C23.2343 50.8729 23.0305 51.042 22.5684 50.9279C20.9882 50.5304 19.3881 50.4585 17.7432 50.5515C14.8908 50.708 12.0285 50.7334 9.17616 50.911C7.96862 50.9871 6.74121 51.2196 5.59827 51.5537C5.09637 51.7017 4.65908 52.2345 4.39571 52.6827C4.15221 53.0971 4.09755 53.6257 4.09258 54.1035C4.03792 56.9282 4.04288 59.7528 3.98325 62.5775C3.94847 64.3746 3.83418 66.1675 3.75466 68.0111C2.82541 68.0661 1.921 68.1211 1.02155 68.1718C0.261253 68.2141 -0.0319366 68.4425 0.00285339 68.9541C0.0426025 69.5292 0.494812 69.656 1.05634 69.6222C1.96572 69.5672 2.87511 69.4954 3.86897 69.4277C3.93356 69.6603 3.99816 69.9309 4.07767 70.2015C4.36092 71.1149 5.00196 71.6688 6.13496 71.8549C7.63568 72.0959 9.10659 72.5272 10.6222 72.6794C13.251 72.9416 15.8897 72.8993 18.5234 72.5568C22.0665 72.0959 25.3611 71.136 28.2682 69.3135C28.3576 69.2543 28.4769 69.1824 28.5763 69.1909C29.3912 69.229 30.2112 69.2247 31.0112 69.3474C33.5307 69.7406 36.055 69.8167 38.6093 69.6814C40.2143 69.5968 41.8393 69.7279 43.4444 69.6264C46.2471 69.4531 49.0348 69.1486 51.8325 68.9456C54.5358 68.7469 57.2441 68.5609 59.9573 68.4509C63.2917 68.3156 66.646 68.0619 69.9704 68.2141C75.7398 68.4805 81.5091 68.3325 87.2735 68.4044C87.4425 68.4044 87.6114 68.4044 87.7804 68.4044C88.3071 68.4002 88.5755 68.1465 88.6152 67.7194C88.6599 67.2542 88.3171 67.0597 87.8301 67.0048C87.6164 66.9836 87.3977 66.9921 87.1791 66.9921C83.1838 66.9921 79.1885 67.0005 75.1932 66.9836C74.095 66.9794 72.9918 66.899 72.1023 66.8652C71.4712 65.5924 70.9146 64.4634 70.3183 63.2583C71.3072 63.1145 72.3607 62.958 73.4142 62.81C74.5273 62.6536 75.6454 62.5141 76.7585 62.3576C78.0058 62.18 78.4779 61.6387 78.289 60.552C78.1946 60.0065 78.0455 59.4695 77.8865 58.9325C77.0666 56.1205 76.2814 53.2958 75.3969 50.5008C74.4975 47.6592 73.4937 44.8472 72.5296 42.0184C72.465 41.8238 72.3855 41.6251 72.2712 41.4475C72.0426 41.0923 71.6799 40.8809 71.2028 41.0373C70.7009 41.2022 70.5419 41.5448 70.7208 41.9888C70.8749 42.3736 71.0637 42.7541 71.1929 43.1431C72.2563 46.3907 73.3347 49.6297 74.3484 52.8857C75.1087 55.3298 75.7795 57.795 76.4852 60.256C76.5398 60.4505 76.5597 60.6493 76.6094 60.9157C74.8652 61.1609 73.1657 61.3977 71.4662 61.6345C71.4165 61.643 71.3718 61.6345 71.3221 61.643C70.4972 61.7698 69.5978 62.125 68.8722 61.9559C68.1765 61.791 67.6548 61.0806 67.0634 60.607C66.2485 59.9516 65.3689 59.4188 64.221 59.2538C64.0769 59.2327 63.8682 58.9283 63.893 58.7845C64.6732 54.4967 65.4782 50.2132 66.2683 45.9297C66.3429 45.528 66.3528 45.1136 66.3627 44.7077C66.3727 44.2679 66.0795 43.9888 65.5826 43.9804C65.1055 43.9719 64.7875 44.213 64.7129 44.6485C64.1415 48.0144 63.575 51.3846 62.9836 54.7462C62.7501 56.074 62.4619 57.3975 62.1885 58.7507C60.7624 58.7507 59.3113 58.7507 57.7013 58.7507C57.7013 57.8965 57.6814 57.0846 57.7062 56.2727C57.7957 53.5242 57.5174 50.7968 57.1497 48.0736C57.0652 47.4647 57.0404 46.8516 56.9658 46.2427C56.9112 45.7944 56.613 45.5027 56.0564 45.5619C55.5396 45.6168 55.2514 45.8959 55.3061 46.378C55.485 47.9214 55.6738 49.469 55.8378 51.0167C55.9223 51.8285 56.0018 52.6447 56.0117 53.4608C56.0366 55.3044 56.0217 57.1438 56.0217 59.0001C54.8638 59.3004 53.7109 59.6006 52.5332 59.905C51.3803 57.7485 50.3964 55.5116 49.6361 53.1817C48.9007 50.9279 47.7975 48.7629 46.8483 46.5598C46.7688 46.3695 46.6297 46.1961 46.4955 46.0312C46.1974 45.6549 45.8048 45.5365 45.3228 45.7817C44.8159 46.0397 44.8805 46.378 45.0793 46.7839C45.8694 48.4034 46.7042 50.0061 47.3751 51.6636C48.041 53.3043 48.4634 55.0126 49.1094 56.6575C49.5715 57.8331 50.2175 58.9579 50.7741 60.108C50.8536 60.2729 50.9132 60.4421 50.9927 60.6493C48.9802 61.3047 47.6186 62.6113 46.1924 63.846C46.0731 63.9475 45.8744 64.0236 45.7004 64.0363C42.5648 64.2266 39.4242 64.4042 36.2836 64.5818C36.2439 64.586 36.1992 64.5522 36.1097 64.5141C36.2091 63.2921 36.2687 62.0531 36.4277 60.8184C36.6116 59.3596 36.8153 57.8965 37.1334 56.4546C37.4315 55.1183 37.998 53.8244 38.2614 52.484C38.5596 50.9786 38.6391 49.4437 38.8378 47.9214C38.8875 47.5408 39.0317 47.1687 39.1211 46.7924C39.2304 46.3315 39.1907 45.8917 38.5695 45.7479C38.008 45.6168 37.6303 45.8875 37.521 46.3484C37.3371 47.1645 37.1234 47.9806 37.0588 48.8051C36.875 51.1139 36.383 53.3593 35.6575 55.5962C35.1854 57.0381 35.0413 58.5604 34.8276 60.0573C34.6338 61.3935 34.5543 62.7424 34.3953 64.0828C34.2164 65.584 34.9519 66.1929 36.7458 66.0026C36.8402 65.9941 36.9346 65.9772 37.034 65.9688C39.5733 65.8335 42.1176 65.6981 44.6569 65.5628C44.8159 65.5544 44.9749 65.5628 45.0693 65.5628C44.801 66.4254 44.5476 67.2627 44.2743 68.1465C41.8244 68.2099 39.3298 68.3663 36.8352 68.3114C34.3506 68.2564 31.8759 67.9942 29.2968 67.8166C29.3614 67.4276 29.4409 67.1189 29.4608 66.8102C29.6198 64.4634 29.8087 62.1208 29.9031 59.7697C29.9726 57.9937 29.9726 56.2135 29.8981 54.4376C29.8633 53.5496 29.0235 52.9787 28.3228 52.4205C27.3787 51.6721 26.1562 51.4226 24.8443 51.2704C25.222 48.7417 25.5947 46.2427 25.9575 43.7774C32.5368 44.843 39.1708 44.5893 45.7799 44.5047C49.9045 44.454 54.024 44.0438 58.1336 43.6632C60.2008 43.473 62.2929 43.1474 64.2657 42.6019C66.2485 42.0522 68.1169 41.1853 70.0003 40.3946C70.8749 40.0267 71.6849 39.5447 72.4849 39.0668C72.7781 38.8892 73.0315 38.6017 73.1707 38.3142C74.2788 36.0096 72.7582 33.908 69.7369 33.6036C66.5019 33.278 63.2619 33.316 60.017 33.5359C58.8691 33.612 57.7211 33.6712 56.4739 33.7431C56.4739 32.7198 56.4739 33.4217 56.4739 32.3815C56.6627 32.3646 56.9161 32.3308 57.1745 32.3181C60.4791 32.149 63.4657 31.1341 66.318 29.7852C67.3616 29.2905 68.4399 28.8296 69.4189 28.2502C72.3458 26.5166 73.3794 24.0809 73.0365 21.1083C72.6887 18.0849 71.0289 15.6661 68.5294 13.5941C67.8784 13.0529 67.3119 12.4144 66.5913 11.9535C64.9863 10.9259 63.3364 9.9407 61.6419 9.01465C59.8629 8.04209 58.5957 6.78621 58.1584 4.99754C58.0392 4.49857 57.9796 3.98692 57.9497 3.4795C57.9199 3.00167 57.6963 2.65916 57.1298 2.64225C56.5534 2.62533 56.2651 2.96362 56.2801 3.44144C56.3546 5.80942 57.1745 7.91946 59.4902 9.39099C60.9313 10.3044 62.5115 11.057 63.9626 11.9535C64.9067 12.5412 65.7813 13.2263 66.6062 13.9367C68.0225 15.1545 69.4089 16.4019 70.3183 17.9622C71.337 19.7086 71.6004 21.5988 71.3072 23.472C71.0488 25.1042 69.8512 26.3981 68.1865 27.2777C65.3838 28.7577 62.4519 30.0135 59.2169 30.6563C58.3125 30.8339 57.3634 30.8508 56.3496 30.9523C56.0713 29.7471 56.131 30.0558 55.8726 28.9353C56.618 28.6646 57.3385 28.449 58.0094 28.1572C60.0468 27.2777 61.1301 25.9034 61.0854 23.8949C61.0406 21.9709 60.6481 20.1611 58.8343 18.8629C58.3125 18.4908 57.5124 18.3512 56.8068 18.2371C56.0415 18.1102 55.2365 18.0933 54.4514 18.1018C52.8562 18.1187 51.3406 18.4654 50.0436 19.2519C48.0907 20.4359 47.3652 22.1569 47.6086 24.1317C47.882 26.322 49.2038 27.9754 51.6437 28.8169C52.3643 29.0664 53.2339 28.9902 54.1681 29.0748C54.4166 30.1193 54.3619 29.8063 54.6501 31.0411C53.3879 31.0791 52.2003 31.1679 51.0126 31.1426C49.1193 31.1003 47.1763 31.1849 45.3526 30.8339C43.3947 30.4575 41.402 29.8106 39.9559 28.542C39.2652 27.9331 38.8329 27.0071 38.5894 26.1614C38.0726 24.3642 37.9931 22.5079 38.5695 20.7108C39.1211 18.9813 40.2243 17.4675 41.4567 16.0129C43.5736 13.5096 45.6408 10.9767 47.6931 8.43534C48.3292 7.64883 48.9156 6.82004 49.4274 5.9701C50.2026 4.67617 50.7095 3.3019 50.7045 1.82191C50.7045 1.47517 50.8337 1.10729 50.7294 0.785923C50.6399 0.502611 50.3716 0.155871 50.0784 0.0459294C49.6759 -0.102069 49.2833 0.122043 49.1392 0.511068C49.0597 0.722495 48.9802 0.955064 49 1.17072C49.1988 3.50487 48.0807 5.47537 46.5949 7.31478C44.1749 10.3128 41.6604 13.2559 39.2354 16.2539C38.1322 17.6197 37.188 19.0955 36.8253 20.7319C36.1942 23.5862 36.2886 26.4235 38.1869 28.9564C38.7633 29.726 39.7721 30.3222 40.7063 30.8254C41.6256 31.3159 42.7089 31.5866 43.7177 31.9587C44.9998 32.4323 46.3564 32.5211 47.7229 32.5295C49.6659 32.538 51.6139 32.5042 53.5619 32.4915C53.9246 32.4872 54.2824 32.4872 54.7296 32.4872ZM28.3377 55.926C28.3377 56.2051 28.3477 56.425 28.3377 56.6491C28.2433 59.0171 28.1787 61.3893 28.0396 63.753C27.97 64.9751 27.811 66.1929 27.5923 67.4022C27.5277 67.7574 27.2097 68.1676 26.8619 68.379C23.7163 70.2861 20.1036 71.0726 16.3319 71.3221C13.1864 71.5293 10.0657 71.2883 7.01452 70.5271C5.79704 70.2227 5.72747 70.248 5.53367 69.1994C5.49889 69.0175 5.49889 68.8315 5.50386 68.6497C5.54858 67.1781 5.62312 65.7066 5.643 64.2351C5.67281 62.0447 5.64796 59.8543 5.67281 57.6639C5.67778 57.0254 5.77219 56.3911 5.82686 55.7103C6.05544 55.7949 6.19956 55.8583 6.35361 55.9049C7.38722 56.2178 8.39599 56.6744 9.45941 56.8098C12.6 57.2157 15.7704 57.3552 18.9408 57.0719C22.0665 56.7971 25.2916 57.1438 28.3377 55.926ZM70.2239 35.1681C70.9941 35.4768 71.7395 35.6925 71.7842 36.424C71.829 37.2232 71.7693 38.0139 70.6711 38.3987C70.1444 38.5806 69.7021 38.9188 69.1903 39.1429C67.6349 39.8153 66.1391 40.7117 64.4844 41.0754C61.5674 41.7181 58.5709 42.1833 55.5744 42.4497C50.1728 42.9359 44.7513 43.2827 39.3099 43.0924C36.2389 42.9867 33.1629 42.9444 30.0869 42.826C29.1129 42.7879 28.129 42.6526 27.1799 42.4581C26.0966 42.234 26.1016 42.1833 26.1513 41.2657C26.1761 40.8174 26.191 40.3608 26.3003 39.9252C26.3451 39.7476 26.5886 39.5108 26.7923 39.4643C29.5453 38.8385 32.3082 38.2296 35.0711 37.6418C36.3383 37.3712 37.6204 37.1555 38.8925 36.9145C38.6888 38.2846 38.495 39.5573 38.3111 40.8344C38.2415 41.3122 38.2962 41.7604 39.0068 41.8577C39.5832 41.938 39.9311 41.6209 40.0156 40.9739C40.115 40.162 40.1994 39.3501 40.3286 38.5425C40.3932 38.1408 40.5324 37.7518 40.6417 37.3543C41.4219 38.496 42.043 39.6123 42.6543 40.7371C42.8779 41.1473 43.176 41.4644 43.7525 41.2784C44.2743 41.1092 44.473 40.7413 44.2544 40.2847C44.0258 39.8153 43.7525 39.3628 43.504 38.8977C43.0866 38.1281 42.6741 37.3543 42.1921 36.4621C46.4707 36.073 50.6101 35.6967 54.8091 35.3161C54.8489 35.7305 54.8936 36.073 54.9085 36.4198C54.9682 37.811 55.0079 39.1979 55.0825 40.5891C55.1073 41.05 55.311 41.4729 55.967 41.4433C56.5931 41.4137 56.8018 41.0331 56.782 40.5426C56.7422 39.5616 56.6826 38.5806 56.6577 37.5995C56.6378 36.8088 56.6528 36.0223 56.6528 35.1047C60.007 34.9905 63.4458 34.8721 66.969 34.7495C66.7553 35.3838 66.6013 35.8489 66.4472 36.3183C66.159 37.1767 65.8459 38.0308 65.5925 38.8935C65.4732 39.3036 65.6919 39.6377 66.1988 39.7307C66.7205 39.828 67.123 39.5954 67.2721 39.1937C67.5753 38.3818 67.8038 37.553 68.0672 36.7327C68.1815 36.369 68.3008 36.0096 68.42 35.6502C68.4797 35.6502 68.5393 35.6502 68.5989 35.6502C68.7132 35.9885 68.8176 36.331 68.9468 36.6693C69.1008 37.0752 69.399 37.3754 69.9506 37.2528C70.4873 37.1302 70.7357 36.813 70.5767 36.3183C70.4525 35.9673 70.3581 35.6164 70.2239 35.1681ZM59.3859 23.8526C59.5598 25.1465 58.8293 26.0049 57.6267 26.7068C56.3993 27.4257 55.0278 27.4891 53.6364 27.5356C53.1196 27.5525 52.5382 27.5906 52.0909 27.4172C49.7355 26.5208 48.8857 24.4826 49.3876 22.5206C49.984 20.1822 52.6077 19.5395 54.67 19.5606C55.2117 19.5648 55.7483 19.6663 56.29 19.6706C57.6615 19.679 58.2727 19.9792 58.72 21.0787C59.0778 21.9666 59.4554 23.8399 59.3859 23.8526ZM45.9091 68.0407C46.3415 67.1358 46.6893 66.3662 47.0869 65.622C47.1614 65.4867 47.4397 65.3599 47.6335 65.3472C50.6747 65.14 53.7159 64.9751 56.7571 64.7552C60.489 64.4888 64.2458 64.4253 67.9231 63.7276C68.0821 63.698 68.3356 63.7403 68.4399 63.8334C69.3244 64.6368 69.8065 65.6093 70.1493 66.7384C62.0742 66.62 54.1433 67.2796 45.9091 68.0407ZM66.9292 62.5775C60.7822 63.0257 54.7495 63.4655 48.6224 63.9095C49.0497 63.5078 49.3479 63.2118 49.6659 62.9411C49.815 62.8143 50.0038 62.717 50.1877 62.624C53.537 60.9368 57.0751 59.8205 61.0456 60.1884C63.2271 60.3829 65.3838 60.7169 66.9292 62.5775ZM22.1907 55.4355C18.3693 55.8287 13.3305 55.8964 10.006 55.4397C8.82831 55.279 7.68538 54.8181 6.60207 54.3657C6.25919 54.2219 6.10017 53.6849 5.96103 53.2958C5.92128 53.1817 6.19955 52.873 6.38839 52.8307C7.36237 52.6193 8.34629 52.3698 9.34015 52.3148C12.4559 52.1415 15.5766 52.0273 18.6923 51.9258C20.0837 51.8835 21.4602 52.0315 22.8119 52.4501C22.5982 53.4819 22.3945 54.4714 22.1907 55.4355ZM27.9303 54.2811C26.7824 55.2367 25.3711 55.2283 23.9946 55.3636C24.1536 54.4249 24.3027 53.5707 24.4518 52.67C25.8978 52.8688 27.2346 53.0548 27.9303 54.2811Z" fill="white"/>
<path d="M52.7666 9.26405C53.0151 10.8413 53.2785 12.5031 53.5319 14.1649C53.5816 14.4905 53.5915 14.8161 53.6363 15.1417C53.6909 15.5688 53.8996 15.9113 54.4761 15.8944C55.1121 15.8775 55.3656 15.5011 55.3308 15.0233C55.2711 14.2283 55.1469 13.4376 55.0326 12.6469C54.8537 11.4502 54.6649 10.2578 54.4711 9.06108C54.4015 8.61286 54.1729 8.27035 53.5667 8.27457C53.0399 8.2788 52.7368 8.634 52.7666 9.26405Z" fill="white"/>
<path d="M22.8218 29.0494C22.8218 29.1931 22.8218 29.3369 22.8218 29.4807C22.8168 29.9331 23.115 30.1826 23.6069 30.1995C24.0889 30.2122 24.402 30.0093 24.4716 29.5483C24.6057 28.6012 24.7697 27.654 24.9437 26.7068C25.048 26.1444 25.212 25.5947 25.3164 25.0323C25.4058 24.5502 25.1623 24.2035 24.5859 24.157C24.0591 24.1147 23.7759 24.3726 23.6765 24.842C23.3783 26.2416 23.0355 27.637 22.7075 29.0325C22.7423 29.0367 22.782 29.0451 22.8218 29.0494Z" fill="white"/>
<path d="M67.2872 18.0892C66.8201 18.3091 66.4523 18.4825 66.0796 18.6516C65.4933 18.9223 64.887 19.1717 64.3205 19.4677C63.8932 19.6918 63.4509 19.9498 63.6198 20.4826C63.749 20.8928 64.3106 21.1211 64.7628 20.9139C65.7467 20.4572 66.7356 20.0005 67.6599 19.4677C67.8934 19.3324 68.0226 18.9011 67.9779 18.6347C67.9481 18.4402 67.5555 18.288 67.2872 18.0892Z" fill="white"/>
<path d="M43.9563 21.9073C44.2296 21.7466 44.6072 21.6409 44.6718 21.4506C44.7613 21.2011 44.7215 20.7275 44.5377 20.6345C43.5587 20.1482 42.5301 19.7254 41.4816 19.3533C41.2977 19.2898 40.8306 19.5266 40.6914 19.7254C40.5672 19.8945 40.6169 20.3597 40.7709 20.4358C41.7847 20.9559 42.8431 21.4041 43.9563 21.9073Z" fill="white"/>
<path d="M60.6184 16.2792C60.7128 16.2496 60.9513 16.2285 61.1054 16.1227C61.6719 15.721 62.2682 15.3278 62.7353 14.85C62.9092 14.6724 62.9043 14.1861 62.7353 14C62.5664 13.8182 61.9601 13.6787 61.7762 13.7928C61.0706 14.2284 60.3948 14.7273 59.8283 15.2897C59.4357 15.683 59.873 16.2581 60.6184 16.2792Z" fill="white"/>
<path d="M45.6508 14.8035C45.8048 15.0488 45.8843 15.2475 46.0285 15.3998C46.3564 15.7507 46.7043 16.0848 47.067 16.4104C47.4248 16.7317 47.8522 16.8163 48.2845 16.533C48.7268 16.2412 48.7168 15.8649 48.3889 15.5224C47.9814 15.0953 47.5739 14.6598 47.0869 14.3088C46.8881 14.165 46.4459 14.1397 46.1875 14.2242C45.9539 14.3003 45.8247 14.6006 45.6508 14.8035Z" fill="white"/>
<path d="M21.659 46.4244C21.659 46.6104 21.5795 46.8346 21.6739 46.9699C21.8528 47.2193 22.1162 47.5661 22.3746 47.5872C22.6479 47.6126 23.1299 47.3504 23.2194 47.1263C23.3933 46.695 23.3784 46.2045 23.3884 45.7394C23.3983 45.3207 23.0554 45.0966 22.6181 45.0586C22.1212 45.0205 21.7982 45.2742 21.7137 45.6886C21.664 45.9254 21.7038 46.1791 21.7038 46.4244C21.6938 46.4244 21.6789 46.4244 21.659 46.4244Z" fill="white"/>
<path d="M28.3078 33.7305C28.283 34.1871 28.5265 34.4958 29.0433 34.5719C29.5899 34.6523 29.898 34.3394 29.9924 33.9292C30.0719 33.574 30.1266 33.185 30.0222 32.8467C29.9527 32.6141 29.5999 32.2928 29.3613 32.2843C29.0681 32.2758 28.6458 32.4957 28.5016 32.7198C28.3227 33.0031 28.3625 33.3879 28.3078 33.7305Z" fill="white"/>
<path d="M15.1442 60.4802C14.6871 60.2603 14.2995 60.0616 13.897 59.884C13.41 59.6726 12.9279 59.6979 12.6546 60.1335C12.4012 60.5309 12.5801 60.8861 13.0373 61.1187C13.2013 61.2033 13.3652 61.2879 13.5342 61.3682C14.533 61.8502 14.533 61.846 14.2398 62.8017C13.1416 62.6579 12.7938 62.8778 12.8584 63.8038C12.9578 65.2542 13.5292 66.5989 14.3839 67.8378C14.6026 68.155 15.1592 68.4045 15.6114 68.4806C16.4263 68.6201 17.2761 68.6201 18.1159 68.6497C20.208 68.7301 20.8092 68.1635 21.3807 66.3156C21.6441 65.4614 21.9273 64.6073 22.2255 63.7615C22.3746 63.3387 22.1162 62.8566 21.5944 62.7552C21.2962 62.696 20.9832 62.696 20.6154 62.6621C20.3073 61.3386 19.2191 60.3956 18.2202 59.4104C17.5146 58.7127 16.4959 58.7634 15.8996 59.5203C15.6561 59.8206 15.4225 60.125 15.1442 60.4802ZM20.0489 64.3451C19.9943 64.6326 19.9794 64.8356 19.9197 65.0301C19.716 65.694 19.5719 66.379 19.2588 67.0048C19.065 67.3896 15.9592 67.322 15.7107 66.9329C15.189 66.1253 14.7666 65.2711 14.692 64.3451C16.5158 64.3451 18.26 64.3451 20.0489 64.3451ZM16.8189 60.958C16.8487 60.92 16.9879 60.7508 17.1518 60.5479C17.8475 61.2709 18.6675 61.8756 18.901 62.8862C17.9022 62.8017 16.963 63.0765 16.0487 62.7425C16.5903 62.641 17.3208 62.7932 17.3755 62.1209C17.4003 61.7995 17.0723 61.4528 16.8189 60.958Z" fill="white"/>
<path d="M11.6757 55.1988C12.8038 55.0127 13.6684 54.8605 14.543 54.7252C16.645 54.3954 18.7421 54.4842 20.8391 54.7928C21.0478 54.8224 21.3162 54.8986 21.4652 54.8224C21.7485 54.6744 22.146 54.4419 22.1609 54.2304C22.1758 53.9937 21.8727 53.6046 21.6044 53.5201C20.9882 53.3213 20.3124 53.1902 19.6514 53.1649C16.9879 53.0634 14.3244 53.0465 11.7403 53.7653C11.2732 53.8964 10.9154 54.1459 11.0446 54.5476C11.1341 54.8351 11.5217 55.0508 11.6757 55.1988Z" fill="white"/>
</svg>
