<svg width="334" height="127" viewBox="0 0 334 127" fill="none" xmlns="http://www.w3.org/2000/svg">
<path d="M324.114 64.4665C324.894 63.9119 325.163 63.0123 324.505 62.1046C323.907 61.2877 323.146 61.2319 322.302 61.7052C321.734 62.0228 321.191 62.4049 320.597 62.6484C318.605 63.4576 315.948 61.8526 315.233 59.9042C314.538 58.009 313.6 56.048 312.265 54.5856C309.998 52.1139 306.919 50.6168 303.728 49.861C294.333 47.6372 284.874 45.6488 275.44 43.5857C275.552 42.9931 275.68 42.3241 275.696 42.2381C281.952 40.6558 288.153 39.4194 294.126 37.4762C297.9 36.2436 301.805 34.7882 304.652 31.6459C307.675 28.2994 309.938 24.5309 310.834 20.0269C311.043 18.9774 311.366 17.9495 311.678 16.9293C312.1 15.5835 311.239 14.5085 309.71 14.7325C308.16 14.9624 306.617 15.362 305.105 15.807C302.264 16.653 299.388 17.4325 296.636 18.533C292.158 20.3251 287.674 22.1554 283.386 24.34C280.929 25.5858 278.685 27.4069 276.626 29.283C274.581 31.1418 274.063 33.9152 273.461 36.5142C273.038 38.3253 272.588 40.9435 272.221 42.9236L269.692 42.3927C270.076 40.3761 270.687 37.5214 270.975 35.546C271.372 32.898 271.899 30.1263 270.687 27.6574C269.462 25.1563 268.033 22.6461 266.216 20.5772C263.021 16.9682 259.532 13.6203 256.026 10.3087C253.87 8.2743 251.481 6.49251 249.15 4.66235C247.909 3.68332 246.619 2.75445 245.262 1.97132C243.924 1.19177 242.737 1.87708 242.625 3.29164C242.538 4.36451 242.46 5.43917 242.27 6.49228C241.438 11.0183 242.157 15.3544 243.751 19.5696C245.245 23.5381 248.342 26.3262 251.4 28.8591C256.241 32.8606 261.543 36.296 266.792 40.0581C266.774 40.1537 266.597 41.0808 266.473 41.7307L264.386 41.2937L263.163 41.0907C257.862 41.0425 254.212 43.8338 251.242 47.8738C250.662 48.6645 250.782 49.4203 251.41 50.0251C252.114 50.6938 252.945 50.644 253.645 49.9454C254.175 49.4223 254.672 48.8633 255.153 48.2912C258.172 44.7064 261.977 43.5687 265.944 45.0764C265.937 46.2437 266.055 47.4248 265.895 48.5729C265.735 49.7706 266.078 50.5389 267.209 50.8136C268.136 51.0296 269.002 50.125 269.129 48.8418C269.226 47.8699 269.208 46.886 269.257 45.806C272.626 46.4472 276.006 47.0806 279.379 47.7523C279.672 47.808 280.1 48.1271 280.147 48.3936C280.661 51.0366 281.341 53.6815 281.516 56.3591C281.649 58.3849 281.107 60.4605 280.872 62.5155C280.76 63.5142 281.335 64.0396 282.188 64.1821C283.051 64.3264 283.793 63.9725 283.967 63.0054C284.533 59.7756 285.321 56.5584 284.652 53.242C284.365 51.8207 284.11 50.3857 283.818 48.8348C289.812 50.2232 295.591 51.5607 301.361 52.8965C301.506 54.5979 301.637 56.2766 301.808 57.9434C301.925 59.0253 302.361 59.9204 303.617 59.793C304.853 59.6717 305.165 58.7506 305.075 57.6341C304.98 56.4375 304.855 55.2451 304.724 53.8238C307.477 54.9815 310.232 55.9713 311.202 58.8893C312.316 62.231 313.134 65.6944 313.834 69.1553C315.023 75.086 315.115 81.125 315.112 87.1556C315.114 89.1467 314.666 91.1412 314.404 93.3394C302.123 92.4084 290.032 92.1274 277.985 90.1218C278.388 88 278.756 86.0694 279.123 84.1388C279.332 83.0397 279.365 81.9961 277.993 81.7052C276.618 81.4239 276.191 82.3825 275.963 83.478C275.584 85.3668 275.235 87.2514 274.866 89.1916C273.819 88.9922 272.79 88.7964 271.761 88.6006C265.871 87.4895 259.962 86.4738 254.386 84.125C253.363 83.6927 252.285 83.4975 251.755 84.7434C251.208 86.0258 251.997 86.7603 253.15 87.1777C253.204 87.1981 253.217 87.3391 253.284 87.5004C252.728 88.3652 252.197 89.304 251.564 90.164C250.847 91.1566 250.723 92.0639 251.767 92.8469C252.582 93.4476 253.584 93.0639 254.328 91.928C255.06 90.8094 255.793 89.6813 256.516 88.5513C259.15 89.2508 261.694 89.9131 264.366 90.6197C264.12 91.91 263.863 93.1088 263.673 94.3107C263.503 95.3578 263.787 96.2833 264.939 96.4433C266.017 96.5889 266.657 95.9482 266.849 94.8359C267.048 93.6854 267.276 92.5403 267.554 91.0781C276.894 93.4894 286.161 94.9461 295.718 95.3389C295.472 96.6292 295.261 97.6387 295.096 98.6571C294.93 99.6852 295.352 100.449 296.352 100.689C297.351 100.938 297.961 100.302 298.228 99.4117C298.497 98.5122 298.6 97.5612 298.85 96.658C298.942 96.3289 299.293 95.8213 299.519 95.8148C301.847 95.8122 304.176 95.9087 306.472 95.9694C306.502 97.8172 306.618 99.3644 306.521 100.901C306.457 102.057 306.727 102.901 307.873 103.149C308.879 103.36 309.605 102.577 309.703 101.19C309.803 99.634 309.789 98.0664 309.831 96.5097C311.429 96.487 312.905 96.4906 314.382 96.4351C316.037 96.3736 317.231 95.4422 317.544 93.7983C317.911 91.8182 318.383 89.7986 318.343 87.8003C318.234 82.6694 317.95 77.5347 317.587 72.4048C317.424 70.1257 316.924 67.8716 316.559 65.5243C316.861 65.6314 317.081 65.7127 317.29 65.7923C319.838 66.7921 322.058 65.9173 324.114 64.4665ZM278.985 31.5343C280.634 30.1646 282.269 28.6635 284.155 27.7449C289.076 25.3735 294.08 23.1766 299.144 21.1297C301.824 20.0453 304.681 19.4204 307.576 18.5453C307.514 21.3362 306.298 23.4618 304.983 25.6973C304.399 25.2197 303.91 24.8097 303.409 24.4075C302.357 23.5635 301.279 23.5266 300.704 24.3878C300.02 25.4163 300.455 26.2617 301.269 26.9712C301.847 27.4774 302.437 27.9759 303.159 28.5986C302.104 29.517 301.214 30.2884 299.91 31.4366C299.526 30.581 299.293 29.9029 298.936 29.3102C298.364 28.3595 297.619 27.6531 296.44 28.3993C295.496 28.9921 295.438 29.8625 296.253 31.0773C296.565 31.5428 296.97 31.9366 297.393 32.4332C295.725 33.2348 294.316 33.9075 292.8 34.6291C292.371 33.6958 292.026 32.8378 291.583 32.0306C291.129 31.1815 290.421 30.8389 289.488 31.3248C288.588 31.7874 288.363 32.5072 288.715 33.4356C288.978 34.1096 289.222 34.78 289.546 35.6439C285.138 36.6075 280.873 37.5388 276.586 38.4857C276.494 36.5567 277.802 32.5076 278.985 31.5343ZM267.318 36.2166C263.668 33.7592 260.053 31.3281 256.308 28.8128C256.927 28.1284 257.41 27.5964 257.892 27.0643C258.569 26.3316 258.615 25.5777 257.948 24.817C257.259 24.0222 256.482 24.0923 255.74 24.7037C255.032 25.2919 254.396 25.9631 253.654 26.6737C252.518 25.4474 251.446 24.3023 250.188 22.9439C250.765 22.6377 251.286 22.4199 251.747 22.1017C252.953 21.2617 253.217 20.4404 252.557 19.5422C251.725 18.4134 250.772 18.7965 249.901 19.4724C249.351 19.8928 248.887 20.4284 248.213 21.0924C247.411 19.5532 246.869 18.4992 246.234 17.2594C247.135 16.9455 247.867 16.6985 248.59 16.4402C249.609 16.0696 250.325 15.4432 250.064 14.2448C249.846 13.2327 248.83 12.8709 247.541 13.2694C246.928 13.4597 246.323 13.6614 245.604 13.8911C245.202 11.3287 244.861 8.90678 245.819 6.28646C248.2 8.16562 250.627 9.79629 252.713 11.7876C256.671 15.5516 260.518 19.4332 264.223 23.4462C265.649 24.9952 266.619 26.9921 267.64 28.8701C268.39 30.2211 268.129 34.4695 267.318 36.2166Z" fill="white"/>
<path d="M256.853 62.2719C259.16 60.0668 259.862 56.9421 260.15 53.7881C260.274 52.3657 259.785 51.4408 258.74 51.331C257.676 51.2177 256.929 52.1648 256.886 53.6224C256.805 56.0532 255.945 58.207 254.505 60.1216C254.23 60.4853 253.695 60.8292 253.27 60.8571C250.423 61.0184 247.583 61.0919 244.679 61.1928C244.661 59.4365 244.649 57.9586 244.643 56.5015C248.827 55.6341 249.85 50.9761 248.388 47.8159C246.873 44.5267 242.748 44.4151 239.91 46.123C236.388 48.2357 236.083 53.6939 239.541 55.4612C241.421 56.4231 241.39 57.6651 241.44 59.1998C241.453 59.7966 241.386 60.4077 241.342 61.3599C238.753 61.1939 236.178 61.1594 233.631 60.8232C230.714 60.4265 230.113 59.6288 229.702 56.6489C229.482 55.0323 229.273 53.4079 228.95 51.8115C228.744 50.7917 227.979 50.2896 226.967 50.5723C225.934 50.861 225.691 51.6764 225.86 52.689C226.019 53.6999 226.107 54.7268 226.248 55.734C226.57 58.0532 226.791 60.3831 228.59 62.1814C229.076 62.6601 229.41 63.5258 229.434 64.2236C229.578 68.4997 230.191 72.6769 231.129 76.8464C231.842 80.0326 233.853 81.5442 236.681 82.4588C240.134 83.5815 243.61 83.3022 247.112 82.7803C250.002 82.34 251.87 80.695 252.584 77.8697C253.457 74.4112 254.278 70.9228 254.887 67.414C255.204 65.5431 255.228 63.8245 256.853 62.2719ZM242.377 53.1982C241.069 53.0286 240.311 52.1317 240.467 50.9531C240.698 49.1748 242.051 48.2834 244.154 48.5352C245.341 48.6719 245.939 49.6375 245.761 51.1387C245.554 52.8423 244.514 53.4763 242.377 53.1982ZM249.394 77.213C248.906 78.6454 247.95 79.3546 246.419 79.5386C243.288 79.9035 240.193 80.4435 237.123 79.156C235.764 78.5903 234.732 77.8987 234.369 76.3143C233.448 72.3658 232.627 68.4066 232.811 64.4604C239.205 64.469 245.421 64.4835 252.06 64.4892C251.476 67.8146 250.926 71.1168 250.302 74.3949C250.128 75.362 249.719 76.2747 249.394 77.213Z" fill="white"/>
<path d="M274.373 56.5348C269.286 52.6449 263.405 55.4377 262.511 60.754C261.551 66.464 260.527 72.1519 259.568 77.8619C259.45 78.5823 259.39 79.4622 259.699 80.046C259.971 80.573 260.832 81.1331 261.363 81.0658C261.894 80.9985 262.675 80.236 262.771 79.6798C263.344 76.3126 263.784 72.9203 264.203 69.5339C264.321 68.6056 264.754 68.3907 265.585 68.44C266.311 68.4792 267.069 68.455 267.776 68.2826C268.638 68.0703 269.23 67.3214 268.878 66.5017C268.635 65.9305 267.842 65.4726 267.201 65.2417C266.587 65.0258 265.845 65.1718 265.038 65.147C265.311 63.7134 265.585 62.4781 265.775 61.2267C266.043 59.4556 267.092 58.4171 268.739 58.0869C270.314 57.7727 271.647 58.373 272.646 59.6524C273.243 60.4197 273.953 60.6936 274.832 60.1874C275.733 59.6657 275.812 58.8389 275.416 57.9911C275.166 57.4581 274.824 56.8881 274.373 56.5348Z" fill="white"/>
<path d="M282.301 80.8517C282.646 84.1261 285.096 86.4641 288.386 86.6942C289.439 86.7657 290.144 86.3455 290.301 85.3157C290.462 84.2667 289.907 83.6362 288.854 83.4656C288.494 83.4069 288.118 83.3255 287.77 83.1999C286.064 82.6077 285.542 81.7557 285.656 79.7174C287.251 80.021 288.751 80.3065 290.252 80.5921C293.668 81.2423 293.949 81.0483 294.549 77.5873C294.568 77.4917 294.584 77.4057 294.602 77.3101C295.177 73.2601 292.117 70.5879 288.236 71.7607C284.399 72.9121 281.87 76.7982 282.301 80.8517ZM290.717 75.0157C291.2 75.4544 291.269 76.3786 291.619 77.3662C289.779 77.016 288.391 76.752 287.014 76.4897C287.421 75.4283 289.931 74.3117 290.717 75.0157Z" fill="white"/>
<path d="M299.585 74.9704C298.378 76.4837 296.984 78.0506 296.391 79.8294C294.704 84.9453 298.491 89.3997 303.914 88.5997C304.991 88.4383 305.792 87.8776 305.591 86.6213C305.4 85.4658 304.578 85.1608 303.513 85.3145C303.241 85.352 302.965 85.4182 302.691 85.4157C301.328 85.3841 300.238 84.8992 299.551 83.4711C301.369 83.0149 303.081 82.6476 304.75 82.1531C305.341 81.9783 305.951 81.5992 306.36 81.1424C307.387 80.0108 307.647 78.6441 307.017 77.2268C306.236 75.4737 304.799 74.497 302.964 74.1677C301.761 73.9683 300.418 73.9307 299.585 74.9704ZM304.121 78.369C304.067 78.547 304.006 78.7136 303.953 78.8916C302.64 79.2656 301.327 79.6397 300.023 80.0155C299.935 79.9097 299.837 79.8117 299.749 79.7059C300.522 78.932 301.187 77.9592 302.107 77.4906C302.52 77.2721 303.429 78.0491 304.121 78.369Z" fill="white"/>
<path d="M272.201 67.9462C271.012 67.8782 270.656 68.7712 270.459 69.7538C270.301 70.5357 270.142 71.3176 269.936 72.0905C269.214 74.8549 268.453 77.6217 267.75 80.3897C267.482 81.438 267.648 82.4697 268.858 82.7397C270.019 83.0102 270.604 82.2995 270.887 81.1748C271.429 78.9904 272.046 76.8299 272.655 74.658C272.723 74.4036 272.871 74.0356 273.048 73.9802C274.07 73.6992 275.108 73.3818 276.14 73.3506C276.397 73.34 276.7 74.3682 276.934 74.9376C277.288 75.7974 277.984 76.306 278.782 75.9629C279.337 75.7218 280.019 74.9108 280.002 74.3827C279.888 71.4889 278.383 69.4793 275.135 70.0001C274.732 70.062 274.332 70.164 273.895 70.2493C273.867 70.0856 273.823 69.9583 273.82 69.8191C273.8 68.7456 273.314 68.0094 272.201 67.9462Z" fill="white"/>
<path d="M292.289 62.2323C292.381 63.2897 292.913 63.9357 293.778 63.8626C294.434 63.8091 295.055 63.1152 295.858 62.5946C295.416 59.7276 295.043 57.1115 294.588 54.5192C294.396 53.423 293.599 52.9346 292.523 53.1952C291.405 53.4677 291.345 54.3972 291.452 55.3286C291.737 57.631 292.092 59.9269 292.289 62.2323Z" fill="white"/>
<path d="M310.527 91.7202C311.844 91.8916 312.335 91.0047 312.552 89.8178C312.517 88.5633 312.523 87.2968 312.429 86.0411C312.349 84.9759 311.668 84.4403 310.638 84.5116C309.518 84.5858 309.217 85.4495 309.192 86.4053C309.154 87.428 309.261 88.4586 309.211 89.489C309.153 90.5673 309.276 91.5614 310.527 91.7202Z" fill="white"/>
<path d="M306.407 71.8022C307.009 71.6693 307.529 71.0948 307.968 70.7921C307.917 69.1583 308.038 67.8542 307.757 66.6617C307.621 66.0912 306.759 65.3823 306.17 65.3396C305.699 65.2994 304.792 66.1073 304.711 66.6366C304.518 67.9071 304.617 69.2333 304.743 70.5249C304.838 71.4145 305.519 71.9996 306.407 71.8022Z" fill="white"/>
<path d="M246.648 67.183C243.468 67.1423 240.284 67.0711 237.101 67.099C236.641 67.1006 236.027 67.4492 235.749 67.8321C234.89 69.0056 235.644 70.1791 237.843 70.5976C240.717 70.5504 244.034 70.5381 247.351 70.4265C248.374 70.3935 249.034 69.3406 248.759 68.4265C248.442 67.366 247.576 67.1912 246.648 67.183Z" fill="white"/>
<path d="M193.437 84.5173C193.741 83.9855 193.656 83.3905 193.029 83.0398C192.463 82.7256 192.005 82.8977 191.642 83.3993C191.397 83.7366 191.185 84.1042 190.905 84.4053C189.964 85.4106 187.989 85.1916 187.05 84.2513C186.137 83.3367 185.066 82.4488 183.897 81.9576C181.916 81.1303 179.724 81.0872 177.667 81.5049C171.611 82.7357 165.58 84.1206 159.543 85.4556C159.449 85.081 159.344 84.658 159.33 84.6036C162.541 82.0039 165.812 79.6201 168.761 76.8867C170.623 75.1567 172.502 73.2622 173.312 70.6715C174.17 67.9149 174.473 65.1173 173.784 62.2593C173.624 61.5931 173.535 60.9091 173.442 60.2326C173.327 59.3371 172.537 58.9437 171.709 59.4845C170.87 60.0343 170.081 60.6809 169.321 61.3457C167.898 62.6001 166.436 63.8257 165.132 65.2043C163.011 67.4482 160.897 69.7163 158.992 72.1376C157.899 73.5213 157.084 75.1822 156.391 76.8253C155.702 78.4548 156.146 80.2057 156.494 81.8777C156.734 83.0438 157.176 84.6859 157.495 85.9352L155.882 86.306C155.564 85.0311 155.153 83.2079 154.789 81.9826C154.309 80.3373 153.871 78.5849 152.503 77.4757C151.12 76.3514 149.615 75.2765 148.004 74.562C145.178 73.3229 142.251 72.3145 139.324 71.3317C137.525 70.7284 135.658 70.3346 133.812 69.8971C132.828 69.6615 131.829 69.4682 130.83 69.3775C129.843 69.2839 129.337 70.0008 129.652 70.8531C129.889 71.4999 130.133 72.1452 130.305 72.8084C131.037 75.662 132.62 77.9885 134.678 80.0101C136.612 81.915 139.161 82.7034 141.618 83.3541C145.506 84.3792 149.509 84.9517 153.57 85.7282C153.585 85.7886 153.732 86.3748 153.834 86.7857L152.504 87.0924L151.739 87.3029C148.645 88.6985 147.274 91.301 146.633 94.4462C146.508 95.0616 146.781 95.4685 147.308 95.6513C147.897 95.8509 148.366 95.5988 148.586 95.0047C148.753 94.5585 148.892 94.1 149.018 93.6385C149.809 90.7444 151.715 89.0613 154.425 88.8721C154.735 89.5523 155.12 90.2071 155.336 90.9172C155.565 91.656 155.97 92.0105 156.701 91.8664C157.298 91.743 157.558 90.9845 157.288 90.2048C157.083 89.614 156.808 89.0471 156.547 88.4062C158.677 87.8741 160.811 87.3343 162.951 86.8188C163.136 86.7726 163.471 86.843 163.57 86.9852C164.578 88.3831 165.684 89.7375 166.505 91.2465C167.126 92.3881 167.368 93.7398 167.784 94.997C167.987 95.6075 168.462 95.7584 168.996 95.6121C169.536 95.4644 169.872 95.0594 169.714 94.4506C169.175 92.4217 168.769 90.3404 167.49 88.593C166.941 87.8441 166.408 87.0787 165.822 86.2557C169.678 85.4527 173.395 84.6779 177.107 83.9046C177.648 84.8543 178.175 85.7948 178.722 86.7173C179.081 87.3146 179.575 87.7177 180.27 87.3063C180.956 86.9039 180.89 86.2848 180.537 85.6603C180.161 84.9904 179.768 84.3311 179.31 83.5402C181.221 83.4738 183.088 83.309 184.435 84.7442C185.98 86.3868 187.385 88.1799 188.722 90.003C191.006 93.1302 192.681 96.6147 194.299 100.12C194.835 101.277 195.11 102.556 195.548 103.904C188.162 106.661 181.06 109.745 173.52 111.815C173.185 110.474 172.88 109.253 172.575 108.033C172.401 107.338 172.14 106.722 171.264 106.922C170.39 107.128 170.4 107.799 170.561 108.497C170.848 109.697 171.152 110.885 171.458 112.112C170.796 112.278 170.146 112.44 169.495 112.603C165.774 113.539 162.067 114.535 158.196 114.668C157.485 114.692 156.807 114.868 156.833 115.734C156.86 116.626 157.515 116.841 158.297 116.774C158.335 116.771 158.38 116.85 158.462 116.926C158.371 117.577 158.315 118.266 158.178 118.935C158.028 119.705 158.2 120.265 159.017 120.44C159.651 120.57 160.131 120.078 160.258 119.218C160.383 118.372 160.506 117.519 160.623 116.668C162.341 116.367 163.997 116.069 165.74 115.762C165.944 116.578 166.116 117.344 166.328 118.093C166.511 118.747 166.924 119.209 167.637 118.992C168.302 118.788 168.502 118.243 168.315 117.545C168.122 116.823 167.947 116.097 167.716 115.172C173.791 114.065 179.567 112.423 185.226 110.084C185.43 110.9 185.578 111.543 185.756 112.18C185.936 112.822 186.386 113.152 187.032 113.023C187.679 112.9 187.863 112.366 187.779 111.777C187.694 111.182 187.498 110.602 187.401 110.01C187.366 109.794 187.434 109.404 187.563 109.34C188.915 108.713 190.294 108.144 191.645 107.562C192.159 108.628 192.642 109.496 192.998 110.415C193.272 111.104 193.655 111.522 194.387 111.358C195.029 111.211 195.24 110.561 194.925 109.728C194.565 108.797 194.136 107.89 193.742 106.974C194.665 106.532 195.523 106.138 196.367 105.709C197.312 105.229 197.756 104.367 197.496 103.327C197.178 102.078 196.91 100.777 196.35 99.627C194.908 96.6745 193.364 93.767 191.775 90.8835C191.069 89.6028 190.173 88.4271 189.33 87.1611C189.535 87.1421 189.684 87.1305 189.827 87.1204C191.576 87.0172 192.632 85.9126 193.437 84.5173ZM158.367 77.5002C158.957 76.2613 159.504 74.9497 160.354 73.9094C162.576 71.2099 164.894 68.5892 167.287 66.0397C168.553 64.6897 170.046 63.5593 171.493 62.2733C172.207 63.9117 172.071 65.4736 171.907 67.1259C171.439 67.0052 171.045 66.8983 170.646 66.7989C169.808 66.591 169.171 66.8592 169.069 67.514C168.947 68.2955 169.427 68.6699 170.091 68.8636C170.563 69.0025 171.039 69.1338 171.626 69.3017C171.26 70.1186 170.95 70.806 170.501 71.8234C170.047 71.4296 169.73 71.098 169.363 70.8493C168.776 70.4505 168.153 70.2402 167.668 70.9904C167.279 71.5884 167.479 72.1098 168.279 72.5969C168.585 72.7835 168.926 72.9038 169.305 73.0786C168.551 73.9924 167.913 74.7618 167.226 75.5883C166.726 75.1611 166.295 74.7552 165.821 74.405C165.329 74.0337 164.826 74.0245 164.414 74.5576C164.015 75.068 164.078 75.5467 164.531 75.9919C164.865 76.313 165.187 76.637 165.608 77.0519C163.305 78.7957 161.077 80.4823 158.84 82.184C158.268 81.0878 157.941 78.3834 158.367 77.5002ZM152.844 83.3546C150.063 82.9066 147.31 82.4648 144.457 82.0091C144.634 81.4451 144.771 81.0063 144.909 80.5674C145.105 79.9597 144.93 79.5094 144.338 79.2464C143.723 78.9697 143.291 79.219 143.024 79.7736C142.77 80.3056 142.581 80.8666 142.341 81.4786C141.352 81.071 140.421 80.6937 139.325 80.242C139.578 79.9092 139.822 79.6428 140.005 79.3339C140.48 78.5218 140.413 77.9737 139.788 77.6291C139.002 77.1964 138.551 77.675 138.226 78.3019C138.019 78.6937 137.894 79.1296 137.68 79.6965C136.801 79.0175 136.202 78.5507 135.501 78.0006C135.94 77.5763 136.299 77.2363 136.65 76.8917C137.143 76.4027 137.39 75.8465 136.917 75.2201C136.518 74.6905 135.83 74.7533 135.189 75.3309C134.883 75.6061 134.586 75.886 134.23 76.2124C133.308 74.8314 132.459 73.5155 132.313 71.7354C134.201 72.1881 136.049 72.4837 137.796 73.0809C141.107 74.2053 144.385 75.4276 147.616 76.7646C148.861 77.2817 149.96 78.1817 151.058 78.9988C151.857 79.5824 152.846 82.1214 152.844 83.3546Z" fill="white"/>
<path d="M153.761 101.306C154.509 99.4053 154.078 97.4009 153.398 95.4909C153.088 94.631 152.555 94.2248 151.919 94.4417C151.27 94.6615 151.09 95.4127 151.457 96.2712C152.062 97.7056 152.141 99.1881 151.818 100.687C151.757 100.973 151.538 101.316 151.298 101.447C149.687 102.305 148.056 103.11 146.396 103.949C145.914 102.933 145.51 102.078 145.115 101.232C147.314 99.6046 146.657 96.6229 144.959 95.1791C143.195 93.6747 140.768 94.7177 139.577 96.4724C138.098 98.6459 139.387 101.9 141.871 101.998C143.222 102.052 143.537 102.782 143.979 103.661C144.147 104.004 144.272 104.377 144.502 104.942C142.952 105.541 141.447 106.213 139.876 106.701C138.075 107.254 137.511 106.952 136.472 105.331C135.91 104.45 135.352 103.563 134.736 102.721C134.342 102.184 133.763 102.098 133.251 102.534C132.728 102.979 132.806 103.518 133.176 104.061C133.54 104.606 133.867 105.179 134.22 105.727C135.029 106.988 135.784 108.283 137.312 108.844C137.723 108.992 138.15 109.405 138.351 109.805C139.583 112.251 141.061 114.513 142.726 116.685C143.996 118.345 145.571 118.683 147.46 118.455C149.768 118.18 151.713 117.084 153.608 115.84C155.169 114.808 155.813 113.351 155.469 111.517C155.047 109.273 154.587 107.025 153.999 104.823C153.681 103.65 153.233 102.645 153.761 101.306ZM142.911 99.9214C142.106 100.174 141.424 99.8564 141.198 99.1296C140.855 98.0342 141.402 97.1529 142.692 96.7343C143.418 96.495 144.025 96.8954 144.325 97.8156C144.662 98.8612 144.228 99.5089 142.911 99.9214ZM153.439 111.992C153.54 112.956 153.175 113.625 152.334 114.143C150.613 115.195 148.96 116.341 146.83 116.417C145.888 116.453 145.103 116.328 144.466 115.505C142.87 113.458 141.33 111.378 140.377 109.035C144.095 107.323 147.711 105.662 151.571 103.882C152.124 105.971 152.692 108.038 153.209 110.111C153.368 110.72 153.376 111.36 153.439 111.992Z" fill="white"/>
<path d="M162.401 93.267C158.4 92.3729 155.733 95.5751 156.641 98.9048C157.616 102.481 158.549 106.061 159.525 109.637C159.65 110.087 159.852 110.615 160.188 110.871C160.487 111.104 161.138 111.198 161.429 111.017C161.72 110.835 161.968 110.182 161.875 109.833C161.303 107.723 160.648 105.633 159.982 103.552C159.802 102.981 159.995 102.74 160.491 102.546C160.924 102.373 161.358 102.156 161.722 101.866C162.166 101.511 162.309 100.917 161.884 100.535C161.59 100.268 161.006 100.215 160.572 100.253C160.157 100.292 159.765 100.576 159.289 100.779C159.063 99.8724 158.89 99.0809 158.664 98.3028C158.345 97.2014 158.675 96.3164 159.544 95.6822C160.375 95.0765 161.311 95.0673 162.234 95.5427C162.787 95.8282 163.274 95.7965 163.649 95.2664C164.032 94.7211 163.856 94.2195 163.398 93.8331C163.11 93.5907 162.758 93.3511 162.401 93.267Z" fill="white"/>
<path d="M173.539 105.269C174.619 107.079 176.67 107.78 178.644 107.03C179.275 106.789 179.572 106.355 179.387 105.714C179.198 105.062 178.707 104.844 178.049 105.028C177.824 105.091 177.584 105.144 177.348 105.165C176.197 105.279 175.665 104.924 175.184 103.709C176.192 103.457 177.141 103.22 178.089 102.983C180.249 102.443 180.361 102.255 179.78 100.082C179.765 100.022 179.751 99.9675 179.736 99.9071C178.983 97.3991 176.486 96.6682 174.546 98.3919C172.626 100.092 172.2 103.029 173.539 105.269ZM176.862 99.6173C177.261 99.7424 177.549 100.261 178.017 100.741C176.854 101.032 175.977 101.251 175.106 101.468C175.057 100.742 176.217 99.4191 176.862 99.6173Z" fill="white"/>
<path d="M182.003 97.2093C181.708 98.4129 181.319 99.6978 181.452 100.891C181.846 104.317 185.243 105.888 188.179 103.967C188.762 103.584 189.077 103.043 188.623 102.367C188.202 101.747 187.642 101.79 187.064 102.166C186.916 102.26 186.773 102.373 186.614 102.445C185.813 102.793 185.049 102.804 184.267 102.158C185.2 101.405 186.097 100.732 186.934 99.9961C187.23 99.7359 187.483 99.3518 187.598 98.9763C187.891 98.0429 187.675 97.1788 186.928 96.5244C186.004 95.7154 184.906 95.5339 183.752 95.8352C182.998 96.0426 182.208 96.3813 182.003 97.2093ZM185.552 97.9661C185.569 98.0839 185.578 98.1971 185.595 98.3149C184.932 98.8849 184.269 99.4549 183.613 100.023C183.534 99.9855 183.45 99.955 183.371 99.917C183.612 99.2597 183.737 98.5159 184.146 97.9964C184.327 97.7585 185.064 97.9661 185.552 97.9661Z" fill="white"/>
<path d="M164.204 100.482C163.494 100.762 163.527 101.376 163.677 102C163.795 102.497 163.912 102.994 164 103.498C164.323 105.299 164.624 107.111 164.959 108.908C165.085 109.589 165.458 110.145 166.234 109.976C166.981 109.822 167.13 109.252 166.992 108.522C166.721 107.107 166.499 105.686 166.27 104.26C166.241 104.094 166.228 103.841 166.316 103.761C166.834 103.323 167.352 102.86 167.944 102.564C168.09 102.489 168.543 103.005 168.831 103.274C169.268 103.678 169.809 103.787 170.181 103.373C170.438 103.084 170.617 102.429 170.466 102.127C169.622 100.476 168.208 99.7123 166.46 100.887C166.243 101.031 166.037 101.198 165.806 101.365C165.746 101.277 165.687 101.215 165.647 101.135C165.347 100.517 164.867 100.22 164.204 100.482Z" fill="white"/>
<path d="M174.342 91.7663C174.68 92.356 175.163 92.5885 175.646 92.3137C176.012 92.1066 176.187 91.5366 176.514 91.0183C175.487 89.471 174.568 88.0507 173.607 86.6666C173.201 86.0811 172.607 86.0113 172.051 86.4519C171.475 86.9104 171.69 87.4666 172.002 87.9793C172.786 89.2406 173.609 90.4794 174.342 91.7663Z" fill="white"/>
<path d="M192.86 104.004C193.672 103.75 193.719 103.103 193.526 102.355C193.169 101.635 192.832 100.898 192.441 100.193C192.108 99.5957 191.568 99.4672 190.989 99.7854C190.358 100.129 190.415 100.712 190.657 101.274C190.91 101.879 191.248 102.449 191.497 103.061C191.752 103.703 192.091 104.248 192.86 104.004Z" fill="white"/>
<path d="M185.117 93.536C185.431 93.2969 185.579 92.8234 185.753 92.5296C185.284 91.5938 185.005 90.8035 184.521 90.1861C184.289 89.8911 183.597 89.7108 183.244 89.844C182.959 89.9473 182.649 90.6603 182.744 90.9896C182.973 91.7798 183.387 92.5237 183.807 93.2405C184.101 93.732 184.654 93.8892 185.117 93.536Z" fill="white"/>
<path d="M149.149 106.901C147.29 107.731 145.421 108.545 143.578 109.416C143.312 109.541 143.048 109.908 142.99 110.205C142.806 111.118 143.559 111.597 144.949 111.25C146.607 110.451 148.531 109.553 150.429 108.597C151.015 108.303 151.115 107.514 150.71 107.057C150.241 106.526 149.69 106.657 149.149 106.901Z" fill="white"/>
<path d="M86.431 77.9986C87.1117 77.6476 87.4266 76.9656 87.0078 76.1722C86.6271 75.4576 86.03 75.3271 85.3087 75.6066C84.8221 75.7937 84.3495 76.035 83.8516 76.1606C82.182 76.5761 80.2589 75.0041 79.9134 73.38C79.5771 71.8003 79.0569 70.1411 78.1649 68.8318C76.6487 66.6175 74.3795 65.0833 71.938 64.1236C64.7491 61.2991 57.4825 58.6537 50.2434 55.9519C50.3998 55.4953 50.5764 54.9799 50.5991 54.9136C55.7333 54.3685 60.7839 54.091 65.7346 53.228C68.8635 52.6789 72.121 51.9681 74.7316 49.8017C77.5045 47.4933 79.7228 44.7646 80.9424 41.2989C81.2272 40.4914 81.5992 39.7138 81.9613 38.941C82.4482 37.923 81.8877 36.9741 80.6514 36.9784C79.398 36.9851 78.1308 37.127 76.8826 37.3083C74.5372 37.6568 72.1707 37.9487 69.8666 38.5088C66.1176 39.4214 62.3584 40.3635 58.7149 41.6084C56.628 42.317 54.6449 43.5054 52.8022 44.7583C50.9717 45.999 50.2475 48.137 49.4764 50.1272C48.9365 51.5138 48.2843 53.5365 47.7694 55.0633L45.8261 54.3565C46.3584 52.8028 47.166 50.6111 47.6176 49.0791C48.2313 47.0267 48.9628 44.8912 48.2822 42.7987C47.5947 40.679 46.7469 38.5292 45.5426 36.685C43.4204 33.4651 41.0356 30.4185 38.6335 27.3989C37.1568 25.5437 35.4662 23.8621 33.8271 22.1488C32.9547 21.2329 32.0382 20.3512 31.0521 19.5774C30.0806 18.8085 29.0633 19.217 28.8139 20.3246C28.6237 21.1645 28.4408 22.0069 28.1706 22.8194C26.9993 26.3099 27.0787 29.8256 27.8637 33.3445C28.5977 36.6566 30.7352 39.2153 32.8703 41.5675C36.2521 45.2847 40.0621 48.6056 43.7935 52.1793C43.7683 52.2529 43.5236 52.9672 43.3521 53.4679L41.7481 52.8856L40.8026 52.5864C36.6098 51.9483 33.4026 53.7458 30.5937 56.6096C30.0443 57.1701 30.0539 57.7823 30.4829 58.3324C30.9647 58.9417 31.6285 58.9963 32.2621 58.5222C32.7409 58.1678 33.1982 57.7815 33.6435 57.3827C36.4406 54.8852 39.5832 54.4149 42.5543 56.0579C42.4167 56.9816 42.376 57.9303 42.1195 58.8216C41.8576 59.7521 42.0421 60.3994 42.9067 60.745C43.6164 61.021 44.4051 60.4025 44.6508 59.4006C44.8376 58.6419 44.9346 57.8606 45.0957 57.0107C47.6914 57.8998 50.2969 58.7841 52.8923 59.6978C53.1177 59.775 53.4207 60.0762 53.4278 60.2926C53.5358 62.4441 53.7749 64.6158 53.6103 66.7563C53.4862 68.3757 52.8222 69.9584 52.4038 71.5594C52.2022 72.3377 52.5979 72.8189 53.2573 73.0283C53.924 73.2402 54.5518 73.0439 54.7993 72.2976C55.613 69.8036 56.6015 67.3448 56.4466 64.6424C56.3803 63.4843 56.3408 62.3189 56.2854 61.0575C60.8757 62.8356 65.3013 64.549 69.7196 66.2599C69.6423 67.6239 69.5555 68.9682 69.5029 70.3077C69.4729 71.1778 69.7169 71.9361 70.7264 71.9774C71.7187 72.0211 72.0703 71.327 72.1248 70.4324C72.1851 69.474 72.2209 68.5154 72.2785 67.375C74.3274 68.6034 76.3974 69.6991 76.8355 72.12C77.3399 74.8928 77.5953 77.7283 77.7584 80.5487C78.0288 85.3805 77.4186 90.1739 76.7332 94.9498C76.5097 96.527 75.9291 98.056 75.4729 99.7674C65.8517 97.6401 56.3067 96.049 46.9923 93.0971C47.5523 91.4623 48.0618 89.9749 48.5713 88.4874C48.8614 87.6406 49.0051 86.8177 47.9512 86.432C46.8947 86.0536 46.448 86.7645 46.1434 87.6064C45.6295 89.0594 45.1398 90.5126 44.6278 92.0074C43.8207 91.7309 43.0282 91.4595 42.2357 91.188C37.6961 89.6413 33.1314 88.1682 28.9804 85.6767C28.2194 85.2185 27.388 84.942 26.8268 85.8687C26.2483 86.8224 26.7902 87.4935 27.6559 87.9546C27.697 87.9769 27.6907 88.0899 27.7256 88.2253C27.1876 88.8473 26.661 89.5309 26.0623 90.1403C25.3821 90.8453 25.1814 91.5499 25.9196 92.2882C26.4968 92.8562 27.3338 92.6657 28.0519 91.8503C28.7575 91.0471 29.4658 90.2365 30.1667 89.4235C32.1739 90.2756 34.1135 91.0881 36.1497 91.9501C35.8092 92.9442 35.4696 93.8646 35.1834 94.795C34.9303 95.6051 35.05 96.3702 35.9449 96.6273C36.7817 96.8646 37.3612 96.4296 37.6393 95.5704C37.9274 94.6818 38.2374 93.8006 38.6233 92.674C45.7473 95.6408 52.9218 97.8433 60.4468 99.2361C60.1063 100.23 59.8244 101.006 59.5788 101.794C59.3308 102.589 59.5784 103.242 60.3438 103.545C61.1066 103.856 61.6619 103.421 61.9742 102.746C62.2891 102.064 62.4781 101.322 62.7784 100.635C62.8885 100.385 63.2238 100.023 63.4037 100.043C65.2477 100.305 67.0809 100.645 68.8927 100.953C68.7071 102.419 68.624 103.658 68.3735 104.864C68.1922 105.773 68.3103 106.471 69.1898 106.797C69.9627 107.078 70.6263 106.541 70.8608 105.453C71.1165 104.232 71.2823 102.989 71.4918 101.761C72.7602 101.924 73.9287 102.093 75.1051 102.217C76.4225 102.355 77.4738 101.753 77.9076 100.486C78.4224 98.9594 79.0252 97.4133 79.2195 95.8261C79.714 91.75 80.07 87.6512 80.3628 83.5471C80.4919 81.7236 80.351 79.8817 80.3276 77.9814C80.555 78.1004 80.7194 78.1896 80.8765 78.2763C82.7812 79.3566 84.6385 78.915 86.431 77.9986ZM54.4153 46.8083C55.8766 45.9101 57.3415 44.9063 58.9393 44.3922C63.1046 43.0709 67.3167 41.8973 71.559 40.8492C73.8046 40.2938 76.1381 40.1222 78.5298 39.7567C78.165 41.9602 76.9612 43.506 75.6665 45.1277C75.2581 44.6834 74.9171 44.3033 74.5663 43.9281C73.8287 43.1406 72.9787 42.9893 72.4262 43.6064C71.7675 44.3434 72.0168 45.0623 72.5808 45.7163C72.9816 46.1827 73.3922 46.6442 73.8939 47.2192C72.9545 47.8271 72.1623 48.3374 70.9996 49.0993C70.7917 48.378 70.6841 47.8146 70.4688 47.3048C70.1233 46.4871 69.6127 45.8432 68.5948 46.3009C67.7801 46.6636 67.6355 47.3463 68.1436 48.4007C68.3383 48.8047 68.6139 49.1624 68.8933 49.6037C67.4813 50.0498 66.2892 50.423 65.0067 50.823C64.7729 50.0353 64.5966 49.3167 64.3372 48.6272C64.0733 47.9033 63.5519 47.5519 62.7576 47.8311C61.9927 48.0957 61.733 48.6402 61.9062 49.4154C62.0381 49.9789 62.1555 50.5375 62.3148 51.2584C58.7147 51.5227 55.2315 51.7777 51.7288 52.0424C51.8739 50.5042 53.3685 47.4453 54.4153 46.8083ZM44.6447 49.1962C42.0327 46.837 39.4447 44.5024 36.7627 42.0863C37.3306 41.6144 37.7731 41.2476 38.2155 40.8808C38.8349 40.3771 38.9564 39.7852 38.5143 39.1072C38.058 38.3997 37.4354 38.3674 36.7784 38.7677C36.1507 39.1533 35.5709 39.6129 34.9032 40.0917C34.1425 38.992 33.4224 37.9637 32.5804 36.7455C33.0717 36.5683 33.5087 36.4547 33.9102 36.2549C34.9606 35.7261 35.2626 35.1055 34.8413 34.3194C34.3105 33.3313 33.5124 33.5268 32.7454 33.9635C32.2627 34.2342 31.8348 34.606 31.2258 35.0556C30.7646 33.7457 30.4541 32.8495 30.0921 31.7958C30.841 31.6491 31.4483 31.5363 32.0509 31.4136C32.8999 31.2354 33.5377 30.8204 33.4667 29.8416C33.4085 29.0154 32.6443 28.6138 31.5788 28.7836C31.0716 28.8649 30.5692 28.9561 29.9742 29.0567C29.9457 26.9818 29.9498 25.025 31.0053 23.0581C32.6779 24.8159 34.4161 26.3821 35.8423 28.1953C38.551 31.6243 41.1589 35.1341 43.6392 38.7317C44.5935 40.12 45.1353 41.8112 45.7317 43.4142C46.1728 44.5691 45.4853 47.9044 44.6447 49.1962Z" fill="white"/>
<path d="M33.4079 68.6483C35.4846 67.1628 36.3945 64.7676 36.979 62.302C37.2382 61.1896 36.9557 60.4017 36.1405 60.1965C35.3107 59.9863 34.6115 60.6519 34.4127 61.8015C34.0733 63.7174 33.1486 65.326 31.7913 66.6794C31.5327 66.9364 31.0702 67.1482 30.7298 67.1221C28.4567 66.9276 26.1991 66.6644 23.8877 66.4157C24.0724 65.0227 24.2301 63.8508 24.39 62.6961C27.8021 62.4826 29.1398 58.9092 28.3397 56.2409C27.5117 53.4643 24.2573 52.909 21.8161 53.9405C18.7879 55.2152 17.9283 59.5036 20.4669 61.2947C21.8472 62.2693 21.682 63.2495 21.5481 64.4706C21.4913 64.9448 21.3687 65.4212 21.2258 66.1704C19.194 65.7459 17.1585 65.4271 15.1793 64.8726C12.9141 64.2283 12.5283 63.5284 12.5402 61.1218C12.5487 59.8165 12.5669 58.5063 12.4925 57.2055C12.4441 56.3744 11.8951 55.8902 11.0615 55.9996C10.2108 56.1113 9.92591 56.7296 9.94521 57.5507C9.95725 58.3694 9.91083 59.1927 9.90832 60.0064C9.90035 61.8796 9.81211 63.7499 11.0336 65.3778C11.3642 65.812 11.5308 66.5354 11.4705 67.0907C11.101 70.4938 11.1138 73.8716 11.3843 77.28C11.5889 79.8842 13.01 81.309 15.1463 82.3534C17.7544 83.6334 20.5388 83.8056 23.3717 83.7887C25.7107 83.7671 27.3763 82.6756 28.2613 80.5187C29.3445 77.8784 30.389 75.2084 31.2686 72.4983C31.7313 71.0524 31.9448 69.6939 33.4079 68.6483ZM22.9693 59.8234C21.9531 59.5411 21.454 58.7449 21.7109 57.8291C22.095 56.4467 23.2673 55.8939 24.9048 56.3314C25.8291 56.5739 26.1938 57.4064 25.8828 58.5752C25.5261 59.9011 24.6308 60.2855 22.9693 59.8234ZM25.8091 79.6376C25.2607 80.7168 24.423 81.1703 23.1894 81.1427C20.669 81.0775 18.1566 81.1548 15.8708 79.7877C14.8584 79.1858 14.1193 78.5213 14.0108 77.2253C13.7285 73.9938 13.5265 70.7652 14.1187 67.6605C19.1816 68.391 24.1035 69.106 29.3607 69.8619C28.5218 72.4296 27.7123 74.9826 26.8472 77.5084C26.5997 78.2546 26.1729 78.9312 25.8091 79.6376Z" fill="white"/>
<path d="M47.9334 66.0871C44.3441 62.4305 39.3706 63.9768 38.0605 68.0862C36.6542 72.5 35.1996 76.8889 33.7933 81.3027C33.6187 81.86 33.4716 82.5501 33.6506 83.0475C33.8058 83.4956 34.4247 84.0367 34.853 84.0435C35.2812 84.0503 35.9859 83.5348 36.1249 83.1052C36.9593 80.5031 37.692 77.8661 38.4076 75.2315C38.6061 74.5097 38.9726 74.3884 39.6256 74.5216C40.1962 74.6347 40.7989 74.7013 41.3788 74.6449C42.0854 74.5743 42.6393 74.0482 42.4529 73.359C42.3248 72.8791 41.7487 72.4267 41.2674 72.1714C40.8055 71.9308 40.2016 71.9626 39.5653 71.8516C39.9437 70.747 40.3007 69.7997 40.5922 68.83C41.0054 67.4576 41.9533 66.7538 43.2951 66.6787C44.5785 66.6082 45.5663 67.2345 46.2122 68.3608C46.5984 69.0361 47.1302 69.3334 47.8834 69.032C48.6561 68.7207 48.8124 68.0749 48.5947 67.3585C48.4565 66.9081 48.2507 66.418 47.9334 66.0871Z" fill="white"/>
<path d="M51.4602 86.2436C51.3628 88.876 53.0382 91.005 55.6185 91.5597C56.4438 91.7354 57.0504 91.4825 57.2912 90.6846C57.5371 89.872 57.1691 89.3099 56.3544 89.0555C56.0756 88.9682 55.7873 88.8612 55.5261 88.7224C54.2419 88.0603 53.9246 87.3264 54.2457 85.725C55.4744 86.1459 56.6305 86.5419 57.7866 86.9379C60.4186 87.8395 60.6635 87.7176 61.5304 85.0444C61.5556 84.9707 61.5783 84.9045 61.6035 84.8308C62.5175 81.6883 60.3959 79.2255 57.1898 79.7152C54.0203 80.1928 51.5774 82.9844 51.4602 86.2436ZM58.7858 82.5739C59.1193 82.9761 59.069 83.7158 59.2343 84.5376C57.8165 84.052 56.7477 83.6859 55.6861 83.3222C56.1289 82.5277 58.2436 81.9274 58.7858 82.5739Z" fill="white"/>
<path d="M65.8146 83.5417C64.6872 84.6036 63.4063 85.6869 62.7355 87.0286C60.8199 90.8895 63.3154 94.8461 67.701 94.8262C68.5723 94.8203 69.2702 94.4669 69.2532 93.4491C69.2329 92.5124 68.6163 92.1778 67.7548 92.1789C67.5358 92.1779 67.3092 92.199 67.093 92.1661C66.0171 91.9868 65.2079 91.4793 64.8258 90.2705C66.3171 90.1149 67.7151 90.0179 69.0926 89.815C69.5802 89.7434 70.1062 89.5122 70.4823 89.1968C71.4238 88.4167 71.7845 87.3637 71.446 86.17C71.0258 84.6931 69.9979 83.7569 68.5823 83.2884C67.6513 82.9942 66.5925 82.8125 65.8146 83.5417ZM69.0225 86.7467C68.96 86.8817 68.8928 87.0068 68.8303 87.1417C67.748 87.2893 66.6657 87.4369 65.5907 87.587C65.5334 87.4933 65.4663 87.4046 65.409 87.3109C66.109 86.7855 66.7452 86.0901 67.5272 85.8232C67.8792 85.6969 68.5105 86.4151 69.0225 86.7467Z" fill="white"/>
<path d="M44.9218 74.8793C43.9871 74.6908 43.6043 75.3578 43.3372 76.1137C43.1231 76.7151 42.909 77.3164 42.6585 77.9053C41.7741 80.013 40.858 82.1182 39.9881 84.2309C39.6572 85.0309 39.6715 85.8668 40.5993 86.2175C41.4883 86.5631 42.0321 86.0665 42.3832 85.2077C43.0603 83.539 43.7932 81.8977 44.5213 80.2465C44.6039 80.0526 44.763 79.778 44.9093 79.7541C45.7502 79.6472 46.6084 79.5133 47.4299 79.6055C47.634 79.626 47.7577 80.4747 47.8784 80.9521C48.062 81.6732 48.5551 82.1548 49.2265 81.9734C49.6929 81.8452 50.3251 81.2801 50.3716 80.86C50.6086 78.5551 49.6443 76.7932 47.013 76.838C46.6868 76.8415 46.3579 76.8769 46.0023 76.895C45.9991 76.7622 45.9784 76.6564 45.9919 76.5459C46.0971 75.6933 45.7957 75.0553 44.9218 74.8793Z" fill="white"/>
<path d="M61.478 72.6272C61.4313 73.4751 61.7797 74.047 62.4728 74.0869C62.9981 74.1188 63.5685 73.6395 64.2635 73.3181C64.2379 70.9973 64.2391 68.8832 64.172 66.7786C64.1437 65.8886 63.5679 65.4116 62.6859 65.4961C61.7698 65.5855 61.6174 66.3149 61.5962 67.0646C61.5617 68.9205 61.5831 70.779 61.478 72.6272Z" fill="white"/>
<path d="M72.5854 98.0461C73.609 98.3309 74.0986 97.6841 74.4041 96.7685C74.5184 95.7709 74.6667 94.7686 74.7348 93.7635C74.7913 92.9107 74.3131 92.4095 73.4888 92.3493C72.594 92.2815 72.2577 92.9314 72.1293 93.6855C71.9833 94.4912 71.9515 95.3195 71.7957 96.1301C71.6273 96.9774 71.6128 97.7788 72.5854 98.0461Z" fill="white"/>
<path d="M71.5765 81.8046C72.0686 81.7674 72.5454 81.3713 72.9274 81.1813C73.072 79.8815 73.3155 78.8623 73.2275 77.886C73.1844 77.4187 72.5816 76.7597 72.1204 76.6593C71.7515 76.5741 70.9419 77.1113 70.8177 77.5213C70.5211 78.5058 70.4499 79.5675 70.4034 80.6046C70.3777 81.3199 70.8506 81.8604 71.5765 81.8046Z" fill="white"/>
<path d="M24.7697 71.3828C22.2556 70.9907 19.7418 70.5739 17.2174 70.2357C16.8529 70.185 16.3272 70.3916 16.0635 70.6633C15.2504 71.4955 15.7152 72.5104 17.4093 73.0907C19.691 73.3786 22.3197 73.7442 24.9592 74.0313C25.7734 74.1209 26.4153 73.3617 26.3003 72.6065C26.1697 71.7308 25.5033 71.4943 24.7697 71.3828Z" fill="white"/>
</svg>
