<svg width="197" height="134" viewBox="0 0 197 134" fill="none" xmlns="http://www.w3.org/2000/svg">
<path d="M189.534 44.5564C190.077 44.2053 190.249 43.6133 189.762 42.9949C189.321 42.4382 188.778 42.3838 188.19 42.6794C187.793 42.8776 187.416 43.1194 186.999 43.2678C185.602 43.7607 183.681 42.6332 183.133 41.3216C182.599 40.0457 181.892 38.7207 180.913 37.7181C179.251 36.0233 177.034 34.958 174.752 34.3831C168.035 32.6916 161.278 31.155 154.535 29.5693C154.603 29.1779 154.679 28.736 154.689 28.6792C159.098 27.769 163.474 27.0875 167.674 25.931C170.328 25.197 173.069 24.3179 175.024 22.2932C177.1 20.1367 178.627 17.6824 179.168 14.7081C179.295 14.0151 179.502 13.3389 179.702 12.6677C179.974 11.7825 179.339 11.0482 178.259 11.1624C177.163 11.2802 176.076 11.5109 175.012 11.7725C173.013 12.2705 170.987 12.7236 169.056 13.3929C165.915 14.4829 162.77 15.5981 159.771 16.9534C158.053 17.726 156.498 18.8859 155.076 20.0866C153.663 21.2761 153.354 23.1084 152.981 24.8228C152.719 26.0173 152.455 27.7479 152.236 29.0562L150.429 28.6458C150.659 27.3137 151.034 25.4296 151.196 24.1227C151.422 22.371 151.738 20.5402 150.825 18.8711C149.903 17.1804 148.835 15.479 147.502 14.0622C145.157 11.5902 142.609 9.2851 140.05 7.00379C138.477 5.60228 136.743 4.36342 135.049 3.09372C134.147 2.41463 133.212 1.76779 132.232 1.21633C131.265 0.667683 130.438 1.09643 130.387 2.03439C130.348 2.74575 130.316 3.45852 130.203 4.15439C129.707 7.14481 130.31 10.0441 131.53 12.8829C132.675 15.5553 134.932 17.4793 137.157 19.2328C140.679 22.0031 144.515 24.4074 148.321 27.0278C148.31 27.091 148.205 27.7033 148.13 28.1327L146.639 27.7948L145.766 27.6321C142.002 27.4798 139.469 29.2529 137.446 31.8718C137.05 32.3843 137.152 32.8895 137.61 33.3059C138.124 33.7665 138.713 33.7522 139.195 33.3036C139.561 32.9678 139.902 32.6074 140.231 32.238C142.299 29.9229 144.977 29.2528 147.825 30.3452C147.845 31.1211 147.953 31.9091 147.864 32.6688C147.776 33.4615 148.035 33.9802 148.844 34.1884C149.507 34.3531 150.103 33.7712 150.166 32.921C150.214 32.277 150.181 31.6224 150.193 30.9054C152.598 31.4081 155.012 31.9059 157.421 32.429C157.629 32.4726 157.94 32.6946 157.979 32.8728C158.4 34.6418 158.938 36.4157 159.119 38.1999C159.256 39.5499 158.915 40.9177 158.792 42.2786C158.733 42.9402 159.153 43.3025 159.761 43.4166C160.377 43.5321 160.896 43.3136 160.999 42.6745C161.333 40.5399 161.825 38.4187 161.28 36.1986C161.046 35.2471 160.835 34.2872 160.595 33.2494C164.88 34.3084 169.011 35.3288 173.136 36.3477C173.275 37.4823 173.403 38.6014 173.56 39.7135C173.666 40.4355 173.994 41.0405 174.883 40.9843C175.758 40.9316 175.96 40.3263 175.872 39.5819C175.78 38.7841 175.666 37.9885 175.543 37.0406C177.522 37.8727 179.499 38.5933 180.249 40.5554C181.111 42.8025 181.764 45.1238 182.334 47.4408C183.304 51.411 183.497 55.4283 183.621 59.4379C183.665 60.7618 183.389 62.0777 183.249 63.5333C174.51 62.6358 165.919 62.1748 157.324 60.5681C157.566 59.1666 157.786 57.8913 158.006 56.616C158.131 55.89 158.132 55.1968 157.152 54.9723C156.17 54.7541 155.887 55.3818 155.749 56.105C155.519 57.3522 155.311 58.5973 155.09 59.8789C154.342 59.7226 153.608 59.5691 152.873 59.4156C148.668 58.5433 144.451 57.734 140.442 56.0458C139.707 55.7352 138.938 55.581 138.587 56.3974C138.226 57.2376 138.802 57.7438 139.629 58.0475C139.668 58.0623 139.68 58.1563 139.731 58.2651C139.355 58.8275 138.998 59.4397 138.566 59.9971C138.078 60.6408 138.009 61.2413 138.767 61.7855C139.358 62.2034 140.062 61.971 140.566 61.2326C141.062 60.5055 141.558 59.772 142.048 59.0371C143.933 59.5619 145.753 60.06 147.665 60.5904C147.518 61.4427 147.36 62.2339 147.251 63.0287C147.152 63.7211 147.373 64.3429 148.195 64.4754C148.963 64.5966 149.404 64.1851 149.517 63.45C149.634 62.6895 149.772 61.9334 149.939 60.9674C156.62 62.7825 163.23 63.9611 170.024 64.439C169.877 65.2913 169.748 65.9577 169.653 66.6312C169.556 67.3109 169.872 67.8282 170.587 68.0104C171.302 68.199 171.722 67.7896 171.893 67.2039C172.065 66.6119 172.117 65.9819 172.276 65.3871C172.334 65.1704 172.573 64.8408 172.733 64.8416C174.386 64.8927 176.041 65.0097 177.673 65.1021C177.733 66.3313 177.848 67.3627 177.812 68.382C177.791 69.1495 178 69.7166 178.819 69.9073C179.538 70.0706 180.037 69.5665 180.077 68.6461C180.115 67.6141 180.072 66.5716 180.069 65.5375C181.203 65.5587 182.251 65.5945 183.299 65.5911C184.472 65.5878 185.301 64.9955 185.488 63.9097C185.707 62.6014 186 61.2693 185.929 59.9398C185.744 56.5258 185.433 53.1055 185.067 49.6864C184.904 48.1674 184.501 46.6573 184.193 45.0884C184.41 45.1664 184.567 45.2255 184.718 45.2831C186.547 46.0057 188.105 45.4744 189.534 44.5564ZM156.798 21.637C157.941 20.7637 159.07 19.8027 160.39 19.2347C163.833 17.7696 167.34 16.4224 170.892 15.1762C172.772 14.516 174.787 14.1654 176.824 13.6491C176.839 15.5034 176.02 16.8891 175.134 18.3456C174.709 18.0148 174.353 17.7311 173.989 17.4523C173.225 16.8673 172.458 16.8184 172.068 17.3779C171.604 18.0462 171.931 18.6182 172.524 19.1083C172.945 19.458 173.374 19.8028 173.9 20.2333C173.171 20.8199 172.555 21.3127 171.653 22.0465C171.362 21.4689 171.183 21.0128 170.917 20.6106C170.491 19.9655 169.946 19.4789 169.125 19.9484C168.468 20.3211 168.445 20.8985 169.049 21.7247C169.281 22.0413 169.576 22.3123 169.887 22.6521C168.72 23.1472 167.734 23.5625 166.672 24.0079C166.348 23.3777 166.085 22.7994 165.754 22.2526C165.413 21.6778 164.904 21.434 164.251 21.7358C163.622 22.023 163.478 22.4965 163.747 23.1218C163.947 23.5758 164.135 24.0271 164.383 24.6089C161.274 25.1496 158.266 25.6721 155.242 26.2044C155.136 24.9198 155.979 22.2573 156.798 21.637ZM148.613 24.4856C145.971 22.7689 143.353 21.0706 140.64 19.3133C141.066 18.8723 141.397 18.5295 141.728 18.1866C142.194 17.7148 142.21 17.2146 141.721 16.6937C141.215 16.1496 140.665 16.1787 140.151 16.5684C139.66 16.9433 139.223 17.3752 138.711 17.8308C137.879 16.9897 137.093 16.2041 136.172 15.2724C136.575 15.0819 136.94 14.9488 137.261 14.7477C138.1 14.2166 138.27 13.6765 137.782 13.0644C137.168 12.295 136.499 12.5281 135.894 12.9577C135.513 13.2247 135.195 13.5704 134.731 13.9966C134.129 12.955 133.721 12.2419 133.245 11.4032C133.878 11.2149 134.392 11.0673 134.9 10.9119C135.616 10.6886 136.111 10.2884 135.9 9.48565C135.724 8.8078 134.995 8.54417 134.089 8.77992C133.657 8.89256 133.232 9.01291 132.726 9.14934C132.387 7.43655 132.094 5.81852 132.719 4.09804C134.448 5.40144 136.206 6.54069 137.729 7.91199C140.618 10.5043 143.432 13.1724 146.147 15.9246C147.192 16.9868 147.923 18.3365 148.688 19.6083C149.249 20.5236 149.153 23.3424 148.613 24.4856Z" fill="white"/>
<path d="M142.098 42.6114C143.695 41.1927 144.129 39.1241 144.267 37.0264C144.325 36.0803 143.957 35.4521 143.211 35.3551C142.45 35.2552 141.938 35.8701 141.938 36.8416C141.932 38.4614 141.365 39.8788 140.38 41.1233C140.192 41.3597 139.818 41.577 139.515 41.5859C137.491 41.6288 135.469 41.6132 133.403 41.6144C133.353 40.4423 133.313 39.456 133.278 38.4838C136.24 38.0003 136.871 34.916 135.762 32.7744C134.613 30.5455 131.673 30.3772 129.687 31.4521C127.223 32.7814 127.121 36.4159 129.622 37.6736C130.981 38.3582 130.986 39.1861 131.054 40.2111C131.076 40.6096 131.041 41.0157 131.03 41.65C129.182 41.4804 127.347 41.3987 125.525 41.1165C123.439 40.7855 122.994 40.2396 122.639 38.2422C122.447 37.1586 122.264 36.0702 122.001 34.9978C121.832 34.3128 121.277 33.9604 120.562 34.126C119.832 34.2951 119.676 34.8335 119.818 35.5129C119.953 36.1909 120.037 36.8781 120.159 37.5533C120.437 39.1078 120.644 40.6672 121.964 41.9079C122.32 42.2383 122.576 42.8235 122.608 43.2896C122.801 46.1457 123.326 48.9465 124.082 51.7495C124.658 53.8914 126.122 54.9456 128.156 55.6201C130.639 56.4477 133.109 56.3404 135.593 56.072C137.643 55.844 138.938 54.789 139.387 52.9203C139.936 50.6329 140.447 48.3242 140.806 45.9972C140.992 44.7563 140.973 43.6102 142.098 42.6114ZM131.594 36.2285C130.659 36.0856 130.1 35.4699 130.186 34.6872C130.313 33.506 131.258 32.9421 132.762 33.158C133.61 33.2761 134.056 33.934 133.961 34.9314C133.85 36.0633 133.123 36.4626 131.594 36.2285ZM137.101 52.4097C136.784 53.3541 136.117 53.8056 135.031 53.8935C132.809 54.0657 130.615 54.3555 128.401 53.4267C127.421 53.0184 126.671 52.5335 126.379 51.4682C125.64 48.813 124.971 46.1529 125.019 43.5244C129.573 43.6756 134.002 43.8267 138.731 43.9816C138.385 46.1869 138.063 48.3774 137.688 50.5502C137.584 51.1915 137.313 51.791 137.101 52.4097Z" fill="white"/>
<path d="M154.027 38.5463C150.247 35.8028 146.035 37.5528 145.5 41.1216C144.925 44.9547 144.304 48.7714 143.73 52.6045C143.66 53.0882 143.636 53.6809 143.873 54.0822C144.082 54.4443 144.72 54.8423 145.104 54.8091C145.488 54.7759 146.039 54.279 146.097 53.9058C146.44 51.6455 146.687 49.3653 146.919 47.0885C146.985 46.4645 147.294 46.3294 147.899 46.3819C148.427 46.425 148.977 46.4261 149.488 46.3261C150.109 46.2026 150.523 45.7106 150.25 45.149C150.06 44.7578 149.474 44.4303 149.004 44.2597C148.553 44.0998 148.018 44.1813 147.431 44.1459C147.598 43.1843 147.771 42.3566 147.881 41.516C148.038 40.3264 148.778 39.6494 149.967 39.4644C151.105 39.2886 152.086 39.7246 152.839 40.6115C153.29 41.1433 153.812 41.3446 154.439 41.023C155.083 40.6915 155.122 40.1352 154.816 39.5536C154.623 39.188 154.363 38.7952 154.027 38.5463Z" fill="white"/>
<path d="M159.517 54.7174C159.833 56.9169 161.634 58.5378 163.992 58.767C164.746 58.8388 165.242 58.5737 165.332 57.8879C165.425 57.1895 165.015 56.7548 164.258 56.6165C163.999 56.569 163.729 56.506 163.478 56.414C162.245 55.9787 161.853 55.3964 161.892 54.0347C163.038 54.2743 164.117 54.4997 165.197 54.7251C167.653 55.2383 167.85 55.1149 168.206 52.812C168.217 52.7484 168.227 52.6912 168.238 52.6276C168.563 49.9299 166.318 48.0714 163.568 48.7679C160.848 49.4509 159.122 51.9944 159.517 54.7174ZM165.41 51.0032C165.766 51.3079 165.834 51.928 166.105 52.5971C164.782 52.3207 163.785 52.1123 162.794 51.9053C163.063 51.2042 164.834 50.514 165.41 51.0032Z" fill="white"/>
<path d="M171.449 50.8982C170.618 51.8843 169.653 52.902 169.267 54.0799C168.168 57.4681 170.973 60.5383 174.838 60.1263C175.605 60.0428 176.167 59.6855 175.996 58.8394C175.835 58.0611 175.24 57.8381 174.481 57.9166C174.287 57.9356 174.091 57.9736 173.895 57.9657C172.919 57.9134 172.128 57.5636 171.606 56.5914C172.897 56.3273 174.115 56.1205 175.299 55.8273C175.718 55.7237 176.147 55.4838 176.43 55.1871C177.141 54.4526 177.298 53.5431 176.817 52.5794C176.221 51.3874 175.171 50.7003 173.851 50.4378C172.985 50.2767 172.024 50.2209 171.449 50.8982ZM174.768 53.2783C174.734 53.3963 174.694 53.5065 174.659 53.6245C173.727 53.8451 172.795 54.0656 171.87 54.2875C171.805 54.2147 171.733 54.1468 171.668 54.0739C172.205 53.5732 172.66 52.9368 173.308 52.6439C173.599 52.5071 174.266 53.0482 174.768 53.2783Z" fill="white"/>
<path d="M152.348 46.1324C151.494 46.0596 151.258 46.6499 151.138 47.3039C151.041 47.8243 150.944 48.3447 150.813 48.858C150.355 50.6941 149.869 52.5309 149.424 54.3698C149.255 55.0662 149.395 55.7614 150.267 55.97C151.105 56.1778 151.509 55.7149 151.687 54.9676C152.03 53.5161 152.425 52.0823 152.815 50.6408C152.859 50.4718 152.957 50.2286 153.082 50.1955C153.808 50.0305 154.545 49.8416 155.284 49.8442C155.467 49.843 155.706 50.539 155.886 50.9259C156.158 51.5102 156.667 51.867 157.232 51.6553C157.624 51.5064 158.095 50.9785 158.072 50.6242C157.929 48.6823 156.808 47.3011 154.493 47.5759C154.206 47.6082 153.921 47.6674 153.61 47.7145C153.586 47.6042 153.552 47.5179 153.547 47.4245C153.509 46.7046 153.146 46.2002 152.348 46.1324Z" fill="white"/>
<path d="M166.586 42.1412C166.675 42.8551 167.073 43.3022 167.696 43.2728C168.168 43.2519 168.601 42.799 169.169 42.4671C168.789 40.527 168.464 38.7574 168.08 37.002C167.918 36.2596 167.332 35.9126 166.561 36.0633C165.76 36.2211 165.737 36.8454 165.834 37.4748C166.089 39.0312 166.395 40.5848 166.586 42.1412Z" fill="white"/>
<path d="M179.306 62.2417C180.261 62.3874 180.596 61.8016 180.727 61.0075C180.675 60.1621 180.652 59.3096 180.558 58.462C180.477 57.7431 179.974 57.3669 179.232 57.3912C178.425 57.4155 178.227 57.99 178.229 58.6329C178.223 59.3206 178.322 60.0168 178.309 60.7094C178.29 61.434 178.4 62.1061 179.306 62.2417Z" fill="white"/>
<path d="M176.438 48.6894C176.869 48.6138 177.23 48.2397 177.54 48.0463C177.468 46.9471 177.528 46.0735 177.3 45.2657C177.19 44.8791 176.554 44.383 176.13 44.3408C175.79 44.303 175.155 44.8251 175.107 45.1789C174.996 46.0284 175.096 46.922 175.214 47.7928C175.301 48.3928 175.803 48.8017 176.438 48.6894Z" fill="white"/>
<path d="M134.754 45.7293C132.527 45.6329 130.297 45.5168 128.07 45.4646C127.748 45.4555 127.326 45.6669 127.139 45.9078C126.562 46.646 127.114 47.4199 128.662 47.7383C130.672 47.7712 132.994 47.8364 135.313 47.8375C136.028 47.8387 136.468 47.1739 136.256 46.578C136.013 45.8868 135.403 45.755 134.754 45.7293Z" fill="white"/>
<path d="M135.304 104.689C135.534 104.328 135.489 103.935 135.053 103.719C134.658 103.526 134.328 103.653 134.057 103.996C133.874 104.226 133.713 104.476 133.507 104.684C132.812 105.377 131.413 105.285 130.77 104.687C130.144 104.105 129.405 103.544 128.587 103.25C127.199 102.755 125.642 102.786 124.169 103.12C119.83 104.102 115.506 105.186 111.179 106.237C111.123 105.991 111.058 105.713 111.05 105.677C113.4 103.864 115.787 102.192 117.955 100.297C119.324 99.0976 120.708 97.7887 121.352 96.0467C122.033 94.1933 122.32 92.3278 121.904 90.4493C121.807 90.0114 121.762 89.5597 121.713 89.1131C121.654 88.5218 121.103 88.2822 120.5 88.6638C119.889 89.0517 119.311 89.5025 118.754 89.9646C117.71 90.8362 116.638 91.6898 115.676 92.6405C114.11 94.1881 112.548 95.7515 111.131 97.4109C110.318 98.3594 109.696 99.4842 109.161 100.594C108.629 101.695 108.899 102.845 109.104 103.945C109.245 104.713 109.517 105.791 109.711 106.612L108.555 106.902C108.361 106.064 108.116 104.865 107.889 104.061C107.59 102.982 107.323 101.831 106.38 101.132C105.425 100.423 104.382 99.7507 103.255 99.3203C101.278 98.5749 99.2225 97.9854 97.1666 97.4129C95.9031 97.0614 94.5858 96.8509 93.2843 96.6109C92.5905 96.4814 91.885 96.3804 91.1772 96.3474C90.4778 96.3122 90.0999 96.8019 90.3015 97.3592C90.4538 97.782 90.6104 98.2038 90.7156 98.6393C91.1626 100.514 92.2281 102.015 93.6394 103.301C94.9654 104.513 96.7573 104.967 98.4878 105.331C101.226 105.906 104.058 106.177 106.925 106.581C106.935 106.621 107.024 107.006 107.086 107.276L106.132 107.516L105.583 107.677C103.347 108.688 102.304 110.453 101.768 112.558C101.663 112.97 101.847 113.233 102.217 113.34C102.63 113.456 102.971 113.276 103.142 112.876C103.272 112.575 103.383 112.267 103.484 111.957C104.122 110.014 105.521 108.845 107.452 108.645C107.655 109.088 107.912 109.512 108.047 109.978C108.191 110.462 108.47 110.686 108.993 110.571C109.421 110.472 109.626 109.962 109.453 109.452C109.323 109.065 109.142 108.696 108.973 108.278C110.501 107.866 112.033 107.45 113.568 107.049C113.701 107.013 113.937 107.051 114.003 107.143C114.684 108.043 115.436 108.912 115.98 109.892C116.393 110.632 116.53 111.523 116.793 112.346C116.922 112.746 117.256 112.833 117.639 112.722C118.027 112.609 118.277 112.331 118.18 111.931C117.849 110.599 117.614 109.228 116.749 108.103C116.378 107.621 116.019 107.127 115.623 106.597C118.386 105.959 121.049 105.343 123.708 104.728C124.069 105.344 124.419 105.954 124.785 106.551C125.024 106.938 125.365 107.192 125.87 106.9C126.368 106.614 126.337 106.205 126.103 105.8C125.852 105.366 125.59 104.939 125.285 104.426C126.645 104.33 127.976 104.169 128.898 105.085C129.954 106.134 130.907 107.286 131.81 108.459C133.353 110.473 134.455 112.741 135.515 115.024C135.866 115.777 136.029 116.619 136.306 117.501C130.982 119.533 125.853 121.775 120.438 123.355C120.235 122.473 120.049 121.671 119.864 120.869C119.758 120.413 119.588 120.012 118.961 120.168C118.334 120.328 118.323 120.774 118.42 121.233C118.593 122.021 118.778 122.802 118.965 123.608C118.489 123.736 118.023 123.862 117.556 123.987C114.886 124.71 112.225 125.473 109.468 125.667C108.963 125.702 108.475 125.837 108.472 126.412C108.468 127.004 108.928 127.128 109.486 127.062C109.513 127.06 109.543 127.111 109.599 127.159C109.518 127.594 109.46 128.052 109.346 128.5C109.219 129.015 109.327 129.383 109.903 129.476C110.351 129.546 110.705 129.206 110.817 128.631C110.928 128.066 111.037 127.497 111.142 126.929C112.372 126.682 113.557 126.439 114.804 126.187C114.928 126.723 115.031 127.227 115.163 127.719C115.276 128.148 115.558 128.443 116.07 128.28C116.548 128.126 116.705 127.759 116.59 127.301C116.471 126.827 116.365 126.349 116.225 125.742C120.573 124.841 124.722 123.593 128.807 121.886C128.931 122.422 129.02 122.845 129.13 123.263C129.241 123.684 129.552 123.891 130.015 123.788C130.479 123.688 130.623 123.329 130.578 122.94C130.533 122.547 130.409 122.168 130.355 121.777C130.336 121.635 130.394 121.375 130.488 121.328C131.465 120.875 132.461 120.46 133.436 120.037C133.774 120.73 134.095 121.293 134.324 121.894C134.501 122.344 134.763 122.61 135.288 122.482C135.748 122.366 135.915 121.929 135.712 121.385C135.481 120.777 135.199 120.186 134.942 119.589C135.61 119.27 136.23 118.985 136.841 118.677C137.526 118.333 137.864 117.748 137.706 117.065C137.511 116.245 137.354 115.389 136.986 114.64C136.037 112.72 135.014 110.832 133.959 108.961C133.489 108.13 132.882 107.374 132.316 106.556C132.462 106.538 132.568 106.526 132.671 106.516C133.917 106.399 134.696 105.637 135.304 104.689ZM110.548 100.988C111 100.149 111.423 99.2638 112.054 98.55C113.703 96.6972 115.419 94.8942 117.186 93.1363C118.122 92.2055 119.212 91.4143 120.274 90.5211C120.739 91.5893 120.603 92.6299 120.443 93.7313C120.114 93.6639 119.836 93.6037 119.555 93.5486C118.965 93.4335 118.505 93.6289 118.415 94.0664C118.309 94.5885 118.641 94.8239 119.107 94.9345C119.439 95.0137 119.775 95.0879 120.188 95.1833C119.906 95.7357 119.668 96.2004 119.322 96.8882C119.01 96.6391 118.793 96.4276 118.539 96.2725C118.131 96.0238 117.694 95.9012 117.33 96.4125C117.038 96.8201 117.166 97.1608 117.723 97.4623C117.936 97.5778 118.175 97.6484 118.44 97.754C117.88 98.3813 117.407 98.9095 116.897 99.4769C116.553 99.2069 116.257 98.9493 115.928 98.7297C115.588 98.4966 115.231 98.5043 114.924 98.8694C114.627 99.2192 114.659 99.5353 114.97 99.8184C115.2 100.022 115.42 100.229 115.708 100.493C114.026 101.713 112.398 102.894 110.764 104.084C110.385 103.372 110.222 101.586 110.548 100.988ZM106.47 105.025C104.505 104.804 102.558 104.586 100.542 104.361C100.681 103.982 100.79 103.687 100.9 103.392C101.055 102.983 100.942 102.689 100.528 102.53C100.098 102.363 99.7843 102.541 99.5801 102.916C99.386 103.276 99.2368 103.654 99.0503 104.067C98.3574 103.823 97.7051 103.598 96.9379 103.328C97.1262 103.1 97.3066 102.917 97.4445 102.707C97.8034 102.155 97.7698 101.792 97.3343 101.581C96.7863 101.315 96.4534 101.645 96.206 102.07C96.0492 102.336 95.9486 102.629 95.7823 103.011C95.1744 102.584 94.7609 102.29 94.2762 101.944C94.5994 101.651 94.8633 101.415 95.1219 101.177C95.4849 100.839 95.6753 100.463 95.3548 100.06C95.0851 99.7192 94.5943 99.7796 94.1231 100.181C93.899 100.372 93.6801 100.566 93.4187 100.792C92.7988 99.9004 92.2293 99.05 92.1708 97.8722C93.5016 98.1212 94.8085 98.267 96.035 98.6158C98.3603 99.2718 100.66 99.9938 102.923 100.793C103.795 101.102 104.553 101.67 105.313 102.182C105.866 102.548 106.504 104.207 106.47 105.025Z" fill="white"/>
<path d="M107.4 116.636C107.983 115.349 107.728 114.025 107.292 112.771C107.093 112.206 106.723 111.95 106.263 112.112C105.795 112.277 105.647 112.782 105.886 113.344C106.281 114.283 106.299 115.269 106.03 116.277C105.978 116.469 105.814 116.704 105.639 116.797C104.467 117.414 103.282 117.995 102.076 118.599C101.758 117.936 101.492 117.376 101.232 116.824C102.843 115.679 102.452 113.71 101.277 112.794C100.057 111.84 98.2977 112.602 97.4025 113.804C96.2907 115.293 97.126 117.426 98.8964 117.423C99.8592 117.422 100.065 117.9 100.358 118.473C100.469 118.698 100.548 118.943 100.698 119.313C99.5767 119.755 98.4848 120.244 97.3513 120.612C96.0512 121.03 95.6568 120.844 94.9573 119.792C94.5788 119.221 94.2037 118.645 93.7859 118.101C93.5185 117.754 93.1072 117.712 92.7304 118.017C92.3458 118.328 92.3873 118.685 92.6375 119.037C92.8833 119.389 93.1019 119.762 93.3392 120.118C93.8844 120.936 94.3893 121.778 95.4657 122.111C95.7552 122.198 96.0489 122.462 96.1822 122.722C96.9984 124.318 97.9948 125.786 99.1266 127.187C99.9904 128.258 101.105 128.441 102.459 128.237C104.114 127.991 105.53 127.207 106.915 126.326C108.056 125.596 108.553 124.607 108.355 123.394C108.112 121.91 107.842 120.425 107.479 118.973C107.282 118.201 106.989 117.543 107.4 116.636ZM99.6927 116.011C99.1114 116.201 98.6332 116.008 98.4907 115.53C98.274 114.81 98.687 114.207 99.6185 113.893C100.143 113.714 100.566 113.964 100.756 114.569C100.97 115.256 100.643 115.7 99.6927 116.011ZM106.894 123.766C106.941 124.406 106.663 124.862 106.05 125.23C104.794 125.979 103.585 126.787 102.063 126.896C101.39 126.946 100.832 126.885 100.399 126.353C99.3133 125.033 98.2678 123.689 97.6483 122.154C100.346 120.911 102.97 119.705 105.771 118.413C106.112 119.79 106.463 121.152 106.779 122.519C106.876 122.92 106.865 123.347 106.894 123.766Z" fill="white"/>
<path d="M113.382 111.35C110.488 110.858 108.458 113.095 109.032 115.32C109.65 117.709 110.235 120.102 110.852 122.491C110.932 122.791 111.065 123.142 111.303 123.306C111.515 123.455 111.988 123.501 112.204 123.37C112.421 123.239 112.62 122.791 112.561 122.558C112.2 121.148 111.777 119.754 111.347 118.367C111.23 117.986 111.377 117.818 111.744 117.673C112.064 117.544 112.386 117.385 112.66 117.179C112.993 116.927 113.113 116.521 112.813 116.275C112.605 116.103 112.181 116.084 111.863 116.121C111.56 116.16 111.267 116.362 110.914 116.512C110.773 115.906 110.668 115.376 110.524 114.857C110.32 114.121 110.585 113.514 111.235 113.062C111.857 112.629 112.539 112.597 113.2 112.893C113.596 113.07 113.952 113.035 114.239 112.667C114.533 112.288 114.418 111.953 114.094 111.705C113.89 111.549 113.64 111.397 113.382 111.35Z" fill="white"/>
<path d="M120.746 119.549C121.472 120.73 122.925 121.143 124.359 120.587C124.818 120.408 125.042 120.11 124.926 119.686C124.808 119.255 124.461 119.123 123.985 119.264C123.822 119.312 123.648 119.355 123.478 119.375C122.651 119.483 122.278 119.26 121.965 118.46C122.694 118.264 123.381 118.079 124.067 117.895C125.629 117.474 125.714 117.345 125.354 115.908C125.345 115.868 125.336 115.832 125.327 115.792C124.852 114.135 123.082 113.715 121.646 114.922C120.225 116.111 119.844 118.088 120.746 119.549ZM123.274 115.677C123.557 115.75 123.75 116.089 124.073 116.397C123.232 116.624 122.598 116.794 121.967 116.964C121.952 116.48 122.817 115.563 123.274 115.677Z" fill="white"/>
<path d="M126.792 114.126C126.549 114.94 126.236 115.811 126.301 116.606C126.494 118.888 128.891 119.847 131.048 118.48C131.476 118.207 131.716 117.836 131.408 117.396C131.122 116.993 130.719 117.037 130.294 117.305C130.186 117.372 130.08 117.451 129.964 117.504C129.381 117.759 128.832 117.787 128.287 117.377C128.977 116.847 129.638 116.371 130.257 115.856C130.477 115.674 130.668 115.409 130.761 115.155C130.995 114.522 130.863 113.949 130.344 113.532C129.701 113.016 128.919 112.925 128.082 113.158C127.536 113.318 126.961 113.566 126.792 114.126ZM129.319 114.535C129.328 114.613 129.331 114.689 129.34 114.767C128.85 115.167 128.36 115.567 127.874 115.966C127.818 115.942 127.759 115.924 127.703 115.901C127.893 115.454 128.002 114.953 128.309 114.594C128.445 114.43 128.968 114.548 129.319 114.535Z" fill="white"/>
<path d="M114.416 116.378C113.899 116.585 113.907 116.996 113.998 117.41C114.07 117.739 114.141 118.069 114.191 118.404C114.377 119.601 114.545 120.807 114.739 122.002C114.812 122.454 115.065 122.816 115.627 122.682C116.167 122.558 116.289 122.172 116.209 121.687C116.051 120.746 115.929 119.801 115.801 118.852C115.785 118.742 115.782 118.572 115.848 118.516C116.231 118.209 116.615 117.884 117.048 117.67C117.155 117.616 117.466 117.949 117.667 118.121C117.97 118.379 118.355 118.437 118.633 118.15C118.826 117.949 118.971 117.506 118.87 117.308C118.307 116.225 117.311 115.752 116.026 116.587C115.866 116.69 115.714 116.808 115.544 116.926C115.503 116.869 115.462 116.829 115.436 116.776C115.236 116.37 114.899 116.184 114.416 116.378Z" fill="white"/>
<path d="M121.378 110.283C121.607 110.671 121.95 110.814 122.307 110.616C122.578 110.466 122.719 110.077 122.969 109.719C122.266 108.706 121.638 107.775 120.979 106.87C120.7 106.487 120.272 106.456 119.858 106.768C119.429 107.093 119.57 107.462 119.782 107.798C120.317 108.626 120.88 109.437 121.378 110.283Z" fill="white"/>
<path d="M134.293 118.602C134.887 118.408 134.939 117.971 134.818 117.473C134.579 116.998 134.354 116.51 134.089 116.047C133.864 115.654 133.477 115.582 133.048 115.813C132.583 116.062 132.609 116.452 132.769 116.824C132.936 117.224 133.167 117.599 133.33 118.004C133.498 118.43 133.729 118.787 134.293 118.602Z" fill="white"/>
<path d="M128.913 111.472C129.146 111.303 129.265 110.98 129.398 110.778C129.084 110.162 128.903 109.639 128.57 109.237C128.41 109.046 127.916 108.944 127.657 109.043C127.449 109.12 127.207 109.608 127.267 109.827C127.411 110.351 127.691 110.84 127.975 111.31C128.174 111.632 128.569 111.722 128.913 111.472Z" fill="white"/>
<path d="M103.962 120.636C102.641 121.219 101.314 121.792 100.003 122.401C99.8136 122.488 99.6203 122.731 99.5716 122.924C99.4198 123.515 99.9347 123.804 100.915 123.543C102.095 122.986 103.463 122.357 104.814 121.692C105.231 121.488 105.321 120.978 105.049 120.695C104.735 120.365 104.347 120.464 103.962 120.636Z" fill="white"/>
<path d="M61.1332 56.7848C61.6062 56.5729 61.8091 56.1294 61.4876 55.5887C61.1954 55.1017 60.7672 54.9962 60.2633 55.1593C59.9233 55.2684 59.5949 55.4139 59.245 55.4818C58.0715 55.7054 56.6576 54.5999 56.3629 53.5093C56.076 52.4485 55.6561 51.3291 54.9827 50.4306C53.8383 48.9108 52.1797 47.8195 50.4161 47.1046C45.2233 45.0007 39.9808 43.0134 34.756 40.9895C34.8533 40.6909 34.963 40.3538 34.9772 40.3104C38.608 40.1095 42.1876 40.0839 45.6784 39.6659C47.8846 39.3993 50.1771 39.0292 51.966 37.671C53.8658 36.2236 55.3589 34.4793 56.1201 32.2136C56.2979 31.6858 56.5386 31.1805 56.7724 30.6781C57.0873 30.0166 56.6604 29.3681 55.7822 29.3321C54.892 29.2972 53.9961 29.3517 53.1148 29.4329C51.4593 29.5908 49.7869 29.7104 48.1671 30.0103C45.5314 30.4991 42.8895 31.0072 40.3389 31.7202C38.8779 32.1256 37.5051 32.8533 36.234 33.6283C34.9713 34.3956 34.5217 35.7942 34.0344 37.0931C33.6929 37.9979 33.2909 39.3221 32.9715 40.321L31.5695 39.7899C31.9005 38.7737 32.4077 37.3421 32.682 36.3378C33.0557 34.9926 33.5105 33.5959 32.9635 32.1834C32.4108 30.7526 31.7433 29.2966 30.8317 28.0327C29.2263 25.8253 27.4397 23.7249 25.6416 21.6418C24.5361 20.362 23.2841 19.1909 22.0677 18.0003C21.4201 17.3639 20.7422 16.749 20.0183 16.2035C19.3048 15.6618 18.5945 15.9014 18.4509 16.6299C18.3413 17.1823 18.2369 17.7365 18.0696 18.2682C17.3435 20.5519 17.5065 22.8917 18.171 25.2558C18.793 27.4808 20.3892 29.2491 21.9774 30.8801C24.4927 33.4577 27.3001 35.7853 30.0595 38.2786C30.0438 38.3267 29.8916 38.7939 29.785 39.1214L28.6278 38.6838L27.947 38.4551C24.9491 37.899 22.7252 38.9932 20.8167 40.8087C20.4433 41.164 20.4688 41.5713 20.7902 41.9505C21.151 42.3708 21.6242 42.4279 22.0599 42.1327C22.3893 41.9122 22.7025 41.6697 23.0067 41.4186C24.918 39.8462 27.1363 39.6324 29.2968 40.8181C29.2271 41.4279 29.227 42.0574 29.0718 42.6418C28.914 43.2522 29.0647 43.6883 29.6894 43.9453C30.202 44.1511 30.7435 43.7647 30.8876 43.1064C30.9973 42.6078 31.0425 42.0914 31.1312 41.5315C33.0022 42.2043 34.88 42.8741 36.7515 43.5632C36.914 43.6216 37.1384 43.8314 37.15 43.9755C37.292 45.4092 37.5278 46.8605 37.4759 48.2784C37.4368 49.3511 37.0132 50.3824 36.7645 51.4336C36.6449 51.9447 36.9406 52.277 37.4155 52.437C37.8955 52.5988 38.3356 52.4881 38.4887 51.9997C38.9911 50.3673 39.6187 48.7637 39.4266 46.9623C39.3443 46.1902 39.2809 45.4142 39.2033 44.5739C42.5182 45.9003 45.7142 47.1786 48.905 48.4551C48.8915 49.3594 48.8706 50.2504 48.8739 51.1393C48.879 51.7168 49.0753 52.2286 49.7937 52.2878C50.5001 52.3481 50.7287 51.8977 50.7403 51.3047C50.754 50.6694 50.7504 50.0332 50.7567 49.2769C52.2495 50.158 53.7533 50.9516 54.138 52.5748C54.5805 54.4341 54.8481 56.3272 55.0496 58.2074C55.3883 61.4281 55.1003 64.5957 54.7583 67.7492C54.6475 68.7907 54.2814 69.7889 54.0092 70.9124C47.1096 69.1955 40.2805 67.8375 33.5739 65.582C33.9221 64.5128 34.2389 63.5399 34.5557 62.567C34.7361 62.0132 34.8132 61.4706 34.0527 61.1811C33.2907 60.8963 32.995 61.3549 32.8042 61.905C32.4831 62.8548 32.1794 63.8055 31.861 64.7832C31.2793 64.574 30.708 64.3686 30.1368 64.1632C26.8649 62.9921 23.5773 61.8691 20.5528 60.0822C19.9983 59.7537 19.3992 59.5437 19.0287 60.1421C18.6467 60.758 19.052 61.2212 19.681 61.5549C19.7109 61.5711 19.7099 61.646 19.7388 61.7371C19.3754 62.1337 19.0221 62.5716 18.6152 62.9579C18.1534 63.4052 18.0322 63.8673 18.5791 64.3814C19.0064 64.7771 19.5952 64.6768 20.0806 64.1573C20.5575 63.6455 21.036 63.1289 21.5093 62.6105C22.9611 63.2401 24.3636 63.8412 25.8364 64.4784C25.6247 65.1286 25.4113 65.7298 25.2362 66.3393C25.081 66.8699 25.1893 67.3823 25.8329 67.5815C26.4345 67.7655 26.833 67.4945 27.0045 66.9321C27.1822 66.3504 27.3757 65.7743 27.6156 65.0375C32.7666 67.2339 37.9303 68.9239 43.3184 70.0865C43.1067 70.7367 42.93 71.2434 42.7794 71.7596C42.6274 72.2806 42.8231 72.7222 43.376 72.9479C43.9274 73.1785 44.3086 72.9067 44.51 72.468C44.713 72.0245 44.8248 71.5374 45.0173 71.0901C45.0879 70.9272 45.3151 70.6969 45.4435 70.7161C46.7614 70.9479 48.0741 71.2316 49.3706 71.4933C49.2833 72.4626 49.2618 73.2835 49.1204 74.0773C49.0192 74.6758 49.1243 75.144 49.759 75.3883C50.3167 75.5996 50.7717 75.2629 50.9053 74.5469C51.0499 73.7435 51.13 72.9222 51.2415 72.1123C52.1476 72.2605 52.9828 72.4102 53.8223 72.5291C54.7624 72.6627 55.4909 72.2952 55.7607 71.4668C56.0801 70.468 56.4613 69.4591 56.5512 68.41C56.7788 65.7157 56.9073 63.0019 56.9907 60.2827C57.0271 59.0745 56.8711 57.8455 56.7968 56.5814C56.9619 56.6676 57.0814 56.7321 57.1957 56.7947C58.5816 57.5728 59.8876 57.3377 61.1332 56.7848ZM37.4422 35.042C38.4531 34.4908 39.4633 33.8695 40.5828 33.578C43.5017 32.8306 46.4584 32.1829 49.4404 31.6195C51.0188 31.3209 52.6713 31.2802 54.3594 31.1125C54.1671 32.5659 53.3588 33.5557 52.4882 34.5931C52.1847 34.2849 51.9309 34.0215 51.6703 33.761C51.1224 33.2143 50.514 33.087 50.1401 33.4798C49.6946 33.9491 49.8935 34.4349 50.3141 34.8874C50.6129 35.21 50.9186 35.5298 51.2925 35.9278C50.6436 36.3025 50.0963 36.6168 49.2934 37.0867C49.1238 36.6007 49.0303 36.2227 48.8619 35.877C48.5916 35.3225 48.2093 34.8784 47.5001 35.1506C46.9323 35.3661 46.8504 35.8155 47.2433 36.5324C47.3939 36.8072 47.6005 37.0536 47.8124 37.3558C46.8228 37.6079 45.9873 37.8186 45.0883 38.0441C44.8983 37.5131 44.7512 37.0298 44.546 36.5633C44.3366 36.0737 43.9555 35.8237 43.3997 35.9843C42.8644 36.1361 42.6964 36.49 42.843 37.0108C42.9538 37.3896 43.0542 37.7646 43.1892 38.249C40.6396 38.3114 38.1729 38.3714 35.6926 38.4372C35.749 37.4191 36.7179 35.4325 37.4422 35.042ZM30.5736 36.3221C28.6464 34.6715 26.737 33.038 24.7584 31.3474C25.1474 31.0515 25.4506 30.8216 25.7538 30.5917C26.1785 30.2763 26.2469 29.8866 25.9123 29.422C25.5666 28.9372 25.1234 28.8962 24.6687 29.1416C24.2346 29.3783 23.8366 29.6656 23.3767 29.9629C22.803 29.2078 22.2602 28.5016 21.6251 27.6652C21.9687 27.5628 22.2757 27.5011 22.5549 27.3809C23.2851 27.0623 23.4807 26.6593 23.1576 26.1234C22.7505 25.4498 22.1894 25.5547 21.6578 25.8209C21.3231 25.9857 21.0304 26.2194 20.6114 26.4991C20.244 25.6138 19.9963 25.0082 19.7071 24.2963C20.2347 24.2224 20.6627 24.1664 21.087 24.1038C21.6848 24.0121 22.1253 23.7562 22.0452 23.1033C21.9787 22.5522 21.4237 22.2611 20.6719 22.3405C20.314 22.3786 19.9599 22.4234 19.5402 22.4716C19.457 21.0913 19.4005 19.7905 20.0907 18.5161C21.3323 19.7373 22.6146 20.8332 23.6828 22.0835C25.7112 24.4484 27.6704 26.8637 29.5416 29.3335C30.2617 30.2865 30.6979 31.4279 31.1703 32.5124C31.5187 33.294 31.1315 35.4898 30.5736 36.3221Z" fill="white"/>
<path d="M23.5659 49.9651C25.0019 49.0391 25.5778 47.469 25.9196 45.8417C26.0706 45.1073 25.845 44.5725 25.2573 44.4097C24.6591 44.2432 24.1807 44.6654 24.074 45.4265C23.8902 46.6947 23.2797 47.7392 22.353 48.5998C22.1763 48.7631 21.8529 48.8899 21.6093 48.8617C19.9822 48.6602 18.3639 48.4132 16.7078 48.1741C16.7971 47.2501 16.8738 46.4728 16.9527 45.7071C19.3798 45.6724 20.225 43.3294 19.573 41.523C18.8978 39.6434 16.5598 39.17 14.8501 39.7814C12.7291 40.5367 12.2467 43.372 14.1119 44.6478C15.126 45.342 15.0381 45.991 14.9798 46.8019C14.9537 47.1167 14.8808 47.4308 14.8018 47.9263C13.3397 47.5788 11.8781 47.3017 10.4496 46.8691C8.81436 46.3675 8.51786 45.8881 8.45305 44.2821C8.41928 43.411 8.39235 42.537 8.29967 41.6664C8.23982 41.1101 7.83348 40.7695 7.24225 40.8162C6.63892 40.864 6.45457 41.2676 6.49337 41.8164C6.5269 42.3632 6.51888 42.9113 6.54189 43.4544C6.59329 44.7045 6.58735 45.9502 7.5082 47.0754C7.75723 47.3756 7.89803 47.8638 7.87199 48.2326C7.71213 50.4925 7.82422 52.7476 8.12097 55.0312C8.34632 56.776 9.40332 57.772 10.9588 58.5366C12.858 59.4734 14.8492 59.6762 16.8692 59.7544C18.5368 59.8139 19.6915 59.1379 20.257 57.7261C20.949 55.9979 21.6127 54.2486 22.1574 52.4674C22.4434 51.5169 22.5543 50.6168 23.5659 49.9651ZM15.8519 43.7447C15.1184 43.5242 14.7382 42.9769 14.8935 42.3738C15.1254 41.4632 15.9447 41.1312 17.1259 41.4749C17.7925 41.666 18.078 42.2332 17.8918 43.0036C17.6778 43.8774 17.051 44.1057 15.8519 43.7447ZM18.4811 57.0605C18.1229 57.7636 17.5392 58.0398 16.6586 57.9825C14.8589 57.8593 13.0693 57.8316 11.3974 56.8468C10.6569 56.4131 10.1095 55.9462 9.99264 55.0777C9.69282 52.9117 9.45034 50.7502 9.77816 48.6965C13.4114 49.344 16.9437 49.9768 20.7164 50.6474C20.1963 52.3348 19.6967 54.0134 19.1566 55.672C19.0028 56.1623 18.7191 56.6005 18.4811 57.0605Z" fill="white"/>
<path d="M33.4009 48.0691C30.6706 45.476 27.0933 46.3643 26.2662 49.107C25.3784 52.0529 24.4546 54.9804 23.5669 57.9262C23.457 58.2983 23.3713 58.7612 23.5172 59.104C23.6443 59.4126 24.1123 59.7992 24.4247 59.8175C24.7371 59.8359 25.2347 59.5091 25.3227 59.2225C25.8499 57.4859 26.3019 55.7225 26.7416 53.9602C26.8638 53.4774 27.1272 53.4069 27.6074 53.5181C28.0268 53.6131 28.4683 53.6776 28.8892 53.6579C29.4021 53.6328 29.7895 53.294 29.6322 52.821C29.5239 52.4917 29.0898 52.1666 28.7311 51.9782C28.3868 51.8004 27.9476 51.8025 27.4803 51.7069C27.7218 50.9705 27.9525 50.34 28.1348 49.6922C28.3933 48.7755 29.0624 48.329 30.0382 48.3211C30.9715 48.3145 31.7111 48.7706 32.217 49.5546C32.5195 50.0246 32.9164 50.2432 33.4561 50.063C34.0097 49.8769 34.1035 49.4443 33.9225 48.9519C33.8078 48.6422 33.6425 48.3034 33.4009 48.0691Z" fill="white"/>
<path d="M35.8231 61.3806C35.8338 63.1417 37.0994 64.6216 38.9651 65.0752C39.5618 65.2192 39.9887 65.0689 40.1368 64.5418C40.288 64.005 40.0072 63.6166 39.4157 63.4203C39.2133 63.353 39.0034 63.2721 38.8121 63.1708C37.8717 62.6864 37.6219 62.1844 37.8029 61.1214C38.6962 61.4424 39.5366 61.7445 40.377 62.0465C42.2904 62.7342 42.4621 62.6603 43.0014 60.8963C43.0172 60.8477 43.0315 60.804 43.0473 60.7555C43.6059 58.6784 42.0104 56.9606 39.7283 57.1871C37.4721 57.4067 35.8072 59.2001 35.8231 61.3806ZM40.9594 59.1536C41.2106 59.4337 41.1972 59.9278 41.3408 60.4838C40.3101 60.1134 39.5331 59.8342 38.7614 59.5568C39.0543 59.0384 40.5511 58.7031 40.9594 59.1536Z" fill="white"/>
<path d="M45.7141 59.7349C44.9381 60.4114 44.0525 61.0974 43.6124 61.9761C42.3568 64.505 44.2679 67.2381 47.4129 67.364C48.0377 67.3876 48.5274 67.1728 48.4841 66.4895C48.4408 65.8606 47.9883 65.6166 47.3704 65.59C47.2133 65.5824 47.0514 65.5893 46.8953 65.5604C46.1181 65.406 45.5222 65.0399 45.2111 64.217C46.2759 64.1599 47.2757 64.1392 48.2575 64.0468C48.605 64.0143 48.9752 63.8759 49.2354 63.6763C49.8867 63.1829 50.1132 62.4881 49.8338 61.6766C49.4871 60.6726 48.7212 60.012 47.6915 59.6529C47.0147 59.426 46.2497 59.2705 45.7141 59.7349ZM48.1132 61.9865C48.0725 62.0751 48.0281 62.1568 47.9875 62.2453C47.2157 62.31 46.4439 62.3747 45.6775 62.4412C45.6335 62.3766 45.5827 62.3149 45.5387 62.2503C46.0246 61.92 46.4597 61.4738 47.0124 61.3196C47.261 61.2461 47.7358 61.7478 48.1132 61.9865Z" fill="white"/>
<path d="M31.1299 53.8545C30.4531 53.6983 30.1988 54.1338 30.0303 54.6327C29.895 55.0295 29.7598 55.4263 29.598 55.8136C29.0278 57.2002 28.4347 58.5841 27.8751 59.9745C27.6621 60.5009 27.6979 61.0624 28.3748 61.3273C29.0235 61.5875 29.3986 61.2715 29.6243 60.7062C30.0592 59.6077 30.535 58.5293 31.007 57.4442C31.0604 57.3167 31.1661 57.1374 31.2704 57.126C31.8708 57.081 32.4827 57.0184 33.0752 57.1063C33.2224 57.1266 33.3372 57.7001 33.4386 58.0244C33.5924 58.5143 33.9612 58.8531 34.4376 58.7527C34.7684 58.6815 35.205 58.3223 35.2254 58.0417C35.3249 56.5023 34.5786 55.289 32.6911 55.2356C32.4571 55.2276 32.222 55.2409 31.9674 55.2417C31.961 55.1525 31.9429 55.0809 31.9492 55.0071C31.9986 54.4382 31.7627 54.0004 31.1299 53.8545Z" fill="white"/>
<path d="M42.9158 52.2137C42.9082 52.7845 43.178 53.1817 43.6809 53.2308C44.0621 53.269 44.4601 52.9637 44.9532 52.769C44.863 51.2017 44.7985 49.7747 44.6848 48.352C44.6369 47.7503 44.2053 47.41 43.5695 47.4389C42.9092 47.4699 42.8215 47.9574 42.8293 48.4628C42.8617 49.7143 42.9346 50.9695 42.9158 52.2137Z" fill="white"/>
<path d="M50.6719 69.5459C51.4217 69.7709 51.7562 69.3499 51.9491 68.7415C52.0009 68.0717 52.0774 67.3998 52.0956 66.7234C52.1101 66.1495 51.7484 65.7959 51.1497 65.7289C50.4998 65.6545 50.2764 66.0825 50.2068 66.5875C50.126 67.1268 50.1286 67.6849 50.0408 68.2272C49.9451 68.7938 49.9594 69.3344 50.6719 69.5459Z" fill="white"/>
<path d="M49.9703 58.4972C50.3241 58.4879 50.6559 58.2363 50.9256 58.1204C50.9899 57.2495 51.1341 56.5708 51.0406 55.9104C50.9951 55.5943 50.5399 55.1312 50.2041 55.0489C49.9353 54.9797 49.3679 55.3158 49.2909 55.588C49.1073 56.2416 49.0886 56.9544 49.087 57.6516C49.0906 58.1325 49.4484 58.5116 49.9703 58.4972Z" fill="white"/>
<path d="M17.2988 51.5741C15.5344 51.2447 13.7694 50.8995 11.9993 50.6045C11.7437 50.5607 11.3833 50.6778 11.2076 50.8448C10.6655 51.3562 11.0197 52.0242 12.2181 52.4498C13.8174 52.705 15.661 53.0208 17.5098 53.2863C18.0801 53.3689 18.505 52.8993 18.4024 52.4092C18.2852 51.841 17.8136 51.6683 17.2988 51.5741Z" fill="white"/>
</svg>
