<svg width="400" height="214" viewBox="0 0 400 214" fill="none" xmlns="http://www.w3.org/2000/svg">
<g clip-path="url(#clip0_316_11)">
<path d="M206.277 201.476C196.668 203.325 186.779 202.808 176.97 201.535C172.5 200.953 168.104 199.407 163.822 197.891C158.451 195.998 153.147 193.866 147.966 191.488C144.705 189.984 141.614 188.008 138.645 185.963C133.549 182.444 128.065 179.238 123.731 174.91C117.422 168.584 111.441 161.734 107.701 153.459C105.686 148.999 104.013 144.299 102.913 139.536C101.727 134.445 101.327 129.154 100.706 123.936C100.231 119.862 99.6871 115.763 99.6273 111.68C99.5529 106.019 99.4595 100.295 100.205 94.7048C101.221 87.0186 102.803 79.381 104.535 71.8118C105.98 65.5078 108.662 59.6274 111.798 53.9524C113.793 50.342 115.455 46.5219 117.5 42.9492C120.127 38.359 123.652 34.6196 128.404 32.0838C134.9 28.6021 141.236 24.8117 147.806 21.485C151.7 19.5193 155.914 18.1817 159.984 16.5665C160.277 16.4525 160.588 16.4018 160.898 16.3404C168.125 15.0688 175.372 13.8714 182.589 12.5242C191.283 10.8903 200.046 9.89448 208.882 9.54762C214.118 9.34128 219.287 10.0757 224.337 11.3407C235.218 14.0565 245.767 17.7797 255.229 23.9008C259.519 26.6777 263.258 30.3032 267.179 33.6314C269.097 35.2626 270.862 37.0669 272.656 38.8454C275.77 41.9474 277.447 45.8139 278.367 50.0289C279.954 57.3178 281.919 64.4817 285.239 71.1877C288.249 77.2535 288.905 83.7834 289.69 90.3738C291.056 101.87 291.537 113.39 290.323 124.864C289.57 132.034 287.937 139.174 286.006 146.132C283.692 154.477 279.974 162.288 275.264 169.633C272.657 173.694 268.917 176.441 265.414 179.487C258.596 185.433 250.803 189.574 242.117 192.128C237.604 193.449 233.293 195.49 228.764 196.681C221.431 198.58 214.225 201.22 206.277 201.476ZM227.969 16.011C227.728 16.3597 227.613 16.7472 227.375 16.8544C225.126 17.788 225.489 19.694 225.566 21.5048C225.589 22.0283 225.612 22.5519 225.603 23.0796C225.58 25.4844 224.484 26.7756 222.096 26.7946C220.169 26.8098 218.164 26.7362 216.334 26.2235C210.091 24.4633 203.862 23.842 197.575 25.8604C193.057 27.3134 188.479 27.776 183.754 27.0068C181.438 26.6329 179.308 27.4745 177.319 28.6383C175.064 29.9565 172.796 31.2545 170.511 32.5107C167.325 34.2656 164.328 34.1429 161.479 31.6543C160.935 31.1751 159.803 30.9793 159.071 31.1713C155.057 32.1872 151.065 33.2989 147.099 34.5171C142.582 35.8932 138.631 34.8281 136.621 31.6074C128.825 35.3863 121.997 40.2156 118.642 48.6494C118.768 48.776 118.839 48.8986 118.918 48.9214C124.542 49.872 129.137 54.1015 135.09 54.0123C135.243 54.0146 135.403 54.0601 135.551 54.107C138.706 55.2954 141.607 57.5801 140.34 61.3171C139.927 62.5541 139.438 63.79 138.793 64.9251C137.244 67.6559 135.792 70.539 132.58 71.7488C129.839 72.778 127.051 73.6926 124.327 74.7744C123.577 75.0784 122.811 75.6914 122.371 76.3726C120.701 79.0092 119.05 81.6216 116.099 83.0723C115.82 83.2065 115.46 83.6473 115.5 83.8726C115.763 85.1661 116.07 86.4541 116.483 87.7176C116.737 88.5079 117.296 89.1935 117.527 89.9756C118.651 93.7259 116.855 96.7515 114.851 99.6062C112.996 102.255 113.26 104.328 115.967 106.045C118.76 107.828 121.522 109.636 124.324 111.407C127.185 113.214 128.848 115.854 129.114 119.144C129.513 124.259 127.785 128.592 123.741 131.958C121.303 133.991 120.986 135.72 122.404 138.501C125.051 143.703 126.568 149.245 127.366 154.99C127.673 157.232 128.3 159.313 129.78 161.032C131.839 163.424 132.024 166.088 131.233 168.996C130.754 170.746 130.346 172.531 130.059 174.323C129.98 174.826 130.282 175.643 130.682 175.943C133.588 178.107 136.506 180.269 139.543 182.251C142.208 183.984 145.028 185.467 147.314 186.8C148.897 185.545 150.01 184.043 151.392 183.703C155.983 182.569 160.628 182.625 165.241 183.989C168.602 184.987 171.988 186.003 175.432 186.618C178.022 187.077 180.811 187.709 183.356 186.518C186.75 184.934 190.286 184.122 193.97 183.872C195.014 183.805 196.098 184.051 197.149 184.213C198.792 184.464 200.416 184.904 202.062 185.002C203.465 185.086 204.892 184.839 206.307 184.68C209.745 184.297 213.35 184.375 216.596 183.348C221.813 181.707 226.835 179.389 231.892 177.264C236.584 175.285 241.531 174.358 246.507 174.613C251.462 174.87 256.409 175.841 260.804 178.582C262.618 176.991 264.257 175.225 266.207 173.924C269.35 171.834 271.418 168.873 273.317 165.801C277.765 158.632 281.052 150.876 283.22 142.769C285.383 134.706 287.056 126.497 287.078 118.06C287.089 113.068 287.087 108.067 287.098 103.076C287.103 102.165 286.731 101.828 285.818 101.462C284.293 100.845 282.799 99.9601 281.554 98.8793C279.434 97.0435 279.414 95.7629 281.048 93.4488C281.235 93.1947 281.406 92.8988 281.659 92.7349C282.999 91.8952 284.368 91.1066 285.875 90.2017C285.375 85.5053 285.308 80.5016 283.125 75.8442C279.314 67.6981 276.416 59.2381 274.602 50.4208C273.67 45.8563 271.278 42.2236 267.831 39.175C265.903 37.4682 264.148 35.5641 262.153 33.9318C258.984 31.3413 255.821 28.7171 252.421 26.4632C244.985 21.5317 236.48 18.886 227.969 16.011ZM126.171 172.46C126.787 170.583 127.563 168.927 127.815 167.205C127.978 166.077 127.497 164.8 127.09 163.667C126.817 162.902 126.177 162.27 125.696 161.586C123.887 159.008 123.997 155.912 123.354 153.011C122.407 148.766 121.431 144.548 119.315 140.671C117.214 136.826 117.232 132.327 121.395 129.12C123.303 127.66 124.427 125.729 125.099 123.428C126.184 119.725 125.062 115.909 121.683 114.08C118.552 112.395 115.62 110.29 112.706 108.237C110.044 106.361 108.684 101.193 111.132 98.5554C112.308 97.2869 113.019 95.5512 113.815 93.9691C114.426 92.7397 114.627 91.3102 113.689 90.2233C111.875 88.1182 111.498 85.6765 111.921 83.144C112.108 82.0343 112.846 80.5144 113.75 80.125C116.377 78.9679 117.772 76.8379 119.093 74.5637C120.091 72.8462 121.444 71.6758 123.377 71.1006C125.478 70.4709 127.554 69.724 129.621 68.9999C131.437 68.3629 133.095 67.5264 134.073 65.7348C134.802 64.4025 135.612 63.1038 136.295 61.7555C137.391 59.5978 136.801 58.3239 134.428 57.683C133.826 57.5184 133.17 57.613 132.562 57.493C130.987 57.1781 129.36 56.9686 127.866 56.4242C125.221 55.4559 122.695 54.1325 120.037 53.2317C116.887 52.1634 116.942 52.3428 115.308 55.2601C112.203 60.8324 109.528 66.6022 108.115 72.8036C106.479 80.0095 105.004 87.2825 103.952 94.6004C103.132 100.298 102.542 106.077 103.371 111.894C103.857 115.276 103.921 118.712 104.342 122.102C105.059 127.988 105.574 133.922 106.783 139.712C107.652 143.868 109.257 147.941 111.044 151.815C113.604 157.368 117.364 162.186 121.37 166.787C122.953 168.625 124.532 170.519 126.171 172.46ZM151.276 188.817C151.528 188.983 151.678 189.128 151.863 189.203C156.538 191.054 161.19 192.973 165.904 194.697C168.848 195.781 171.842 196.99 174.909 197.4C180.887 198.207 186.918 198.82 192.938 198.92C204.922 199.104 216.536 196.561 227.935 193.101C234.236 191.191 240.431 188.877 246.655 186.702C250.465 185.372 253.886 183.313 257.28 181.039C257.033 180.818 256.947 180.664 256.809 180.616C250.134 177.957 243.285 177.458 236.434 179.614C232.618 180.813 229.026 182.73 225.272 184.162C221.081 185.771 216.988 187.718 212.366 187.923C209.587 188.047 206.81 188.367 204.033 188.6C201.127 188.85 198.263 188.831 195.534 187.544C195.172 187.371 194.681 187.302 194.309 187.393C191.523 188.066 188.754 188.792 185.972 189.497C184.357 189.901 182.75 190.544 181.116 190.621C175.587 190.853 170.227 189.825 165.091 187.803C161.329 186.319 157.446 186.649 153.569 186.847C152.471 186.921 151.585 187.451 151.276 188.817ZM140.241 30.5101C140.386 30.7 140.53 30.89 140.677 31.0907C141.972 31.189 143.342 31.6176 144.543 31.3221C148.818 30.2839 153.049 29.0759 157.246 27.7735C159.745 26.9945 161.977 26.9624 163.967 28.9024C165.106 30.0077 166.463 30.3392 167.881 29.6761C169.949 28.6997 172.087 27.7583 173.947 26.4356C177.667 23.8009 181.646 22.9322 186.141 23.4563C188.334 23.7144 190.72 23.7723 192.818 23.198C200.474 21.082 208.069 19.8622 215.884 22.3435C217.745 22.9289 219.749 23.0795 221.891 23.4646C221.892 20.2839 221.336 17.3824 223.617 14.5473C218.864 14.067 214.49 13.2094 210.126 13.2936C204.2 13.4125 198.289 14.2533 192.382 14.7864C190.441 14.9568 188.48 14.9654 186.572 15.3071C178.91 16.689 171.259 18.1573 163.616 19.6026C162.278 19.8607 160.853 19.9436 159.628 20.4835C153.565 23.1424 147.536 25.9065 141.537 28.7218C140.947 28.9944 140.667 29.8965 140.241 30.5101ZM286.699 97.9607C286.526 96.6008 286.389 95.5323 286.2 94.0429C285.248 94.7455 284.525 95.2654 283.543 95.9936C284.782 96.7681 285.651 97.3045 286.699 97.9607Z" fill="white"/>
<path d="M143.748 108.121C143.042 105.074 144.149 102.751 146.298 100.601C149.527 97.3822 153.221 95.4858 157.798 95.1002C161.681 94.7701 165.54 94.1688 169.394 93.612C172.398 93.1855 173.612 90.3218 171.76 88.0899C171.45 87.7236 170.93 87.5156 170.474 87.2886C168.939 86.5189 167.265 85.9425 165.871 84.9794C164.177 83.8133 162.609 83.4647 160.784 84.5417C159.835 85.1013 158.861 85.6311 157.849 86.0343C154.73 87.2762 150.876 85.9356 150.347 83.0745C149.892 80.6209 149.854 77.9166 150.388 75.4796C151.137 72.0718 152.951 69.0988 156.009 67.0311C156.584 66.6398 157.073 65.6563 157.07 64.9437C157.062 62.6416 156.94 60.3099 156.616 58.026C156.117 54.5361 158.063 50.8772 162.512 50.2665C167.361 49.6049 172.269 48.8042 176.656 46.2382C177.635 45.6638 178.999 45.523 180.175 45.5486C183.845 45.6185 187.524 45.7531 191.18 46.0551C196.52 46.4935 201.403 44.9831 206.327 43.1931C212.3 41.0284 218.469 39.9684 224.85 41.6122C227.378 42.2663 229.779 42.1798 232.146 40.5402C233.819 39.3839 235.961 38.9026 237.87 38.0561C239.188 37.4715 240.552 36.9029 241.743 36.104C242.943 35.2821 244.156 34.7328 245.549 35.1695C248.369 36.0496 251.052 36.8923 253.381 39.1622C255.334 41.0739 258.338 41.9307 260.917 43.1596C262.236 43.7921 263.71 44.087 265.012 44.7547C266.441 45.472 267.26 46.7386 267.459 48.3913C267.648 49.9576 267.849 51.5333 268.198 53.0682C268.448 54.1769 268.852 55.2772 269.375 56.2854C271.594 60.5433 273.887 64.77 276.159 69.0102C277.223 70.9915 277.335 72.9075 276.287 75.0043C275.065 77.4631 276.345 79.6801 277.432 81.8448C278.299 83.5661 279.301 85.2372 280.012 87.0331C280.849 89.1309 279.651 91.17 277.455 91.6582C276.388 91.8927 275.276 91.9358 274.221 92.1798C273.721 92.2983 273.014 92.5968 272.896 92.9628C272.715 93.5232 272.722 94.5205 273.079 94.826C275.21 96.6712 276.62 99.3872 279.733 100.076C281.685 100.508 282.926 101.995 283.908 103.679C284.718 105.046 284.529 106.397 283.807 107.706C283.12 108.935 281.994 109.221 280.627 109.329C274.918 109.782 269.594 108.004 264.301 106.386C261.175 105.424 258.775 106.464 256.407 107.929C254.508 109.114 252.846 110.696 251.11 112.124C249.591 113.37 247.791 114.214 245.909 113.894C243.041 113.415 241.816 115.238 240.89 117.177C238.683 121.801 236.63 126.505 234.738 131.276C233.518 134.349 231.585 136.821 229.272 139.057C228.258 140.042 226.497 139.904 225.019 139.062C223.388 138.129 221.72 137.255 219.983 136.533C216.359 135.021 213.892 132.604 213.614 128.527C213.317 124.221 210.943 120.817 208.685 117.463C207.673 115.969 205.727 115.065 204.085 114.057C203.253 113.548 202.315 113.843 201.825 114.816C200.569 117.345 199.346 119.881 198.102 122.42C197.431 123.777 196.784 125.154 196.067 126.496C192.671 132.796 191.759 139.668 191.315 146.678C191.134 149.476 190.623 152.261 190.087 155.028C189.913 155.895 189.342 156.834 188.661 157.425C185.621 160.072 182.608 162.835 178.7 164.167C177.88 164.447 176.708 164.366 175.926 163.994C172.75 162.468 170.635 159.721 168.538 157.027C165.679 153.344 162.818 149.651 160.242 145.778C159.239 144.272 158.877 142.289 158.427 140.482C157.797 137.941 157.367 135.341 156.789 132.783C156.641 132.143 156.33 131.503 155.974 130.945C152.92 126.168 149.685 121.513 146.826 116.624C145.324 114.04 144.485 111.065 143.339 108.272C143.473 108.2 143.61 108.161 143.748 108.121ZM276.718 88.1985C275.762 86.4558 274.927 85.0704 274.218 83.6362C272.67 80.5211 271.029 77.3631 272.812 73.8018C273.483 72.444 273.284 71.3069 272.625 70.0965C270.56 66.2796 268.576 62.4084 266.42 58.647C265.293 56.6848 264.599 54.6783 264.346 52.4401C263.812 47.7263 263.731 47.8682 259.212 46.4697C255.903 45.4544 252.761 43.8476 250.3 41.3972C248.706 39.8126 246.74 39.5256 244.852 38.8228C244.679 38.7571 244.375 38.774 244.258 38.8876C241.496 41.4768 237.528 41.4778 234.503 43.3768C231.813 45.0684 229.18 46.2593 225.966 45.6378C225.359 45.5178 224.743 45.4207 224.128 45.3236C222.381 45.0307 220.608 44.3681 218.894 44.5097C214.249 44.882 209.67 45.5093 205.268 47.441C200.878 49.3822 196.157 50.2689 191.279 49.7605C188.825 49.5138 186.364 49.2131 183.912 49.1526C181.988 49.1125 179.739 48.8397 178.167 49.6651C173.36 52.2078 168.126 52.9404 162.949 53.9509C160.863 54.3592 160.024 55.2558 160.238 57.3673C160.401 58.9916 160.618 60.6092 160.813 62.2294C161.213 65.6225 160.478 68.458 157.515 70.678C153.872 73.4015 153.057 77.333 153.794 81.6483C153.866 82.0449 154.604 82.6748 154.925 82.612C156.179 82.3864 157.492 82.1095 158.587 81.4983C160.901 80.2164 163.229 79.4702 165.761 80.6722C168.212 81.8406 170.655 83.032 172.998 84.3895C175.627 85.9192 176.936 88.966 176.353 91.6177C175.806 94.1223 172.667 96.935 169.973 97.3002C166.061 97.8314 162.149 98.5273 158.224 98.7859C154.038 99.056 150.791 100.852 148.232 103.996C147.635 104.73 147.093 105.984 147.295 106.792C148.019 109.551 148.704 112.436 150.101 114.88C152.908 119.787 156.184 124.425 159.227 129.204C159.721 129.985 160.151 130.863 160.363 131.757C161.031 134.677 161.497 137.645 162.216 140.536C162.592 142.024 163.139 143.566 164 144.817C166.222 148.054 168.606 151.195 171.039 154.285C172.4 156.02 173.91 157.637 175.438 159.219C176.954 160.792 177.591 160.974 179.33 159.82C181.606 158.324 183.733 156.605 185.875 154.917C186.293 154.59 186.643 153.975 186.718 153.45C187.102 150.867 187.472 148.265 187.667 145.663C188.202 138.509 189.081 131.466 192.637 125.046C193.368 123.725 193.99 122.329 194.674 120.981C196.152 118.04 197.451 114.989 199.167 112.193C200.601 109.85 203.936 109.096 206.135 110.615C208.611 112.318 211.21 113.961 212.722 116.795C214.65 120.399 217.024 123.804 217.25 128.074C217.379 130.548 218.788 131.969 220.913 132.905C222.725 133.705 224.479 134.645 226.297 135.411C226.679 135.571 227.467 135.47 227.705 135.188C228.742 133.948 229.867 132.708 230.539 131.273C232.356 127.378 233.849 123.35 235.667 119.466C236.786 117.064 238.194 114.778 239.62 112.546C240.846 110.635 242.67 109.723 245.01 110.192C246.517 110.494 247.803 110.001 248.956 109.075C250.717 107.666 252.382 106.105 254.226 104.828C256.321 103.377 258.641 102.138 261.283 102.317C263.229 102.442 265.148 103.053 267.079 103.41C271.514 104.227 275.772 106.328 280.477 105.4C279.959 103.831 278.467 103.473 277.192 103.021C275.332 102.359 273.86 101.307 272.687 99.7565C272.214 99.1369 271.62 98.6092 271.027 98.0816C269.036 96.3062 268.445 94.0782 269.318 91.5541C269.88 89.9361 270.943 88.9013 272.702 88.6881C273.947 88.5624 275.132 88.4005 276.718 88.1985Z" fill="white"/>
<path d="M261.592 148.452C257.971 149.199 254.954 147.718 254.137 145.179C252.471 140.017 250.813 134.832 249.475 129.585C248.267 124.836 251.156 121.781 255.447 120.357C258.309 119.411 261.408 119.213 264.349 118.466C266.42 117.939 268.387 117.03 270.414 116.333C271.348 116.006 272.31 115.73 273.28 115.508C276.291 114.795 279.422 116.908 280.363 120.254C281.027 122.626 280.821 124.879 279.748 127.132C277.542 131.756 275.03 136.134 271.203 139.649C270.574 140.223 270.099 141.051 269.785 141.859C268.124 146.03 264.59 147.632 261.592 148.452ZM253.012 128.608C253.115 129.066 253.218 129.536 253.342 129.991C254.128 132.973 254.861 135.973 255.74 138.921C256.259 140.664 256.917 142.39 257.727 144.02C257.981 144.547 258.964 145.124 259.49 145.035C261.979 144.608 264.367 143.821 265.8 141.467C266.672 140.051 267.242 138.333 268.409 137.252C272.115 133.819 274.546 129.582 276.617 125.096C276.995 124.28 277.126 123.243 277.066 122.341C276.889 119.742 275.172 118.656 272.754 119.468C271.367 119.941 269.995 120.445 268.588 120.843C266.335 121.492 264.075 122.076 261.802 122.651C259.869 123.139 257.86 123.373 256.02 124.079C254.053 124.812 252.478 126.394 253.012 128.608Z" fill="white"/>
<path d="M200.217 135.926C204.149 135.468 207.547 138.82 206.825 142.706C206.242 145.874 205.462 149.044 204.392 152.087C203.522 154.556 201.563 155.869 198.719 155.573C196.609 155.36 195.149 154.317 195.129 152.181C195.092 148.786 195.394 145.391 195.574 141.99C195.605 141.372 195.822 140.752 195.907 140.127C196.286 137.337 197.387 136.253 200.217 135.926ZM198.347 150.937C198.73 151.36 198.939 151.794 199.171 151.809C199.591 151.832 200.216 151.752 200.421 151.463C200.972 150.713 201.535 149.884 201.774 149.009C202.348 146.885 202.917 144.729 203.133 142.551C203.22 141.685 202.544 140.597 201.931 139.831C201.356 139.104 199.711 139.522 199.598 140.359C199.137 143.883 198.756 147.43 198.347 150.937Z" fill="white"/>
<path d="M149.792 72.1774C149.972 76.4319 147.568 81.3117 142.683 82.3837C139.548 83.0683 137.387 81.0841 137.594 77.8881C137.876 73.476 140.529 70.5496 143.9 68.2667C146.15 66.7407 149.422 69.0219 149.792 72.1774ZM145.603 71.5703C143.115 73.379 141.283 75.433 141.25 78.7933C143.234 78.6174 144.567 77.6359 145.217 76.0286C145.75 74.6994 146.883 73.2718 145.603 71.5703Z" fill="white"/>
</g>
<path d="M381.519 124.581C381.396 123.91 381.235 123.268 381.163 122.608C381.001 121.078 380.988 119.518 380.725 118.01C380.114 114.504 379.353 111.03 378.731 107.527C378.431 105.827 378.266 104.098 378.11 102.372C377.996 101.115 378.095 99.8285 377.928 98.5843C377.654 96.5452 377.246 94.53 376.865 92.5117C376.833 92.341 376.612 92.1476 376.42 92.0873C375.26 91.7215 374.345 91.0997 373.729 90.1648C373.318 89.5385 373.217 88.8147 373.495 88.1069C374.027 86.7555 374.301 83.5482 375.843 82.9891C376.044 82.9149 376.268 82.8417 376.474 82.8377C378.662 82.8068 381.869 86.4514 381.499 88.9792C381.325 90.1735 380.661 91.1301 379.464 91.7893C379.136 91.9702 378.615 92.0556 378.487 92.2968C378.33 92.5945 378.475 93.0079 378.518 93.3659C378.559 93.7064 378.646 94.0381 378.701 94.3771C379.003 96.2384 379.371 98.0886 379.575 99.9649C379.716 101.27 379.461 102.646 379.674 103.93C380.331 107.913 381.109 111.871 381.877 115.832C382.199 117.493 382.598 119.126 382.567 120.862C382.546 122.053 382.841 123.226 383.008 124.533C382.081 125.726 381.519 124.581 381.519 124.581ZM374.808 88.5953C374.934 88.9366 374.989 89.3215 375.198 89.6142C375.673 90.2838 376.414 90.6783 377.287 90.8702C378.037 91.035 378.743 90.7866 379.275 90.2967C380.39 89.264 379.897 87.0241 378.928 85.3948C378.625 84.8856 376.975 84.156 376.369 84.275C375.211 84.4983 375.243 87.5121 374.808 88.5953Z" fill="white"/>
<path d="M356.856 118.503C354.686 118.835 352.499 118.9 350.259 119.088C350.16 119.933 350.093 120.826 349.945 121.715C349.484 124.465 349.051 127.215 348.481 129.959C348.241 131.118 347.628 132.248 347.292 133.407C346.542 136.001 345.85 138.602 345.167 141.203C345.127 141.353 345.308 141.624 345.473 141.693C346.662 142.179 347.877 142.626 349.171 143.118C349.911 142.109 350.72 141.119 351.395 140.07C354.673 134.964 357.863 129.816 360.639 124.514C361.534 122.806 362.002 120.951 362.684 119.165C362.961 118.438 363.289 117.722 363.575 117.039C361.195 117.571 359.034 118.17 356.856 118.503ZM364.259 119.354C364.142 119.748 364.015 120.14 363.907 120.534C363.044 123.65 361.388 126.538 359.701 129.399C357.392 133.311 354.976 137.179 352.562 141.047C351.994 141.957 351.262 142.797 350.586 143.656C350.342 143.965 350.33 144.174 350.625 144.413C350.906 144.639 351.094 144.953 351.362 145.191C351.506 145.316 351.734 145.445 351.928 145.429C356.171 145.108 360.342 145.619 364.606 145.005C365.054 144.939 365.498 144.867 366.078 144.778C366.404 136.145 365.799 127.688 364.259 119.354ZM338.68 141.333C340.349 141.204 341.919 141.08 343.553 140.952C343.738 140.166 343.907 139.228 344.185 138.304C344.829 136.137 345.558 133.981 346.184 131.814C346.751 129.859 347.345 127.897 347.72 125.926C348.12 123.823 348.273 121.705 348.555 119.595C348.611 119.162 348.496 119.01 347.99 118.909C345.926 118.503 343.895 118.013 342.069 117.098C341.138 116.631 340.163 116.228 339.02 115.71C338.986 124.386 339.467 132.831 338.68 141.333ZM330.363 144.428C331.445 144.555 332.32 144.287 333.243 143.716C334.452 142.971 335.721 142.315 337.045 141.576C337.636 134.061 337.501 126.445 337.342 118.687C336.281 120.106 335.66 121.524 335.087 122.948C334.644 124.045 334.357 125.182 333.86 126.263C332.972 128.192 331.874 130.062 331.061 132.008C330.054 134.416 328.336 136.482 326.86 138.663C325.743 140.312 324.56 141.929 323.409 143.559C323.432 143.644 323.459 143.728 323.483 143.814C325.777 144.01 328.086 144.157 330.363 144.428ZM325.679 151.106C325.108 150.65 326.538 149.543 326.661 149.412C327.769 148.247 328.848 147.063 329.938 145.877C329.504 145.851 328.949 145.846 328.411 145.779C326.411 145.532 324.4 145.308 322.423 144.983C321.306 144.799 321.16 144.253 321.816 143.303C324.062 140.047 326.353 136.81 328.546 133.529C329.202 132.546 329.589 131.435 330.101 130.385C330.21 130.163 330.298 129.931 330.435 129.72C331.951 127.42 332.602 124.897 333.598 122.46C334.116 121.188 334.86 119.968 335.484 118.72C336.097 117.495 336.692 116.264 337.218 115.192C335.529 113.926 333.971 112.727 332.372 111.57C330.763 110.408 329.797 108.783 328.738 107.243C327.211 105.023 325.83 102.712 324.387 100.44C324.288 100.281 324.19 100.12 324.096 99.9569C323.849 99.5228 323.845 99.0852 324.414 98.7833C324.953 98.4984 325.316 98.7444 325.566 99.1356C326.453 100.527 327.319 101.929 328.225 103.305C329.432 105.135 330.6 106.991 331.912 108.751C333.209 110.496 335.064 111.763 336.961 112.948C338.092 113.654 339.391 114.162 340.631 114.734C341.871 115.306 343.09 115.92 344.395 116.378C345.76 116.86 347.214 117.177 348.772 117.605C349.129 115.399 349.11 116.792 349.457 114.644C347.772 114.387 346.296 113.644 345.007 112.67C342.815 111.013 340.607 109.349 339.13 107.083C338.281 105.78 337.464 104.442 336.821 103.034C335.982 101.195 336.491 99.3699 337.85 97.5686C338.766 96.3523 339.93 95.4337 341.28 94.7122C343.498 93.5277 345.792 92.4717 347.99 91.2579C350.399 89.9287 353.084 88.9174 354.976 86.9255C356.091 85.753 356.888 84.3343 357.765 82.9953C358.122 82.4477 358.316 81.8208 358.579 81.2298C358.781 80.7771 359.123 80.5216 359.646 80.6247C360.178 80.7303 360.308 81.0849 360.12 81.5477C358.734 84.9674 356.87 88.1088 353.126 90.0711C349.991 91.7119 346.795 93.2437 343.687 94.9307C341.701 96.0091 339.716 97.1312 338.609 99.1587C338.14 100.018 338.042 100.803 338.159 101.645C338.382 103.253 339.342 104.518 340.235 105.797C342.21 108.624 344.892 110.821 348.007 112.614C348.175 112.709 348.364 112.791 348.559 112.843C348.995 112.96 349.44 113.053 349.904 113.161C350.237 112.042 350.558 110.956 350.914 109.757C350.745 109.658 350.481 109.481 350.191 109.344C348.252 108.453 347.233 105.068 347.838 103.41C348.315 102.102 349.077 100.952 350.312 100.072C350.67 99.8161 351.118 99.6283 351.548 99.5079C352.428 99.2612 353.314 99.0397 354.208 98.8847C355.901 98.5919 357.409 98.9141 358.393 100.056C359.151 100.935 359.723 101.967 360.237 102.999C360.886 104.305 360.437 105.575 359.351 106.779C358.046 108.228 356.561 109.321 354.487 109.557C353.889 109.626 353.246 109.812 352.723 110.102C352.413 110.274 352.22 110.747 352.11 111.106C351.869 111.899 351.716 112.707 351.524 113.533C352.966 113.832 354.371 114.122 355.914 113.801C356.5 113.679 357.096 113.612 357.686 113.547C359.202 113.383 360.663 113.19 362.126 112.471C364.26 111.427 366.424 110.467 368.42 109.165C369.902 108.199 370.665 106.915 371.136 105.46C371.326 104.873 371.424 104.271 371.565 103.678C372.077 101.534 371.195 99.8474 369.979 98.2734C369.609 97.7927 369.157 97.3594 368.841 96.8489C368.109 95.6686 367.442 94.4501 366.74 93.2503C366.479 92.8003 366.224 92.346 365.924 91.9188C365.421 91.2021 364.851 90.5261 364.371 89.7958C363.053 87.8007 362.772 85.5169 363.046 83.1191C363.108 82.5651 363.38 81.9766 363.697 81.4662C363.828 81.2536 364.37 81.0713 364.665 81.1072C365.085 81.1552 365.311 81.5187 365.097 81.9327C364.293 83.4979 364.612 84.9727 364.841 86.4866C365.074 88.0165 366.001 89.1725 366.799 90.4106C367.552 91.58 368.29 92.762 369.038 93.9355C369.598 94.8093 370.111 95.7154 370.739 96.5435C371.687 97.7962 372.721 98.9938 373.101 100.548C373.228 101.068 373.369 101.606 373.345 102.146C373.254 104.009 372.842 105.838 371.883 107.62C370.997 109.264 369.49 110.333 367.848 111.209C365.631 112.391 363.324 113.423 361.052 114.509C360.861 114.601 360.635 114.639 360.426 114.668C358.461 114.927 356.491 115.253 354.528 115.402C353.552 115.476 352.587 115.225 351.618 115.121C351.458 115.104 351.304 115.077 351.015 115.034C350.703 117.034 350.757 115.513 350.439 117.557C351.972 117.457 353.46 117.319 354.941 117.269C358.539 117.145 361.929 115.876 365.325 114.741C368.021 113.841 370.71 112.86 373.314 111.722C375.124 110.929 376.79 109.802 378.519 108.825C378.708 108.717 378.906 108.519 379.082 108.515C379.403 108.512 379.813 108.543 379.989 108.722C380.13 108.865 380.092 109.33 379.929 109.504C379.583 109.872 379.127 110.182 378.674 110.444C377.161 111.316 375.668 112.235 374.094 112.984C372.483 113.75 370.787 114.353 369.116 114.99C367.901 115.454 366.661 115.854 365.401 116.295C365.662 117.546 365.997 118.778 366.173 120.046C366.798 124.566 367.535 129.068 367.662 133.681C367.713 135.554 367.898 137.412 367.887 139.289C367.875 141.15 367.716 143.028 367.574 144.902C367.522 145.572 366.902 146.152 366.137 146.239C364.362 146.446 362.579 146.676 360.811 146.748C358.286 146.854 355.772 146.827 353.252 146.859C353.092 146.862 352.931 146.882 352.735 146.894C356.01 153.451 354.59 156.496 354.814 159.92C354.686 160.798 353.417 160.508 353.248 159.12C353.079 157.732 353.93 153.566 351.717 149.167C351.523 148.782 351.483 148.324 351.299 147.933C351.032 147.373 350.741 146.89 349.865 146.856C346.704 146.726 343.561 146.49 340.403 146.342C337.85 146.225 335.285 146.19 332.729 146.092C332.311 146.077 332.042 146.165 331.722 146.465C330.623 147.497 329.479 148.489 328.355 149.498C328.38 149.573 326.253 151.562 325.679 151.106ZM355.614 100.357C355.139 100.307 354.639 100.309 354.153 100.378C353.614 100.453 353.083 100.639 352.547 100.765C350.64 101.218 349.148 102.885 349.313 104.598C349.461 106.145 349.984 107.558 351.623 108.31C352.31 108.624 352.96 108.696 353.763 108.307C354.308 108.041 354.963 108.008 355.554 107.814C357.125 107.301 358.147 106.184 358.743 104.898C358.998 104.351 358.56 103.59 358.393 102.94C358.334 102.706 358.145 102.508 358.068 102.385C357.489 101.38 356.916 100.496 355.614 100.357ZM349.065 145.114C348.446 144.725 347.983 144.341 347.432 144.104C346.415 143.671 345.339 143.342 344.303 142.935C343.007 142.428 341.621 142.466 340.179 142.659C338.14 142.93 336.332 143.51 334.705 144.664C339.424 144.815 344.146 144.962 349.065 145.114Z" fill="white"/>
<path d="M357.777 87.5876C357.586 87.9673 357.372 88.2967 357.254 88.6422C356.736 90.1863 356.227 91.7361 355.752 93.2882C355.613 93.7469 355.61 94.2282 355.522 94.6974C355.439 95.1393 355.36 95.5854 355.216 96.0169C355.09 96.4054 355.087 96.7413 355.479 96.9015C355.905 97.0781 356.376 96.9524 356.585 96.5355C356.829 96.0442 357.055 95.4902 357.053 94.99C357.045 93.803 357.59 92.7153 357.958 91.592C358.326 90.4663 358.658 89.3316 358.95 88.1962C358.996 88.0194 358.8 87.7321 358.615 87.6313C358.434 87.5289 358.127 87.5978 357.777 87.5876Z" fill="white"/>
<path d="M368.589 103.622C368.656 103.362 368.858 103.02 368.787 102.758C368.678 102.349 368.232 102.254 367.762 102.39C366.701 102.696 365.647 103.033 364.586 103.345C363.986 103.521 363.385 103.693 362.776 103.822C362.171 103.952 361.93 104.321 361.992 104.775C362.057 105.25 362.533 105.379 363.009 105.256C364.124 104.97 365.228 104.621 366.335 104.297C367.029 104.091 367.717 103.883 368.589 103.622Z" fill="white"/>
<path d="M340.81 101.773C341.531 102.111 342.147 102.478 342.835 102.702C343.571 102.941 344.363 103.084 345.153 103.192C345.616 103.254 345.948 102.947 346.048 102.519C346.147 102.085 345.921 101.833 345.486 101.704C344.391 101.375 343.299 101.037 342.22 100.676C341.726 100.509 341.275 100.482 340.96 100.987C340.832 101.192 340.862 101.471 340.81 101.773Z" fill="white"/>
<path d="M362.924 99.2918C363.626 98.8086 364.333 98.3329 365.027 97.8413C365.446 97.5421 365.62 97.147 365.322 96.7899C365.022 96.4321 364.6 96.4101 364.104 96.7467C363.243 97.3326 362.354 97.8806 361.463 98.4278C360.989 98.7188 360.669 99.0546 360.882 99.5427C361.062 99.9566 361.555 99.9774 362.203 99.6352C362.437 99.512 362.663 99.3805 362.89 99.2523C362.903 99.2649 362.913 99.2767 362.924 99.2918Z" fill="white"/>
<path d="M347.282 96.1693C347.562 96.6274 347.831 97.094 348.127 97.5452C348.37 97.9181 348.782 97.9856 349.217 97.7594C349.632 97.5418 349.776 97.1554 349.58 96.8088C349.116 95.9811 348.637 95.155 348.069 94.39C347.944 94.2215 347.389 94.1955 347.097 94.2974C346.671 94.4467 346.524 94.8322 346.706 95.213C346.867 95.5487 347.047 95.8757 347.217 96.2054C347.239 96.1916 347.26 96.1805 347.282 96.1693Z" fill="white"/>
<path d="M14.2844 87.0246C14.2844 87.0246 13.7258 85.6419 12.6036 86.7502C12.3421 87.0089 11.6724 87.4941 11.0412 87.9795C10.9781 87.3644 10.9177 86.7487 10.8573 86.133C10.9483 86.0944 11.0459 86.049 11.154 85.9904C12.0554 85.2912 13.1291 84.152 13.7564 83.2229C13.6226 81.9339 12.6661 82.5377 12.6661 82.5377C12.1801 83.2392 11.4532 83.9919 10.709 84.6467C10.7013 84.5605 10.6909 84.4749 10.6842 84.3912C10.5993 83.5392 10.5888 82.6879 10.5509 81.9603C9.06007 80.1388 9.27706 83.1393 9.27706 83.1393C9.30392 83.419 9.33632 83.6976 9.36873 83.9762C9.31164 83.9197 9.259 83.8677 9.19745 83.8067C8.60764 83.2293 7.96319 82.7019 7.35581 82.1612C7.35581 82.1612 6.46442 82.5399 6.65176 83.0463C6.83909 83.5527 6.98772 83.4552 7.15561 83.6145C7.76312 84.1826 7.7611 83.9964 8.35261 84.5789C8.78982 85.0075 9.14509 85.5112 9.59555 85.9261C9.68246 86.6404 9.76745 87.3579 9.83414 88.0738C9.84285 88.1543 9.84879 88.2354 9.85473 88.3165C9.78295 88.2604 9.70948 88.1991 9.63156 88.1333C9.63156 88.1333 7.7795 86.1141 7.36773 86.0149C6.95596 85.9157 6.74686 86.9097 6.74686 86.9097C8.04808 88.0469 8.6937 88.7579 9.97997 89.8406C10.0991 91.4813 10.1953 93.1241 10.4311 94.7592C10.7575 97.0119 11.3371 100.322 11.8575 102.561C12.5075 105.365 13.4231 112.425 13.4888 115.263C13.5144 116.421 13.0379 117.656 13.2677 118.795C13.4975 119.935 14.5526 119.028 14.5526 119.028C14.6296 118.064 14.8122 117.035 14.7703 115.998C14.7065 114.409 14.4756 110.321 14.1758 108.744C13.7334 106.409 12.9558 102.325 12.4729 99.9933C12.1402 98.3788 11.8704 95.6859 11.6848 94.0594C11.5198 92.6123 11.3686 91.1623 11.2182 89.7149C11.5778 89.5205 11.9396 89.3147 12.237 89.0485C12.9542 88.4104 13.7509 87.8158 14.2844 87.0246Z" fill="white"/>
<path d="M30.3361 111.271C30.6388 111.984 30.983 112.732 31.2775 113.489C31.9985 115.352 32.5044 117.291 33.4433 119.077C36.3502 124.615 39.6763 129.985 43.0917 135.315C43.7925 136.411 44.6322 137.441 45.401 138.495C46.7105 137.972 47.9399 137.499 49.1435 136.986C49.3126 136.913 49.4903 136.63 49.4492 136.472C48.7114 133.752 47.9681 131.033 47.1659 128.323C46.8053 127.112 46.1641 125.934 45.9039 124.722C45.2825 121.855 44.7992 118.978 44.2874 116.104C44.1212 115.175 44.0415 114.24 43.9261 113.354C41.6428 113.169 39.4124 113.109 37.1995 112.773C34.9727 112.431 32.7634 111.812 30.3361 111.271ZM28.2077 140.31C28.7982 140.401 29.2552 140.474 29.7103 140.542C34.0596 141.165 38.2989 140.609 42.6222 140.926C42.8193 140.94 43.0518 140.804 43.1941 140.672C43.4658 140.421 43.6506 140.092 43.9334 139.857C44.2309 139.604 44.2126 139.385 43.9601 139.064C43.259 138.167 42.5 137.291 41.9074 136.342C39.3897 132.305 36.8693 128.27 34.462 124.186C32.6993 121.199 30.9688 118.185 30.045 114.931C29.9284 114.518 29.7954 114.108 29.6678 113.698C28.2331 122.424 27.7482 131.28 28.2077 140.31ZM55.3077 109.762C54.1539 110.308 53.1683 110.736 52.2262 111.228C50.3824 112.194 48.3198 112.717 46.2265 113.153C45.7149 113.26 45.5976 113.421 45.6627 113.872C45.9798 116.079 46.167 118.294 46.6083 120.494C47.0206 122.553 47.6548 124.604 48.2623 126.647C48.9368 128.913 49.7098 131.165 50.3991 133.43C50.6934 134.396 50.881 135.377 51.0827 136.198C52.7489 136.324 54.3506 136.444 56.049 136.57C55.1166 127.681 55.4745 118.841 55.3077 109.762ZM71.5567 139.098C71.5812 139.009 71.603 138.921 71.6276 138.831C70.4292 137.13 69.2006 135.444 68.0371 133.724C66.4998 131.449 64.7216 129.294 63.6576 126.779C62.7979 124.75 61.6512 122.794 60.7206 120.781C60.1974 119.652 59.8866 118.465 59.4213 117.317C58.8149 115.828 58.1642 114.348 57.0587 112.867C57.0188 120.986 56.9977 128.958 57.7146 136.82C59.0727 137.587 60.3734 138.267 61.6164 139.042C62.5669 139.633 63.4629 139.912 64.56 139.774C66.8748 139.48 69.2232 139.315 71.5567 139.098ZM66.6778 145.076C65.5149 144.026 64.3373 142.993 63.201 141.918C62.8721 141.607 62.5946 141.515 62.1702 141.534C59.5702 141.648 56.959 141.697 54.361 141.833C51.148 142.001 47.9537 142.263 44.7351 142.415C43.8439 142.459 43.5556 142.963 43.2906 143.55C43.1079 143.96 42.9492 144.396 42.8826 144.842C42.538 147.174 42.0349 150.511 41.8852 151.966C41.7356 153.422 40.4466 153.727 40.3025 152.81C40.4752 149.224 40.6482 145.756 41.8099 142.47C41.61 142.456 41.4461 142.435 41.2831 142.433C38.7176 142.411 36.1589 142.449 33.5877 142.352C31.7854 142.284 29.9697 142.052 28.1596 141.844C27.3812 141.756 26.7364 141.152 26.6769 140.449C26.5034 138.489 26.3106 136.525 26.2716 134.578C26.2316 132.612 26.3888 130.668 26.4133 128.709C26.4739 123.879 27.1546 119.166 27.721 114.431C27.8803 113.103 28.2027 111.81 28.4486 110.502C27.1597 110.047 25.8913 109.634 24.6465 109.154C22.9343 108.497 21.201 107.872 19.55 107.078C17.935 106.303 16.4004 105.346 14.8457 104.441C14.377 104.168 13.9118 103.847 13.5523 103.465C13.385 103.284 13.34 102.798 13.4795 102.65C13.6556 102.463 14.0717 102.429 14.4004 102.431C14.5809 102.432 14.7842 102.639 14.9798 102.75C16.7559 103.763 18.4671 104.935 20.3226 105.756C22.9906 106.936 25.7409 107.948 28.501 108.88C31.9783 110.052 35.4488 111.364 39.1121 111.475C40.6196 111.521 42.1357 111.657 43.7005 111.756C43.3459 109.618 43.4242 111.209 43.0744 109.118C42.7799 109.162 42.6226 109.193 42.4633 109.211C41.4794 109.326 40.4987 109.593 39.504 109.519C37.5026 109.372 35.4959 109.042 33.4895 108.781C33.2758 108.752 33.0427 108.711 32.8472 108.618C30.5173 107.492 28.1545 106.423 25.8777 105.196C24.1913 104.286 22.6405 103.175 21.7147 101.459C20.7119 99.6014 20.2661 97.6898 20.1451 95.7366C20.1109 95.1725 20.2489 94.6108 20.3686 94.0641C20.7285 92.435 21.7628 91.1761 22.7094 89.8614C23.3344 88.9899 23.844 88.0427 24.3988 87.1232C25.144 85.8904 25.8754 84.652 26.6253 83.4239C27.4182 82.1255 28.344 80.9106 28.5567 79.3077C28.7703 77.7243 29.0707 76.1772 28.2271 74.5439C28.0037 74.1127 28.2252 73.7287 28.6532 73.6779C28.9532 73.6412 29.5063 73.8272 29.6443 74.0503C29.9749 74.584 30.2597 75.1971 30.3326 75.779C30.648 78.29 30.3994 80.6762 29.088 82.7717C28.6091 83.5384 28.0388 84.2473 27.5405 85.0009C27.241 85.4482 26.9904 85.9252 26.7296 86.3985C26.0351 87.6578 25.3728 88.9333 24.6478 90.1733C24.333 90.7107 23.8824 91.1653 23.5122 91.6715C22.2988 93.3258 21.4274 95.0953 21.9812 97.3371C22.1362 97.959 22.2434 98.5875 22.4481 99.1995C22.9543 100.722 23.7499 102.061 25.2718 103.066C27.3216 104.419 29.5396 105.412 31.7275 106.496C33.231 107.24 34.7178 107.436 36.2644 107.6C36.8687 107.663 37.4748 107.732 38.0738 107.856C39.6458 108.184 41.0738 107.871 42.5358 107.554C42.3257 106.693 42.157 105.848 41.9018 105.019C41.7872 104.645 41.5793 104.148 41.2619 103.969C40.724 103.668 40.065 103.474 39.4588 103.406C37.3457 103.168 35.8151 102.03 34.4664 100.522C33.3432 99.267 32.8653 97.9411 33.5061 96.5715C34.0115 95.4874 34.5823 94.4044 35.3397 93.4814C36.3236 92.2803 37.8537 91.9387 39.583 92.2356C40.4924 92.3936 41.403 92.6215 42.2989 92.8749C42.7385 92.999 43.1968 93.1926 43.5661 93.46C44.8354 94.3765 45.6287 95.5754 46.1352 96.9406C46.7775 98.6728 45.7935 102.219 43.8327 103.164C43.5376 103.306 43.2731 103.493 43.1031 103.597C43.485 104.852 43.8278 105.988 44.1855 107.158C44.6556 107.042 45.1074 106.942 45.548 106.818C45.7467 106.762 45.9361 106.68 46.1061 106.576C49.2468 104.685 51.9432 102.372 53.9117 99.4042C54.8011 98.0614 55.7578 96.7335 55.9619 95.0479C56.0666 94.1667 55.956 93.3448 55.4676 92.4484C54.3083 90.3318 52.2684 89.1653 50.2314 88.0489C47.043 86.2992 43.7641 84.7109 40.5482 83.0088C36.707 80.9747 34.7628 77.6912 33.2992 74.1216C33.1014 73.6376 33.2272 73.2668 33.7692 73.1542C34.3001 73.0437 34.6509 73.3091 34.8625 73.782C35.14 74.3994 35.3448 75.0536 35.7188 75.6266C36.6288 77.0218 37.4626 78.5024 38.6161 79.7258C40.5754 81.7998 43.323 82.8462 45.7964 84.228C48.0522 85.4869 50.4031 86.5807 52.6808 87.8099C54.0683 88.5596 55.2659 89.5156 56.216 90.782C57.6276 92.6603 58.1757 94.5686 57.3491 96.498C56.7161 97.9729 55.9079 99.3784 55.06 100.747C53.5913 103.124 51.3699 104.876 49.1642 106.622C47.8676 107.648 46.3786 108.432 44.666 108.708C45.0531 110.955 45.0094 109.495 45.4069 111.805C46.9854 111.349 48.4594 111.008 49.8416 110.498C51.1612 110.013 52.3938 109.365 53.6476 108.76C54.9015 108.155 56.2155 107.62 57.3547 106.875C59.2638 105.626 61.1357 104.289 62.4286 102.458C63.7353 100.609 64.8979 98.6606 66.0975 96.7419C67.0004 95.2952 67.859 93.8235 68.7398 92.3643C68.987 91.9527 69.3535 91.6947 69.907 91.9904C70.49 92.3028 70.4934 92.7633 70.2492 93.2165C70.1558 93.3868 70.0588 93.5551 69.959 93.7238C68.5253 96.1078 67.1562 98.5325 65.6367 100.866C64.5816 102.483 63.6243 104.185 62.0052 105.411C60.3953 106.629 58.8278 107.891 57.128 109.223C57.6807 110.343 58.304 111.629 58.9474 112.905C59.603 114.207 60.3753 115.48 60.9251 116.809C61.9763 119.355 62.6788 121.992 64.2571 124.391C64.3996 124.611 64.4944 124.853 64.6057 125.085C65.1417 126.182 65.5518 127.342 66.2368 128.368C68.5175 131.793 70.9022 135.169 73.2381 138.567C73.9192 139.557 73.7794 140.13 72.6475 140.329C70.6423 140.68 68.598 140.92 66.5649 141.192C66.0173 141.264 65.4501 141.272 65.0119 141.302C66.1423 142.536 67.2589 143.772 68.4031 144.986C68.5307 145.121 70.0043 146.273 69.4295 146.752C68.8547 147.231 66.6569 145.151 66.6778 145.076ZM35.7174 95.9098C35.6423 96.04 35.4524 96.2462 35.3953 96.4937C35.2347 97.1751 34.8019 97.9721 35.0691 98.5437C35.6944 99.8855 36.7527 101.049 38.3586 101.581C38.9633 101.78 39.631 101.814 40.1891 102.089C41.0118 102.494 41.6745 102.414 42.3695 102.083C44.026 101.289 44.5366 99.81 44.6626 98.1876C44.8046 96.3934 43.259 94.654 41.3108 94.1894C40.7625 94.0586 40.2195 93.8677 39.6704 93.7933C39.1766 93.7249 38.6646 93.722 38.1823 93.7778C36.8578 93.9241 36.2883 94.8521 35.7174 95.9098ZM60.1466 140.047C58.4749 138.844 56.6275 138.247 54.5456 137.972C53.0716 137.779 51.6617 137.743 50.3515 138.28C49.3069 138.708 48.2105 139.057 47.1854 139.515C46.6264 139.764 46.161 140.168 45.5363 140.581C50.5393 140.397 55.3416 140.222 60.1466 140.047Z" fill="white"/>
<path d="M35.7483 80.6068C35.9424 81.0035 36.1587 81.3434 36.2773 81.7036C36.8105 83.3108 37.3344 84.9227 37.8214 86.5394C37.9661 87.0179 37.9755 87.5189 38.068 88.0054C38.1569 88.4652 38.2425 88.9312 38.3888 89.3818C38.5195 89.7862 38.5241 90.1343 38.1424 90.3069C37.7274 90.4946 37.2581 90.3665 37.0476 89.9292C36.8016 89.4195 36.5683 88.8413 36.5657 88.3196C36.5556 87.0822 36.0042 85.9515 35.6266 84.782C35.2482 83.61 34.9049 82.4279 34.6002 81.246C34.5516 81.061 34.7417 80.7605 34.9205 80.6547C35.1018 80.5484 35.4029 80.6179 35.7483 80.6068Z" fill="white"/>
<path d="M24.6919 97.3527C24.6188 97.0783 24.405 96.7161 24.4704 96.4376C24.578 96.0035 25.035 95.902 25.5204 96.0433C26.6203 96.364 27.7128 96.715 28.8108 97.0389C29.433 97.2226 30.0561 97.4003 30.6847 97.5336C31.3105 97.6675 31.5652 98.0592 31.5071 98.5384C31.4481 99.0409 30.959 99.1805 30.4661 99.0522C29.3102 98.7541 28.1684 98.3926 27.0219 98.0522C26.3076 97.8404 25.5914 97.6233 24.6919 97.3527Z" fill="white"/>
<path d="M53.4261 95.303C52.6953 95.6631 52.0678 96.0531 51.3626 96.2919C50.6141 96.5484 49.8015 96.7015 48.9956 96.8206C48.5242 96.8879 48.1768 96.5673 48.0682 96.1159C47.9576 95.6588 48.1872 95.3958 48.6324 95.2535C49.749 94.8998 50.8647 94.5434 51.9658 94.1541C52.4696 93.9763 52.9315 93.9436 53.2603 94.4762C53.398 94.6927 53.3701 94.9839 53.4261 95.303Z" fill="white"/>
<path d="M30.5129 92.8353C29.7829 92.3293 29.0473 91.8329 28.3285 91.3163C27.891 91.0024 27.7068 90.5848 28.0095 90.2076C28.314 89.8272 28.7456 89.8047 29.2625 90.1569C30.156 90.7697 31.0811 91.345 32.0044 91.9151C32.4987 92.2206 32.83 92.5724 32.6201 93.0845C32.4408 93.5226 31.9345 93.5456 31.261 93.1902C31.0209 93.0615 30.7836 92.9238 30.5472 92.7888C30.5361 92.808 30.5231 92.8219 30.5129 92.8353Z" fill="white"/>
<path d="M46.6784 89.4969C46.399 89.9791 46.1336 90.467 45.8382 90.938C45.595 91.3276 45.1764 91.4013 44.7324 91.1668C44.3033 90.9406 44.1511 90.5376 44.3438 90.175C44.8055 89.3096 45.2813 88.4414 45.8473 87.6409C45.9732 87.4623 46.5372 87.4341 46.8365 87.5405C47.2728 87.694 47.4307 88.0959 47.2512 88.4957C47.0931 88.8458 46.9144 89.1885 46.746 89.5349C46.7235 89.5222 46.7009 89.5096 46.6784 89.4969Z" fill="white"/>
<defs>
<clipPath id="clip0_316_11">
<rect width="191.862" height="190.953" fill="white" transform="translate(87.9079 24.2458) rotate(-7.25995)"/>
</clipPath>
</defs>
</svg>
