<svg width="111" height="55" viewBox="0 0 111 55" fill="none" xmlns="http://www.w3.org/2000/svg">
<path d="M1.00805 15.1721C0.909039 12.9466 1.60972 10.8981 2.79784 9.23471C3.73463 7.91785 5.26547 6.90133 6.73539 6.13894C8.47187 5.23793 10.3835 4.57565 12.2876 4.1213C14.9761 3.47442 19.0279 5.49206 20.1017 7.81004C21.3127 10.4207 19.6905 15.3338 17.1543 16.1732C16.9486 16.2426 16.7354 16.3119 16.5221 16.3427C15.6844 16.4659 14.9227 16.3427 14.7095 15.3646C14.5039 14.4328 15.1055 14.0324 15.8748 13.7629C17.7864 13.1006 18.7384 9.78918 17.3218 8.37991C16.248 7.30948 14.8694 6.46238 13.2777 6.6626C10.3074 7.03995 7.50462 8.12578 5.35687 10.2127C4.41247 11.1291 4.03166 12.8233 3.78033 14.2403C3.32336 16.7893 4.37439 19.0457 5.70721 21.148C6.96388 23.1349 8.82983 24.4748 10.711 25.7763C13.5366 27.7323 16.6288 29.1801 19.9951 29.7269C22.8969 30.1966 25.8595 30.3737 28.7994 30.4508C32.7293 30.5509 36.7354 30.8897 40.5663 29.8347C44.58 28.7335 48.5328 27.3396 52.4018 25.7994C56.7963 24.0513 61.0537 21.9489 65.4026 20.093C66.8496 19.4769 68.4186 19.1843 69.9037 18.6452C71.0004 18.2525 72.0438 17.7057 73.1025 17.2129C77.6417 15.1259 82.3485 13.9092 87.3904 14.1171C90.4368 14.2403 93.5214 13.9015 96.545 14.2095C99.3249 14.4867 102.158 15.0258 104.511 16.8432C105.448 17.5671 105.692 18.1678 105.189 18.8686C104.565 19.7542 103.841 19.5308 103.08 19.038C99.9113 16.9895 96.3774 16.5506 92.7217 16.6276C90.2921 16.6815 87.8626 16.7816 85.4254 16.7816C81.1756 16.7816 77.3066 18.1293 73.5214 19.939C71.8839 20.7245 70.0637 21.1172 68.3805 21.818C64.481 23.4352 60.5968 25.0832 56.743 26.8005C51.4041 29.1724 46.0423 31.4904 40.2769 32.5377C37.6189 33.0229 34.8542 33.1384 32.1429 33.0922C28.2434 33.0306 24.3439 32.7764 20.4597 32.3991C16.3089 31.9986 12.6455 30.1812 9.17256 27.9326C5.62343 25.6377 2.88924 22.6805 1.60972 18.5451C1.29746 17.4516 1.21368 16.2965 1.00805 15.1721Z" fill="white"/>
<path d="M40.6195 18.3911C38.6774 18.2371 36.7201 18.1755 34.8008 17.8674C34.0544 17.7442 33.2471 17.1821 32.7216 16.5891C31.9295 15.6804 31.3126 14.5946 30.7033 13.5395C29.4924 11.4526 30.155 9.43493 30.8556 7.34798C31.9752 4.00578 35.471 2.92765 37.931 3.3204C40.5586 3.74395 42.3332 7.78694 40.9775 10.0664C40.551 10.7826 39.8655 11.1214 39.0963 10.7287C38.2966 10.3205 38.2052 9.61205 38.6317 8.83426C38.9516 8.25669 39.1953 7.65602 38.6013 7.11696C37.9539 6.53169 37.5426 5.63838 36.3317 5.91561C33.2395 6.6164 31.8153 9.94319 33.2243 12.8233C34.2981 15.0104 35.8747 15.8113 38.1443 15.6804C39.0278 15.6265 39.9265 15.5803 40.7947 15.6881C44.6485 16.1578 48.1062 14.9719 51.4649 13.2469C54.8313 11.5142 58.1824 9.70447 61.663 8.23359C67.4588 5.77699 72.9958 2.63502 79.2334 1.31046C84.2296 0.247732 89.2639 -0.229725 94.3591 0.109115C97.8092 0.332442 101.275 0.494161 104.694 0.971619C106.545 1.23345 108.335 2.04975 110.117 2.70433C110.909 2.99696 111.229 3.66694 110.81 4.51404C110.406 5.31494 109.744 5.39195 109.035 5.0146C106.179 3.48982 103.041 3.19719 99.9341 2.98156C96.4459 2.74283 92.9349 2.65812 89.439 2.71973C83.1405 2.83524 77.0628 4.02118 71.3278 6.79352C68.6546 8.08727 65.8518 9.09609 63.1633 10.359C58.2052 12.6847 53.3157 15.1721 48.3347 17.4516C47.139 17.9984 45.7224 18.1139 44.3895 18.2525C43.1481 18.3834 41.8838 18.2833 40.6272 18.2833C40.6272 18.3064 40.6272 18.3526 40.6195 18.3911Z" fill="white"/>
<path d="M26.9334 52.1674C30.0941 52.5139 32.8436 51.3742 35.4178 49.7955C37.9007 48.2707 40.2084 46.4687 42.7217 44.9978C45.8367 43.1727 49.0431 41.5247 52.2571 39.8844C56.1185 37.9129 59.9494 35.8491 63.9479 34.1857C66.7735 33.0152 69.8428 32.4607 72.7979 31.6059C74.8009 31.0283 76.7811 30.3583 78.7994 29.827C82.4171 28.8798 86.0804 28.8721 89.759 29.4111C91.3965 29.6499 93.0492 29.8655 94.6562 30.2582C95.9662 30.574 97.2304 31.1053 98.4947 31.5982C99.2792 31.8985 99.7057 32.4838 99.3249 33.354C98.9517 34.2011 98.2358 34.3012 97.4666 33.9624C93.5442 32.1989 89.3706 31.8985 85.1665 31.706C82.1048 31.5674 79.2106 32.4145 76.3089 33.2462C72.7902 34.255 69.2411 35.1868 65.7605 36.3266C64.0317 36.8887 62.4247 37.8282 60.7796 38.6445C56.5907 40.7084 52.3485 42.6798 48.2434 44.9054C45.3721 46.461 42.6684 48.3477 39.919 50.142C37.1924 51.9209 34.4353 53.6998 31.2518 54.416C28.1596 55.1168 24.9608 55.3632 21.8992 54.1465C19.2183 53.0838 17.1391 51.2894 16.9106 48.2014C16.6135 44.1584 18.5633 41.7095 22.6836 42.0098C23.0873 42.0406 23.4909 42.0868 23.8946 42.1099C24.7171 42.1562 25.2655 42.5874 25.2731 43.396C25.2807 44.297 24.6562 44.6975 23.7956 44.6744C23.2777 44.659 22.7674 44.5896 22.2495 44.5819C20.3455 44.5434 19.2335 45.6139 19.3782 47.5314C19.4772 48.8097 19.9951 49.9418 21.1071 50.7427C22.8816 52.0056 24.839 52.4369 26.9334 52.1674Z" fill="white"/>
</svg>
