<svg width="71" height="72" viewBox="0 0 71 72" fill="none" xmlns="http://www.w3.org/2000/svg">
<path d="M26.7984 58.1593C26.4111 58.6525 26.0695 59.1906 25.6284 59.6333C24.6872 60.5841 23.8845 60.3978 23.111 59.5689C21.7664 58.1227 20.8763 56.4325 20.9516 54.3553C21.0087 52.7422 21.315 51.1792 21.7854 49.6469C22.2037 48.2873 23.0357 47.7142 24.1767 47.8434C24.9227 47.9291 25.3204 48.512 25.771 48.9587C28.0993 51.2587 28.3472 54.0185 27.3772 56.99C27.2474 57.3921 26.9704 57.7485 26.7631 58.1249C26.7775 58.1382 26.788 58.1488 26.7984 58.1593ZM25.9339 57.5742C26.5172 56.5073 26.7335 55.8552 26.8672 54.4322C27.0863 52.113 26.0077 50.3926 24.2824 49.0001C23.9218 48.708 23.5046 48.7956 23.2087 49.1323C23.0157 49.3509 22.8576 49.6336 22.7761 49.9143C22.3266 51.4886 21.9731 53.0838 21.9836 54.7364C21.9939 56.3769 22.8061 57.6658 23.8099 58.8552C24.2153 59.3355 24.5166 59.3298 24.9841 58.8462C25.3504 58.4699 25.6212 58.001 25.9339 57.5742Z" fill="white"/>
<path d="M24.9478 10.6362C25.7305 9.30427 26.2953 8.28409 27.3457 7.65774C28.2799 7.10109 28.735 7.12782 29.5868 7.82676C29.9722 8.14268 30.396 8.42611 30.7221 8.79544C31.069 9.18579 31.4306 9.62267 31.5917 10.1046C32.0792 11.5656 32.3004 13.0753 32.0982 14.6231C32.093 14.6554 32.0844 14.6883 32.0792 14.7205C31.8385 16.2047 29.5926 18.6709 28.1423 19.085C27.3782 19.3046 26.7345 19.1183 26.2457 18.5451C25.3547 17.4997 24.6467 16.3457 24.2839 14.9953C23.9452 13.7494 24.1161 11.9779 24.9478 10.6362ZM30.8025 15.5325C30.908 15.068 31.0703 14.6832 31.0688 14.3009C31.0672 13.5133 30.9257 12.7242 30.9397 11.9357C30.9679 10.3379 30.0292 9.37542 28.8488 8.53643C28.5345 8.31366 28.2379 8.28367 27.9332 8.50306C27.666 8.69534 27.354 8.8705 27.173 9.13075C26.643 9.89369 26.0979 10.6609 25.6852 11.4902C24.9457 12.9792 24.9328 14.5099 25.7476 15.9958C26.0358 16.5181 26.355 17.0265 26.7097 17.5065C27.2815 18.2775 27.7315 18.3907 28.4678 17.7878C29.3086 17.098 30.0423 16.2772 30.8025 15.5325Z" fill="white"/>
<path d="M36.2768 14.4519C37.578 12.745 39.1245 11.2023 41.3711 10.6157C43.1922 10.1408 44.9388 10.501 46.6096 11.305C47.1007 11.5407 47.4026 11.9437 47.3923 12.4887C47.3821 13.0127 47.38 13.5756 47.1982 14.0543C46.4515 16.0005 45.2076 17.4605 43.0114 17.768C41.7271 17.947 40.43 18.1019 39.1385 18.0987C38.3659 18.0961 37.5662 17.8428 36.8295 17.5687C35.7502 17.1656 35.6009 16.404 35.8786 15.3697C35.9522 15.0833 36.1136 14.821 36.2768 14.4519ZM37.1731 15.0178C36.4979 16.1958 36.6562 16.5856 37.9505 16.9151C38.0799 16.948 38.2059 17.0025 38.3373 17.0159C40.1416 17.2163 41.9457 17.1495 43.6589 16.549C45.1871 16.0138 45.9754 14.7159 46.3848 13.2059C46.554 12.5859 46.3574 12.3246 45.7604 12.0609C42.3482 10.5552 39.4941 11.837 37.1731 15.0178Z" fill="white"/>
<path d="M16.3154 25.7576C17.4653 23.8519 19.7314 22.607 22.6396 22.4867C23.2332 22.4628 23.832 22.5778 24.4291 22.5865C25.4361 22.6014 26.1164 23.0752 26.5289 23.9719C26.9327 24.8473 26.8464 25.7279 26.5371 26.6015C25.7385 28.8706 22.6028 30.5445 20.4045 30.2741C19.3811 30.1483 18.3579 29.9806 17.3598 29.7319C15.5681 29.2883 15.0436 27.975 16.3154 25.7576ZM16.9866 26.687C16.9342 26.7724 16.8798 26.8565 16.8294 26.9433C16.3034 27.9013 16.4927 28.4275 17.5521 28.7203C18.2531 28.9147 18.9915 28.9649 19.6999 29.1405C21.3647 29.556 22.8065 29.0157 24.1198 28.086C25.0072 27.4566 25.639 26.5897 25.7467 25.4452C25.8377 24.487 25.379 23.8092 24.4328 23.6428C23.7852 23.5288 23.1083 23.4808 22.4521 23.5167C20.1025 23.645 18.2634 24.6924 16.9866 26.687Z" fill="white"/>
<path d="M35.0235 28.6993C33.1828 27.7222 31.8014 26.2436 30.592 24.5883C29.7435 23.4294 30.118 21.8342 31.4135 21.2008C31.8534 20.9855 32.3573 20.8522 32.8442 20.7847C34.8872 20.5023 36.7558 21.0311 38.437 22.1758C38.8481 22.4561 39.1364 22.9574 39.3968 23.4056C39.9198 24.2947 40.4343 25.1956 40.8623 26.1335C41.3714 27.2467 41.1505 28.2228 40.276 28.9304C39.9752 29.1736 39.5909 29.3868 39.2166 29.4481C37.9602 29.6593 36.6918 29.7868 35.5484 28.9924C35.3832 28.8797 35.1986 28.7982 35.0235 28.6993ZM35.7742 27.9928C36.4971 28.6413 37.5876 28.6652 38.6996 28.5214C39.8986 28.3651 40.3676 27.5492 39.8655 26.4471C39.4928 25.6329 39.0706 24.8374 38.611 24.0689C38.1661 23.326 37.6127 22.6673 36.7366 22.3741C36.358 22.2493 36.004 22.04 35.6188 21.9494C34.4391 21.6693 33.2433 21.5997 32.0858 22.02C31.2182 22.3334 30.9006 23.2519 31.3973 23.9479C32.5218 25.5333 33.8394 26.9211 35.7742 27.9928Z" fill="white"/>
<path d="M32.4586 36.7451C31.5681 37.8676 30.6955 39.0029 29.7808 40.1049C28.8809 41.1905 27.6566 41.2566 26.392 41.0446C25.8566 40.9542 25.5434 40.546 25.3523 40.0515C24.864 38.7881 24.6181 37.4798 24.7762 36.1314C24.8316 35.6489 24.9852 35.1468 25.2159 34.7212C26.1553 32.9915 27.3938 31.5307 29.1553 30.5747C29.7587 30.2487 30.3467 29.6475 31.0728 29.9949C32.0057 30.443 32.8268 31.0509 33.1018 32.185C33.4959 33.801 33.3022 35.2949 32.4586 36.7451ZM26.4525 40.0494C27.4014 40.1367 28.3193 40.2798 28.9379 39.5023C29.9286 38.2568 30.8855 36.975 31.7635 35.6484C32.4706 34.5804 32.4071 33.361 32.0302 32.1807C31.6986 31.1379 30.7069 30.8218 29.7661 31.3917C28.5585 32.1242 27.5813 33.0583 26.7172 34.2027C25.2449 36.1559 25.7394 38.0542 26.4525 40.0494Z" fill="white"/>
<path d="M41.7249 33.8167C43.6926 34.897 45.0275 36.4444 45.3081 38.7533C45.3885 39.4145 45.4641 40.0782 45.5601 40.7385C45.8347 42.6169 44.6554 43.874 42.7378 43.7603C41.7183 43.7003 40.8551 43.2303 40.1264 42.6108C38.8418 41.5198 38.1586 40.0264 37.7868 38.4085C37.586 37.5347 37.4958 36.6323 37.3828 35.7407C37.1609 33.9602 39.1204 32.6031 40.8464 33.3387C41.1525 33.4685 41.4348 33.6563 41.7249 33.8167ZM41.427 34.7495C41.0004 34.5661 40.585 34.3337 40.1421 34.2106C39.2395 33.9585 38.3108 34.6662 38.4265 35.5959C38.637 37.2751 38.7682 38.9813 39.6772 40.499C40.3121 41.5584 41.2168 42.2504 42.3455 42.6349C42.7247 42.7632 43.208 42.7172 43.6102 42.6128C44.3981 42.4103 44.6717 41.9375 44.577 41.125C44.4872 40.364 44.3731 39.6036 44.2881 38.8401C44.0767 36.9531 42.9444 35.7254 41.427 34.7495Z" fill="white"/>
<path d="M33.0246 50.5703C31.4061 49.7228 30.2263 48.4399 29.269 46.9267C28.7529 46.1116 28.7947 45.3012 29.3331 44.4932C29.5867 44.111 29.8856 43.8244 30.339 43.7449C31.9524 43.463 33.5677 43.3415 35.1932 43.6237C36.2538 43.8062 36.9048 44.6341 37.6176 45.2842C38.6266 46.2072 39.385 47.3495 39.619 48.7663C39.7333 49.4639 39.555 50.0172 38.985 50.4303C38.5011 50.7821 38.0203 51.1422 37.5057 51.4449C36.8411 51.835 36.1315 51.9077 35.4032 51.5885C34.6176 51.2404 33.8193 50.91 33.0246 50.5703ZM33.3733 49.617C34.1679 49.9567 34.9477 50.3338 35.7612 50.618C36.078 50.7285 36.5391 50.7595 36.813 50.608C38.7076 49.5586 39.1631 49.4595 37.9429 47.3011C37.4797 46.479 36.8196 45.8517 36.0406 45.2981C35.4907 44.9061 34.9947 44.4807 34.285 44.4992C33.2224 44.5284 32.1533 44.5289 31.0962 44.634C30.0098 44.7422 29.6262 45.5562 30.2052 46.4885C31.0086 47.7772 32.0248 48.8614 33.3733 49.617Z" fill="white"/>
<path d="M49.7613 29.8006C49.6658 29.9752 49.571 30.1532 49.4716 30.325C48.5938 31.8228 47.397 31.6835 46.3014 31.1066C44.9801 30.4095 44.1387 29.3367 43.8904 27.7685C43.6098 26.0029 43.7814 24.247 43.7375 22.4863C43.6937 20.7588 46.0277 19.6617 47.3356 20.6493C49.2083 22.0666 50.377 23.8579 50.5321 26.2537C50.6098 27.5163 50.4421 28.7107 49.7613 29.8006ZM48.9046 29.2213C48.9385 29.1615 49.0307 29.0207 49.0969 28.8701C50.2872 26.1768 49.0222 22.9566 46.6481 21.4433C45.9207 20.9808 44.8526 21.5733 44.776 22.4489C44.7202 23.0782 44.725 23.715 44.7496 24.3452C44.7928 25.4719 44.8555 26.6006 44.9405 27.7274C45.0109 28.6575 45.5205 29.3688 46.2575 29.8682C47.6202 30.7961 48.1836 30.6846 48.9046 29.2213Z" fill="white"/>
<path d="M9.62178 36.8262C8.93419 36.3082 8.18264 35.8584 7.57775 35.2587C6.64978 34.3399 6.6955 33.5742 7.60688 32.665C9.55099 30.7234 11.8609 30.2785 14.4159 31.1263C15.3563 31.4386 16.2876 31.8555 17.135 32.3682C18.9346 33.4569 18.8652 35.2292 17.4463 36.5274C16.655 37.2527 15.6645 37.6789 14.5586 37.785C12.4534 37.9868 11.6404 37.823 9.62178 36.8262ZM7.87935 33.9864C8.08946 34.2664 8.19283 34.5028 8.37135 34.622C9.25259 35.2131 10.101 35.8916 11.0604 36.3196C12.8978 37.1383 14.782 37.123 16.4908 35.952C17.7046 35.1189 17.8439 33.9221 16.4392 33.1111C15.839 32.764 15.1611 32.5502 14.5293 32.2554C13.2943 31.6805 12.012 31.6268 10.7148 31.9407C9.5302 32.2275 8.64284 32.9529 7.87935 33.9864Z" fill="white"/>
<path d="M49.3907 55.414C47.7636 54.5784 46.9232 53.1281 46.3402 51.5536C46.0724 50.8358 46.1138 49.98 46.1258 49.1901C46.1424 48.1934 46.2727 47.1973 46.3556 46.2001C46.4191 45.4473 46.7124 44.8384 47.4642 44.565C48.2605 44.2755 49.0198 44.2716 49.716 44.8738C51.8213 46.6984 52.8099 48.9996 52.6879 51.7728C52.6574 52.4714 52.607 53.1766 52.4689 53.8579C52.3729 54.3383 52.1865 54.8318 51.9173 55.2358C51.3291 56.1131 50.5752 56.2139 49.6886 55.622C49.5768 55.5477 49.4679 55.4695 49.3907 55.414ZM50.8235 54.9573C51.0431 54.5597 51.3529 54.212 51.4302 53.8202C51.819 51.8541 51.8646 49.8725 50.9346 48.0457C50.4914 47.1749 49.7744 46.4347 49.1302 45.6808C48.8234 45.3223 48.3492 45.3388 47.9149 45.4921C47.4559 45.6547 47.3956 46.0437 47.3647 46.4628C47.297 47.3928 47.2876 48.3376 47.1157 49.2498C46.7177 51.3624 48.6702 54.3861 50.8235 54.9573Z" fill="white"/>
<path d="M14.1812 42.9235C14.9803 41.4352 16.2961 40.5103 17.8015 39.9316C18.8748 39.5199 20.047 39.3173 21.1949 39.1693C22.625 38.9839 23.5986 40.1066 23.2229 41.5238C22.5801 43.9439 21.1234 45.7042 18.6178 46.3087C17.5001 46.5775 16.3077 46.5825 15.1468 46.619C14.363 46.6444 13.863 46.1621 13.6565 45.3923C13.4542 44.6376 13.6106 43.8975 14.1812 42.9235ZM21.8421 40.1656C19.5456 40.1699 17.4559 40.7971 15.7796 42.4537C15.1677 43.0588 14.6847 43.8105 14.6151 44.7181C14.5631 45.3923 14.8042 45.6375 15.4771 45.6076C16.3391 45.5694 17.2152 45.5533 18.0576 45.396C20.1137 45.0119 21.3751 43.6906 22.0923 41.7772C22.3101 41.1982 22.2794 40.6809 21.8421 40.1656Z" fill="white"/>
<path d="M51.9706 36.5871C52.643 35.7222 53.3014 34.8474 53.9902 33.9973C54.1747 33.7696 54.43 33.5898 54.6818 33.4315C55.8643 32.6839 56.6797 32.7983 57.5255 33.9192C57.9412 34.473 58.3485 35.0928 58.5272 35.7466C58.6838 36.3184 58.6604 37.028 58.4675 37.5889C57.7388 39.6981 56.1308 41.0256 54.2043 41.9982C53.8606 42.1715 53.4345 42.2256 53.0417 42.2376C52.0513 42.2706 51.3876 41.7278 51.2225 40.7416C50.9793 39.2791 51.0812 37.8753 51.9706 36.5871ZM57.0356 38.1363C57.995 36.9763 57.6734 35.8988 56.9219 34.8305C56.2838 33.9218 55.6855 33.8312 54.8707 34.5517C54.7715 34.6396 54.6775 34.7371 54.6026 34.8455C53.9798 35.7459 53.392 36.6686 52.7395 37.5477C52.0594 38.461 52.0821 39.474 52.2253 40.5074C52.3034 41.0798 52.5322 41.2502 53.1088 41.2081C53.4005 41.1865 53.7277 41.1364 53.9625 40.9809C55.1575 40.2033 56.452 39.5212 57.0356 38.1363Z" fill="white"/>
<path d="M35.713 39.4943C35.5169 39.5876 35.3632 39.7263 35.2354 39.7036C35.0646 39.6739 34.8127 39.544 34.7808 39.413C34.6168 38.7428 34.4965 38.062 34.4 37.3773C34.3494 37.0257 34.5624 36.7585 34.9195 36.8379C35.1062 36.879 35.3087 37.1445 35.3759 37.3519C35.5189 37.7879 35.5874 38.2483 35.6636 38.7023C35.7034 38.956 35.697 39.2156 35.713 39.4943Z" fill="white"/>
<path d="M55.861 29.4875C55.6688 29.6046 55.5168 29.7326 55.3432 29.8029C54.7947 30.0273 54.2345 30.2222 53.6854 30.4432C53.3662 30.5742 53.0823 30.5473 52.9069 30.2442C52.7091 29.901 52.9195 29.6708 53.2242 29.5475C53.8626 29.2857 54.5044 29.0233 55.1645 28.819C55.3341 28.7668 55.599 28.891 55.7653 29.0105C55.857 29.0794 55.8295 29.3057 55.861 29.4875Z" fill="white"/>
<path d="M30.5678 27.4677C30.4612 27.5743 30.402 27.6609 30.3211 27.7108C29.8195 28.0289 29.324 28.3634 28.797 28.6332C28.6392 28.7149 28.3057 28.6735 28.1955 28.5553C28.0892 28.4399 28.0784 28.0329 28.177 27.9626C28.7849 27.5258 29.4294 27.1302 30.0862 26.7675C30.1744 26.7199 30.4517 26.898 30.5565 27.0363C30.6302 27.1343 30.5662 27.3405 30.5678 27.4677Z" fill="white"/>
<path d="M40.238 21.6954C40.131 21.4684 39.9897 21.3099 40.0164 21.185C40.05 21.017 40.2131 20.7439 40.318 20.7442C41.0013 20.7458 41.6934 20.7477 42.3608 20.8759C42.7163 20.9451 42.7134 21.5885 42.3715 21.634C41.6687 21.7265 40.9469 21.6823 40.238 21.6954Z" fill="white"/>
<path d="M42.2828 31.6778C42.2362 31.7134 42.1375 31.8467 42.0275 31.8577C41.4673 31.9146 40.9012 31.9672 40.3406 31.9577C40.2182 31.9568 39.9919 31.6742 40.0073 31.5441C40.0293 31.3589 40.2081 31.064 40.3564 31.0415C40.877 30.9561 41.4147 30.9222 41.9421 30.9528C42.3028 30.9688 42.4628 31.3269 42.2828 31.6778Z" fill="white"/>
<path d="M47.7816 34.3073C48.1797 34.7643 48.5641 35.1695 48.8902 35.614C48.971 35.723 48.9285 36.0287 48.8279 36.1395C48.7301 36.2464 48.4324 36.3057 48.311 36.2365C47.7694 35.9165 47.2926 35.5019 47.0988 34.8734C47.0544 34.7304 47.1393 34.4702 47.2534 34.3781C47.3759 34.2829 47.6064 34.3255 47.7816 34.3073Z" fill="white"/>
<path d="M55.5785 47.9205C55.3353 48.4302 54.7907 48.4863 54.6709 48.16C54.4683 47.6063 54.3543 47.017 54.2604 46.4332C54.2397 46.3073 54.4449 46.0885 54.5965 46.0113C54.6998 45.9594 54.9946 46.0421 55.0261 46.1278C55.2514 46.7669 55.4307 47.4241 55.5785 47.9205Z" fill="white"/>
<path d="M10.4039 39.1682C10.8651 39.4245 11.2966 40.3199 11.1869 40.7693C11.1496 40.9257 10.9668 41.1426 10.8338 41.1521C10.6507 41.1647 10.3687 41.0641 10.2838 40.9191C10.0691 40.5577 9.9106 40.1557 9.79153 39.749C9.74801 39.6006 9.82948 39.3409 9.94793 39.2429C10.0678 39.1429 10.3012 39.1815 10.4039 39.1682Z" fill="white"/>
<path d="M47.7479 42.1391C47.3698 41.9425 47.2941 41.63 47.499 41.441C47.9087 41.0629 48.3876 40.7555 48.8649 40.4589C48.9617 40.3994 49.2421 40.4687 49.303 40.5635C49.3948 40.7075 49.4554 41.0242 49.3736 41.1005C48.9644 41.482 48.5115 41.8201 48.0548 42.1465C47.9702 42.2057 47.8006 42.141 47.7479 42.1391Z" fill="white"/>
<path d="M27.4666 43.8069C27.7574 44.0038 27.7549 44.5213 27.414 44.6156C26.8839 44.7601 26.3186 44.8283 25.7702 44.8186C25.4335 44.8109 25.3241 44.282 25.5643 44.0313C25.7735 43.8153 27.2267 43.6435 27.4666 43.8069Z" fill="white"/>
<path d="M35.1504 11.7156C34.9056 12.2361 34.4066 12.3039 34.2683 11.9615C34.0634 11.457 33.947 10.8961 33.9065 10.3507C33.8824 10.0332 34.5419 9.8465 34.6667 10.1283C34.9121 10.6768 35.0275 11.285 35.1504 11.7156Z" fill="white"/>
<path d="M22.5619 20.2005C22.3036 19.6908 22.0329 19.2111 21.8239 18.7038C21.7834 18.6056 21.9669 18.3292 22.1037 18.2683C22.2473 18.2064 22.5504 18.244 22.6292 18.3517C22.8997 18.7231 23.1325 19.1304 23.3138 19.5549C23.3676 19.6806 23.2436 19.9368 23.1268 20.066C23.0458 20.1579 22.8387 20.1412 22.5619 20.2005Z" fill="white"/>
<path d="M48.3793 19.2466C48.2705 19.0094 48.0733 18.7867 48.1174 18.6292C48.1623 18.4664 48.4401 18.2636 48.6152 18.2664C49.0386 18.2704 49.478 18.3398 49.8792 18.475C50.031 18.527 50.1694 18.8275 50.1762 19.0185C50.1801 19.1384 49.9324 19.3747 49.7963 19.376C49.3428 19.3805 48.8876 19.2996 48.3793 19.2466Z" fill="white"/>
<path d="M42.453 49.5475C42.2382 49.6333 42.0642 49.7545 41.891 49.7531C41.7652 49.7528 41.5451 49.6037 41.5317 49.5011C41.4707 49.0219 41.4357 48.5315 41.4634 48.0501C41.4705 47.9231 41.723 47.7263 41.8778 47.7114C42.0326 47.6965 42.3318 47.8484 42.3502 47.9606C42.427 48.4721 42.4236 48.995 42.453 49.5475Z" fill="white"/>
<path d="M45.274 57.0076C45.0723 56.8956 44.8182 56.8272 44.6826 56.6608C44.5606 56.5131 44.4753 56.2056 44.5499 56.0641C44.626 55.9206 44.9656 55.7863 45.1131 55.8443C45.5055 56.0001 45.8943 56.2194 46.2107 56.4977C46.3577 56.6273 46.4378 56.988 46.367 57.1743C46.2523 57.4762 45.9432 57.4132 45.6879 57.2839C45.541 57.2084 45.3998 57.125 45.2538 57.0441C45.2589 57.0327 45.2655 57.0194 45.274 57.0076Z" fill="white"/>
<path d="M33.5436 17.5797C33.5817 17.7481 33.6905 17.9644 33.6588 18.1548C33.6098 18.4528 32.3984 19.0985 32.0769 19.0447C31.7069 18.983 31.4837 18.5165 31.7691 18.3072C32.2141 17.9845 32.7455 17.7839 33.2452 17.5395C33.2974 17.517 33.3753 17.5549 33.5436 17.5797Z" fill="white"/>
<path d="M21.8762 34.7235C21.8107 34.5054 21.6756 34.2882 21.7073 34.0978C21.7289 33.9633 21.9766 33.7689 22.1205 33.7733C22.4748 33.7816 22.8405 33.8492 23.1689 33.9771C23.2938 34.0248 23.408 34.317 23.3815 34.475C23.3576 34.617 23.1439 34.8267 23.005 34.832C22.6547 34.8475 22.2961 34.77 21.8762 34.7235Z" fill="white"/>
<path d="M24.4108 50.2001C24.9335 50.9058 25.4199 51.5284 25.8605 52.1812C26.0265 52.4265 26.103 52.7546 25.7487 52.9594C25.409 53.1566 25.2069 52.9574 25.0055 52.6986C24.5821 52.1514 24.1582 51.6007 23.6951 51.0878C23.458 50.8245 23.3366 50.5421 23.596 50.3232C23.7687 50.1831 24.1044 50.2381 24.4108 50.2001Z" fill="white"/>
<path d="M22.7817 56.3875C22.7348 56.3358 22.6241 56.2684 22.6142 56.1861C22.5524 55.6704 22.4758 55.1502 22.4891 54.6344C22.4923 54.5046 22.8115 54.2776 22.977 54.2854C23.1371 54.2923 23.3862 54.5223 23.4228 54.6927C23.5098 55.1065 23.5257 55.5441 23.5149 55.9686C23.5014 56.3552 23.1122 56.571 22.7817 56.3875Z" fill="white"/>
<path d="M25.581 56.4441C25.3733 56.4991 25.1744 56.6173 25.0223 56.5741C24.8662 56.5281 24.6545 56.3339 24.6427 56.1874C24.6047 55.7638 24.5946 55.3183 24.6935 54.909C24.7353 54.7379 25.062 54.5673 25.2789 54.537C25.3815 54.5237 25.6236 54.8387 25.6355 55.0184C25.6683 55.4742 25.6061 55.9369 25.581 56.4441Z" fill="white"/>
<path d="M28.8268 9.22312C29.1654 9.67949 29.5581 10.0396 29.7321 10.4828C29.9817 11.1215 30.0912 11.8215 30.2237 12.5021C30.2858 12.8168 30.1894 13.1349 29.8118 13.1758C29.4498 13.2159 29.2892 12.9505 29.2274 12.6269C29.1973 12.4642 29.1705 12.3008 29.1486 12.135C29.0464 11.3621 28.8065 10.6555 28.2268 10.0919C28.0128 9.88412 27.9435 9.60023 28.1983 9.39601C28.352 9.27824 28.6002 9.27948 28.8268 9.22312Z" fill="white"/>
<path d="M26.6121 12.4022C26.9086 12.3029 27.1789 12.1189 27.4061 12.162C27.7752 12.229 27.755 12.5538 27.6719 12.8784C27.5261 13.449 27.4092 14.0255 27.2963 14.6048C27.2351 14.924 27.1351 15.2094 26.7523 15.1656C26.4032 15.125 26.2337 14.8471 26.2734 14.5243C26.3568 13.8398 26.4873 13.1651 26.6121 12.4022Z" fill="white"/>
<path d="M30.0319 14.967C29.6053 15.5191 29.3361 15.944 28.9846 16.2829C28.8473 16.4154 28.5258 16.3616 28.2879 16.3918C28.2611 16.1534 28.1321 15.8566 28.2261 15.684C28.4616 15.2558 28.7829 14.8712 29.1019 14.494C29.3115 14.2483 29.6062 13.9257 29.9137 14.2666C30.0753 14.4428 30.0133 14.8215 30.0319 14.967Z" fill="white"/>
<path d="M39.8613 16.5827C39.7694 16.3846 39.6135 16.2005 39.6397 16.0513C39.6667 15.8966 39.8572 15.6732 40.0041 15.6526C41.2239 15.4632 42.2594 14.8742 43.2882 14.2444C43.4514 14.1425 43.847 14.1895 43.9804 14.3214C44.2283 14.5655 44.1232 14.8623 43.8267 15.0786C42.8436 15.7952 41.7533 16.2848 40.5809 16.5923C40.3699 16.6478 40.1297 16.5894 39.8613 16.5827Z" fill="white"/>
<path d="M39.193 14.7217C39.1854 14.4941 39.0793 14.1236 39.1883 14.0429C39.6009 13.7359 40.0735 13.496 40.5522 13.2935C40.6551 13.2504 40.9188 13.4308 41.0154 13.5723C41.0817 13.6679 41.0424 13.9609 40.9538 14.0173C40.5163 14.3004 40.0525 14.5406 39.5902 14.7789C39.5207 14.813 39.4043 14.7534 39.193 14.7217Z" fill="white"/>
<path d="M24.7916 25.1074C24.6722 25.1566 24.5043 25.2732 24.3309 25.2807C24.1398 25.2876 23.9388 25.2122 23.7539 25.1394C23.1424 24.9042 22.5315 24.8646 21.9034 25.0828C21.5513 25.2052 21.2122 25.1507 21.1002 24.755C20.9941 24.3846 21.2955 24.2408 21.5911 24.126C22.5872 23.7339 23.5472 23.9102 24.488 24.3099C24.8019 24.4453 24.9486 24.6798 24.7916 25.1074Z" fill="white"/>
<path d="M20.3311 25.9886C20.1545 26.1049 20.0168 26.1921 19.8822 26.2876C19.4514 26.5905 19.0031 26.8719 18.5969 27.2075C18.3044 27.4476 18.0225 27.5933 17.7397 27.2851C17.4887 27.0117 17.6186 26.6847 17.8659 26.4992C18.4427 26.064 19.045 25.6561 19.6686 25.2936C19.8012 25.2177 20.1214 25.3277 20.2625 25.4531C20.3657 25.5392 20.3146 25.8027 20.3311 25.9886Z" fill="white"/>
<path d="M21.9844 28.1459C21.6467 27.9934 21.5875 27.5576 21.9222 27.3508C22.425 27.0395 22.9594 26.772 23.5008 26.5366C23.8498 26.385 24.1891 26.6858 24.13 27.0396C24.0418 27.5677 22.4845 28.3732 21.9844 28.1459Z" fill="white"/>
<path d="M36.5407 22.9058C36.7445 23.0192 36.9923 23.0921 37.1395 23.2549C37.2698 23.3995 37.3815 23.666 37.3383 23.839C37.2632 24.1483 36.9729 24.1889 36.6874 24.0889C36.5631 24.0447 36.4531 23.9596 36.3274 23.9173C35.6993 23.7093 35.075 23.4919 34.4412 23.3128C34.0855 23.2104 33.6474 23.1809 33.7032 22.6896C33.7618 22.1943 34.1724 22.1951 34.5562 22.2877C35.2292 22.4499 35.8961 22.6289 36.5674 22.8019C36.5608 22.8362 36.5507 22.871 36.5407 22.9058Z" fill="white"/>
<path d="M35.8134 26.9103C35.5192 26.5968 35.1735 26.2465 34.8509 25.8766C34.6246 25.6149 34.5889 25.2801 34.9054 25.1112C35.0723 25.021 35.4813 25.0867 35.5827 25.2256C36.0212 25.8228 36.5826 26.157 37.2933 26.3253C37.6261 26.4053 37.9349 26.6482 37.7794 27.0527C37.6255 27.4466 37.2921 27.4051 36.9424 27.265C36.6081 27.1329 36.2532 27.0461 35.8134 26.9103Z" fill="white"/>
<path d="M30.4589 36.2151C30.376 36.2426 30.1384 36.4021 29.9324 36.3712C29.5523 36.3113 29.5608 35.9692 29.5954 35.6578C29.6815 34.8401 29.771 34.0218 29.8503 33.2052C29.8655 33.042 29.8342 32.8725 29.8474 32.7078C29.8753 32.3556 29.9587 32.0223 30.412 32.0598C30.7911 32.092 30.8655 32.3855 30.8739 32.7038C30.8981 33.8319 30.9823 34.9641 30.4589 36.2151Z" fill="white"/>
<path d="M27.7837 38.8984C27.7895 38.6354 27.6997 38.3217 27.8154 38.1856C28.1623 37.7864 28.5716 37.4381 28.9982 37.1201C29.1135 37.0348 29.4121 37.0662 29.536 37.1612C29.6539 37.2519 29.7536 37.5937 29.6905 37.6565C29.2548 38.1 28.7818 38.5077 28.2998 38.9029C28.2245 38.9659 28.0487 38.9056 27.7837 38.8984Z" fill="white"/>
<path d="M28.1702 36.0119C27.8163 36.6132 27.5628 36.7613 27.2293 36.5277C26.9057 36.3013 26.9496 35.8765 27.3621 35.3984C27.585 35.1383 27.859 34.8697 28.2092 35.1093C28.5812 35.3646 28.3879 35.688 28.1702 36.0119Z" fill="white"/>
<path d="M41.3642 35.6018C41.6318 35.8811 42.0726 36.2788 42.4245 36.7417C42.5273 36.8786 42.3861 37.2005 42.3554 37.4396C42.1194 37.3962 41.7852 37.4352 41.6657 37.2923C41.2258 36.7722 40.7221 36.3744 40.0845 36.1295C39.8068 36.023 39.6099 35.7705 39.7739 35.513C39.882 35.3416 40.1995 35.2214 40.4206 35.2271C40.6699 35.2352 40.9115 35.4087 41.3642 35.6018Z" fill="white"/>
<path d="M42.2167 40.2068C42.4184 40.3188 42.6532 40.3973 42.8115 40.5531C42.9279 40.6667 43.0414 40.9434 42.9825 41.0421C42.8848 41.2031 42.5974 41.411 42.4731 41.3667C42.0147 41.2025 41.5616 40.985 41.169 40.7C41.0264 40.5976 40.9659 40.2179 41.035 40.0214C41.1493 39.6952 41.4526 39.787 41.7025 39.9155C41.878 40.0055 42.0497 40.1049 42.2229 40.2023C42.2195 40.2029 42.2181 40.2048 42.2167 40.2068Z" fill="white"/>
<path d="M35.8337 46.5305C35.4463 46.6184 35.1797 46.7721 35.0363 46.6961C34.1946 46.2505 33.332 45.9761 32.3629 46.0214C32.2192 46.0292 31.9942 45.6905 31.9347 45.4767C31.91 45.3899 32.2146 45.1163 32.3963 45.0848C33.501 44.8968 34.5089 45.1945 35.4167 45.8197C35.585 45.9406 35.65 46.2094 35.8337 46.5305Z" fill="white"/>
<path d="M33.057 48.4232C32.9332 48.3073 32.6116 48.0613 32.3625 47.7562C32.2684 47.6406 32.2557 47.3073 32.3458 47.2279C32.489 47.0996 32.8081 46.9896 32.9448 47.0668C33.3789 47.3066 33.7871 47.6118 34.1515 47.9487C34.2812 48.0689 34.3594 48.4072 34.2808 48.5459C34.1993 48.6885 33.9027 48.7546 33.6981 48.7637C33.5552 48.7661 33.4082 48.6155 33.057 48.4232Z" fill="white"/>
<path d="M37.3177 48.9444C36.8973 48.9486 36.6341 49.0267 36.4518 48.9378C36.072 48.7519 35.9228 47.9483 36.1536 47.5978C36.3386 47.3194 36.6749 47.2608 36.8168 47.4979C37.042 47.8697 37.1178 48.3325 37.3177 48.9444Z" fill="white"/>
<path d="M48.4499 25.7425C48.3049 25.8064 48.1217 25.957 47.9676 25.9333C47.8081 25.9088 47.5594 25.7242 47.5479 25.5898C47.4618 24.7444 46.9896 24.1231 46.4859 23.4911C46.3653 23.3414 46.3977 22.9954 46.4808 22.7879C46.5127 22.7058 46.9581 22.6625 47.0777 22.7635C47.8839 23.4507 48.4541 24.2866 48.5143 25.3895C48.5163 25.487 48.4798 25.5838 48.4499 25.7425Z" fill="white"/>
<path d="M46.5365 26.4963C46.3324 26.6048 46.1685 26.7662 46.0132 26.7567C45.8613 26.7467 45.6047 26.5774 45.592 26.4572C45.5447 26.0089 45.546 25.5476 45.6022 25.1016C45.6172 24.9803 45.8864 24.8104 46.038 24.8083C46.1882 24.8081 46.4473 24.9823 46.466 25.1068C46.5322 25.5536 46.5188 26.0153 46.5365 26.4963Z" fill="white"/>
<path d="M46.4332 27.902C46.7122 28.2826 46.995 28.6118 47.1991 28.9837C47.264 29.1023 47.1765 29.3997 47.058 29.4977C46.9458 29.5912 46.6283 29.6153 46.5333 29.526C46.2255 29.2358 45.9498 28.8967 45.7269 28.5384C45.6603 28.4305 45.758 28.1315 45.8753 28.0267C46.0004 27.9153 46.2384 27.9392 46.4332 27.902Z" fill="white"/>
<path d="M15.4753 35.1925C14.7642 34.2644 13.7929 33.9449 12.9333 33.4534C12.8178 33.3885 12.6615 33.3302 12.615 33.2278C12.5415 33.0669 12.4564 32.7926 12.5345 32.7046C12.6593 32.5602 12.9712 32.406 13.1023 32.4701C14.1388 32.9746 15.2558 33.3627 16.0375 34.2845C16.059 34.309 16.0839 34.3328 16.1039 34.3593C16.2756 34.6176 16.453 34.9222 16.1268 35.1381C15.9536 35.2539 15.657 35.1819 15.4753 35.1925Z" fill="white"/>
<path d="M11.7473 35.7144C11.6672 35.4498 11.4838 35.1619 11.561 35.0252C11.6589 34.8554 11.9847 34.7112 12.1943 34.7327C12.7823 34.7918 13.3723 34.9065 13.9367 35.0778C14.1188 35.1336 14.3056 35.4209 14.3391 35.625C14.3569 35.7339 14.039 36.0219 13.8886 36.0098C13.2042 35.9595 12.5261 35.8296 11.7473 35.7144Z" fill="white"/>
<path d="M9.96476 33.8455C10.2725 34.0606 10.76 34.1677 10.5443 34.7061C10.4042 35.0558 9.97712 35.0402 9.43218 34.6997C9.32297 34.6303 9.16327 34.5726 9.12216 34.471C9.04645 34.2755 8.95254 34.0009 9.0354 33.8563C9.10887 33.729 9.40879 33.7043 9.61431 33.6898C9.72827 33.6816 9.849 33.7894 9.96476 33.8455Z" fill="white"/>
<path d="M49.3509 52.5276C48.8945 51.9385 48.4931 51.461 48.1402 50.9493C47.9482 50.6733 47.9886 50.3121 48.3154 50.1956C48.4921 50.1335 48.8182 50.2897 48.9819 50.4463C49.359 50.8072 49.7033 51.2137 50.0134 51.6346C50.1478 51.8152 50.1655 52.0831 50.236 52.3109C49.9487 52.3807 49.6634 52.4519 49.3509 52.5276Z" fill="white"/>
<path d="M50.1466 48.4071C50.0166 48.701 49.6328 48.8005 49.4167 48.5372C49.1292 48.1895 48.8831 47.7966 48.6841 47.3925C48.5186 47.0545 48.8148 46.7299 49.1914 46.7783C49.7336 46.8466 50.3639 47.9208 50.1466 48.4071Z" fill="white"/>
<path d="M20.6379 41.3238C20.6976 41.4747 20.8448 41.6585 20.8112 41.8055C20.7754 41.9598 20.5789 42.0829 20.44 42.2052C20.3988 42.2417 20.3101 42.244 20.2489 42.2331C19.5769 42.1196 18.9404 42.2117 18.3232 42.5067C18.0281 42.6459 17.732 42.6194 17.5941 42.2471C17.4753 41.9277 17.6507 41.7505 17.9039 41.6111C18.75 41.1353 19.638 41.0317 20.6379 41.3238Z" fill="white"/>
<path d="M16.4281 44.4175C16.3059 44.1405 16.1553 43.9573 16.1784 43.7998C16.1992 43.6497 16.388 43.4161 16.5238 43.4025C17.1093 43.3398 17.7048 43.3173 18.2939 43.3413C18.4345 43.3462 18.6468 43.5647 18.6781 43.7133C18.7089 43.8585 18.5686 44.175 18.4665 44.1917C17.7976 44.2996 17.1173 44.3482 16.4281 44.4175Z" fill="white"/>
<path d="M56.1452 38.0761C55.4878 38.6695 54.9206 39.2166 54.3105 39.7149C54.0472 39.931 53.691 40.0174 53.4539 39.6369C53.2508 39.3139 53.4432 39.1129 53.6971 38.8931C54.217 38.441 54.7103 37.9549 55.1898 37.4588C55.42 37.2219 55.6677 37.0066 55.9283 37.2958C56.0826 37.4697 56.074 37.7908 56.1452 38.0761Z" fill="white"/>
<path d="M54.2504 35.9793C54.6923 35.6484 55.006 35.3454 55.3803 35.167C55.544 35.0895 55.8744 35.2188 56.0393 35.3612C56.1108 35.4246 56.018 35.7962 55.8971 35.9436C55.6697 36.2184 55.3915 36.4719 55.0875 36.6527C54.8996 36.7639 54.5009 36.8257 54.4105 36.7218C54.2627 36.5556 54.2956 36.234 54.2504 35.9793Z" fill="white"/>
</svg>
