<svg width="128" height="105" viewBox="0 0 128 105" fill="none" xmlns="http://www.w3.org/2000/svg">
<path d="M78.7702 46.7577C78.7702 48.3218 78.7702 47.2994 78.7702 48.7296C71.9256 49.3869 65.0667 49.8677 58.2722 50.744C51.492 51.6143 44.7833 52.9046 38.0675 54.9008C38.4537 52.1742 38.7469 49.6729 39.1689 47.1837C39.7053 43.9886 40.2417 40.7935 40.9712 37.6287C41.3861 35.8334 42.137 34.0867 42.8308 32.3461C43.1026 31.6645 42.9881 31.1837 42.2944 30.849C41.5506 30.496 40.9212 30.8185 40.6923 31.3906C39.8984 33.4112 38.9758 35.4256 38.5252 37.5131C37.6169 41.6638 36.916 45.8448 36.2723 50.032C35.786 53.1784 35.5571 56.3553 35.1709 59.5139C34.7203 63.1959 34.2268 66.8658 33.7547 70.5478C33.6618 71.2477 33.5402 71.9476 33.483 72.6475C33.4401 73.2195 33.1468 73.463 32.4817 73.2987C30.2073 72.7266 27.9043 72.6231 25.537 72.757C21.4317 72.9822 17.312 73.0187 13.2067 73.2743C11.4688 73.3839 9.70217 73.7186 8.05719 74.1994C7.33482 74.4124 6.70544 75.1792 6.32638 75.8243C5.97592 76.4208 5.89725 77.1815 5.8901 77.8692C5.81142 81.9347 5.81857 86.0001 5.73275 90.0655C5.68269 92.6521 5.51818 95.2325 5.40375 97.886C4.0663 97.9651 2.76461 98.0442 1.47008 98.1173C0.375809 98.1781 -0.0461731 98.5068 0.00389099 99.2432C0.0611115 100.071 0.71196 100.253 1.52015 100.205C2.82899 100.126 4.13783 100.022 5.56825 99.9248C5.66123 100.26 5.7542 100.649 5.86864 101.039C6.27631 102.353 7.19894 103.15 8.82962 103.418C10.9896 103.765 13.1066 104.386 15.288 104.605C19.0714 104.982 22.8692 104.921 26.6599 104.428C31.7593 103.765 36.5012 102.384 40.6852 99.7605C40.8139 99.6753 40.9855 99.5718 41.1286 99.584C42.3015 99.6388 43.4816 99.6327 44.6331 99.8092C48.2593 100.375 51.8925 100.485 55.5687 100.29C57.8789 100.168 60.2176 100.357 62.5277 100.211C66.5615 99.9613 70.5739 99.5231 74.6005 99.231C78.4913 98.945 82.3892 98.6772 86.2942 98.5189C91.0933 98.3242 95.921 97.959 100.706 98.1781C109.009 98.5615 117.313 98.3485 125.609 98.452C125.853 98.452 126.096 98.452 126.339 98.452C127.097 98.4459 127.483 98.0808 127.541 97.4661C127.605 96.7966 127.111 96.5167 126.41 96.4375C126.103 96.4071 125.788 96.4193 125.474 96.4193C119.723 96.4193 113.973 96.4314 108.223 96.4071C106.642 96.401 105.054 96.2854 103.774 96.2367C102.866 94.4048 102.065 92.7799 101.206 91.0454C102.63 90.8384 104.146 90.6133 105.662 90.4003C107.264 90.1751 108.873 89.9742 110.476 89.7491C112.271 89.4934 112.95 88.7144 112.678 87.1503C112.543 86.3652 112.328 85.5923 112.099 84.8194C110.919 80.7722 109.789 76.7068 108.516 72.684C107.221 68.5942 105.777 64.547 104.389 60.4755C104.296 60.1956 104.182 59.9095 104.017 59.6539C103.688 59.1427 103.166 58.8384 102.479 59.0636C101.757 59.3009 101.528 59.7939 101.786 60.4329C102.007 60.9867 102.279 61.5345 102.465 62.0944C103.996 66.7684 105.548 71.4303 107.007 76.1165C108.101 79.6342 109.067 83.1823 110.082 86.7243C110.161 87.0043 110.189 87.2903 110.261 87.6737C107.751 88.0267 105.305 88.3675 102.859 88.7084C102.787 88.7205 102.723 88.7084 102.651 88.7205C101.464 88.9031 100.169 89.4143 99.1251 89.1709C98.1238 88.9335 97.3729 87.9111 96.5218 87.2295C95.3488 86.2861 94.0829 85.5193 92.4307 85.2819C92.2233 85.2515 91.9229 84.8133 91.9587 84.6064C93.0816 78.4352 94.2402 72.2701 95.3774 66.105C95.4847 65.5269 95.499 64.9304 95.5133 64.3462C95.5276 63.7132 95.1056 63.3116 94.3904 63.2994C93.7038 63.2872 93.2461 63.6341 93.1388 64.261C92.3163 69.1054 91.501 73.9559 90.6499 78.7943C90.3137 80.7053 89.8989 82.6102 89.5055 84.5577C87.4529 84.5577 85.3645 84.5577 83.0472 84.5577C83.0472 83.3283 83.0186 82.1598 83.0543 80.9913C83.1831 77.0355 82.7825 73.11 82.2533 69.1906C82.1317 68.3142 82.0959 67.4318 81.9887 66.5554C81.91 65.9103 81.4809 65.4903 80.6798 65.5756C79.936 65.6547 79.5212 66.0564 79.5998 66.7501C79.8573 68.9715 80.1291 71.199 80.3651 73.4265C80.4867 74.595 80.6011 75.7696 80.6154 76.9442C80.6512 79.5976 80.6297 82.245 80.6297 84.9168C78.9633 85.3489 77.304 85.781 75.609 86.2192C73.9497 83.1153 72.5335 79.8959 71.4393 76.5425C70.3808 73.2987 68.793 70.1826 67.4269 67.0118C67.3125 66.738 67.1122 66.4884 66.9191 66.2511C66.49 65.7094 65.925 65.539 65.2312 65.892C64.5017 66.2633 64.5947 66.7501 64.8808 67.3344C66.018 69.6653 67.2195 71.9719 68.1851 74.3576C69.1434 76.719 69.7514 79.1777 70.6811 81.5452C71.3463 83.2371 72.2761 84.8559 73.0771 86.5113C73.1915 86.7487 73.2774 86.9921 73.3918 87.2903C70.4952 88.2336 68.5355 90.1142 66.4829 91.8913C66.3112 92.0374 66.0251 92.1469 65.7748 92.1652C61.2618 92.439 56.7417 92.6947 52.2215 92.9503C52.1643 92.9564 52.0999 92.9077 51.9712 92.8529C52.1142 91.0941 52.2001 89.3109 52.4289 87.5338C52.6936 85.4341 52.9868 83.3283 53.4445 81.253C53.8737 79.3299 54.689 77.4676 55.0681 75.5383C55.4972 73.3717 55.6116 71.1625 55.8977 68.9715C55.9692 68.4238 56.1767 67.8882 56.3054 67.3466C56.4627 66.6832 56.4055 66.0503 55.5115 65.8433C54.7033 65.6547 54.1598 66.0442 54.0024 66.7076C53.7378 67.8821 53.4302 69.0567 53.3373 70.2435C53.0726 73.5664 52.3646 76.7981 51.3204 80.0176C50.6409 82.0929 50.4335 84.2839 50.126 86.4383C49.847 88.3615 49.7326 90.3029 49.5037 92.2321C49.2462 94.3926 50.3048 95.269 52.8867 94.9952C53.0226 94.983 53.1585 94.9586 53.3015 94.9465C56.9562 94.7517 60.6181 94.557 64.2729 94.3622C64.5017 94.3501 64.7306 94.3622 64.8665 94.3622C64.4803 95.6038 64.1155 96.8088 63.7221 98.0807C60.1961 98.172 56.6058 98.3972 53.0154 98.3181C49.4394 98.239 45.8776 97.8617 42.1656 97.606C42.2586 97.0461 42.3731 96.6019 42.4017 96.1576C42.6305 92.7799 42.9023 89.4082 43.0382 86.0244C43.1383 83.4683 43.1383 80.9061 43.0311 78.35C42.981 77.072 41.7723 76.2504 40.7638 75.447C39.4049 74.3698 37.6455 74.0107 35.7573 73.7916C36.3009 70.1522 36.8373 66.5554 37.3594 63.0073C46.8288 64.5409 56.3769 64.1758 65.8892 64.0541C71.8255 63.981 77.7546 63.3907 83.6694 62.843C86.6447 62.5691 89.6557 62.1005 92.4951 61.3154C95.3488 60.5242 98.038 59.2766 100.749 58.1385C102.007 57.609 103.173 56.9152 104.325 56.2275C104.747 55.9719 105.111 55.558 105.312 55.1442C106.907 51.8273 104.718 48.8026 100.37 48.3644C95.7136 47.8958 91.0504 47.9506 86.3801 48.267C84.7279 48.3766 83.0758 48.4618 81.2806 48.5653C81.2806 47.0924 81.2806 48.1027 81.2806 46.6056C81.5524 46.5812 81.9171 46.5325 82.289 46.5143C87.0452 46.2708 91.3436 44.8102 95.4489 42.8688C96.9509 42.1567 98.5029 41.4934 99.9119 40.6596C104.124 38.1643 105.612 34.6588 105.119 30.3804C104.618 26.0289 102.229 22.5477 98.6316 19.5656C97.6947 18.7866 96.8794 17.8676 95.8423 17.2042C93.5322 15.7253 91.1577 14.3073 88.7188 12.9745C86.1583 11.5747 84.3345 9.76715 83.7052 7.19278C83.5335 6.47464 83.4477 5.73823 83.4048 5.00792C83.3619 4.3202 83.04 3.82724 82.2247 3.80289C81.395 3.77855 80.9802 4.26543 81.0017 4.95314C81.1089 8.36129 82.289 11.3982 85.6219 13.5161C87.696 14.8307 89.9704 15.914 92.0588 17.2042C93.4177 18.0502 94.6765 19.0361 95.8638 20.0585C97.9021 21.8113 99.8976 23.6067 101.206 25.8524C102.673 28.3659 103.052 31.0863 102.63 33.7824C102.258 36.1316 100.534 37.9939 98.1381 39.2598C94.1043 41.3899 89.8846 43.1974 85.2286 44.1225C83.9269 44.3781 82.5608 44.4024 81.1018 44.5485C80.7013 42.814 80.7871 43.2583 80.4152 41.6455C81.488 41.256 82.5251 40.9456 83.4906 40.5257C86.423 39.2598 87.9821 37.2818 87.9178 34.391C87.8534 31.6219 87.2884 29.0171 84.6778 27.1487C83.9269 26.6131 82.7754 26.4123 81.7598 26.248C80.6584 26.0654 79.4997 26.0411 78.3697 26.0532C76.0738 26.0776 73.8924 26.5766 72.0257 27.7086C69.215 29.4127 68.1708 31.8897 68.5212 34.7318C68.9146 37.8844 70.817 40.264 74.3287 41.4751C75.3658 41.8342 76.6174 41.7246 77.962 41.8463C78.3196 43.3496 78.2409 42.8992 78.6558 44.6763C76.8391 44.7311 75.1298 44.8589 73.4204 44.8224C70.6955 44.7615 67.899 44.8832 65.2741 44.3781C62.4562 43.8365 59.5882 42.9053 57.5069 41.0795C56.5128 40.2031 55.8906 38.8703 55.5401 37.6531C54.7963 35.0666 54.6819 32.3948 55.5115 29.8083C56.3054 27.3191 57.8932 25.1403 59.6669 23.0468C62.7137 19.4439 65.689 15.7984 68.6428 12.1407C69.5583 11.0087 70.4022 9.81584 71.1389 8.59256C72.2546 6.73025 72.9841 4.75231 72.977 2.62221C72.977 2.12316 73.1629 1.59368 73.0127 1.13115C72.884 0.72339 72.4978 0.22434 72.0758 0.0661045C71.4965 -0.146905 70.9315 0.175652 70.7241 0.735562C70.6096 1.03986 70.4952 1.37459 70.5238 1.68497C70.8099 5.04443 69.2007 7.8805 67.0622 10.5279C63.5791 14.8429 59.9601 19.0787 56.4699 23.3937C54.8821 25.3594 53.5232 27.4834 53.0011 29.8387C52.0928 33.9467 52.2287 38.0304 54.9608 41.6759C55.7904 42.7836 57.2423 43.6417 58.5869 44.3659C59.91 45.0719 61.4692 45.4614 62.9211 45.997C64.7663 46.6786 66.7189 46.8064 68.6857 46.8186C71.4822 46.8307 74.2858 46.7821 77.0894 46.7638C77.6115 46.7577 78.1265 46.7577 78.7702 46.7577ZM40.7853 80.4923C40.7853 80.894 40.7996 81.2104 40.7853 81.533C40.6494 84.9411 40.5564 88.3554 40.3562 91.7574C40.256 93.5163 40.0272 95.269 39.7125 97.0096C39.6195 97.5208 39.1618 98.1112 38.6611 98.4155C34.1338 101.16 28.9342 102.292 23.5058 102.651C18.9785 102.95 14.4869 102.603 10.0955 101.507C8.34327 101.069 8.24314 101.105 7.9642 99.5962C7.91414 99.3345 7.91415 99.0667 7.9213 98.805C7.98566 96.6871 8.09295 94.5691 8.12155 92.4512C8.16447 89.2987 8.12871 86.1462 8.16447 82.9936C8.17162 82.0746 8.3075 81.1617 8.38618 80.1819C8.71518 80.3036 8.9226 80.3949 9.14431 80.4619C10.632 80.9122 12.0838 81.5695 13.6144 81.7643C18.1345 82.3485 22.6976 82.5493 27.2606 82.1416C31.7593 81.746 36.401 82.245 40.7853 80.4923ZM101.071 50.6162C102.179 51.0605 103.252 51.3709 103.316 52.4238C103.381 53.574 103.295 54.7121 101.714 55.2659C100.956 55.5276 100.32 56.0145 99.5829 56.337C97.3443 57.3047 95.1915 58.5949 92.8098 59.1183C88.6115 60.0434 84.2988 60.7129 79.9861 61.0963C72.2117 61.7962 64.4087 62.2952 56.5772 62.0213C52.1572 61.8692 47.73 61.8083 43.3028 61.6379C41.901 61.5832 40.4849 61.3884 39.1188 61.1085C37.5597 60.7859 37.5668 60.7129 37.6384 59.3922C37.6741 58.7471 37.6956 58.0898 37.8529 57.463C37.9173 57.2073 38.2677 56.8665 38.561 56.7996C42.5232 55.8989 46.4998 55.0225 50.4764 54.1765C52.3002 53.787 54.1454 53.4766 55.9764 53.1297C55.6832 55.1016 55.4042 56.9335 55.1396 58.7714C55.0395 59.4591 55.1181 60.1043 56.1409 60.2442C56.9705 60.3599 57.4712 59.9034 57.5928 58.9723C57.7358 57.8038 57.8574 56.6353 58.0434 55.4728C58.1363 54.8947 58.3366 54.3348 58.4939 53.7627C59.6168 55.4059 60.5108 57.0126 61.3905 58.6315C61.7124 59.2218 62.1415 59.6782 62.9712 59.4105C63.7221 59.167 64.0082 58.6375 63.6935 57.9803C63.3645 57.3047 62.9712 56.6535 62.6136 55.9841C62.0128 54.8764 61.4192 53.7627 60.7254 52.4785C66.8834 51.9186 72.8411 51.377 78.8846 50.8292C78.9418 51.4257 79.0062 51.9186 79.0277 52.4177C79.1135 54.42 79.1707 56.4162 79.278 58.4184C79.3138 59.0818 79.607 59.6904 80.5511 59.6478C81.4522 59.6052 81.7526 59.0575 81.724 58.3515C81.6668 56.9396 81.581 55.5276 81.5452 54.1157C81.5166 52.9776 81.5381 51.8456 81.5381 50.5249C86.3657 50.3606 91.315 50.1902 96.3859 50.0137C96.0783 50.9266 95.8566 51.5961 95.6349 52.2716C95.2201 53.5071 94.7695 54.7364 94.4047 55.978C94.2331 56.5683 94.5478 57.0491 95.2773 57.183C96.0283 57.323 96.6076 56.9882 96.8221 56.4101C97.2584 55.2416 97.5874 54.0487 97.9665 52.868C98.131 52.3446 98.3026 51.8273 98.4743 51.31C98.5601 51.31 98.6459 51.31 98.7318 51.31C98.8963 51.7969 99.0465 52.2899 99.2324 52.7767C99.4541 53.361 99.8833 53.7931 100.677 53.6166C101.45 53.4401 101.807 52.9837 101.578 52.2716C101.4 51.7665 101.264 51.2613 101.071 50.6162ZM85.4717 34.3302C85.7221 36.1925 84.6707 37.4279 82.9399 38.4382C81.1733 39.4728 79.1993 39.5641 77.1967 39.631C76.4529 39.6554 75.6161 39.7102 74.9724 39.4606C71.5823 38.1704 70.3593 35.237 71.0817 32.4131C71.9399 29.0475 75.7162 28.1225 78.6844 28.1529C79.464 28.159 80.2364 28.305 81.016 28.3111C82.9899 28.3233 83.8697 28.7554 84.5134 30.3378C85.0283 31.6158 85.5719 34.3119 85.4717 34.3302ZM66.0752 97.9286C66.6974 96.6262 67.1981 95.5186 67.7702 94.4474C67.8775 94.2527 68.278 94.0701 68.557 94.0518C72.9341 93.7536 77.3112 93.5163 81.6883 93.1998C87.0595 92.8164 92.4665 92.7251 97.7591 91.7209C97.9879 91.6783 98.3527 91.7392 98.5029 91.8731C99.776 93.0294 100.47 94.4292 100.963 96.0541C89.341 95.8837 77.9262 96.8331 66.0752 97.9286ZM96.3287 90.0655C87.4815 90.7106 78.7988 91.3436 69.9802 91.9826C70.5953 91.4044 71.0245 90.9784 71.4822 90.5889C71.6968 90.4063 71.9685 90.2664 72.2332 90.1325C77.0537 87.7042 82.146 86.0975 87.8605 86.627C91.0003 86.9069 94.1043 87.3877 96.3287 90.0655ZM31.9381 79.7863C26.4381 80.3523 19.1859 80.4497 14.4011 79.7924C12.7061 79.5611 11.0611 78.8978 9.50192 78.2466C9.00842 78.0396 8.77955 77.2667 8.57929 76.7068C8.52207 76.5425 8.92259 76.0982 9.19437 76.0374C10.5962 75.733 12.0123 75.374 13.4427 75.2949C17.9271 75.0453 22.4186 74.881 26.903 74.735C28.9056 74.6741 30.8868 74.8871 32.8321 75.4896C32.5246 76.9746 32.2314 78.3987 31.9381 79.7863ZM40.1988 78.1248C38.5467 79.5003 36.5155 79.4881 34.5343 79.6828C34.7632 78.3318 34.9778 77.1024 35.1923 75.8061C37.2736 76.0921 39.1975 76.3599 40.1988 78.1248Z" fill="white"/>
<path d="M75.9449 13.3335C76.3025 15.6036 76.6816 17.9954 77.0463 20.3872C77.1178 20.8558 77.1322 21.3244 77.1965 21.793C77.2752 22.4077 77.5756 22.9007 78.4052 22.8764C79.3207 22.852 79.6855 22.3104 79.6354 21.6226C79.5496 20.4785 79.3708 19.3404 79.2063 18.2023C78.9488 16.48 78.677 14.7637 78.3981 13.0414C78.2979 12.3963 77.9689 11.9033 77.0964 11.9094C76.3383 11.9155 75.902 12.4267 75.9449 13.3335Z" fill="white"/>
<path d="M32.8465 41.8098C32.8465 42.0167 32.8465 42.2237 32.8465 42.4306C32.8393 43.0818 33.2684 43.4409 33.9765 43.4652C34.6702 43.4835 35.1208 43.1913 35.221 42.528C35.4141 41.1647 35.6501 39.8014 35.9004 38.4382C36.0506 37.6288 36.2866 36.8376 36.4368 36.0281C36.5656 35.3343 36.2151 34.8353 35.3855 34.7683C34.6273 34.7075 34.2197 35.0787 34.0766 35.7543C33.6475 37.7687 33.154 39.7771 32.682 41.7855C32.732 41.7916 32.7893 41.8037 32.8465 41.8098Z" fill="white"/>
<path d="M96.8438 26.035C96.1715 26.3514 95.6422 26.601 95.1058 26.8444C94.2619 27.2339 93.3893 27.593 92.574 28.019C91.9589 28.3416 91.3224 28.7128 91.5655 29.4796C91.7515 30.07 92.5597 30.3986 93.2105 30.1004C94.6266 29.4431 96.0499 28.7858 97.3802 28.019C97.7164 27.8242 97.9023 27.2035 97.838 26.8201C97.795 26.5401 97.23 26.321 96.8438 26.035Z" fill="white"/>
<path d="M63.2645 31.5306C63.6578 31.2993 64.2014 31.1472 64.2944 30.8733C64.4231 30.5142 64.3659 29.8326 64.1013 29.6987C62.6923 28.9988 61.2118 28.3902 59.7027 27.8547C59.4381 27.7634 58.7658 28.1042 58.5655 28.3902C58.3867 28.6337 58.4582 29.3031 58.68 29.4127C60.139 30.1613 61.6624 30.8064 63.2645 31.5306Z" fill="white"/>
<path d="M87.2457 23.4302C87.3816 23.3876 87.7249 23.3571 87.9466 23.205C88.7619 22.6268 89.6202 22.0608 90.2925 21.3731C90.5428 21.1175 90.5356 20.4176 90.2925 20.1498C90.0493 19.8881 89.1767 19.6873 88.9121 19.8516C87.8965 20.4785 86.9238 21.1966 86.1085 22.006C85.5435 22.572 86.1728 23.3997 87.2457 23.4302Z" fill="white"/>
<path d="M65.7033 21.3062C65.925 21.6591 66.0395 21.9452 66.2469 22.1643C66.7189 22.6694 67.2196 23.1502 67.7417 23.6188C68.2566 24.0814 68.8717 24.2031 69.4939 23.7953C70.1305 23.3754 70.1162 22.8337 69.6441 22.3408C69.0577 21.7261 68.4712 21.0992 67.7703 20.5941C67.4842 20.3872 66.8477 20.3507 66.4758 20.4724C66.1396 20.5819 65.9536 21.014 65.7033 21.3062Z" fill="white"/>
<path d="M31.1729 66.8171C31.1729 67.0849 31.0584 67.4074 31.1943 67.6022C31.4518 67.9613 31.8309 68.4603 32.2028 68.4907C32.5961 68.5272 33.2899 68.1499 33.4186 67.8274C33.6689 67.2066 33.6475 66.5006 33.6618 65.8312C33.6761 65.2287 33.1826 64.9061 32.5532 64.8513C31.838 64.7965 31.3731 65.1617 31.2515 65.7581C31.18 66.0989 31.2372 66.4641 31.2372 66.8171C31.2229 66.8171 31.2015 66.8171 31.1729 66.8171Z" fill="white"/>
<path d="M40.7422 48.547C40.7065 49.2043 41.0569 49.6486 41.8008 49.7581C42.5875 49.8737 43.0309 49.4234 43.1668 48.833C43.2812 48.3218 43.3599 47.7619 43.2097 47.275C43.1096 46.9403 42.6018 46.4778 42.2585 46.4656C41.8365 46.4534 41.2286 46.7699 41.0212 47.0925C40.7637 47.5002 40.8209 48.054 40.7422 48.547Z" fill="white"/>
<path d="M21.7964 87.0469C21.1384 86.7304 20.5805 86.4444 20.0012 86.1888C19.3003 85.8845 18.6065 85.921 18.2132 86.5478C17.8484 87.1199 18.1059 87.6312 18.7639 87.9659C18.9999 88.0876 19.2359 88.2093 19.4791 88.325C20.9167 89.0188 20.9167 89.0127 20.4947 90.3881C18.9141 90.1812 18.4134 90.4977 18.5064 91.8305C18.6494 93.918 19.4719 95.8533 20.7021 97.6365C21.0168 98.0929 21.8178 98.452 22.4687 98.5616C23.6416 98.7624 24.8646 98.7624 26.0733 98.805C29.0844 98.9206 29.9498 98.1051 30.7723 95.4456C31.1513 94.2162 31.559 92.9868 31.9881 91.7696C32.2027 91.161 31.8308 90.4672 31.0798 90.3212C30.6507 90.2359 30.2001 90.2359 29.6708 90.1873C29.2274 88.2823 27.6611 86.9252 26.2235 85.5072C25.2079 84.503 23.7417 84.576 22.8835 85.6654C22.533 86.0975 22.1969 86.5357 21.7964 87.0469ZM28.8555 92.6095C28.7768 93.0233 28.7554 93.3155 28.6695 93.5954C28.3763 94.5509 28.1689 95.5368 27.7183 96.4376C27.4394 96.9914 22.9693 96.894 22.6117 96.3341C21.8607 95.1717 21.2528 93.9423 21.1455 92.6095C23.7704 92.6095 26.2807 92.6095 28.8555 92.6095ZM24.2066 87.7346C24.2495 87.6798 24.4498 87.4364 24.6858 87.1443C25.6871 88.185 26.8672 89.0553 27.2034 90.5098C25.7658 90.3881 24.414 90.7837 23.098 90.3029C23.8776 90.1568 24.929 90.3759 25.0077 89.4083C25.0434 88.9457 24.5714 88.4467 24.2066 87.7346Z" fill="white"/>
<path d="M16.8043 79.4455C18.4278 79.1777 19.6723 78.9586 20.931 78.7639C23.9564 78.2892 26.9746 78.417 29.9928 78.8612C30.2932 78.9038 30.6794 79.0134 30.8939 78.9038C31.3016 78.6908 31.8738 78.3561 31.8952 78.0518C31.9167 77.711 31.4804 77.1511 31.0942 77.0294C30.2073 76.7433 29.2346 76.5547 28.2834 76.5181C24.4499 76.3721 20.6163 76.3477 16.8972 77.3823C16.2249 77.571 15.71 77.9301 15.8959 78.5083C16.0247 78.9221 16.5825 79.2325 16.8043 79.4455Z" fill="white"/>
</svg>
