<svg width="110" height="100" viewBox="0 0 110 100" fill="none" xmlns="http://www.w3.org/2000/svg">
<path d="M101.825 59.6376C100.309 56.179 98.8198 52.7199 97.2001 49.3118C96.1255 47.055 95.0972 44.7114 93.6184 42.7256C89.8873 37.6812 85.3183 33.4642 79.8374 30.3316C78.7874 29.7363 77.5901 29.2888 76.4013 29.0525C73.4063 28.4559 70.3436 28.5141 67.2954 28.3667C61.6806 28.1007 56.8906 30.2459 52.2988 32.9642C48.7317 35.0811 45.6507 37.8378 43.626 41.5874C43.1512 42.4754 42.3741 42.912 41.4293 43.2331C40.285 43.6154 38.9481 44.09 37.7616 44.5528C37.5779 43.5774 37.6034 42.6097 37.4497 41.6713C37.4018 41.3815 37.4885 41.0341 37.5828 40.7452C38.2532 38.7202 39.0056 36.7206 39.6003 34.6744C39.7871 34.0149 39.7097 33.2233 39.5467 32.5384C39.3196 31.5892 39.2521 30.7681 39.7257 29.8257C40.2075 28.8705 40.5065 27.7815 40.6471 26.717C40.8659 25.0939 40.6892 23.3627 39.6734 22.1093C36.6239 18.3386 32.4765 17.842 28.4924 20.9105C26.4891 19.638 24.3134 19.2131 22.1682 19.8361C17.6553 21.1376 14.4885 25.7718 17.4072 31.0693C17.6379 31.4931 17.5892 32.1598 17.4724 32.667C17.0258 34.5926 16.633 36.4897 17.4914 38.4124C18.3255 40.2749 19.6789 41.6712 21.3191 42.7846C21.9747 43.2279 22.0799 43.6525 22.037 44.3945C21.7433 49.2973 21.4664 54.2018 21.2981 59.1037C21.2436 60.6791 21.3829 61.5278 21.5145 63.1051C21.5261 63.1572 21.9 64.1282 22.2174 64.4997C24.0489 66.6469 27.8811 67.176 30.1923 65.8981C31.3025 65.2885 32.3908 64.6291 33.4576 63.9472C36.1175 62.2469 38.7537 60.5136 41.3616 58.8248C41.7992 59.5411 42.0755 60.1459 42.4871 60.622C44.0821 62.467 45.6974 64.2801 47.3375 66.0822C47.8237 66.6236 48.3371 67.1643 48.9251 67.5736C54.1874 71.2471 59.9829 73.5331 66.4338 73.874C68.0753 73.9596 69.8174 73.8587 71.3954 73.412C76.3599 72.0038 80.9256 69.6357 85.2439 66.8421C88.3843 64.8208 91.638 63.5065 95.45 63.5755C97.0903 63.6068 98.7799 63.2936 100.373 62.8654C102.018 62.4255 102.504 61.1688 101.825 59.6376ZM95.0201 61.0485C91.0225 60.9063 87.5572 62.3008 84.2705 64.426C80.0181 67.172 75.5502 69.5128 70.6764 70.9607C67.6523 71.8573 64.5671 71.445 61.6398 70.5874C58.8409 69.7666 56.1003 68.643 53.4697 67.3745C51.3565 66.3453 49.407 64.946 47.9889 62.9629C47.7346 62.6046 47.4021 62.3129 47.0923 61.9998C45.6134 60.5059 44.2057 59.0125 43.6266 56.8468C43.2428 55.4135 42.4779 55.2406 41.2376 56.027C37.6629 58.2823 34.0836 60.5167 30.565 62.8523C28.8985 63.9583 27.5756 64.2986 25.9625 63.7749C23.7787 63.0675 23.9414 61.4625 23.9414 61.4625C23.5731 56.6043 23.7359 53.8186 24.2024 48.981C24.3645 47.3487 24.4196 45.7022 24.6783 44.0865C24.923 42.6052 24.2912 41.7029 23.1655 40.8895C22.2885 40.2609 21.4577 39.5454 20.7194 38.7544C19.0914 37.0316 19.3212 35.0399 20.143 33.0575C20.5508 32.0642 20.5329 31.2211 19.9566 30.2736C18.8432 28.4573 18.3074 26.5607 19.6537 24.5536C21.3105 22.0998 24.8833 21.2387 27.2479 23.3757C28.4868 24.5025 29.0991 24.3817 30.0915 23.0442C31.1549 21.6089 33.9951 21.1142 35.5498 21.9407C39.0696 23.8187 38.4309 26.5525 37.0718 29.5353C36.6022 30.5697 36.6374 31.4418 36.8599 32.4686C37.024 33.2079 37.0603 34.0359 36.9024 34.7764C36.4893 36.8038 36.0028 38.8203 34.8168 40.5892C34.6606 40.821 34.682 41.237 34.753 41.5326C34.8548 41.9908 34.7973 43.5285 34.8551 43.9856C35.0041 45.2967 35.1363 47.2947 35.6636 47.7012C36.2284 48.0063 38.8258 47.0086 39.8151 46.6174C41.0907 46.1128 42.3778 45.6603 43.6187 45.0979C44.7023 44.6144 45.5622 43.3449 46.2336 42.2598C48.847 38.0612 52.7657 35.5594 57.0162 33.3221C62.7893 30.2897 68.8296 30.7992 74.9463 31.3572C78.0246 31.6399 80.2151 33.559 82.515 35.2077C86.0764 37.765 89.1624 40.888 91.7327 44.4437C92.8617 46.0105 93.612 47.8645 94.4589 49.6368C96.1589 53.1853 97.8075 56.7726 99.4746 60.3449C99.4214 60.499 99.3682 60.653 99.315 60.807C97.8862 60.8923 96.4413 61.1015 95.0201 61.0485Z" fill="white"/>
<path d="M95.012 55.4264C93.809 52.8376 92.8166 50.1142 90.6428 48.0984C90.3589 47.8287 90.167 47.4563 89.9057 47.1651C88.2326 45.2885 86.751 43.1667 84.8171 41.6163C82.3322 39.6265 79.5004 38.0424 76.7629 36.3661C75.8199 35.7851 74.7613 35.2736 73.6876 35.0389C70.3318 34.2937 66.9448 33.8507 63.5455 34.9025C62.0473 35.364 60.5197 35.7175 59.0007 36.0854C53.8598 37.3636 50.5689 40.7741 48.3661 45.3944C48.0156 46.1288 47.5975 46.6325 46.8175 46.933C41.1394 49.1133 35.7491 51.8522 30.686 55.2281C30.6299 50.3983 30.601 45.5679 30.5553 40.7357C30.5416 39.2959 30.6533 38.1505 32.0567 37.0652C34.065 35.5054 34.8013 33.3345 33.3225 31.5455C32.3113 30.3129 32.0646 29.3243 33.1789 28.1181C33.2506 28.0473 33.2731 27.9275 33.3107 27.8262C33.5704 27.1503 33.4121 26.5846 32.7772 26.2351C32.1424 25.8855 31.5827 26.0219 31.1733 26.6384C30.8246 27.1593 30.5395 27.7206 30.1416 28.1923C29.9479 28.4271 29.5876 28.6007 29.2812 28.6476C28.4393 28.7926 27.579 28.8543 26.592 28.9608C26.4989 28.8123 26.3064 28.5111 26.1179 28.2036C25.9295 27.896 25.7347 27.5845 25.5566 27.2746C25.1115 26.4999 24.4269 26.2708 23.7128 26.7206C23.0317 27.1466 22.9882 27.8614 23.3732 28.5621C23.6732 29.1015 24.0478 29.6078 24.2981 30.1692C24.4317 30.4508 24.4831 30.9039 24.346 31.1478C22.6278 34.2602 23.729 37.1779 27.1234 38.1712C27.9716 38.4238 28.041 38.8345 28.0397 39.5672C28.0461 44.6158 28.0692 49.6662 28.1131 54.7119C28.116 55.2414 28.1188 55.7709 28.1216 56.3004C28.1371 57.5267 27.8461 58.7998 28.5266 59.232C29.2071 59.6643 29.7379 58.955 30.4284 58.4723C30.5417 58.3922 30.6654 58.3098 30.7788 58.2297C35.8309 54.7305 41.2211 51.8933 46.9519 49.6302C46.9349 51.3993 46.645 53.1203 46.9611 54.7164C47.6546 58.2338 49.8786 60.7466 52.9746 62.4627C54.183 63.1319 55.448 63.7118 56.7321 64.2055C64.0714 66.9979 71.0734 66.4009 77.7636 62.1355C80.4588 60.4217 83.2574 58.8542 86.1069 57.4174C87.0836 56.9197 88.3498 56.8654 89.479 56.8581C90.88 56.8446 92.2827 57.1095 93.6802 57.2279C94.7174 57.3233 95.4565 56.3706 95.012 55.4264ZM27.2752 35.4591C26.1264 34.7384 25.7282 33.7072 26.2683 32.8428C27.0629 31.5497 29.0202 30.8431 29.9938 31.4884C31.3322 32.3743 31.6709 33.457 30.9561 34.5683C30.1014 35.8858 28.5472 36.267 27.2752 35.4591ZM81.6739 42.5177C84.3201 44.0287 85.7694 46.595 87.7414 48.6615C85.0546 47.4111 82.3679 46.1606 79.6158 44.8866C80.2427 44.1667 80.9245 43.3744 81.6739 42.5177ZM74.0018 37.7339L79.4521 41.1959C78.5037 42.2393 77.5883 43.2588 76.6411 44.2582C76.5266 44.3823 76.2514 44.4221 76.0669 44.4034C74.0843 44.2084 72.1139 43.9943 70.1602 43.7819L74.0018 37.7339ZM65.4591 37.075C67.4007 36.8146 69.2567 36.8576 70.9612 37.1531C69.6374 39.2371 68.3467 41.2973 67.0114 43.3292C66.8656 43.5587 66.4973 43.7451 66.2215 43.7577C64.0151 43.8589 61.8099 43.9161 59.5358 43.9832C60.2957 42.6323 61.1533 41.254 61.8589 39.806C62.6102 38.2439 63.6175 37.3184 65.4591 37.075ZM59.3416 38.6542C59.4393 38.7252 59.5433 38.8003 59.6474 38.8753C58.8014 40.2073 57.7529 41.4644 57.1601 42.9035C56.5054 44.4823 55.408 44.9032 53.9278 45.0274C53.1033 45.1029 52.288 45.3185 51.338 45.4932C52.9949 41.8589 55.7208 39.7174 59.3416 38.6542ZM55.6917 60.9955C53.4184 60.0076 51.5111 58.6262 50.3515 56.4048C49.9156 55.5734 49.5399 54.6192 49.4764 53.6934C49.3731 52.3666 49.5976 51.0155 49.6654 49.6722C49.6978 48.9325 49.9933 48.4673 50.7849 48.3172C52.6034 47.9696 54.4137 47.5364 56.2415 47.2304C56.5311 47.1819 57.0584 47.49 57.1919 47.7716C58.9515 51.4652 60.6718 55.1786 62.3672 58.9031C62.9944 60.2764 63.5389 61.6956 64.1869 63.261C60.9912 63.1631 58.3345 62.1464 55.6917 60.9955ZM66.9969 63.1229C64.6166 57.6664 62.2449 52.2244 59.7807 46.5627C61.8182 46.4884 63.8703 46.4055 65.9275 46.3706C66.1345 46.3679 66.4178 46.6104 66.5455 46.8168C68.6694 50.232 70.7788 53.656 72.8634 57.0909C73.5548 58.2367 74.1699 59.4324 74.8329 60.6228C72.4569 62.3961 69.8451 63.3041 66.9969 63.1229ZM77.1667 59.3234C74.5283 55.0179 71.9333 50.7846 69.2428 46.3924C69.9228 46.4039 70.4617 46.3706 70.9815 46.4234C72.5721 46.5751 74.1621 46.6996 75.7324 46.9815C76.2383 47.0703 76.8495 47.4853 77.1015 47.9316C78.712 50.8061 80.2398 53.7264 81.8382 56.7184C80.2816 57.5812 78.7418 58.4456 77.1667 59.3234ZM84.7236 55.197C84.5333 55.2998 84.013 55.2197 83.9303 55.0688C82.6464 52.8043 81.4059 50.5137 80.2804 48.1262C83.9003 49.5937 87.3566 51.2345 90.0356 54.1974C88.1368 54.011 86.386 54.2942 84.7236 55.197Z" fill="white"/>
</svg>
