<svg width="127" height="74" viewBox="0 0 127 74" fill="none" xmlns="http://www.w3.org/2000/svg">
<g clip-path="url(#clip0_2_1051)">
<path d="M126.38 70.5224C126.242 70.3721 125.972 70.3595 125.709 70.2405L123.36 70.4911H120.999C117.761 70.4911 114.522 70.466 111.29 70.5036C109.367 70.5224 107.438 70.6728 105.515 70.7041C105.026 70.7104 104.531 70.4911 104.005 70.3595L101.781 70.5914C100.936 70.6415 100.259 70.7104 99.5765 70.7292C95.9372 70.8044 92.2979 70.8671 88.6586 70.9423C87.481 70.9485 86.2971 70.961 85.1195 71.0174C85.0819 71.0174 85.0506 71.0174 85.013 71.0174C84.8627 71.0174 84.7123 71.03 84.5557 71.0425C83.6537 71.0926 82.7517 71.1741 81.8497 71.2869C80.4529 71.4623 78.9621 71.6754 77.4838 71.1052C77.4838 71.1052 75.185 71.0864 75.1349 71.2931C72.9989 71.9573 57.0135 72.208 53.9254 71.6127L51.5389 71.8759C45.1184 71.8821 38.7794 71.9949 32.4278 71.3621L30.1164 71.4686C23.959 71.7819 18.0272 71.1616 12.0201 70.7731L9.40807 70.535C8.90696 70.535 8.37453 70.5538 7.84836 70.535C6.46405 70.4848 5.07347 70.4097 3.68915 70.3658C2.91869 70.3407 2.14824 70.3345 1.37778 70.3533C0.732604 70.3658 0.125008 70.5224 -0.000269276 71.2869C-0.0879635 71.8132 0.438202 72.1892 1.30888 72.2456C2.22967 72.3019 3.15672 72.3019 4.07751 72.3646C10.6107 72.7719 17.1377 73.3671 23.6772 73.5677C33.1481 73.8559 42.6254 73.8684 52.1026 73.9749C55.8797 74.0188 59.6568 74.0439 63.434 73.9687C68.5954 73.8622 73.7506 73.6554 78.9057 73.4862C83.2904 73.3358 87.6814 73.1666 92.0661 73.0413C93.607 72.9912 95.1479 73.0664 96.6889 73.0163C97.4593 72.9912 98.2423 72.9097 98.9814 72.7155C103.51 72.6466 108.039 72.609 112.568 72.6403L124.939 72.139C124.951 72.1202 128.365 72.6027 126.38 70.5224Z" fill="white"/>
<path d="M114.278 72.7782C113.501 72.9348 113.357 71.3621 113.357 71.3621C112.988 67.5775 112.606 63.9245 112.28 60.2715C111.71 53.874 111.265 47.4766 111.735 41.0478C111.879 39.0364 112.192 37.0313 112.343 35.02C112.474 33.3094 112.468 31.5926 112.549 29.882C112.606 28.7416 112.731 27.6012 112.762 26.4545C112.781 25.8906 112.568 25.5397 111.848 25.5084C111.203 25.4833 110.545 25.2202 109.944 24.9507C107.714 23.9544 107.638 22.7451 107.889 20.314C108.114 18.1397 111.34 12.3688 113.526 11.3976C115.612 10.4766 115.33 10.7272 117.059 11.7611C117.667 12.1245 118.262 14.8752 118.55 15.5268C119.095 16.7738 119.314 20.4706 118.938 21.8679C118.888 22.0559 118.926 22.2815 118.982 22.4757C118.293 25.2515 117.241 25.0071 115.794 25.4896C115.487 25.5898 115.168 25.6713 114.836 25.759C114.848 26.3104 114.905 26.8305 114.867 27.338C114.56 31.367 114.115 35.3834 113.952 39.4186C113.771 43.8361 113.689 48.2723 113.846 52.696C113.996 56.8754 114.497 61.0422 114.867 65.209C115.03 67.0261 115.249 68.8432 115.424 70.4848C115.418 70.4786 115.055 72.6215 114.278 72.7782ZM112.606 23.5973C113.476 23.6662 114.479 23.9482 115.349 23.9607C116.433 23.2903 116.815 21.8742 116.859 21.5672C117.216 19.0044 117.686 14.4554 115.362 13.4842C112.819 12.4127 110.15 18.5157 110.012 20.6711C109.893 22.4506 110.445 22.9958 112.606 23.5973Z" fill="white"/>
<path d="M29.4275 72.4711C29.678 72.3772 29.4964 71.7004 29.5026 71.431C29.5465 68.0537 29.534 64.6827 29.5528 61.3053C29.5715 58.3854 29.6655 55.4593 29.6342 52.5394C29.5903 48.5919 29.3523 44.6506 29.3711 40.7094C29.3899 35.8596 29.5966 31.0036 29.6906 26.1538C29.6968 25.8217 29.5026 25.2139 29.3273 25.1826C27.9805 24.9633 27.3792 23.9357 26.7528 22.9394C25.7506 21.3416 24.7672 19.7187 25.594 17.7011C25.7067 17.4254 25.713 17.1058 25.8007 16.8176C26.2266 15.3201 26.6463 14.0418 27.4481 12.4064C28.7698 10.771 29.6217 9.0542 30.8619 9.51161C33.6932 10.5392 36.6309 16.6359 36.3177 19.2864C36.0296 21.6987 34.9397 23.7915 32.4717 24.8003C32.0896 24.957 31.7201 25.0259 31.7138 25.6274C31.7075 27.6137 31.5948 29.6 31.5697 31.5863C31.5008 36.5363 31.4069 41.4864 31.4131 46.4302C31.4194 48.7172 31.695 50.998 31.7326 53.285C31.7576 55.0019 31.5321 56.7187 31.5321 58.4356C31.5321 61.2991 31.6449 64.1563 31.6699 67.0198C31.6825 68.3921 31.601 69.7643 31.5635 71.2681C31.0436 73.7243 29.4275 72.4711 29.4275 72.4711ZM27.7237 17.958C27.2727 19.0232 27.3729 20.0132 28.0557 20.9531C28.2812 21.2664 28.4253 21.6423 28.6069 21.987C29.1769 23.096 30.0539 23.3592 31.2252 23.0459C32.478 22.7138 33.0981 21.8178 33.6932 20.8152C34.4448 19.5495 34.52 18.2086 33.6431 17.062C32.6847 15.8088 32.1898 12.1433 30.7053 11.855C30.5111 11.8174 30.1854 11.9741 30.0664 12.1433C29.5214 12.9077 27.6423 17.9141 27.7237 17.958Z" fill="white"/>
<path d="M87.1242 72.3709C86.5229 71.2305 86.7547 70.9423 86.692 70.3533C86.4978 68.5612 86.3287 66.7629 86.1909 64.9646C86.122 64.0373 86.1095 63.1036 86.1345 62.1763C86.1659 60.9106 86.3412 59.6449 86.3099 58.3792C86.2285 54.9267 85.9779 51.4742 85.9654 48.0154C85.9529 44.2496 85.9967 40.4776 86.2598 36.718C86.5229 32.946 86.6482 29.1927 86.2034 25.4332C86.1533 25.0071 86.1909 24.5998 85.5833 24.3805C83.8983 23.7665 82.7521 22.5822 82.276 20.809C81.7248 18.7475 82.7834 15.9279 84.1238 14.0418C85.5771 11.7673 86.0719 10.5455 87.2871 10.2635C88.9658 9.87502 91.2897 15.2574 92.0414 16.6672C93.4946 19.4054 91.6405 22.9958 88.947 23.6787C88.2705 23.8479 88.1515 24.1299 88.2392 24.8191C88.6401 28.0837 88.6965 31.3544 88.5273 34.644C88.2893 39.3121 88.02 43.999 88.1828 48.6671C88.3206 52.671 88.5336 56.6561 88.3457 60.66C88.2893 61.9194 88.1766 63.1851 88.2455 64.4445C88.3332 66.0361 88.5837 67.6151 88.7591 69.2003C88.803 69.6076 88.8217 70.0212 88.8468 70.3157C88.3645 74.1817 87.1242 72.3709 87.1242 72.3709ZM87.8696 12.9453C86.692 12.6257 85.339 16.7299 84.6124 17.7262C83.8106 18.8227 84.1301 20.0195 84.6688 21.0596C84.9507 21.5922 85.671 22.1937 86.2222 22.2188C87.0115 22.2564 87.8446 21.8428 88.6213 21.5421C89.7926 21.0847 90.5318 19.8252 90.4441 18.5846C90.3627 17.4129 89.3416 13.3463 87.8696 12.9453Z" fill="white"/>
<path d="M55.9363 71.7881C55.9363 70.7104 55.8736 69.6577 55.9425 68.6176C56.0991 66.1927 56.4624 63.7741 56.4812 61.3555C56.5188 55.7287 56.3434 50.1019 56.3622 44.4752C56.3747 41.7433 56.5752 39.0113 56.7881 36.2857C56.9447 34.3057 57.3957 32.3444 57.4709 30.3644C57.6024 27.1187 57.5461 23.8667 57.5273 20.6147C57.5273 20.339 57.2767 19.9693 57.0324 19.8127C55.5542 18.8666 54.4705 17.6071 53.8692 15.9592C53.4683 14.8564 53.5059 13.7035 54.0571 12.6947C55.1094 10.7773 56.262 5.89619 58.4857 5.53276C58.7801 5.48264 59.0932 5.43878 59.3751 5.50143C62.3379 6.16562 65.7768 12.8576 64.6556 16.6484C64.1294 18.4405 62.9956 19.7062 61.2167 20.339C60.7281 20.5145 60.0015 20.4769 59.7697 20.8027C59.4816 21.21 59.5756 21.8992 59.5505 22.4694C59.5255 23.0083 59.5568 23.5534 59.5505 24.0923C59.5004 27.0749 59.5442 30.0574 59.3563 33.0274C59.2248 35.0952 58.5483 37.1378 58.517 39.1993C58.423 45.578 58.5044 51.9629 58.5671 58.3416C58.5921 61.0171 58.7299 63.6801 58.2664 66.3556C57.947 68.1915 58.0534 70.1026 57.9595 72.1829C56.4123 73.7431 55.9363 71.7881 55.9363 71.7881ZM55.7108 13.8726C55.7985 14.4428 55.7797 15.0569 55.9864 15.577C56.4624 16.7675 57.3707 17.6196 58.4982 18.2024C59.4691 18.7036 60.4838 18.547 61.3232 17.958C63.0833 16.7236 62.9643 13.0957 62.0561 10.2572C61.7742 9.36748 59.7259 7.70702 58.874 7.68823C57.2642 7.66316 56.5626 12.3375 55.7108 13.8726Z" fill="white"/>
<path d="M105.02 14.2549C105.596 13.8163 106.053 12.9202 106.135 12.1809C106.285 10.7836 106.329 9.30483 106.016 7.95766C105.815 7.08044 105.032 2.9199 104.387 2.19306C102.163 -0.307026 101.537 -0.670447 99.6955 1.1028C98.8311 1.92989 97.1962 5.93379 96.5886 6.96139C94.6656 10.2071 94.9287 12.8764 97.9354 15.9341C98.0418 16.0406 98.1483 16.1973 98.2799 16.2224C99.5452 16.4542 99.2821 17.3878 99.3134 18.2713C99.4324 21.1724 99.6704 24.0735 99.7832 26.9809C99.9335 30.9158 99.8333 34.8633 100.159 38.7795C100.491 42.7521 101.13 46.7058 101.775 50.6471C102.577 55.5846 103.435 60.5158 103.291 65.5348C103.235 67.5837 102.358 69.7831 102.627 71.7881C102.896 73.7932 104.675 72.1516 104.675 72.1516C104.882 70.4473 105.264 68.6176 105.289 66.788C105.327 63.9809 105.308 61.1487 104.963 58.3666C104.456 54.2562 103.56 50.1897 102.984 46.0855C102.589 43.2408 102.389 40.3648 102.232 37.5013C101.925 31.8181 101.694 26.1287 101.462 20.4393C101.399 18.9355 101.456 17.4254 101.462 16.1472C102.815 15.4579 104.036 15.0068 105.02 14.2549ZM101.437 14.0356C101.105 14.1546 99.3886 13.8914 99.0566 14.0356C97.0271 12.6195 96.9331 10.1382 98.3926 8.02659C98.7183 7.55665 99.47 3.75953 99.8959 3.37731C100.56 2.77578 101.036 1.86723 101.857 2.22439C103.823 3.08281 104.932 10.3074 104.005 12.2498C103.873 12.5192 103.573 12.7761 103.285 12.8889C102.345 13.2711 102.389 13.6972 101.437 14.0356Z" fill="white"/>
<path d="M13.1101 14.2047C12.8595 14.8564 12.6842 16.0031 12.3584 16.6296C11.5066 18.2525 10.7424 19.938 11.0931 21.8742C11.3562 23.3153 13.0349 24.7815 14.8828 25.1387C15.1145 25.1826 15.3526 25.2014 15.6846 25.239C15.553 28.021 15.4716 30.7655 15.2774 33.5036C14.9392 38.297 14.294 43.0842 14.2188 47.8776C14.1249 54.0119 14.4568 60.1524 14.626 66.293C14.6761 68.1351 14.8013 69.9773 14.8953 71.9135C15.6532 73.881 17.0501 71.9385 17.0501 71.9385C16.8246 68.2103 16.5302 64.5009 16.4049 60.779C16.2859 57.0633 16.3924 53.3414 16.3109 49.6195C16.2295 45.6782 16.4989 41.7683 16.8872 37.8522C17.2505 34.1553 17.4384 30.4334 17.7015 26.724C17.7328 26.2791 17.7767 25.8279 17.9771 25.5773C18.9919 25.0384 20.1632 24.6688 20.9901 23.9169C22.4683 22.5697 22.3744 19.3866 21.5789 17.4505C16.9749 6.31601 14.651 10.2384 13.1101 14.2047ZM19.8124 21.9682C19.5368 22.977 16.1982 23.9043 13.9119 22.4506C13.085 21.9243 13.0036 21.0471 13.1853 20.1949C13.3481 19.443 13.6049 18.6974 13.9557 18.0081C14.5069 16.9179 14.9517 13.2837 16.3736 13.3902C17.9646 13.5092 19.3364 17.9016 20.1444 19.3365C20.0693 20.032 20.0693 21.0346 19.8124 21.9682Z" fill="white"/>
<path d="M73.3621 11.2535C72.861 11.0906 72.1344 11.4603 71.5644 11.7109C70.9818 11.9678 69.8794 13.5155 69.5035 14.0356C67.8248 16.379 67.1859 18.2149 67.5179 20.7463C67.7434 22.4694 68.8458 23.7414 70.2176 24.7878C70.4932 24.9946 70.7375 25.4583 70.725 25.7966C70.4932 33.8733 70.3241 41.9375 70.8691 50.0142C71.1885 54.7199 71.1885 59.4444 71.4516 64.1563C71.5957 66.7504 71.8525 70.1841 72.2972 72.02C72.742 73.8559 74.452 71.8257 74.452 71.8257C74.333 71.0174 74.1889 70.0776 74.0636 69.1252C73.2932 63.2352 73.1303 57.3077 73.0051 51.3739C72.9299 48.0154 72.5916 44.6694 72.5728 41.3109C72.5478 36.411 72.7169 31.5111 72.7858 26.6112C72.7983 25.947 72.9612 25.5836 73.7191 25.3392C75.3039 24.8379 76.5316 23.6788 77.2457 22.2439C77.8658 20.9907 77.6716 19.5307 77.1204 18.1898C76.3124 16.2161 75.3039 11.8738 73.3621 11.2535ZM73.3496 23.2527C73.074 23.3655 72.6605 23.165 72.3223 23.0772C70.0986 22.5321 69.0901 20.6649 69.6601 18.5595C69.7917 18.0771 71.0445 14.4742 71.5769 14.2047C73.5062 13.2273 74.1012 16.7299 75.0909 18.9042C75.899 20.7025 75.1974 22.5258 73.3496 23.2527Z" fill="white"/>
<path d="M47.7243 15.2449C46.6657 14.0418 46.5467 13.3463 45.225 13.3902C43.1767 13.4591 39.8318 19.8378 39.5061 22.1123C39.2054 24.2239 39.6376 26.1726 41.3038 27.6451C41.83 28.1087 42.4939 28.4158 43.0013 28.7416C42.7257 33.7919 42.0492 38.8422 42.7508 43.9301C43.3834 48.5104 43.1892 53.1221 43.1141 57.7275C43.0827 59.5384 43.3834 61.3492 43.446 63.1663C43.5212 65.4346 43.4962 67.7091 43.54 69.9773C43.5525 70.6039 43.2519 70.6916 43.6966 72.0513C44.1413 73.411 45.676 72.5025 45.676 72.5025C45.676 70.2906 45.7324 68.0349 45.6572 65.7854C45.5507 62.546 45.0997 59.3003 45.2563 56.0796C45.5256 50.5656 44.9682 45.1268 44.5046 39.663C44.4232 38.7043 44.5673 37.7268 44.6174 36.7619C44.7301 34.644 44.8241 32.5324 44.9744 30.4208C45.012 29.8632 45.2375 29.318 45.4004 28.6727C47.2795 28.6852 48.7703 27.8205 49.8916 26.3668C51.1631 24.7189 51.4387 22.8266 50.8562 20.8654C50.424 19.3992 48.6388 16.285 47.7243 15.2449ZM48.263 25.0572C47.2044 26.3418 44.9995 27.0874 43.4335 26.4733C42.8071 26.229 42.1995 25.5773 41.8738 24.957C41.0157 23.3341 41.4541 21.6674 42.6819 19.5621C42.851 19.2676 44.5923 16.4605 45.0371 16.3038C46.5341 16.3727 46.2209 17.4066 47.4424 18.5094C48.2818 19.255 49.1587 23.967 48.263 25.0572Z" fill="white"/>
</g>
<defs>
<clipPath id="clip0_2_1051">
<rect width="127" height="74" fill="white"/>
</clipPath>
</defs>
</svg>
