<svg width="73" height="72" viewBox="0 0 73 72" fill="none" xmlns="http://www.w3.org/2000/svg">
<path d="M14.7286 25.853C14.2579 25.4385 13.7398 25.0672 13.3227 24.602C12.4262 23.6088 12.6574 22.8178 13.5284 22.0922C15.0479 20.831 16.7854 20.0372 18.8551 20.2292C20.4624 20.3768 22.0058 20.7705 23.5093 21.3263C24.8432 21.8203 25.3686 22.6832 25.1755 23.8151C25.048 24.5551 24.4437 24.9195 23.9723 25.3442C21.5451 27.5396 18.7758 27.632 15.8634 26.4965C15.4693 26.3444 15.129 26.0478 14.7649 25.8196C14.7508 25.8333 14.7397 25.8431 14.7286 25.853ZM15.3613 25.0227C16.3937 25.665 17.0327 25.9177 18.4459 26.1311C20.7491 26.4802 22.5274 25.5 24.0147 23.8556C24.3266 23.512 24.2626 23.0906 23.943 22.7762C23.7356 22.5712 23.4622 22.3975 23.1866 22.3004C21.6401 21.7631 20.0672 21.3205 18.4166 21.2381C16.7782 21.1562 15.4456 21.8947 14.2017 22.83C13.6993 23.2078 13.6881 23.5089 14.1447 24.0029C14.4998 24.3898 14.9527 24.6865 15.3613 25.0227Z" fill="white"/>
<path d="M62.2805 26.6762C63.5663 27.5325 64.5532 28.1537 65.1195 29.2376C65.6228 30.2016 65.5705 30.6545 64.8248 31.4657C64.4877 31.8327 64.1809 32.2399 63.7938 32.5447C63.3846 32.8692 62.9281 33.2057 62.4378 33.3394C60.9518 33.7441 59.432 33.8801 57.898 33.5911C57.8661 33.5841 57.8338 33.5737 57.8018 33.5667C56.3335 33.243 53.9975 30.862 53.6655 29.3908C53.4892 28.6155 53.7114 27.9833 54.3112 27.5276C55.405 26.6966 56.597 26.0546 57.9656 25.7683C59.2286 25.5001 60.9876 25.7703 62.2805 26.6762ZM57.0629 32.2464C57.5208 32.3779 57.8958 32.5615 58.2776 32.5815C59.064 32.6242 59.8599 32.5272 60.6463 32.5856C62.24 32.7034 63.2537 31.8204 64.1577 30.689C64.3978 30.3877 64.4444 30.0932 64.2425 29.7767C64.0655 29.4991 63.9082 29.1778 63.6585 28.9825C62.9266 28.4104 62.1912 27.823 61.3865 27.3644C59.9413 26.5424 58.4138 26.4435 56.8844 27.1735C56.3468 27.4319 55.8212 27.722 55.3221 28.0491C54.5201 28.5767 54.3818 29.0197 54.9423 29.7886C55.5838 30.6669 56.3621 31.4456 57.0629 32.2464Z" fill="white"/>
<path d="M57.8341 37.7728C59.4652 39.1679 60.9185 40.7987 61.3779 43.0746C61.7497 44.9195 61.292 46.6431 60.3953 48.2661C60.1324 48.7432 59.7131 49.0219 59.1695 48.9811C58.6469 48.9414 58.0851 48.9077 57.6173 48.6993C55.7161 47.8444 54.3284 46.5204 54.1448 44.3104C54.0382 43.018 53.9564 41.7143 54.0322 40.425C54.0783 39.6538 54.3761 38.8696 54.6912 38.1495C55.1543 37.0945 55.9231 36.9883 56.9402 37.3237C57.2219 37.4133 57.4747 37.5892 57.8341 37.7728ZM57.2188 38.6359C56.0805 37.8956 55.6824 38.0316 55.2808 39.3054C55.2406 39.4328 55.1791 39.5555 55.1584 39.686C54.8569 41.4761 54.8222 43.2812 55.3254 45.0254C55.7739 46.5813 57.0254 47.4413 58.5101 47.9349C59.1196 48.1386 59.3915 47.9571 59.6884 47.3758C61.3835 44.0536 60.2641 41.132 57.2188 38.6359Z" fill="white"/>
<path d="M47.6682 17.2076C49.5063 18.4627 50.6218 20.7953 50.5784 23.7056C50.5689 24.2996 50.4205 24.891 50.3782 25.4867C50.3068 26.4912 49.7955 27.1439 48.8771 27.5053C47.9803 27.8592 47.1059 27.7236 46.2512 27.3657C44.0305 26.4409 42.5355 23.216 42.929 21.0364C43.1121 20.0217 43.337 19.0095 43.6414 18.027C44.185 16.263 45.5258 15.8132 47.6682 17.2076ZM46.7025 17.8254C46.6201 17.7683 46.5393 17.7094 46.4554 17.6542C45.5285 17.0751 44.9925 17.2345 44.6406 18.2759C44.4072 18.9648 44.3156 19.6992 44.1004 20.3966C43.592 22.0354 44.0504 23.5053 44.9049 24.8688C45.4833 25.7901 46.3134 26.4697 47.45 26.6415C48.4016 26.7862 49.1041 26.3663 49.3234 25.431C49.4736 24.7909 49.5596 24.1177 49.5606 23.4605C49.5646 21.1074 48.6222 19.2123 46.7025 17.8254Z" fill="white"/>
<path d="M43.6797 35.7207C44.7587 33.9379 46.3127 32.6418 48.0333 31.5273C49.2381 30.7453 50.8097 31.2088 51.3693 32.5379C51.5595 32.9891 51.6643 33.4998 51.7043 33.9897C51.8715 36.0454 51.2385 37.8813 50.0011 39.4955C49.6982 39.8902 49.1814 40.1498 48.7193 40.3846C47.8022 40.8569 46.8738 41.3199 45.9134 41.6945C44.7733 42.1403 43.8112 41.8649 43.1539 40.952C42.9279 40.638 42.7366 40.2423 42.6964 39.8651C42.5562 38.5989 42.5002 37.3253 43.3576 36.2284C43.4794 36.0698 43.5712 35.8901 43.6797 35.7207ZM44.3429 36.51C43.6549 37.1953 43.5697 38.2828 43.6508 39.401C43.7395 40.6069 44.5277 41.121 45.6563 40.6817C46.4901 40.3553 47.3081 39.9785 48.1012 39.5628C48.8679 39.1604 49.5567 38.6448 49.8986 37.7866C50.0446 37.4156 50.2734 37.0739 50.3855 36.6944C50.7315 35.5324 50.8681 34.3423 50.5136 33.1631C50.2494 32.2793 49.3502 31.9105 48.6274 32.3673C46.9813 33.401 45.5217 34.6384 44.3429 36.51Z" fill="white"/>
<path d="M35.7907 32.7077C34.7201 31.7556 33.6356 30.8206 32.5868 29.8454C31.5535 28.8859 31.5563 27.6598 31.839 26.4091C31.9594 25.8796 32.3845 25.5899 32.8889 25.4269C34.1778 25.0103 35.4979 24.8384 36.8352 25.072C37.3138 25.1545 37.8065 25.336 38.2185 25.5903C39.8927 26.6254 41.2816 27.9441 42.1371 29.7565C42.4286 30.3773 42.9959 30.9981 42.6082 31.7035C42.1084 32.6098 41.4553 33.3954 40.3075 33.6062C38.672 33.9089 37.1913 33.6316 35.7907 32.7077ZM32.8292 26.5255C32.6887 27.468 32.4943 28.3764 33.2358 29.0376C34.4236 30.0969 35.6497 31.1243 36.9248 32.0754C37.9513 32.8415 39.1724 32.8465 40.3721 32.5366C41.4318 32.2641 41.8032 31.2918 41.287 30.3204C40.6235 29.0735 39.7459 28.0454 38.6519 27.1183C36.7844 25.5386 34.8614 25.9257 32.8292 26.5255Z" fill="white"/>
<path d="M38.1938 42.124C37.0046 44.0279 35.3846 45.2737 33.0636 45.4241C32.3989 45.4672 31.7321 45.5054 31.0674 45.5641C29.1765 45.7328 27.9876 44.4847 28.2089 42.5765C28.3262 41.5619 28.8439 40.7266 29.5034 40.0338C30.6648 38.8126 32.1943 38.2143 33.8306 37.9341C34.7142 37.7827 35.6202 37.7433 36.5168 37.6807C38.307 37.5592 39.5518 39.5919 38.7203 41.2738C38.5735 41.5721 38.3702 41.8434 38.1938 42.124ZM37.2792 41.7742C37.4863 41.3586 37.7417 40.9569 37.8894 40.5216C38.1919 39.6346 37.5375 38.6676 36.6028 38.7308C34.9144 38.8467 33.2034 38.8817 31.6371 39.7041C30.5437 40.2783 29.8019 41.1428 29.3546 42.2481C29.2052 42.6194 29.224 43.1046 29.3056 43.512C29.4635 44.31 29.9202 44.6098 30.7368 44.5609C31.5015 44.514 32.2672 44.4428 33.0342 44.4009C34.9301 44.2958 36.2195 43.2343 37.2792 41.7742Z" fill="white"/>
<path d="M21.9556 32.4959C22.8927 30.9275 24.2398 29.8217 25.8045 28.951C26.6473 28.4814 27.4541 28.5688 28.2305 29.1517C28.5979 29.4264 28.8672 29.7409 28.9212 30.1981C29.1119 31.8248 29.1424 33.4443 28.7694 35.0514C28.5275 36.1 27.6643 36.7035 26.9752 37.3786C25.9969 38.3342 24.8139 39.0272 23.3861 39.1812C22.6833 39.2561 22.1408 39.0469 21.7604 38.4547C21.4363 37.9518 21.1039 37.4515 20.8306 36.9206C20.4784 36.2352 20.4457 35.5227 20.8053 34.8134C21.197 34.0487 21.5718 33.2702 21.9556 32.4959ZM22.8878 32.8975C22.504 33.6718 22.0837 34.4292 21.7542 35.2254C21.626 35.5356 21.5692 35.9941 21.705 36.2761C22.6463 38.2267 22.7197 38.687 24.9432 37.59C25.79 37.1738 26.4534 36.55 27.0499 35.8033C27.4723 35.2763 27.9248 34.8051 27.9462 34.0954C27.9768 33.0328 28.0364 31.9655 27.9909 30.9041C27.9439 29.8134 27.1527 29.3845 26.1893 29.9103C24.8576 30.64 23.7179 31.5937 22.8878 32.8975Z" fill="white"/>
<path d="M41.7519 50.3734C41.5829 50.2683 41.4105 50.1636 41.2446 50.0547C39.7985 49.0941 40.0049 47.907 40.6424 46.8456C41.4127 45.5655 42.531 44.7857 44.1107 44.626C45.8893 44.445 47.6328 44.7151 49.3932 44.7702C51.1204 44.8235 52.0846 47.2156 51.025 48.4658C49.5047 50.2559 47.6506 51.3222 45.2498 51.3424C43.9849 51.3489 42.8018 51.1144 41.7519 50.3734ZM42.3785 49.5507C42.4362 49.5879 42.5717 49.6878 42.7183 49.7624C45.3404 51.1021 48.6266 50.0201 50.271 47.7349C50.7736 47.0346 50.242 45.9349 49.3722 45.8092C48.747 45.718 48.1109 45.687 47.4804 45.6762C46.353 45.656 45.2225 45.6552 44.0927 45.6768C43.1602 45.6947 42.4213 46.1636 41.8813 46.8713C40.8783 48.1797 40.958 48.7486 42.3785 49.5507Z" fill="white"/>
<path d="M36.9933 9.90246C37.5491 9.24507 38.0404 8.51999 38.6731 7.94975C39.6426 7.07488 40.4045 7.16356 41.2612 8.1246C43.0904 10.1748 43.4048 12.506 42.4147 15.0093C42.05 15.9307 41.5815 16.8371 41.0219 17.6544C39.8339 19.3899 38.0683 19.221 36.8519 17.7314C36.1721 16.9006 35.8023 15.8877 35.7585 14.7776C35.6754 12.6644 35.8846 11.8619 36.9933 9.90246ZM39.9265 8.32238C39.6351 8.51642 39.3933 8.60634 39.2642 8.77787C38.6246 9.62451 37.8994 10.4335 37.4182 11.3672C36.4976 13.1558 36.4069 15.0378 37.48 16.8097C38.2436 18.0685 39.4307 18.2748 40.3193 16.9179C40.6996 16.3382 40.9512 15.6733 41.281 15.0591C41.9245 13.8584 42.0501 12.5811 41.8096 11.2683C41.5899 10.0695 40.9155 9.14275 39.9265 8.32238Z" fill="white"/>
<path d="M16.1998 48.5639C17.1256 46.9864 18.6208 46.2288 20.2256 45.7352C20.9573 45.5081 21.8094 45.5976 22.5973 45.654C23.5916 45.7266 24.5788 45.9126 25.5697 46.0514C26.3178 46.1572 26.9092 46.4842 27.14 47.2502C27.3842 48.0615 27.3454 48.8198 26.7051 49.481C24.765 51.4805 22.4119 52.3382 19.6499 52.0606C18.9542 51.9908 18.2529 51.9009 17.5805 51.7247C17.1062 51.6019 16.624 51.388 16.2358 51.0965C15.3929 50.46 15.3346 49.7016 15.9754 48.8496C16.0558 48.7422 16.1401 48.6379 16.1998 48.5639ZM16.5752 50.0201C16.9599 50.2617 17.2897 50.5906 17.6765 50.6898C19.6177 51.1885 21.5935 51.3454 23.4697 50.5195C24.364 50.1259 25.1434 49.4516 25.9323 48.8509C26.3075 48.5647 26.3176 48.0903 26.189 47.648C26.0524 47.1806 25.6675 47.0986 25.2508 47.0442C24.3261 46.9243 23.3832 46.8619 22.4822 46.6389C20.3952 46.1228 17.2666 47.9023 16.5752 50.0201Z" fill="white"/>
<path d="M30.6494 14.1121C32.0905 14.9935 32.94 16.3593 33.4331 17.8948C33.7838 18.9895 33.9202 20.1712 34.0034 21.3257C34.1082 22.7639 32.9326 23.6729 31.5387 23.2182C29.1586 22.4403 27.4829 20.887 27.0202 18.3514C26.8146 17.2204 26.8767 16.0296 26.9054 14.8684C26.9241 14.0845 27.4338 13.6123 28.2139 13.4494C28.9788 13.2899 29.709 13.4877 30.6494 14.1121ZM32.9724 21.9159C33.0972 19.6227 32.5884 17.5011 31.0286 15.7343C30.4588 15.0894 29.7354 14.565 28.8332 14.4444C28.1631 14.3546 27.9047 14.5816 27.8967 15.2551C27.8864 16.1179 27.8532 16.9935 27.9629 17.8434C28.2309 19.9179 29.4792 21.2515 31.3492 22.075C31.9151 22.325 32.4333 22.3235 32.9724 21.9159Z" fill="white"/>
<path d="M34.852 52.1978C35.6778 52.9177 36.5142 53.6243 37.3242 54.3597C37.5412 54.5568 37.7064 54.8218 37.8503 55.0821C38.5302 56.3047 38.3701 57.1123 37.2034 57.8938C36.6272 58.2777 35.9855 58.6495 35.3227 58.7913C34.743 58.9155 34.0358 58.8522 33.4866 58.6281C31.4217 57.7821 30.1867 56.102 29.324 54.1239C29.1702 53.771 29.1401 53.3425 29.1502 52.9496C29.1729 51.959 29.7522 51.3268 30.7461 51.2174C32.22 51.0568 33.6158 51.2374 34.852 52.1978ZM33.0206 57.1678C34.1248 58.1908 35.2187 57.9303 36.3275 57.2399C37.2706 56.654 37.3947 56.0617 36.7211 55.2077C36.639 55.1037 36.5469 55.0043 36.4429 54.9235C35.5789 54.2511 34.6908 53.6124 33.8497 52.9115C32.9761 52.1811 31.9634 52.1469 30.9236 52.2318C30.3477 52.2776 30.1647 52.4965 30.1743 53.0745C30.1795 53.3669 30.2111 53.6964 30.3532 53.9396C31.0624 55.1764 31.6707 56.5072 33.0206 57.1678Z" fill="white"/>
<path d="M32.8631 35.8025C32.7809 35.6015 32.6511 35.4402 32.6809 35.3139C32.7201 35.1451 32.864 34.9009 32.9966 34.8763C33.6749 34.7503 34.3614 34.6684 35.0505 34.6105C35.4044 34.5798 35.6592 34.8074 35.5598 35.1596C35.5083 35.3437 35.2318 35.5309 35.021 35.5863C34.5777 35.7047 34.1141 35.7472 33.6566 35.7977C33.401 35.8232 33.1422 35.8022 32.8631 35.8025Z" fill="white"/>
<path d="M41.7218 56.4811C41.6156 56.2826 41.4964 56.1237 41.4359 55.9464C41.2427 55.3862 41.0796 54.8158 40.8898 54.2552C40.777 53.9292 40.8198 53.6473 41.1323 53.4891C41.4861 53.311 41.704 53.5339 41.81 53.8451C42.0356 54.4972 42.2615 55.1527 42.4283 55.8232C42.471 55.9955 42.332 56.253 42.2033 56.4124C42.1295 56.5 41.905 56.4598 41.7218 56.4811Z" fill="white"/>
<path d="M45.1598 31.3413C45.0594 31.2289 44.9762 31.165 44.9309 31.0814C44.6416 30.5627 44.3354 30.0492 44.0957 29.5078C44.0229 29.3457 44.083 29.015 44.2072 28.9117C44.3284 28.8121 44.7354 28.8241 44.8 28.9265C45.202 29.558 45.5607 30.2237 45.8859 30.8998C45.9285 30.9906 45.7351 31.2575 45.5911 31.3543C45.4891 31.4224 45.2869 31.3468 45.1598 31.3413Z" fill="white"/>
<path d="M50.3795 41.3207C50.6122 41.2265 50.7784 41.0944 50.9016 41.128C51.0674 41.171 51.3309 41.3493 51.3247 41.4539C51.2848 42.1361 51.244 42.827 51.0785 43.4861C50.9893 43.8372 50.3472 43.7981 50.3209 43.4542C50.2681 42.7473 50.3528 42.0291 50.3795 41.3207Z" fill="white"/>
<path d="M40.2979 42.8012C40.265 42.7527 40.1375 42.6467 40.1327 42.5362C40.1074 41.9737 40.0867 41.4055 40.1276 40.8464C40.1354 40.7242 40.4303 40.5142 40.5593 40.5368C40.743 40.5693 41.0274 40.7643 41.0415 40.9136C41.0975 41.4382 41.1012 41.977 41.041 42.5018C41.0047 42.8611 40.6382 43.0007 40.2979 42.8012Z" fill="white"/>
<path d="M37.3637 48.1436C36.8849 48.5153 36.4588 48.8763 35.9967 49.177C35.8833 49.2515 35.5805 49.1919 35.4755 49.0852C35.3743 48.9815 35.3318 48.6809 35.4077 48.5636C35.7577 48.0409 36.1984 47.5882 36.8368 47.43C36.9821 47.3937 37.2371 47.493 37.3226 47.6122C37.4108 47.7398 37.3553 47.9676 37.3637 48.1436Z" fill="white"/>
<path d="M23.3338 55.163C22.8385 54.8916 22.8131 54.3448 23.1456 54.2434C23.7099 54.0723 24.3046 53.9916 24.8928 53.9306C25.0196 53.9171 25.2265 54.1343 25.2951 54.2899C25.3411 54.396 25.242 54.6857 25.1547 54.7123C24.5039 54.9013 23.8377 55.0434 23.3338 55.163Z" fill="white"/>
<path d="M34.611 10.5517C34.3292 10.9979 33.411 11.3783 32.9684 11.2435C32.8144 11.1975 32.6081 11.0028 32.6061 10.8695C32.6038 10.686 32.7201 10.41 32.8697 10.3334C33.2425 10.1394 33.6528 10.0037 34.0656 9.9077C34.2162 9.87258 34.4708 9.96852 34.5621 10.0923C34.6552 10.2176 34.6035 10.4485 34.611 10.5517Z" fill="white"/>
<path d="M29.546 47.6698C29.7636 47.3034 30.0798 47.2454 30.2571 47.4605C30.6116 47.8908 30.8915 48.3863 31.1608 48.8794C31.2148 48.9794 31.1298 49.2555 31.0317 49.311C30.8829 49.3945 30.5632 49.4373 30.4916 49.3513C30.1337 48.9213 29.8217 48.4501 29.5215 47.9758C29.467 47.888 29.5412 47.7223 29.546 47.6698Z" fill="white"/>
<path d="M29.0208 27.3268C28.8078 27.6061 28.2913 27.5745 28.2163 27.2288C28.1018 26.6915 28.0655 26.1232 28.106 25.5762C28.1326 25.2405 28.6668 25.161 28.9036 25.4149C29.1075 25.6359 29.1973 27.0965 29.0208 27.3268Z" fill="white"/>
<path d="M60.6294 36.802C60.1235 36.5283 60.0838 36.0263 60.4335 35.9075C60.9487 35.7312 61.5152 35.6465 62.0621 35.6368C62.3804 35.6306 62.5297 36.2995 62.2414 36.4083C61.68 36.6224 61.0662 36.7034 60.6294 36.802Z" fill="white"/>
<path d="M52.8655 23.7565C53.3889 23.5274 53.8831 23.284 54.4013 23.1039C54.5016 23.0689 54.7673 23.2677 54.8203 23.4077C54.8741 23.5545 54.8195 23.8551 54.7076 23.9277C54.3215 24.1769 53.9018 24.3864 53.4678 24.5436C53.3392 24.5902 53.0905 24.452 52.968 24.3281C52.8808 24.2421 52.9092 24.0362 52.8655 23.7565Z" fill="white"/>
<path d="M52.3668 49.5867C52.6098 49.4914 52.8432 49.3071 52.998 49.3599C53.158 49.4139 53.3448 49.7026 53.3323 49.8773C53.3045 50.2998 53.2104 50.7346 53.0529 51.1276C52.9925 51.2763 52.6847 51.3975 52.4936 51.3936C52.3736 51.3908 52.1517 51.1301 52.158 50.9942C52.179 50.5412 52.2854 50.0912 52.3668 49.5867Z" fill="white"/>
<path d="M22.447 41.9668C22.3733 41.7476 22.2621 41.567 22.2732 41.3942C22.2806 41.2685 22.4418 41.0572 22.5451 41.0496C23.0269 41.0156 23.5185 41.0083 23.9976 41.063C24.124 41.0772 24.3063 41.3404 24.3125 41.4958C24.3187 41.6511 24.1502 41.9413 24.0371 41.9533C23.5221 42.0013 23.0002 41.9685 22.447 41.9668Z" fill="white"/>
<path d="M14.8401 44.3642C14.9632 44.169 15.0458 43.9192 15.2196 43.7932C15.374 43.6797 15.6857 43.6118 15.8228 43.6942C15.9618 43.7783 16.0768 44.1249 16.0106 44.2689C15.833 44.6519 15.5922 45.0278 15.2966 45.328C15.1589 45.4675 14.7942 45.5272 14.6122 45.4461C14.3173 45.3145 14.3975 45.0095 14.541 44.7619C14.6246 44.6195 14.7159 44.4832 14.8048 44.342C14.8158 44.3477 14.8288 44.355 14.8401 44.3642Z" fill="white"/>
<path d="M54.8649 34.8681C54.6946 34.8966 54.4726 34.9931 54.2843 34.9508C53.9895 34.8851 53.4128 33.6394 53.4847 33.3214C53.5671 32.9554 54.0454 32.7588 54.2383 33.0555C54.5355 33.5179 54.706 34.0598 54.9218 34.5725C54.9414 34.6259 54.8992 34.7014 54.8649 34.8681Z" fill="white"/>
<path d="M38.404 22.2557C38.6254 22.2026 38.8499 22.0798 39.0381 22.1222C39.1713 22.1513 39.3514 22.4095 39.3389 22.553C39.3107 22.9062 39.2227 23.2676 39.0766 23.5883C39.0219 23.7102 38.7238 23.8079 38.5674 23.7726C38.4271 23.7407 38.2297 23.5156 38.2322 23.3766C38.2364 23.026 38.3339 22.6723 38.404 22.2557Z" fill="white"/>
<path d="M22.8093 23.9165C22.0754 24.3987 21.4264 24.8493 20.7499 25.2526C20.4957 25.4045 20.1638 25.4625 19.9792 25.0973C19.8014 24.7469 20.0117 24.5563 20.2813 24.3698C20.8516 23.9779 21.4252 23.5856 21.9632 23.152C22.2395 22.9301 22.5282 22.8248 22.7323 23.096C22.8624 23.2763 22.7886 23.6084 22.8093 23.9165Z" fill="white"/>
<path d="M16.7232 21.9423C16.7775 21.8983 16.8511 21.7917 16.9337 21.7863C17.4521 21.7536 17.9758 21.7064 18.4901 21.7487C18.6195 21.7592 18.8282 22.0906 18.8111 22.2554C18.7951 22.4149 18.5516 22.6506 18.3793 22.6776C17.9614 22.7413 17.5235 22.7325 17.1003 22.6978C16.7151 22.6626 16.5215 22.262 16.7232 21.9423Z" fill="white"/>
<path d="M16.5094 24.7338C16.4662 24.5235 16.3593 24.3181 16.411 24.1687C16.4658 24.0155 16.6715 23.815 16.8185 23.8115C17.2435 23.7974 17.6889 23.8123 18.092 23.934C18.2604 23.9854 18.4124 24.3212 18.4304 24.5394C18.438 24.6426 18.1099 24.8666 17.9298 24.8685C17.4729 24.8756 17.0144 24.7875 16.5094 24.7338Z" fill="white"/>
<path d="M63.4734 30.6284C62.9987 30.9408 62.617 31.3127 62.1648 31.4614C61.5131 31.6748 60.808 31.7448 60.1211 31.8388C59.8033 31.8831 59.4912 31.769 59.4716 31.3897C59.4519 31.026 59.7259 30.8806 60.0524 30.8371C60.2166 30.8161 60.3812 30.7986 60.548 30.786C61.3254 30.7274 62.0444 30.5276 62.6397 29.9805C62.8592 29.7785 63.1465 29.7253 63.3361 29.9912C63.445 30.1512 63.4298 30.399 63.4734 30.6284Z" fill="white"/>
<path d="M60.4238 28.2385C60.5062 28.5401 60.6748 28.8203 60.619 29.0447C60.5313 29.4095 60.2082 29.3711 59.8888 29.2699C59.3272 29.0923 58.7583 28.9432 58.1862 28.7979C57.8709 28.7188 57.5916 28.6029 57.6569 28.2232C57.717 27.877 58.0041 27.7233 58.324 27.7811C59.0028 27.9029 59.6691 28.0711 60.4238 28.2385Z" fill="white"/>
<path d="M57.6709 31.5089C57.1436 31.0519 56.7345 30.7592 56.4159 30.3892C56.2913 30.2447 56.3631 29.9267 56.3463 29.6875C56.5859 29.6741 56.8894 29.562 57.0565 29.6656C57.4708 29.9248 57.8367 30.2672 58.1954 30.6069C58.4289 30.8299 58.7344 31.1424 58.3768 31.4301C58.1918 31.5816 57.8171 31.4985 57.6709 31.5089Z" fill="white"/>
<path d="M55.5053 41.2319C55.7082 41.1513 55.9008 41.006 56.0484 41.0405C56.2013 41.0762 56.4136 41.279 56.4259 41.4268C56.5465 42.6552 57.0763 43.7222 57.6473 44.7848C57.7398 44.9535 57.6707 45.3458 57.5316 45.4716C57.2739 45.7053 56.9835 45.5837 56.7842 45.2756C56.124 44.2537 55.6964 43.1377 55.4553 41.9498C55.4117 41.736 55.4836 41.4995 55.5053 41.2319Z" fill="white"/>
<path d="M57.4009 40.6692C57.6286 40.6744 58.0044 40.5892 58.0789 40.7027C58.3622 41.1319 58.5752 41.6172 58.7505 42.1065C58.7877 42.2117 58.5928 42.4648 58.4461 42.5533C58.3469 42.6141 58.0566 42.5584 58.0052 42.4668C57.7472 42.0141 57.5334 41.5375 57.3215 41.0625C57.2914 40.9912 57.3574 40.8784 57.4009 40.6692Z" fill="white"/>
<path d="M47.841 25.7069C47.7985 25.5849 47.6916 25.4108 47.6938 25.2372C47.6977 25.0461 47.7843 24.8496 47.8673 24.6691C48.1365 24.0717 48.2104 23.464 48.0278 22.8246C47.9255 22.4663 47.9989 22.1308 48.4003 22.0412C48.7761 21.956 48.9027 22.265 49.0007 22.5666C49.3362 23.5832 49.1062 24.5318 48.6543 25.4486C48.5014 25.7544 48.2591 25.8878 47.841 25.7069Z" fill="white"/>
<path d="M47.2119 21.2039C47.1057 21.0211 47.0263 20.8787 46.9386 20.7389C46.6604 20.2918 46.4047 19.8285 46.0924 19.404C45.8691 19.0984 45.7394 18.8089 46.0631 18.5438C46.3501 18.3086 46.6693 18.4566 46.8406 18.714C47.2427 19.3143 47.6161 19.9385 47.943 20.5816C48.0113 20.7182 47.8835 21.0318 47.7504 21.1656C47.6586 21.2638 47.3985 21.1979 47.2119 21.2039Z" fill="white"/>
<path d="M44.965 22.7333C45.1362 22.4047 45.5746 22.3701 45.7623 22.7159C46.0448 23.2354 46.2819 23.784 46.4866 24.3378C46.6183 24.6948 46.2989 25.0166 45.9489 24.9378C45.4267 24.8201 44.71 23.22 44.965 22.7333Z" fill="white"/>
<path d="M49.3787 37.5612C49.2541 37.7582 49.1674 38.0015 48.9965 38.1394C48.8448 38.2613 48.5725 38.3579 48.4022 38.305C48.0976 38.2127 48.0734 37.9205 48.1893 37.6412C48.2404 37.5196 48.3315 37.4145 48.3808 37.2913C48.6238 36.676 48.8759 36.0648 49.0904 35.4421C49.2126 35.0927 49.2667 34.657 49.7541 34.7402C50.2453 34.8266 50.2214 35.2365 50.1074 35.6145C49.9076 36.2773 49.6915 36.9332 49.481 37.5936C49.4472 37.5851 49.4129 37.5731 49.3787 37.5612Z" fill="white"/>
<path d="M45.4216 36.6099C45.751 36.3338 46.1203 36.0084 46.5077 35.707C46.7817 35.4958 47.118 35.479 47.2688 35.8045C47.3495 35.9762 47.2609 36.3809 47.1166 36.4743C46.4957 36.8786 46.1304 37.4203 45.9224 38.1204C45.8239 38.4482 45.5641 38.7429 45.1688 38.5648C44.7843 38.3891 44.8444 38.0585 45.0039 37.7173C45.1546 37.3908 45.2613 37.0414 45.4216 36.6099Z" fill="white"/>
<path d="M36.4323 30.7409C36.4095 30.6567 36.2636 30.4104 36.306 30.2065C36.3873 29.8303 36.7283 29.8581 37.0372 29.9101C37.8488 30.0421 38.6608 30.1774 39.4716 30.3025C39.6337 30.3268 39.8048 30.3051 39.9684 30.3275C40.3185 30.3752 40.6466 30.4771 40.5837 30.9277C40.5303 31.3044 40.233 31.3621 39.9147 31.3527C38.7871 31.3134 37.6519 31.3339 36.4323 30.7409Z" fill="white"/>
<path d="M33.9036 27.9193C34.1659 27.9399 34.4841 27.8678 34.6134 27.991C34.9926 28.3597 35.3173 28.788 35.6108 29.2317C35.6895 29.3516 35.6414 29.648 35.5396 29.7664C35.4423 29.879 35.0955 29.9594 35.0364 29.8929C34.6181 29.4329 34.2376 28.9378 33.8701 28.4343C33.8114 28.3556 33.8815 28.1834 33.9036 27.9193Z" fill="white"/>
<path d="M36.7638 28.4674C36.1833 28.0802 36.0497 27.8188 36.3017 27.4989C36.546 27.1886 36.9675 27.2563 37.4217 27.695C37.6689 27.9322 37.9216 28.2208 37.6627 28.557C37.387 28.9141 37.075 28.7029 36.7638 28.4674Z" fill="white"/>
<path d="M36.4317 41.6634C36.1378 41.915 35.716 42.3327 35.234 42.658C35.0916 42.7529 34.7781 42.5939 34.5411 42.5498C34.5978 42.3167 34.5776 41.9808 34.7269 41.8695C35.2709 41.4595 35.6965 40.979 35.9768 40.3562C36.0987 40.0849 36.3619 39.9025 36.6097 40.0806C36.7748 40.1983 36.877 40.522 36.8589 40.7424C36.8368 40.9909 36.65 41.2224 36.4317 41.6634Z" fill="white"/>
<path d="M31.7861 42.2558C31.663 42.451 31.5714 42.681 31.407 42.8303C31.2869 42.9401 31.0043 43.0379 30.9091 42.9735C30.7538 42.8669 30.5625 42.5683 30.6136 42.4467C30.8033 41.9983 31.0459 41.558 31.3526 41.1821C31.4629 41.0455 31.8453 41.0064 32.0376 41.0865C32.3569 41.2189 32.2482 41.5165 32.1059 41.7588C32.0061 41.929 31.8972 42.0949 31.7902 42.2623C31.7899 42.2589 31.788 42.2574 31.7861 42.2558Z" fill="white"/>
<path d="M25.8312 35.5276C25.7652 35.1359 25.6267 34.8611 25.7107 34.7221C26.2028 33.9068 26.5252 33.061 26.5345 32.0909C26.5348 31.947 26.8856 31.7414 27.1025 31.694C27.1905 31.6742 27.4465 31.9937 27.4678 32.1769C27.5934 33.2904 27.2395 34.28 26.5643 35.1512C26.4341 35.3125 26.1621 35.3623 25.8312 35.5276Z" fill="white"/>
<path d="M24.0974 32.6489C24.2202 32.5318 24.4839 32.2246 24.8025 31.993C24.9232 31.9055 25.2567 31.9116 25.3309 32.006C25.4509 32.1561 25.5428 32.481 25.4581 32.6131C25.1942 33.033 24.8666 33.4234 24.5098 33.7683C24.3824 33.8911 24.0402 33.9501 23.9062 33.8638C23.7684 33.7745 23.7191 33.4746 23.7215 33.2698C23.7271 33.127 23.8857 32.9888 24.0974 32.6489Z" fill="white"/>
<path d="M23.3377 36.8735C23.3571 36.4537 23.2939 36.1865 23.3929 36.0095C23.5998 35.6407 24.4105 35.5369 24.7475 35.787C25.0151 35.9874 25.0547 36.3264 24.81 36.4548C24.4261 36.6587 23.9598 36.7084 23.3377 36.8735Z" fill="white"/>
<path d="M45.8774 49.2921C45.8217 49.1437 45.6816 48.9524 45.7139 48.7998C45.7474 48.6419 45.9457 48.4041 46.0805 48.4001C46.9294 48.3616 47.5763 47.9251 48.2356 47.4578C48.3918 47.3458 48.7354 47.3976 48.9379 47.4921C49.0181 47.5287 49.0363 47.9758 48.9288 48.0895C48.1974 48.8558 47.3307 49.3781 46.2262 49.3763C46.1287 49.3728 46.0341 49.3309 45.8774 49.2921Z" fill="white"/>
<path d="M45.2322 47.3394C45.1353 47.1295 44.9833 46.9567 45.0015 46.8022C45.0201 46.6511 45.2036 46.4045 45.3243 46.3985C45.7745 46.3765 46.2351 46.4037 46.6772 46.4849C46.7974 46.5067 46.9519 46.785 46.9455 46.9365C46.9372 47.0865 46.7488 47.3354 46.6234 47.3471C46.1736 47.3881 45.7134 47.3487 45.2322 47.3394Z" fill="white"/>
<path d="M43.8345 47.1572C43.4389 47.4144 43.0943 47.6782 42.7116 47.8612C42.5895 47.9193 42.2975 47.8152 42.2063 47.6914C42.1192 47.5742 42.113 47.2558 42.2075 47.166C42.5145 46.8749 42.8686 46.6187 43.2389 46.4163C43.3503 46.3559 43.6434 46.4702 43.7415 46.5933C43.8456 46.7244 43.8084 46.9606 43.8345 47.1572Z" fill="white"/>
<path d="M38.2954 15.8386C39.262 15.1807 39.6356 14.229 40.1746 13.3983C40.246 13.2866 40.3129 13.1339 40.4178 13.0932C40.5825 13.0288 40.8612 12.9593 40.9446 13.0423C41.0818 13.175 41.2183 13.495 41.1469 13.6223C40.585 14.6288 40.1346 15.7223 39.1703 16.4509C39.1447 16.471 39.1195 16.4945 39.092 16.513C38.8244 16.6699 38.5103 16.8299 38.3131 16.4921C38.2072 16.3126 38.2957 16.0206 38.2954 15.8386Z" fill="white"/>
<path d="M37.9838 12.0871C38.2526 12.022 38.5503 11.855 38.6824 11.9398C38.8464 12.0471 38.9721 12.3805 38.9389 12.5886C38.8468 13.1723 38.6991 13.7549 38.4964 14.3088C38.4305 14.4875 38.1331 14.6579 37.9274 14.6798C37.8177 14.6915 37.5481 14.3579 37.5685 14.2084C37.6572 13.528 37.8251 12.8582 37.9838 12.0871Z" fill="white"/>
<path d="M39.9499 10.4125C39.7178 10.7077 39.5836 11.1884 39.0581 10.9427C38.7169 10.7832 38.7565 10.3577 39.127 9.83274C39.2025 9.72761 39.269 9.5714 39.3727 9.53607C39.5722 9.47147 39.8516 9.39313 39.9913 9.484C40.1143 9.5645 40.1221 9.86534 40.125 10.0713C40.1268 10.1856 40.0125 10.3001 39.9499 10.4125Z" fill="white"/>
<path d="M19.084 48.6864C19.6977 48.2638 20.197 47.8899 20.7277 47.5663C21.0141 47.3901 21.3725 47.4507 21.4704 47.7836C21.5225 47.9635 21.3483 48.2803 21.1827 48.4349C20.8011 48.7912 20.3759 49.1121 19.9383 49.3981C19.7504 49.5221 19.4819 49.5247 19.2506 49.5823C19.197 49.2916 19.1419 49.0027 19.084 48.6864Z" fill="white"/>
<path d="M23.1531 49.7124C22.8671 49.5661 22.7892 49.1773 23.0643 48.9764C23.4276 48.7088 23.8337 48.4852 24.2484 48.3092C24.5951 48.163 24.9025 48.477 24.8331 48.8502C24.7344 49.3878 23.6265 49.9567 23.1531 49.7124Z" fill="white"/>
<path d="M31.8837 20.6484C31.7296 20.6995 31.5379 20.8361 31.393 20.7944C31.2409 20.7499 31.1291 20.5468 31.0147 20.4013C30.9806 20.3581 30.9833 20.2694 30.9977 20.2089C31.1488 19.5444 31.0926 18.9037 30.8327 18.2709C30.7103 17.9684 30.7535 17.6742 31.1328 17.5575C31.4584 17.4569 31.6255 17.6419 31.7504 17.9026C32.178 18.7741 32.2315 19.6665 31.8837 20.6484Z" fill="white"/>
<path d="M29.0314 16.2715C29.3148 16.165 29.5062 16.0249 29.6621 16.0568C29.8109 16.0861 30.0335 16.2877 30.0394 16.4241C30.0691 17.0121 30.0581 17.6079 30.001 18.1948C29.9882 18.3349 29.7581 18.5345 29.608 18.5575C29.4613 18.58 29.1532 18.4222 29.1422 18.3193C29.0721 17.6454 29.0618 16.9634 29.0314 16.2715Z" fill="white"/>
<path d="M33.1307 56.2822C32.5752 55.5925 32.0608 54.9954 31.5976 54.3583C31.3966 54.0832 31.3304 53.7227 31.7236 53.5074C32.0576 53.3227 32.2474 53.5261 32.4526 53.7921C32.8747 54.3365 33.3324 54.8564 33.8008 55.363C34.0243 55.6061 34.2254 55.8656 33.922 56.1094C33.7397 56.2537 33.4196 56.2271 33.1307 56.2822Z" fill="white"/>
<path d="M35.3306 54.5081C35.6362 54.9679 35.9211 55.2982 36.0782 55.6819C36.1464 55.8497 35.9987 56.1723 35.8472 56.3289C35.7799 56.3968 35.4141 56.2832 35.2738 56.1543C35.0122 55.9117 34.7747 55.6198 34.6113 55.306C34.5108 55.1122 34.4715 54.7107 34.5804 54.6262C34.7546 54.488 35.0739 54.539 35.3306 54.5081Z" fill="white"/>
</svg>
