<svg width="125" height="120" viewBox="0 0 125 120" fill="none" xmlns="http://www.w3.org/2000/svg">
<g clip-path="url(#clip0_2_1428)">
<path d="M25.4867 85.109C24.3769 85.4659 23.2908 85.9395 22.151 86.1627C19.712 86.6487 18.6701 85.5283 18.3418 83.4495C17.7768 79.8273 18.1653 76.3016 20.4434 73.1828C22.2102 70.7594 24.3088 68.6718 26.6279 66.802C28.6871 65.1439 30.5646 65.1258 32.1869 66.5095C33.2465 67.416 33.2522 68.7262 33.4809 69.8817C34.672 75.8394 32.1812 80.3443 27.5948 83.9105C26.9765 84.3946 26.1791 84.6554 25.468 85.0194C25.4763 85.055 25.4815 85.082 25.4867 85.109ZM24.7644 83.3108C26.7731 82.2745 27.7849 81.4955 29.4718 79.4442C32.2231 76.1023 32.353 72.3344 31.1458 68.3994C30.8946 67.5755 30.1612 67.2771 29.355 67.4881C28.8303 67.624 28.2927 67.895 27.875 68.2423C25.5443 70.1985 23.3396 72.2866 21.6357 74.8411C19.9441 77.3766 19.8531 80.2038 20.1607 83.0767C20.285 84.237 20.7548 84.5411 21.9781 84.2822C22.9338 84.0836 23.8388 83.6431 24.7644 83.3108Z" fill="#4E2D12"/>
<path d="M72.1011 10.0452C74.6926 8.80806 76.6241 7.82439 78.8933 7.95111C80.9112 8.06453 81.5841 8.57827 82.1681 10.5385C82.4327 11.425 82.7903 12.3013 82.9079 13.2083C83.0359 14.1695 83.1379 15.2173 82.8843 16.1264C82.1144 18.8811 80.8835 21.4346 78.9611 23.6066C78.9195 23.651 78.872 23.6926 78.8304 23.7369C76.9151 25.7713 70.89 27.2346 68.226 26.366C66.8209 25.9104 66.0236 24.9553 65.8677 23.5655C65.5838 21.0312 65.6948 18.5199 66.5417 16.0649C67.317 13.7955 69.4281 11.2449 72.1011 10.0452ZM76.0238 23.6592C76.6698 23.0539 77.3201 22.6303 77.7157 22.0403C78.5331 20.8264 79.1365 19.4649 79.9788 18.266C81.6852 15.836 81.2417 13.38 80.2974 10.8629C80.0454 10.1936 79.6198 9.83942 78.9223 9.86066C78.3107 9.87912 77.6481 9.82476 77.0986 10.0374C75.4883 10.6612 73.8505 11.2758 72.352 12.1237C69.6635 13.6476 68.0503 15.99 67.7583 19.123C67.6585 20.2262 67.6207 21.3402 67.6673 22.4472C67.7453 24.2277 68.3204 24.8692 70.0815 24.7059C72.0941 24.5173 74.0782 24.016 76.0238 23.6592Z" fill="#4E2D12"/>
<path d="M85.5776 27.6808C89.3579 26.405 93.3448 25.6367 97.4144 27.0668C100.713 28.227 103.027 30.595 104.763 33.5676C105.274 34.4404 105.319 35.3741 104.736 36.2022C104.175 36.9981 103.586 37.8622 102.808 38.4103C99.6323 40.6302 96.1975 41.5855 92.4958 39.7781C90.3319 38.72 88.1735 37.6115 86.1882 36.2654C85.0014 35.459 84.0337 34.2387 83.1846 33.0519C81.9423 31.3107 82.5052 29.9834 84.0094 28.6799C84.4165 28.3172 84.938 28.0811 85.5776 27.6808ZM86.3645 29.4841C84.0988 30.5961 83.9367 31.3604 85.5867 33.2115C85.7517 33.3966 85.889 33.6113 86.0775 33.7684C88.647 35.9505 91.4944 37.7212 94.7573 38.5761C97.6674 39.3393 100.232 38.1603 102.434 36.2613C103.34 35.4828 103.309 34.8766 102.665 33.8507C98.982 27.9883 93.2532 26.9973 86.3645 29.4841Z" fill="#4E2D12"/>
<path d="M43.0705 24.354C46.8245 22.615 51.6096 23.0523 56.2126 25.8873C57.1514 26.4669 57.9538 27.2657 58.8642 27.8992C60.3991 28.9678 60.9535 30.4034 60.6553 32.2119C60.3659 33.9785 59.3164 35.2443 57.931 36.2675C54.3396 38.9307 47.7691 38.2506 44.6657 35.5517C43.2209 34.2954 41.8199 32.9747 40.542 31.5554C38.2491 29.0105 38.8086 26.4446 43.0705 24.354ZM43.1365 26.4814C42.9669 26.5585 42.7958 26.6314 42.6277 26.7128C40.8207 27.6409 40.5644 28.6474 41.891 30.1983C42.768 31.2252 43.8528 32.0693 44.7606 33.0752C46.8916 35.4435 49.6739 36.1092 52.6638 36.0421C54.6852 35.995 56.5604 35.3167 57.9173 33.6672C59.0549 32.2868 59.054 30.7673 57.7703 29.5287C56.8919 28.6808 55.8995 27.9039 54.8517 27.2778C51.1047 25.0337 47.1828 24.7358 43.1365 26.4814Z" fill="#4E2D12"/>
<path d="M68.8143 48.3089C66.9971 44.8936 66.4092 41.1834 66.27 37.3798C66.1697 34.715 68.4066 32.6487 71.0606 33.0193C71.962 33.1446 72.8767 33.4629 73.6966 33.8645C77.1364 35.5514 79.4631 38.3057 80.8603 41.8134C81.2015 42.6717 81.1236 43.7426 81.058 44.7028C80.938 46.6144 80.7925 48.5353 80.4753 50.4232C80.1005 52.6652 78.7445 53.9381 76.6614 54.119C75.9451 54.1809 75.1314 54.11 74.4913 53.8157C72.337 52.836 70.2513 51.7151 69.3176 49.3051C69.1847 48.9585 68.9854 48.6414 68.8143 48.3089ZM70.7098 47.9995C71.1481 49.7483 72.8023 50.9175 74.6641 51.8509C76.673 52.8554 78.2442 52.0868 78.6183 49.8692C78.8918 48.229 79.0699 46.5663 79.162 44.9063C79.2502 43.3008 79.0837 41.7122 78.0398 40.3513C77.5869 39.7659 77.2596 39.0762 76.7608 38.5368C75.236 36.8807 73.4671 35.5318 71.2474 34.9767C69.5854 34.5581 68.1403 35.642 68.1805 37.2289C68.262 40.8367 68.8462 44.3408 70.7098 47.9995Z" fill="#4E2D12"/>
<path d="M56.4949 58.0271C53.9556 58.83 51.4303 59.6711 48.8749 60.4173C46.3592 61.1536 44.4054 59.984 42.6789 58.3445C41.9486 57.6493 41.8911 56.6959 42.1116 55.7364C42.6747 53.2848 43.6579 51.0159 45.3048 49.1048C45.8923 48.4198 46.6514 47.8065 47.4496 47.391C50.6964 45.7043 54.1239 44.7422 57.8311 45.1C59.0996 45.2249 60.6308 44.9101 61.387 46.1988C62.3571 47.8572 62.9887 49.6455 62.2317 51.6766C61.1523 54.5745 59.2992 56.6727 56.4949 58.0271ZM43.8036 56.8772C45.1739 57.997 46.4383 59.1704 48.1998 58.6161C51.0218 57.7281 53.8293 56.7489 56.5619 55.6189C58.7624 54.7095 59.9337 52.7667 60.5819 50.5587C61.1567 48.6095 59.9588 47.0931 57.917 46.9933C55.2951 46.8666 52.8183 47.2894 50.2967 48.1534C45.9967 49.6308 44.7866 53.0644 43.8036 56.8772Z" fill="#4E2D12"/>
<path d="M73.8065 63.1442C75.7118 66.8502 76.1567 70.6181 74.1855 74.463C73.6212 75.5641 73.0467 76.664 72.5072 77.78C70.975 80.9562 67.8507 81.6665 65.0165 79.5001C63.5091 78.349 62.6692 76.7293 62.192 75.0191C61.3496 72.006 61.852 68.9979 62.9636 66.1218C63.5638 64.5685 64.3641 63.086 65.1183 61.5963C66.6297 58.6256 71.0594 58.5718 72.9514 61.4963C73.2875 62.0139 73.5268 62.5961 73.8065 63.1442ZM72.377 64.2705C71.911 63.5452 71.5133 62.7561 70.9594 62.1068C69.8321 60.7814 67.6655 60.9063 66.876 62.4572C65.4524 65.2604 63.8784 68.0226 63.6985 71.3024C63.5733 73.5922 64.2461 75.5968 65.5838 77.3607C66.034 77.9518 66.8262 78.3829 67.554 78.64C68.9779 79.1465 69.8914 78.7029 70.5913 77.354C71.2451 76.0896 71.8608 74.8007 72.5247 73.5374C74.1632 70.4136 73.6975 67.3482 72.377 64.2705Z" fill="#4E2D12"/>
<path d="M42.9723 79.8946C41.3622 76.9094 40.8809 73.7098 40.9819 70.3868C41.0355 68.5963 41.9436 67.3924 43.6136 66.708C44.4018 66.383 45.1604 66.2524 45.9413 66.6008C48.7189 67.8424 51.3324 69.3328 53.5416 71.455C54.9847 72.8374 55.1254 74.7877 55.5461 76.5284C56.1391 78.9968 56.118 81.5424 55.0035 83.966C54.4535 85.1583 53.603 85.8247 52.2955 85.8686C51.1842 85.9076 50.0691 85.9625 48.9616 85.8939C47.5323 85.8043 46.3641 85.1792 45.5748 83.9317C44.7276 82.5801 43.8465 81.241 42.9723 79.8946ZM44.5013 78.7894C45.3713 80.1374 46.1795 81.5275 47.1363 82.8097C47.5091 83.3089 48.1867 83.8353 48.7661 83.8867C52.7757 84.239 53.5801 84.5594 53.9478 79.9703C54.0903 78.2241 53.7268 76.5732 53.1036 74.9121C52.6649 73.7377 52.3439 72.5681 51.2319 71.8595C49.5654 70.8009 47.9188 69.6915 46.1817 68.7555C44.3964 67.7939 42.9583 68.6484 42.8795 70.6846C42.7753 73.5022 43.2115 76.2262 44.5013 78.7894Z" fill="#4E2D12"/>
<path d="M90.3606 65.3084C90.032 65.478 89.7006 65.6535 89.3688 65.8147C86.4583 67.2083 84.7605 65.7511 83.6741 63.7256C82.365 61.2805 82.1861 58.7557 83.4361 56.0842C84.8417 53.0753 86.9336 50.5512 88.6985 47.7956C90.4292 45.0913 95.1649 45.8267 96.1508 48.7048C97.559 52.8308 97.4942 56.8015 95.2393 60.6499C94.049 62.6722 92.5434 64.338 90.3606 65.3084ZM89.6447 63.5271C89.759 63.4704 90.0476 63.3493 90.3062 63.1863C94.9422 60.2772 96.3461 54.0074 94.2659 49.2129C93.6272 47.7456 91.3658 47.5485 90.3366 48.8165C89.5956 49.7271 88.9401 50.7122 88.3222 51.7076C87.2159 53.4865 86.1376 55.2888 85.0958 57.1115C84.236 58.616 84.2804 60.24 84.8953 61.7739C86.032 64.6156 87.0114 65.0306 89.6447 63.5271Z" fill="#4E2D12"/>
<path d="M21.2433 34.4385C20.7238 32.9273 20.0348 31.4545 19.7275 29.9034C19.255 27.5257 20.1224 26.3947 22.4721 25.9417C27.4863 24.9723 31.5062 26.6863 34.5577 30.6443C35.6806 32.1016 36.6807 33.7103 37.4519 35.3794C39.0897 38.9238 37.1381 41.5794 33.6022 42.104C31.6288 42.3987 29.66 42.0259 27.8468 41.0408C24.3995 39.1637 23.314 38.069 21.2433 34.4385ZM21.5204 28.2569C21.5525 28.9061 21.4656 29.3772 21.6164 29.7461C22.3581 31.5709 22.9582 33.4962 23.9899 35.1512C25.967 38.3193 28.8841 40.2524 32.734 40.2246C35.4702 40.2029 36.9303 38.5056 35.6115 35.7988C35.0486 34.6413 34.2274 33.6082 33.5614 32.4984C32.2583 30.331 30.3397 28.9168 28.0156 28.0529C25.8931 27.264 23.7718 27.459 21.5204 28.2569Z" fill="#4E2D12"/>
<path d="M63.1348 104.343C61.4993 101.367 61.7148 98.2627 62.456 95.2339C62.7906 93.851 63.7452 92.5769 64.5858 91.3738C65.6488 89.8569 66.8862 88.459 68.0517 87.0104C68.9331 85.9177 70.0184 85.2852 71.4606 85.645C72.988 86.0265 74.1612 86.8089 74.6063 88.4586C75.9489 93.4533 75.0759 98.0216 72.0016 102.163C71.2275 103.207 70.4159 104.24 69.4941 105.145C68.8463 105.784 68.0456 106.35 67.2106 106.693C65.3918 107.432 64.1261 106.804 63.377 104.973C63.278 104.744 63.196 104.509 63.1348 104.343ZM65.8162 105.128C66.5682 104.744 67.4073 104.531 67.9341 104.008C70.5791 101.386 72.7118 98.3835 73.1813 94.6059C73.4052 92.8056 73.0716 90.9217 72.8645 89.0924C72.7652 88.222 72.0178 87.7551 71.1895 87.54C70.3135 87.3136 69.8159 87.8496 69.3321 88.4625C68.2599 89.8236 67.262 91.2681 66.0478 92.4934C63.2361 95.3317 63.0911 102.015 65.8162 105.128Z" fill="#4E2D12"/>
<path d="M21.9176 48.5576C24.697 47.0967 27.6857 47.0396 30.6059 47.7123C32.687 48.1932 34.7028 49.0986 36.6243 50.063C39.0193 51.2626 39.3499 54.0016 37.2963 55.7927C33.7877 58.8498 29.7125 60.0464 25.2252 58.3749C23.2245 57.6279 21.3834 56.3974 19.5578 55.248C18.3246 54.4732 18.0567 53.2116 18.5399 51.8125C19.0182 50.4392 20.0295 49.4626 21.9176 48.5576ZM36.5839 52.2684C33.0433 49.8901 29.173 48.6855 24.8676 49.4943C23.2957 49.7903 21.7696 50.4457 20.7177 51.7703C19.936 52.7538 20.052 53.3816 21.1192 54.0344C22.4862 54.8707 23.8519 55.7558 25.3127 56.3885C28.8784 57.9325 32.1959 57.2088 35.2916 55.0086C36.2296 54.3436 36.7209 53.5156 36.5839 52.2684Z" fill="#4E2D12"/>
<path d="M86.703 78.046C88.6384 77.4131 90.5629 76.7504 92.5082 76.1573C93.0293 75.9986 93.6095 75.9868 94.162 76.0047C96.7608 76.082 97.8972 77.1049 98.0328 79.7084C98.0964 80.9924 98.0785 82.3693 97.6733 83.5611C97.3192 84.6038 96.5445 85.6716 95.6638 86.3347C92.3464 88.8242 88.4888 89.1974 84.5103 88.6937C83.8006 88.6037 83.0882 88.2444 82.4708 87.8549C80.9116 86.8773 80.4546 85.3526 81.2268 83.6634C82.3704 81.1614 83.9883 79.1067 86.703 78.046ZM92.885 85.6918C95.5696 84.9027 96.196 82.9103 96.1507 80.4857C96.114 78.4246 95.287 77.6638 93.2825 77.9266C93.0384 77.9589 92.792 78.0113 92.564 78.1003C90.6678 78.8394 88.8025 79.6491 86.8828 80.3244C84.8849 81.0238 83.8656 82.6066 83.0104 84.3458C82.5348 85.3079 82.7098 85.8078 83.6414 86.3417C84.1131 86.6114 84.669 86.874 85.1925 86.8785C87.8418 86.9227 90.545 87.2172 92.885 85.6918Z" fill="#4E2D12"/>
<path d="M58.6444 65.6378C58.2454 65.5777 57.8643 65.6316 57.6913 65.464C57.4591 65.241 57.2065 64.7794 57.2937 64.5446C57.7387 63.3429 58.2621 62.1701 58.8262 61.016C59.1141 60.4224 59.7203 60.2322 60.1875 60.7255C60.4322 60.9825 60.4676 61.6014 60.3552 61.9903C60.1217 62.8099 59.7479 63.5897 59.3926 64.3675C59.1899 64.7994 58.9056 65.1939 58.6444 65.6378Z" fill="#4E2D12"/>
<path d="M100.083 71.1591C99.665 71.1398 99.2978 71.1789 98.9572 71.1069C97.8791 70.8828 96.8136 70.6009 95.7382 70.3709C95.1105 70.2409 94.7012 69.9048 94.7466 69.256C94.7993 68.5225 95.3628 68.3867 95.9603 68.5134C97.2158 68.7733 98.4772 69.0359 99.7061 69.407C100.022 69.5027 100.3 69.9691 100.432 70.3257C100.497 70.5284 100.223 70.8466 100.083 71.1591Z" fill="#4E2D12"/>
<path d="M63.2356 41.7864C62.9606 41.8397 62.7794 41.9115 62.6028 41.9044C61.4994 41.8729 60.3883 41.8733 59.296 41.7412C58.9679 41.7032 58.4976 41.2931 58.4509 40.9968C58.4074 40.7089 58.8144 40.0712 59.0393 40.0653C60.43 40.0244 61.8341 40.0848 63.2229 40.2086C63.4084 40.2269 63.6499 40.7891 63.6672 41.1107C63.6788 41.3381 63.3698 41.5873 63.2356 41.7864Z" fill="#4E2D12"/>
<path d="M84.1333 42.9444C84.2047 42.4838 84.1522 42.0931 84.3233 41.9286C84.5499 41.7049 85.0853 41.4541 85.2465 41.5634C86.297 42.2754 87.3607 42.997 88.2549 43.8874C88.7302 44.3632 88.0561 45.3503 87.4822 45.0654C86.3038 44.4779 85.2384 43.6604 84.1333 42.9444Z" fill="#4E2D12"/>
<path d="M76.896 60.43C76.7873 60.4364 76.4966 60.5389 76.3158 60.4417C75.394 59.9475 74.4676 59.4406 73.6143 58.8439C73.4267 58.7154 73.3725 58.0455 73.5315 57.8613C73.7583 57.599 74.3405 57.3308 74.5923 57.4501C75.4826 57.8594 76.346 58.3655 77.1261 58.9603C77.6607 59.3611 77.5386 60.0768 76.896 60.43Z" fill="#4E2D12"/>
<path d="M82.6259 70.1872C82.7631 71.3041 82.9332 72.3268 82.9728 73.3495C82.9836 73.6012 82.6 74.0276 82.3298 74.0937C82.068 74.1566 81.5478 73.9387 81.4329 73.7061C80.9321 72.6511 80.6295 71.5181 80.9852 70.3493C81.0657 70.0832 81.4672 69.7708 81.7389 69.7477C82.0265 69.7283 82.3372 70.0333 82.6259 70.1872Z" fill="#4E2D12"/>
<path d="M80.462 99.2357C79.557 99.7678 78.6601 99.2885 78.8151 98.6619C79.0796 97.5992 79.5174 96.5739 79.9804 95.5778C80.0796 95.3627 80.6234 95.239 80.9371 95.2775C81.1502 95.3049 81.518 95.7384 81.4774 95.903C81.1548 97.1222 80.7511 98.3183 80.462 99.2357Z" fill="#4E2D12"/>
<path d="M20.0142 38.8537C20.4577 39.7272 20.1902 41.5533 19.5533 42.1311C19.3332 42.333 18.8259 42.477 18.6113 42.3536C18.3163 42.1828 17.9867 41.7352 18.0069 41.4238C18.0524 40.6446 18.2269 39.8613 18.4669 39.1116C18.5543 38.8381 18.95 38.5231 19.2344 38.4952C19.5231 38.4658 19.8423 38.7676 20.0142 38.8537Z" fill="#4E2D12"/>
<path d="M74.4181 82.2077C74.0405 81.5125 74.2493 80.9529 74.7615 80.8746C75.7859 80.7182 76.8433 80.7425 77.8868 80.7816C78.0978 80.7905 78.4574 81.1884 78.4525 81.3977C78.444 81.7145 78.2076 82.2649 78.0022 82.2974C76.9752 82.4597 75.9259 82.5095 74.8831 82.5377C74.6953 82.5395 74.4974 82.2653 74.4181 82.2077Z" fill="#4E2D12"/>
<path d="M41.4585 63.7118C41.7014 64.3169 41.1588 65.1107 40.5357 64.9019C39.5691 64.5738 38.6277 64.0917 37.7934 63.5073C37.283 63.1458 37.665 62.2182 38.2958 62.0817C38.8427 61.9666 41.2592 63.2113 41.4585 63.7118Z" fill="#4E2D12"/>
<path d="M86.6916 22.2998C85.7727 22.8467 84.9338 22.4329 85.0774 21.7622C85.2869 20.773 85.6915 19.7888 86.1969 18.9074C86.4903 18.3937 87.7 18.7912 87.5988 19.3544C87.4057 20.4534 86.9461 21.511 86.6916 22.2998Z" fill="#4E2D12"/>
<path d="M58.4769 22.2863C58.6098 21.2336 58.6922 20.2141 58.8985 19.2163C58.9383 19.0231 59.5086 18.7883 59.7825 18.8367C60.0681 18.8905 60.4956 19.2632 60.5049 19.5107C60.5348 20.3633 60.4692 21.2319 60.3066 22.0735C60.2586 22.3229 59.8011 22.5884 59.4867 22.6659C59.2621 22.7248 58.9605 22.4839 58.4769 22.2863Z" fill="#4E2D12"/>
<path d="M99.2219 47.6282C99.3014 47.1502 99.2295 46.6025 99.4613 46.406C99.7 46.202 100.339 46.1784 100.605 46.3645C101.253 46.8103 101.857 47.3735 102.335 47.9982C102.514 48.2358 102.414 48.842 102.226 49.1431C102.107 49.3318 101.48 49.4381 101.269 49.2989C100.566 48.8348 99.9452 48.2391 99.2219 47.6282Z" fill="#4E2D12"/>
<path d="M58.5543 88.1112C58.1342 88.0203 57.7401 88.026 57.4749 87.8441C57.2815 87.7129 57.0978 87.2549 57.1841 87.0831C57.5888 86.2823 58.0454 85.4912 58.5891 84.7789C58.7322 84.5909 59.3259 84.5502 59.5797 84.688C59.8336 84.8258 60.1361 85.3702 60.0476 85.5621C59.6335 86.4292 59.0883 87.2288 58.5543 88.1112Z" fill="#4E2D12"/>
<path d="M55.1333 102.522C54.9391 102.141 54.6192 101.772 54.5836 101.375C54.5495 101.021 54.7381 100.459 55.0003 100.318C55.2668 100.177 55.9295 100.323 56.0963 100.565C56.5383 101.212 56.9087 101.953 57.1062 102.71C57.1977 103.063 56.9455 103.701 56.6426 103.914C56.1518 104.26 55.7414 103.842 55.483 103.378C55.3354 103.109 55.2048 102.834 55.0642 102.558C55.0838 102.546 55.1078 102.532 55.1333 102.522Z" fill="#4E2D12"/>
<path d="M78.1094 29.658C77.9927 29.9568 77.9351 30.4027 77.6882 30.6627C77.3026 31.0706 74.7653 30.8065 74.3262 30.3897C73.8207 29.9106 73.9627 28.9607 74.6199 28.9351C75.641 28.9004 76.668 29.1435 77.6919 29.2863C77.7957 29.3059 77.8761 29.445 78.1094 29.658Z" fill="#4E2D12"/>
<path d="M42.3049 43.9263C42.4311 43.5226 42.449 43.048 42.696 42.7879C42.8693 42.6032 43.4529 42.5614 43.6701 42.7176C44.2069 43.0982 44.6996 43.582 45.0722 44.1199C45.2148 44.3229 45.0866 44.8913 44.8813 45.1071C44.6968 45.3007 44.1494 45.4016 43.9301 45.2655C43.3702 44.9271 42.8988 44.4354 42.3049 43.9263Z" fill="#4E2D12"/>
<path d="M30.0947 70.3799C30.165 72.0088 30.2658 73.472 30.2649 74.9343C30.2651 75.4842 30.0414 76.0687 29.2828 76.016C28.5543 75.9667 28.4505 75.4502 28.4097 74.8428C28.3275 73.5608 28.248 72.2731 28.0686 71.0028C27.9777 70.3513 28.0847 69.7907 28.7119 69.7231C29.1279 69.6852 29.5832 70.1201 30.0947 70.3799Z" fill="#4E2D12"/>
<path d="M21.1504 78.2095C21.132 78.0812 21.0318 77.8625 21.102 77.7256C21.5436 76.8677 21.9673 75.9875 22.5247 75.2074C22.6647 75.011 23.3924 74.9931 23.6391 75.1769C23.8784 75.3539 24.0225 75.9665 23.9016 76.2669C23.6049 76.994 23.1738 77.684 22.7153 78.3262C22.2879 78.9087 21.4642 78.8366 21.1504 78.2095Z" fill="#4E2D12"/>
<path d="M25.3972 81.205C25.0203 81.074 24.5909 81.0493 24.4017 80.8249C24.2094 80.592 24.0854 80.0733 24.2198 79.8355C24.6022 79.1442 25.0503 78.4479 25.6286 77.9207C25.871 77.7009 26.5516 77.7776 26.9171 77.9562C27.089 78.0422 27.1338 78.7783 26.9652 79.0674C26.5413 79.803 25.9682 80.4489 25.3972 81.205Z" fill="#4E2D12"/>
<path d="M79.5489 11.8969C79.5953 12.9509 79.825 13.913 79.6316 14.7757C79.3513 16.0179 78.7913 17.209 78.2869 18.394C78.0549 18.9429 77.5755 19.3323 76.9514 19.0032C76.3522 18.689 76.3813 18.1137 76.623 17.5516C76.7459 17.2698 76.8747 16.9906 77.0136 16.7126C77.6606 15.4169 78.0268 14.0803 77.7207 12.6108C77.6075 12.0688 77.7964 11.56 78.4012 11.5103C78.7561 11.4901 79.1371 11.7499 79.5489 11.8969Z" fill="#4E2D12"/>
<path d="M72.8299 14.4898C73.3896 14.6449 73.9974 14.6424 74.3023 14.9447C74.8009 15.4311 74.4319 15.91 73.9661 16.3233C73.1476 17.0502 72.3676 17.816 71.5908 18.5903C71.1642 19.0181 70.7132 19.3535 70.1695 18.8886C69.6743 18.4636 69.7024 17.8597 70.0995 17.4043C70.9362 16.439 71.8394 15.536 72.8299 14.4898Z" fill="#4E2D12"/>
<path d="M75.4261 21.9887C74.1946 22.3954 73.3377 22.7698 72.4438 22.9263C72.0945 22.9878 71.6555 22.571 71.2577 22.3705C71.4645 21.9757 71.5748 21.3849 71.8992 21.2169C72.7076 20.8025 73.6026 20.5442 74.4864 20.2949C75.0648 20.1343 75.8545 19.944 75.973 20.7879C76.0385 21.2269 75.5489 21.7455 75.4261 21.9887Z" fill="#4E2D12"/>
<path d="M88.8791 34.6827C88.9438 34.2824 88.8953 33.8372 89.091 33.6346C89.2937 33.4246 89.8195 33.2787 90.0671 33.3995C92.1424 34.3746 94.3498 34.5435 96.5894 34.6425C96.9468 34.6552 97.5069 35.1383 97.5751 35.4798C97.7027 36.1129 97.232 36.4605 96.5504 36.4855C94.2907 36.5676 92.1024 36.189 89.9771 35.4447C89.5944 35.311 89.2854 34.9716 88.8791 34.6827Z" fill="#4E2D12"/>
<path d="M89.787 31.1243C90.0122 30.7661 90.2344 30.0858 90.4863 30.0747C91.4412 30.0308 92.4185 30.1523 93.3663 30.3377C93.5697 30.3783 93.7879 30.9298 93.7894 31.2477C93.7919 31.4638 93.4265 31.8739 93.2313 31.8688C92.263 31.8501 91.2989 31.7382 90.3391 31.6248C90.1965 31.6051 90.0751 31.3942 89.787 31.1243Z" fill="#4E2D12"/>
<path d="M56.7985 32.1554C56.5633 32.1072 56.1836 32.1124 55.9087 31.9437C55.6074 31.7559 55.3763 31.4311 55.1674 31.1271C54.4706 30.1301 53.5711 29.4347 52.3769 29.1183C51.7075 28.941 51.2421 28.505 51.4814 27.7797C51.7036 27.0994 52.3172 27.1912 52.892 27.3214C54.8339 27.7524 56.1285 29.0207 57.1611 30.6126C57.5035 31.1471 57.4896 31.6589 56.7985 32.1554Z" fill="#4E2D12"/>
<path d="M49.0174 28.8781C48.6244 28.8737 48.3217 28.8649 48.0151 28.872C47.0365 28.891 46.0534 28.8585 45.0787 28.9532C44.3783 29.0189 43.7926 28.9506 43.6779 28.1824C43.576 27.5011 44.1163 27.1327 44.6903 27.104C46.0314 27.0332 47.3832 27.0308 48.7208 27.1205C49.0039 27.1413 49.3825 27.6432 49.4693 27.9826C49.5343 28.224 49.1855 28.5748 49.0174 28.8781Z" fill="#4E2D12"/>
<path d="M49.3134 33.9168C48.9521 33.3314 49.3146 32.5992 50.0452 32.6284C51.1433 32.6715 52.2446 32.8147 53.3233 33.0145C54.0184 33.1437 54.2278 33.959 53.7686 34.4422C53.0875 35.1618 49.8512 34.7844 49.3134 33.9168Z" fill="#4E2D12"/>
<path d="M77.1848 40.9662C77.3806 41.3523 77.6862 41.7219 77.7434 42.1253C77.7935 42.4831 77.6883 43.0093 77.4416 43.2307C77.004 43.6287 76.5147 43.3897 76.1793 42.9395C76.034 42.7423 75.9531 42.4971 75.8035 42.3015C75.053 41.3291 74.3179 40.3462 73.5285 39.4123C73.0874 38.8853 72.4436 38.385 73.0408 37.6867C73.6465 36.9853 74.278 37.413 74.7725 37.9541C75.6399 38.9026 76.4806 39.8706 77.334 40.8339C77.2839 40.8814 77.2365 40.923 77.1848 40.9662Z" fill="#4E2D12"/>
<path d="M71.8927 46.3757C71.7659 45.5878 71.5983 44.6896 71.4865 43.7852C71.4104 43.1475 71.704 42.5952 72.3671 42.6639C72.718 42.6983 73.2794 43.2242 73.291 43.5432C73.3446 44.9178 73.8611 46.0152 74.7801 47.0122C75.2093 47.4809 75.4321 48.1754 74.7714 48.6365C74.1247 49.0829 73.6543 48.6729 73.2618 48.0941C72.8888 47.542 72.4284 47.0414 71.8927 46.3757Z" fill="#4E2D12"/>
<path d="M53.9632 55.1362C53.807 55.0926 53.2751 55.0913 52.9901 54.8299C52.4671 54.3428 52.8364 53.8252 53.2137 53.3819C54.1974 52.2128 55.1869 51.0463 56.1589 49.8719C56.3522 49.6364 56.4805 49.343 56.6722 49.1033C57.0817 48.5902 57.557 48.1637 58.2161 48.6922C58.7663 49.1355 58.5752 49.6644 58.257 50.1631C57.1243 51.9228 56.0755 53.7528 53.9632 55.1362Z" fill="#4E2D12"/>
<path d="M47.0556 56.4865C47.3383 56.0877 47.5265 55.5116 47.8462 55.4225C48.7959 55.1682 49.7887 55.0571 50.7765 55.0107C51.0428 54.9992 51.4699 55.3576 51.5617 55.6325C51.6489 55.8946 51.4467 56.5242 51.2842 56.5552C50.1518 56.7854 48.9991 56.9217 47.8456 57.0294C47.6641 57.0481 47.4561 56.7728 47.0556 56.4865Z" fill="#4E2D12"/>
<path d="M50.6508 52.447C49.48 53.0049 48.9356 52.9696 48.6652 52.2638C48.4026 51.5791 48.9123 50.9711 50.0452 50.6636C50.6592 50.4947 51.3605 50.3659 51.6503 51.0983C51.9617 51.8759 51.3232 52.1745 50.6508 52.447Z" fill="#4E2D12"/>
<path d="M71.3972 65.5153C71.5186 66.2232 71.7833 67.293 71.8433 68.3709C71.8591 68.6883 71.3068 69.0371 71.0106 69.3732C70.6925 69.0614 70.1372 68.7744 70.1019 68.4304C69.966 67.1731 69.6045 66.0376 68.8777 64.9986C68.5609 64.5463 68.5205 63.9533 69.041 63.7273C69.386 63.5757 69.9999 63.7205 70.3343 63.9588C70.7099 64.2301 70.897 64.7497 71.3972 65.5153Z" fill="#4E2D12"/>
<path d="M67.9168 73.4882C68.111 73.87 68.3906 74.2347 68.4723 74.6387C68.5333 74.9346 68.42 75.4782 68.2265 75.569C67.9086 75.7154 67.2498 75.7368 67.1045 75.5396C66.5695 74.8109 66.0981 74.0056 65.7903 73.1592C65.6774 72.8535 65.9794 72.2064 66.2904 71.9757C66.8058 71.5923 67.1773 72.0485 67.4283 72.5058C67.6048 72.8266 67.7658 73.1579 67.9311 73.4877C67.9253 73.485 67.9211 73.4866 67.9168 73.4882Z" fill="#4E2D12"/>
<path d="M51.5068 76.5924C50.8188 76.3255 50.2484 76.2853 50.1066 76.0193C49.2744 74.4595 48.2319 73.1414 46.6925 72.2047C46.4631 72.0675 46.4693 71.3126 46.6002 70.9217C46.6525 70.7624 47.4062 70.6577 47.7189 70.7979C49.6155 71.6557 50.8575 73.1606 51.6046 75.0654C51.7379 75.4263 51.5582 75.9076 51.5068 76.5924Z" fill="#4E2D12"/>
<path d="M45.2613 76.6222C45.1914 76.3151 44.9523 75.6025 44.8862 74.8743C44.8617 74.5987 45.1891 74.0724 45.4104 74.0438C45.7644 73.995 46.3702 74.1572 46.5003 74.4179C46.9192 75.2378 47.2299 76.1314 47.4404 77.0282C47.5151 77.348 47.2833 77.9499 47.0179 78.0817C46.7441 78.2167 46.2186 78.0103 45.894 77.8118C45.6715 77.6672 45.5977 77.2844 45.2613 76.6222Z" fill="#4E2D12"/>
<path d="M51.2792 81.8487C50.6276 81.4187 50.141 81.2656 49.9529 80.9394C49.5615 80.259 50.1682 78.8672 50.8884 78.5674C51.463 78.3311 52.0418 78.5901 52.0136 79.1023C51.969 79.91 51.6084 80.6994 51.2792 81.8487Z" fill="#4E2D12"/>
<path d="M92.5652 57.7007C92.2754 57.6486 91.8366 57.69 91.6239 57.4936C91.4038 57.2902 91.2132 56.7479 91.3353 56.5291C92.0825 55.1385 92.0023 53.6918 91.8846 52.1962C91.8547 51.8405 92.2646 51.3417 92.6085 51.1086C92.7432 51.0154 93.474 51.4112 93.5531 51.6908C94.0791 53.5856 94.0871 55.4644 93.0318 57.2244C92.9377 57.375 92.7764 57.4876 92.5652 57.7007Z" fill="#4E2D12"/>
<path d="M88.8387 56.8724C88.4115 56.8275 87.991 56.9057 87.7618 56.7298C87.5384 56.5566 87.3195 56.0295 87.4251 55.8313C87.8188 55.0924 88.301 54.3836 88.8517 53.7556C89.0011 53.5846 89.5923 53.6026 89.8238 53.7583C90.0552 53.9141 90.273 54.4512 90.1721 54.6622C89.809 55.4187 89.3121 56.1137 88.8387 56.8724Z" fill="#4E2D12"/>
<path d="M87.2122 58.9303C87.2457 59.8056 87.3384 60.6061 87.2658 61.3904C87.2422 61.6403 86.7979 62.0071 86.5135 62.035C86.2434 62.0624 85.7295 61.7697 85.6762 61.5337C85.5042 60.7674 85.4327 59.9591 85.4623 59.1762C85.4721 58.941 85.9338 58.5823 86.2236 58.5428C86.5319 58.5012 86.8778 58.7836 87.2122 58.9303Z" fill="#4E2D12"/>
<path d="M31.9568 38.0028C31.8278 35.8359 30.6649 34.3355 29.8528 32.6863C29.7426 32.4665 29.5625 32.2146 29.5976 32.0086C29.6518 31.6846 29.8062 31.1741 30.0181 31.1199C30.3607 31.0271 31.0014 31.1137 31.1365 31.3485C32.2074 33.2013 33.5233 34.9587 33.7675 37.1892C33.7751 37.2491 33.7886 37.3117 33.7919 37.3732C33.7873 37.949 33.7435 38.6021 33.0164 38.5957C32.6335 38.5923 32.2475 38.1753 31.9568 38.0028Z" fill="#4E2D12"/>
<path d="M25.6775 34.933C25.8297 34.4426 25.8469 33.809 26.108 33.6788C26.4355 33.5192 27.0872 33.6355 27.3876 33.8864C28.2313 34.5879 29.0205 35.3772 29.7112 36.2269C29.9336 36.5018 29.9222 37.138 29.7612 37.487C29.6754 37.6731 28.8861 37.7861 28.667 37.6114C27.6657 36.8233 26.7525 35.9206 25.6775 34.933Z" fill="#4E2D12"/>
<path d="M24.8782 30.2057C25.1282 30.8564 25.7674 31.5273 24.8747 32.1321C24.2951 32.5247 23.6538 32.0572 23.169 30.9673C23.0732 30.747 22.8873 30.4924 22.9298 30.2934C23.0166 29.9139 23.1578 29.3938 23.4359 29.2573C23.6816 29.1376 24.1691 29.411 24.5006 29.6022C24.6846 29.7079 24.7584 29.9991 24.8782 30.2057Z" fill="#4E2D12"/>
<path d="M66.0736 99.861C65.9839 98.4805 65.8628 97.3287 65.852 96.1747C65.8437 95.5506 66.2819 95.0365 66.9063 95.1967C67.2431 95.2845 67.5826 95.8635 67.6716 96.2745C67.8766 97.2217 67.9837 98.205 68.0231 99.1747C68.042 99.5922 67.7905 100.023 67.662 100.447C67.147 100.256 66.6378 100.068 66.0736 99.861Z" fill="#4E2D12"/>
<path d="M71.5917 94.344C71.0856 94.6612 70.3911 94.4159 70.3325 93.7863C70.2515 92.9525 70.2816 92.0923 70.3958 91.2636C70.4929 90.5716 71.2868 90.3797 71.8162 90.8451C72.58 91.5134 72.4324 93.8211 71.5917 94.344Z" fill="#4E2D12"/>
<path d="M33.5241 52.8004C33.4589 53.0947 33.4942 53.5304 33.2896 53.7218C33.0737 53.9221 32.6431 53.9075 32.3019 53.9515C32.2005 53.9648 32.0615 53.8763 31.9787 53.7959C31.0622 52.9234 29.9862 52.4042 28.7287 52.2173C28.1294 52.1251 27.7012 51.7767 27.8763 51.0607C28.026 50.4457 28.4804 50.355 29.0153 50.4035C30.8134 50.5499 32.2927 51.3109 33.5241 52.8004Z" fill="#4E2D12"/>
<path d="M23.8264 53.1887C23.9264 52.6355 23.8853 52.1972 24.0848 51.9788C24.2731 51.7693 24.807 51.6058 25.0301 51.726C25.9969 52.2374 26.9372 52.8212 27.8194 53.4699C28.0307 53.6235 28.1301 54.1802 28.0237 54.4415C27.92 54.6969 27.3745 55.0383 27.1999 54.958C26.0535 54.431 24.9596 53.7978 23.8264 53.1887Z" fill="#4E2D12"/>
<path d="M91.5811 84.6729C89.9512 84.9035 88.5083 85.1566 87.0503 85.29C86.4199 85.3491 85.7816 85.1121 85.8125 84.2804C85.836 83.5722 86.3414 83.4627 86.9613 83.3881C88.2323 83.2322 89.4979 82.9963 90.7525 82.7306C91.3535 82.6051 91.959 82.531 92.0591 83.2467C92.1157 83.6745 91.7641 84.1614 91.5811 84.6729Z" fill="#4E2D12"/>
<path d="M90.8458 79.4781C91.8707 79.4276 92.669 79.287 93.4311 79.4012C93.7638 79.4519 94.138 79.994 94.2436 80.3844C94.2877 80.5563 93.758 81.0318 93.4186 81.1331C92.7822 81.3199 92.0901 81.4211 91.4338 81.3838C91.0287 81.3597 90.3505 81.0409 90.3195 80.787C90.265 80.3777 90.6461 79.9185 90.8458 79.4781Z" fill="#4E2D12"/>
</g>
<defs>
<clipPath id="clip0_2_1428">
<rect width="98.5149" height="91.3502" fill="white" transform="translate(0 34.1367) rotate(-20.2742)"/>
</clipPath>
</defs>
</svg>
