<svg width="118" height="143" viewBox="0 0 118 143" fill="none" xmlns="http://www.w3.org/2000/svg">
<g clip-path="url(#clip0_2_1413)">
<path d="M18.9854 29.3384C18.9854 29.3384 18.3342 27.0828 16.5362 28.8706C16.1173 29.2877 15.0666 30.0682 14.0728 30.8492C14.057 29.8482 14.0453 28.8462 14.0336 27.8442C14.1729 27.7828 14.3229 27.7102 14.49 27.6162C15.9101 26.491 17.64 24.6525 18.6841 23.1497C18.6488 21.0519 17.1593 22.0214 17.1593 22.0214C16.3528 23.1559 15.1839 24.3704 14.0017 25.4255C14.0012 25.2852 13.9967 25.1459 13.9972 25.0098C13.9792 23.6232 14.0708 22.2387 14.1064 21.0553C12.133 18.0741 12.0757 22.9559 12.0757 22.9559C12.0801 23.4111 12.0929 23.8645 12.1057 24.3178C12.0285 24.2252 11.9573 24.1401 11.874 24.04C11.0752 23.0935 10.1893 22.2277 9.35996 21.3406C9.35996 21.3406 7.9951 21.9448 8.20812 22.7706C8.42115 23.5965 8.65304 23.44 8.88108 23.7011C9.7072 24.6328 9.72767 24.3299 10.5283 25.2848C11.1204 25.9875 11.5819 26.8111 12.1953 27.4915C12.2337 28.6542 12.2689 29.822 12.2773 30.987C12.28 31.118 12.2786 31.2499 12.2771 31.3819C12.1782 31.2897 12.0773 31.1891 11.9705 31.0811C11.9705 31.0811 9.48811 27.7737 8.89215 27.6071C8.2962 27.4404 7.86201 29.0541 7.86201 29.0541C9.64152 30.9201 10.506 32.0846 12.2702 33.8618C12.2396 36.5312 12.1748 39.2038 12.3173 41.8657C12.5159 45.5329 12.9554 50.9234 13.4422 54.5708C14.0495 59.1391 14.5132 70.6304 14.2528 75.2456C14.1448 77.1294 13.2852 79.1309 13.4812 80.987C13.6772 82.8431 15.3505 81.3812 15.3505 81.3812C15.5857 79.8158 15.9852 78.144 16.0539 76.4576C16.1598 73.8724 16.3335 67.2234 16.0892 64.6542C15.7296 60.8515 15.0948 54.2013 14.6751 50.4031C14.3868 47.7735 14.3274 43.3912 14.258 40.7439C14.1964 38.3888 14.1556 36.029 14.1157 33.6734C14.6716 33.362 15.2321 33.032 15.7052 32.6029C16.8453 31.5746 18.0974 30.6181 18.9854 29.3384Z" fill="#4E2D12"/>
<path d="M37.4301 70.9501C37.755 72.0846 38.1354 73.2727 38.4408 74.4773C39.1871 77.4401 39.6029 80.5285 40.6837 83.3647C44.0285 92.1579 48.0203 100.677 52.1505 109.129C52.9976 110.868 54.0608 112.497 55.0153 114.168C57.036 113.31 58.9303 112.532 60.7931 111.69C61.0551 111.571 61.3653 111.116 61.3316 110.865C60.7066 106.533 60.0733 102.203 59.3516 97.8881C59.0261 95.9598 58.2808 94.089 58.1034 92.1586C57.6752 87.5903 57.4524 83.0029 57.1871 78.4205C57.1001 76.9395 57.1419 75.4476 57.1225 74.035C53.7857 73.7808 50.5058 73.7246 47.2987 73.2267C44.0721 72.7201 40.9184 71.7718 37.4301 70.9501ZM29.3433 117.374C30.1989 117.51 30.8606 117.618 31.5204 117.718C37.8301 118.636 44.1784 117.672 50.5021 118.1C50.7904 118.12 51.1565 117.899 51.3889 117.685C51.8324 117.28 52.1611 116.751 52.6184 116.369C53.1003 115.96 53.1106 115.611 52.7929 115.102C51.9114 113.683 50.9411 112.296 50.2285 110.791C47.2022 104.388 44.1717 97.9867 41.3161 91.5069C39.2249 86.7664 37.1854 81.9838 36.3771 76.8019C36.2755 76.1444 36.1489 75.4925 36.0307 74.8387C32.4278 88.8032 30.2038 102.959 29.3433 117.374ZM74.5239 68.094C72.729 68.9862 71.2022 69.6876 69.7285 70.4913C66.8441 72.0672 63.7124 72.9389 60.5502 73.6726C59.7773 73.8521 59.5769 74.1113 59.596 74.8309C59.6878 78.3506 59.5865 81.8866 59.8629 85.3919C60.1204 88.6732 60.7064 91.9389 61.2545 95.1911C61.8635 98.7983 62.6202 102.382 63.251 105.989C63.5207 107.526 63.6303 109.089 63.788 110.397C66.2243 110.569 68.5667 110.732 71.0507 110.902C71.1896 96.7205 73.2234 82.5939 74.5239 68.094ZM93.4961 114.664C93.5476 114.521 93.5948 114.379 93.6462 114.236C92.1683 111.541 90.6431 108.868 89.2198 106.143C87.3396 102.536 85.0835 99.1256 83.9425 95.1271C83.02 91.9006 81.6616 88.7967 80.6318 85.5983C80.0521 83.805 79.796 81.9139 79.3052 80.0878C78.6643 77.7203 77.9567 75.3675 76.5781 73.0226C75.1361 85.992 73.7469 98.7261 73.4651 111.273C75.3379 112.473 77.1408 113.536 78.8424 114.752C80.1437 115.68 81.418 116.109 83.0599 115.869C86.5246 115.358 90.0171 115.051 93.4961 114.664ZM85.2807 124.301C83.7441 122.644 82.1829 121.015 80.6898 119.318C80.2578 118.826 79.864 118.685 79.2347 118.723C75.3799 118.952 71.5197 119.076 67.664 119.34C62.8957 119.665 58.139 120.142 53.3652 120.442C52.0431 120.528 51.5319 121.338 51.0411 122.28C50.7017 122.938 50.3932 123.638 50.219 124.352C49.3134 128.083 48.0028 133.422 47.5341 135.749C47.0654 138.077 45.112 138.587 45.0556 137.126C45.9212 131.395 46.7673 125.852 49.0408 120.581C48.7483 120.562 48.51 120.532 48.2699 120.532C44.4892 120.543 40.7081 120.65 36.9317 120.541C34.2848 120.463 31.6459 120.125 29.0111 119.825C27.8779 119.699 27.0296 118.745 27.0615 117.624C27.1394 114.497 27.1896 111.363 27.4638 108.253C27.7398 105.113 28.3027 102.006 28.6726 98.8753C29.5847 91.1595 31.3917 83.619 33.034 76.0446C33.4952 73.9205 34.191 71.8499 34.7767 69.7553C32.9528 69.0528 31.152 68.4154 29.3975 67.6712C26.9838 66.6516 24.5334 65.6839 22.2331 64.4462C19.9828 63.237 17.882 61.7359 15.7428 60.3179C15.0978 59.8901 14.4664 59.3847 14.0011 58.7813C13.7851 58.4956 13.8016 57.72 14.0326 57.4803C14.3242 57.179 14.9438 57.1167 15.4283 57.1149C15.6944 57.1132 15.959 57.4407 16.2287 57.6136C18.676 59.2005 21.0007 61.0425 23.5981 62.3199C27.3327 64.1575 31.2173 65.7251 35.1302 67.1637C40.0601 68.9741 44.9562 71.007 50.3411 71.1202C52.5572 71.1658 54.7704 71.3568 57.0619 71.4866C56.903 68.0783 56.7475 70.6173 56.5877 67.2838C56.1457 67.3595 55.9083 67.4119 55.6705 67.4425C54.1993 67.6447 52.7073 68.0884 51.2524 67.9886C48.3252 67.7887 45.4212 67.2985 42.506 66.916C42.1955 66.875 41.8587 66.8134 41.5862 66.6674C38.3411 64.9103 35.0377 63.2449 31.888 61.3264C29.5554 59.9028 27.457 58.1555 26.3835 55.4317C25.2208 52.482 24.8887 49.4365 25.043 46.3186C25.0887 45.418 25.388 44.5185 25.6576 43.643C26.466 41.0342 28.2062 39.0048 29.8266 36.8878C30.897 35.4846 31.8101 33.9625 32.7852 32.4837C34.0945 30.5012 35.3845 28.5099 36.6998 26.5349C38.0907 24.4466 39.6634 22.4893 40.2501 19.9252C40.835 17.3921 41.5416 14.9155 40.5754 12.3215C40.3193 11.6368 40.7115 11.0194 41.3515 10.9306C41.8004 10.8665 42.5846 11.1539 42.7502 11.5077C43.1469 12.3544 43.4626 13.3287 43.471 14.2568C43.5085 18.2622 42.7352 22.0783 40.4439 25.4489C39.6068 26.6823 38.6448 27.8247 37.7813 29.0376C37.2632 29.7574 36.8122 30.5238 36.3469 31.2846C35.1078 33.3085 33.9137 35.3577 32.633 37.3514C32.0769 38.2155 31.3349 38.9497 30.7025 39.765C28.6307 42.4291 27.0439 45.2713 27.4789 48.8423C27.6017 49.8329 27.6527 50.8349 27.8504 51.809C28.3377 54.2324 29.2832 56.3571 31.3571 57.9344C34.1504 60.0589 37.253 61.6063 40.2959 63.2984C42.3871 64.4595 44.5471 64.7456 46.8005 64.9803C47.6811 65.0709 48.5635 65.1699 49.426 65.3566C51.6891 65.8524 53.849 65.327 56.0597 64.7948C55.8964 63.4228 55.7914 62.0773 55.5563 60.7563C55.451 60.161 55.2287 59.3723 54.7911 59.0917C54.049 58.6196 53.1097 58.3226 52.2273 58.2237C49.1506 57.8813 47.0865 56.0913 45.3539 53.7061C43.9109 51.722 43.4318 49.6126 44.6103 47.4134C45.5406 45.6725 46.5671 43.9324 47.8416 42.4445C49.4975 40.5083 51.8129 39.9354 54.3134 40.3788C55.628 40.6147 56.9323 40.9627 58.2107 41.3514C58.8381 41.5418 59.4813 41.8427 59.9804 42.2633C61.6967 43.7045 62.6626 45.6055 63.1774 47.7772C63.8297 50.5326 61.774 56.2156 58.7207 57.7586C58.2611 57.9917 57.839 58.2956 57.5705 58.4645C57.9201 60.4622 58.2323 62.2707 58.5606 64.1326C59.2738 63.94 59.9573 63.7714 60.6284 63.5662C60.931 63.473 61.2245 63.338 61.4929 63.169C66.4482 60.0916 70.8197 56.3491 74.2291 51.5734C75.7699 49.4126 77.4074 47.2743 77.9956 44.5782C78.3002 43.1686 78.277 41.8578 77.7093 40.4347C76.3598 37.0744 73.5493 35.2476 70.7346 33.5006C66.3293 30.7628 61.7629 28.2842 57.309 25.6229C51.9891 22.4422 49.6805 17.2321 48.1296 11.5563C47.9202 10.7867 48.1689 10.1922 48.9876 10.0026C49.7896 9.81662 50.2619 10.2343 50.4935 10.9859C50.7976 11.9671 50.9883 13.0084 51.4424 13.917C52.5471 16.1295 53.525 18.4796 55.018 20.4133C57.555 23.6911 61.4299 25.3135 64.8432 27.4765C67.9563 29.4471 71.238 31.1523 74.3886 33.075C76.3076 34.2478 77.9114 35.7534 79.0971 37.7594C80.8596 40.7345 81.343 43.7729 79.7949 46.8697C78.6099 49.237 77.1782 51.4966 75.6943 53.6975C73.1228 57.5204 69.5476 60.3588 65.9963 63.1874C63.9088 64.8505 61.5788 66.1285 59.0053 66.6005C59.1937 70.1822 59.3778 67.8518 59.5709 71.5333C61.9769 70.7781 64.2094 70.2059 66.3351 69.3679C68.3646 68.5686 70.2932 67.5109 72.2459 66.5224C74.1986 65.5339 76.228 64.6557 78.0355 63.4449C81.0644 61.4159 84.0536 59.2466 86.2727 56.2999C88.5153 53.3216 90.5622 50.1892 92.6587 47.1029C94.237 44.7759 95.7543 42.4097 97.3021 40.0631C97.7369 39.4012 98.3215 38.9825 99.0876 39.4449C99.8944 39.9334 99.8211 40.6691 99.3835 41.3974C99.2168 41.6711 99.045 41.9415 98.8691 42.2129C96.348 46.0466 93.9154 49.9441 91.2763 53.6986C89.4443 56.301 87.7423 59.037 85.1451 61.0233C82.5627 62.9975 80.0354 65.0428 77.3011 67.1997C77.9257 68.9787 78.626 71.0217 79.3578 73.0489C80.103 75.1171 81.0254 77.1373 81.61 79.2497C82.727 83.2974 83.3141 87.4973 85.2335 91.3019C85.4065 91.6497 85.5049 92.0359 85.6297 92.4032C86.2334 94.1472 86.6409 95.9917 87.4765 97.6188C90.2575 103.049 93.2 108.4 96.067 113.785C96.9031 115.355 96.5992 116.273 94.8957 116.61C91.8779 117.206 88.8213 117.627 85.7758 118.098C84.9558 118.222 84.1178 118.245 83.4662 118.301C84.9236 120.252 86.3602 122.207 87.8412 124.125C88.0063 124.339 89.9839 126.152 89.0544 126.928C88.1249 127.704 85.2372 124.42 85.2807 124.301ZM47.985 46.3169C47.8521 46.5261 47.5369 46.859 47.4104 47.2554C47.0574 48.3467 46.2832 49.6275 46.58 50.5358C47.2738 52.6679 48.6368 54.5074 50.9151 55.3289C51.7734 55.635 52.7525 55.6775 53.5289 56.1069C54.6735 56.7402 55.6647 56.6001 56.7463 56.0585C59.3252 54.7606 60.3302 52.3892 60.7925 49.7955C61.3077 46.9269 59.324 44.1761 56.5293 43.4687C55.7427 43.2696 54.9742 42.9744 54.1769 42.8654C53.4601 42.7649 52.7054 42.7694 51.9844 42.8672C50.0056 43.1245 49.0074 44.6172 47.985 46.3169ZM76.503 116.383C74.2418 114.492 71.6184 113.571 68.594 113.169C66.4526 112.888 64.379 112.854 62.3546 113.736C60.7408 114.439 59.064 115.016 57.4738 115.766C56.6069 116.172 55.8515 116.826 54.8596 117.497C62.271 117.114 69.3849 116.749 76.503 116.383Z" fill="#4E2D12"/>
<path d="M48.7757 20.1561C49.0142 20.8009 49.2977 21.3524 49.4229 21.9388C49.9879 24.5556 50.5371 27.1803 51.0271 29.8137C51.1731 30.5929 51.1006 31.4117 51.1623 32.2052C51.2231 32.955 51.2774 33.7151 51.4308 34.4488C51.5675 35.1073 51.5141 35.6762 50.8791 35.9657C50.1886 36.2805 49.4672 36.0802 49.2097 35.3694C48.9088 34.541 48.6398 33.6003 48.7267 32.7476C48.9264 30.7252 48.2496 28.8876 47.8551 26.9832C47.4597 25.0747 47.1217 23.149 46.8447 21.2231C46.7999 20.9215 47.1537 20.4267 47.4554 20.2503C47.7614 20.0731 48.2264 20.1809 48.7757 20.1561Z" fill="#4E2D12"/>
<path d="M31.7859 47.0223C31.7268 46.5967 31.4808 46.0369 31.6207 45.6025C31.8468 44.9252 32.5179 44.7594 33.1892 44.9708C34.7105 45.4506 36.2161 45.9778 37.7342 46.4627C38.5944 46.7377 39.4568 47.0034 40.3346 47.1999C41.2082 47.3973 41.5078 48.0022 41.3451 48.7488C41.1773 49.5316 40.454 49.7572 39.7696 49.5662C38.1645 49.1225 36.59 48.5798 35.0053 48.0701C34.0179 47.7531 33.0287 47.4277 31.7859 47.0223Z" fill="#4E2D12"/>
<path d="M72.0585 44.8721C70.9713 45.4281 70.0248 46.0276 68.9932 46.4003C67.8977 46.8002 66.7287 47.0453 65.5746 47.2388C64.8999 47.3484 64.4623 46.8704 64.382 46.1907C64.2999 45.5026 64.6656 45.1016 65.3154 44.8791C66.9449 44.3261 68.5735 43.7689 70.1869 43.1625C70.925 42.8853 71.5808 42.8282 71.9581 43.6266C72.1172 43.9511 72.0309 44.3913 72.0585 44.8721Z" fill="#4E2D12"/>
<path d="M40.2003 39.6714C39.2224 38.8829 38.2347 38.1098 37.2748 37.3041C36.6905 36.8147 36.4927 36.1565 36.9973 35.5538C37.5052 34.9459 38.1378 34.9027 38.8312 35.4513C40.0294 36.4061 41.2799 37.3011 42.5285 38.1877C43.197 38.6629 43.6202 39.2142 43.228 40.029C42.8927 40.726 42.1513 40.7713 41.2302 40.2203C40.9022 40.0208 40.5797 39.8069 40.2582 39.5972C40.2388 39.6278 40.2175 39.6501 40.2003 39.6714Z" fill="#4E2D12"/>
<path d="M63.0441 35.1513C62.5579 35.9167 62.0912 36.691 61.5837 37.4391C61.1657 38.0579 60.5465 38.1815 59.9422 37.8193C59.3584 37.4701 59.2054 36.8372 59.5458 36.2619C60.3607 34.8887 61.1965 33.5109 62.1516 32.2384C62.3641 31.9546 63.1864 31.9001 63.6023 32.0627C64.2089 32.2971 64.3702 32.9283 64.0428 33.5621C63.7548 34.117 63.4381 34.6607 63.1357 35.21C63.1051 35.1905 63.0746 35.1709 63.0441 35.1513Z" fill="#4E2D12"/>
</g>
<defs>
<clipPath id="clip0_2_1413">
<rect width="93" height="125" fill="white" transform="translate(0 20.0613) rotate(-12.4574)"/>
</clipPath>
</defs>
</svg>
