<svg width="118" height="143" viewBox="0 0 118 143" fill="none" xmlns="http://www.w3.org/2000/svg">
<g clip-path="url(#clip0_2_1495)">
<path d="M98.789 29.3384C98.789 29.3384 99.4402 27.0828 101.238 28.8706C101.657 29.2877 102.708 30.0682 103.702 30.8492C103.717 29.8482 103.729 28.8462 103.741 27.8442C103.601 27.7828 103.452 27.7102 103.284 27.6162C101.864 26.491 100.134 24.6525 99.0903 23.1497C99.1257 21.0519 100.615 22.0214 100.615 22.0214C101.422 23.1559 102.591 24.3704 103.773 25.4255C103.773 25.2852 103.778 25.1459 103.777 25.0098C103.795 23.6232 103.704 22.2387 103.668 21.0553C105.641 18.0741 105.699 22.9559 105.699 22.9559C105.694 23.4111 105.681 23.8645 105.669 24.3178C105.746 24.2252 105.817 24.1401 105.9 24.04C106.699 23.0935 107.585 22.2277 108.414 21.3406C108.414 21.3406 109.779 21.9448 109.566 22.7706C109.353 23.5965 109.121 23.44 108.893 23.7011C108.067 24.6328 108.047 24.3299 107.246 25.2848C106.654 25.9875 106.192 26.8111 105.579 27.4915C105.541 28.6542 105.505 29.822 105.497 30.987C105.494 31.118 105.496 31.2499 105.497 31.3819C105.596 31.2897 105.697 31.1891 105.804 31.0811C105.804 31.0811 108.286 27.7737 108.882 27.6071C109.478 27.4404 109.912 29.0541 109.912 29.0541C108.133 30.9201 107.268 32.0846 105.504 33.8618C105.535 36.5312 105.6 39.2038 105.457 41.8657C105.259 45.5329 104.819 50.9234 104.332 54.5708C103.725 59.1391 103.261 70.6304 103.522 75.2456C103.63 77.1294 104.489 79.1309 104.293 80.987C104.097 82.8431 102.424 81.3812 102.424 81.3812C102.189 79.8158 101.789 78.144 101.721 76.4576C101.615 73.8724 101.441 67.2234 101.685 64.6542C102.045 60.8515 102.68 54.2013 103.099 50.4031C103.388 47.7735 103.447 43.3912 103.516 40.7439C103.578 38.3888 103.619 36.029 103.659 33.6734C103.103 33.362 102.542 33.032 102.069 32.6029C100.929 31.5746 99.677 30.6181 98.789 29.3384Z" fill="#4E2D12"/>
<path d="M80.3443 70.9501C80.0194 72.0846 79.639 73.2727 79.3335 74.4773C78.5873 77.4401 78.1715 80.5285 77.0906 83.3647C73.7458 92.1579 69.7541 100.677 65.6239 109.129C64.7768 110.868 63.7135 112.497 62.759 114.168C60.7384 113.31 58.8441 112.532 56.9812 111.69C56.7192 111.571 56.409 111.116 56.4427 110.865C57.0677 106.533 57.701 102.203 58.4227 97.8881C58.7483 95.9598 59.4935 94.089 59.671 92.1586C60.0992 87.5903 60.322 83.0029 60.5873 78.4205C60.6742 76.9395 60.6325 75.4476 60.6519 74.035C63.9886 73.7808 67.2686 73.7245 70.4757 73.2267C73.7022 72.72 76.8559 71.7718 80.3443 70.9501ZM88.431 117.374C87.5754 117.51 86.9138 117.618 86.2539 117.718C79.9442 118.636 73.596 117.672 67.2722 118.1C66.9839 118.12 66.6178 117.898 66.3855 117.685C65.942 117.28 65.6133 116.751 65.1559 116.369C64.6741 115.96 64.6637 115.611 64.9815 115.102C65.8629 113.683 66.8333 112.296 67.5458 110.791C70.5722 104.388 73.6027 97.9867 76.4582 91.5069C78.5495 86.7664 80.5889 81.9837 81.3973 76.8019C81.4989 76.1444 81.6254 75.4925 81.7436 74.8387C85.3466 88.8031 87.5706 102.959 88.431 117.374ZM43.2505 68.094C45.0453 68.9862 46.5722 69.6876 48.0459 70.4913C50.9303 72.0672 54.062 72.9389 57.2242 73.6726C57.997 73.8521 58.1975 74.1113 58.1783 74.8308C58.0866 78.3506 58.1878 81.8866 57.9115 85.3918C57.654 88.6732 57.0679 91.9389 56.5199 95.1911C55.9108 98.7983 55.1541 102.382 54.5233 105.988C54.2537 107.526 54.1441 109.089 53.9863 110.397C51.55 110.569 49.2077 110.732 46.7237 110.902C46.5848 96.7205 44.551 82.5938 43.2505 68.094ZM24.2782 114.664C24.2268 114.521 24.1795 114.379 24.1281 114.236C25.6061 111.541 27.1312 108.868 28.5546 106.143C30.4348 102.536 32.6908 99.1256 33.8319 95.1271C34.7543 91.9006 36.1128 88.7967 37.1426 85.5982C37.7222 83.805 37.9784 81.9139 38.4691 80.0878C39.1101 77.7203 39.8177 75.3675 41.1963 73.0225C42.6383 85.992 44.0275 98.7261 44.3092 111.273C42.4365 112.473 40.6335 113.536 38.932 114.752C37.6306 115.68 36.3564 116.109 34.7145 115.869C31.2497 115.358 27.7573 115.051 24.2782 114.664ZM32.4936 124.301C34.0302 122.644 35.5914 121.015 37.0845 119.318C37.5166 118.826 37.9103 118.685 38.5397 118.723C42.3944 118.952 46.2547 119.076 50.1104 119.34C54.8786 119.665 59.6354 120.142 64.4091 120.442C65.7312 120.528 66.2424 121.338 66.7333 122.28C67.0727 122.938 67.3811 123.638 67.5554 124.352C68.461 128.083 69.7715 133.422 70.2402 135.749C70.7089 138.077 72.6623 138.587 72.7187 137.126C71.8532 131.395 71.0071 125.852 68.7336 120.581C69.026 120.562 69.2643 120.532 69.5045 120.532C73.2851 120.543 77.0662 120.65 80.8427 120.541C83.4895 120.463 86.1285 120.125 88.7632 119.825C89.8964 119.698 90.7448 118.745 90.7129 117.624C90.6349 114.497 90.5847 111.363 90.3106 108.253C90.0346 105.113 89.4717 102.006 89.1017 98.8752C88.1896 91.1595 86.3826 83.619 84.7404 76.0446C84.2792 73.9205 83.5834 71.8499 82.9977 69.7553C84.8216 69.0528 86.6223 68.4154 88.3768 67.6712C90.7906 66.6516 93.2409 65.6839 95.5412 64.4462C97.7916 63.237 99.8924 61.7359 102.032 60.3178C102.677 59.8901 103.308 59.3847 103.773 58.7813C103.989 58.4956 103.973 57.7199 103.742 57.4803C103.45 57.179 102.831 57.1167 102.346 57.1149C102.08 57.1132 101.815 57.4407 101.546 57.6136C99.0983 59.2005 96.7737 61.0425 94.1763 62.3199C90.4417 64.1575 86.557 65.7251 82.6441 67.1637C77.7142 68.9741 72.8182 71.007 67.4333 71.1202C65.2172 71.1658 63.004 71.3568 60.7125 71.4866C60.8714 68.0782 61.0268 70.6173 61.1867 67.2837C61.6286 67.3594 61.866 67.4119 62.1039 67.4425C63.575 67.6447 65.0671 68.0883 66.5219 67.9886C69.4492 67.7887 72.3532 67.2985 75.2683 66.916C75.5788 66.8749 75.9157 66.8134 76.1882 66.6674C79.4332 64.9103 82.7366 63.2449 85.8863 61.3263C88.219 59.9028 90.3173 58.1555 91.3908 55.4317C92.5536 52.482 92.8856 49.4365 92.7313 46.3186C92.6857 45.418 92.3864 44.5185 92.1168 43.643C91.3083 41.0342 89.5681 39.0048 87.9477 36.8878C86.8774 35.4845 85.9643 33.9625 84.9892 32.4837C83.6798 30.5012 82.3899 28.5099 81.0745 26.5348C79.6837 24.4466 78.111 22.4893 77.5242 19.9251C76.9393 17.3921 76.2327 14.9155 77.1989 12.3215C77.455 11.6368 77.0629 11.0193 76.4229 10.9306C75.974 10.8665 75.1897 11.1539 75.0242 11.5077C74.6275 12.3544 74.3118 13.3287 74.3033 14.2568C74.2659 18.2622 75.0391 22.0783 77.3305 25.4489C78.1676 26.6823 79.1296 27.8247 79.9931 29.0376C80.5111 29.7574 80.9621 30.5237 81.4275 31.2845C82.6665 33.3085 83.8607 35.3577 85.1414 37.3514C85.6974 38.2155 86.4395 38.9497 87.0719 39.765C89.1436 42.4291 90.7305 45.2712 90.2954 48.8423C90.1727 49.8329 90.1217 50.8349 89.924 51.8089C89.4367 54.2323 88.4911 56.3571 86.4172 57.9344C83.6239 60.0589 80.5213 61.6063 77.4785 63.2984C75.3873 64.4595 73.2273 64.7456 70.9738 64.9803C70.0932 65.0709 69.2108 65.1699 68.3483 65.3566C66.0852 65.8524 63.9254 65.327 61.7147 64.7948C61.878 63.4227 61.983 62.0773 62.2181 60.7562C62.3233 60.161 62.5456 59.3723 62.9833 59.0917C63.7254 58.6196 64.6646 58.3226 65.547 58.2237C68.6237 57.8813 70.6878 56.0913 72.4204 53.7061C73.8635 51.722 74.3426 49.6126 73.1641 47.4134C72.2338 45.6725 71.2072 43.9324 69.9328 42.4445C68.2768 40.5083 65.9615 39.9354 63.461 40.3788C62.1464 40.6147 60.842 40.9626 59.5636 41.3514C58.9362 41.5418 58.2931 41.8427 57.794 42.2632C56.0777 43.7045 55.1117 45.6055 54.597 47.7772C53.9446 50.5326 56.0003 56.2155 59.0536 57.7586C59.5132 57.9917 59.9354 58.2955 60.2038 58.4645C59.8542 60.4621 59.5421 62.2706 59.2138 64.1326C58.5006 63.94 57.8171 63.7714 57.146 63.5661C56.8433 63.473 56.5499 63.3379 56.2814 63.169C51.3262 60.0915 46.9546 56.3491 43.5452 51.5734C42.0044 49.4126 40.3669 47.2743 39.7787 44.5782C39.4742 43.1686 39.4973 41.8577 40.065 40.4347C41.4146 37.0744 44.2251 35.2476 47.0398 33.5006C51.4451 30.7627 56.0115 28.2842 60.4653 25.6229C65.7853 22.4422 68.0939 17.2321 69.6448 11.5563C69.8541 10.7867 69.6054 10.1922 68.7868 10.0025C67.9847 9.8166 67.5124 10.2343 67.2809 10.9859C66.9767 11.9671 66.786 13.0084 66.3319 13.917C65.2272 16.1295 64.2494 18.4796 62.7563 20.4132C60.2194 23.6911 56.3445 25.3135 52.9311 27.4765C49.818 29.447 46.5364 31.1522 43.3858 33.075C41.4668 34.2478 39.863 35.7534 38.6772 37.7593C36.9148 40.7345 36.4314 43.7729 37.9795 46.8697C39.1645 49.237 40.5961 51.4966 42.08 53.6974C44.6515 57.5204 48.2268 60.3587 51.778 63.1874C53.8656 64.8505 56.1955 66.1285 58.769 66.6005C58.5806 70.1822 58.3965 67.8517 58.2035 71.5333C55.7974 70.7781 53.5649 70.2059 51.4392 69.3678C49.4098 68.5686 47.4811 67.5108 45.5285 66.5224C43.5758 65.5339 41.5463 64.6557 39.7389 63.4449C36.7099 61.4159 33.7207 59.2465 31.5017 56.2998C29.2591 53.3216 27.2121 50.1892 25.1157 47.1029C23.5373 44.7758 22.0201 42.4097 20.4723 40.0631C20.0375 39.4011 19.4529 38.9825 18.6868 39.4449C17.8799 39.9334 17.9533 40.669 18.3909 41.3974C18.5575 41.6711 18.7293 41.9415 18.9053 42.2129C21.4263 46.0466 23.859 49.9441 26.498 53.6986C28.33 56.301 30.0321 59.037 32.6293 61.0233C35.2117 62.9974 37.739 65.0428 40.4732 67.1997C39.8487 68.9787 39.1484 71.0217 38.4166 73.0489C37.6714 75.1171 36.749 77.1373 36.1644 79.2497C35.0474 83.2974 34.4603 87.4973 32.5408 91.3019C32.3679 91.6497 32.2694 92.0359 32.1446 92.4031C31.5409 94.1472 31.1335 95.9917 30.2979 97.6188C27.5169 103.049 24.5744 108.4 21.7073 113.785C20.8713 115.355 21.1752 116.273 22.8786 116.61C25.8964 117.206 28.953 117.627 31.9985 118.098C32.8186 118.222 33.6566 118.245 34.3082 118.301C32.8508 120.252 31.4142 122.207 29.9332 124.125C29.768 124.339 27.7905 126.152 28.7199 126.928C29.6494 127.704 32.5371 124.42 32.4936 124.301ZM69.7893 46.3169C69.9222 46.5261 70.2375 46.8589 70.3639 47.2554C70.7169 48.3466 71.4911 49.6275 71.1944 50.5357C70.5006 52.6679 69.1375 54.5074 66.8593 55.3289C66.001 55.635 65.0218 55.6775 64.2455 56.1069C63.1009 56.7401 62.1097 56.6001 61.028 56.0585C58.4491 54.7606 57.4441 52.3892 56.9818 49.7954C56.4666 46.9269 58.4504 44.176 61.2451 43.4687C62.0317 43.2696 62.8002 42.9744 63.5975 42.8654C64.3142 42.7649 65.069 42.7694 65.79 42.8672C67.7687 43.1245 68.767 44.6171 69.7893 46.3169ZM41.2713 116.383C43.5325 114.492 46.156 113.571 49.1803 113.169C51.3218 112.888 53.3954 112.854 55.4197 113.736C57.0336 114.439 58.7103 115.015 60.3006 115.766C61.1674 116.172 61.9229 116.826 62.9148 117.497C55.5033 117.114 48.3894 116.749 41.2713 116.383Z" fill="#4E2D12"/>
<path d="M68.9987 20.1561C68.7601 20.8009 68.4767 21.3524 68.3515 21.9388C67.7865 24.5556 67.2373 27.1803 66.7472 29.8137C66.6013 30.5929 66.6738 31.4117 66.6121 32.2052C66.5513 32.955 66.4969 33.7151 66.3436 34.4488C66.2068 35.1073 66.2603 35.6762 66.8952 35.9657C67.5858 36.2805 68.3071 36.0802 68.5646 35.3694C68.8656 34.541 69.1345 33.6003 69.0477 32.7476C68.848 30.7252 69.5248 28.8876 69.9193 26.9832C70.3147 25.0747 70.6527 23.149 70.9296 21.2231C70.9744 20.9215 70.6207 20.4267 70.3189 20.2503C70.013 20.0731 69.548 20.1809 68.9987 20.1561Z" fill="#4E2D12"/>
<path d="M85.9884 47.0223C86.0475 46.5967 86.2935 46.0369 86.1535 45.6024C85.9275 44.9252 85.2564 44.7594 84.5851 44.9708C83.0637 45.4506 81.5582 45.9778 80.0401 46.4627C79.1799 46.7377 78.3175 47.0033 77.4397 47.1998C76.5661 47.3973 76.2665 48.0022 76.4292 48.7488C76.597 49.5316 77.3203 49.7572 78.0047 49.5662C79.6098 49.1224 81.1843 48.5798 82.769 48.0701C83.7564 47.7531 84.7456 47.4277 85.9884 47.0223Z" fill="#4E2D12"/>
<path d="M45.7159 44.8721C46.8031 45.4281 47.7496 46.0276 48.7812 46.4003C49.8767 46.8002 51.0457 47.0453 52.1998 47.2388C52.8746 47.3484 53.3121 46.8704 53.3924 46.1907C53.4745 45.5026 53.1088 45.1016 52.459 44.8791C50.8295 44.3261 49.2009 43.7689 47.5875 43.1625C46.8494 42.8853 46.1936 42.8282 45.8163 43.6265C45.6573 43.9511 45.7435 44.3913 45.7159 44.8721Z" fill="#4E2D12"/>
<path d="M77.574 39.6714C78.552 38.8829 79.5396 38.1098 80.4995 37.3041C81.0838 36.8147 81.2816 36.1565 80.777 35.5538C80.2692 34.9459 79.6366 34.9026 78.9431 35.4513C77.745 36.4061 76.4945 37.301 75.2459 38.1877C74.5774 38.6629 74.1542 39.2142 74.5464 40.029C74.8817 40.726 75.623 40.7713 76.5441 40.2203C76.8721 40.0208 77.1946 39.8069 77.5161 39.5972C77.5356 39.6278 77.5569 39.6501 77.574 39.6714Z" fill="#4E2D12"/>
<path d="M54.7303 35.1513C55.2164 35.9167 55.6832 36.691 56.1906 37.4391C56.6087 38.0579 57.2279 38.1815 57.8321 37.8193C58.416 37.4701 58.5689 36.8372 58.2286 36.2619C57.4136 34.8887 56.5779 33.5109 55.6228 32.2384C55.4103 31.9546 54.588 31.9001 54.172 32.0626C53.5654 32.2971 53.4042 32.9283 53.7316 33.5621C54.0196 34.117 54.3363 34.6607 54.6387 35.21C54.6692 35.1905 54.6997 35.1709 54.7303 35.1513Z" fill="#4E2D12"/>
</g>
<defs>
<clipPath id="clip0_2_1495">
<rect width="93" height="125" fill="white" transform="matrix(-0.976457 -0.215713 -0.215713 0.976457 117.774 20.0613)"/>
</clipPath>
</defs>
</svg>
