<svg width="144" height="113" viewBox="0 0 144 113" fill="none" xmlns="http://www.w3.org/2000/svg">
<g clip-path="url(#clip0_2_1493)">
<path d="M15.0494 57.0597C16.3551 51.6256 17.3406 46.5174 18.8048 41.5792C20.6194 35.4864 23.6716 33.9525 29.7948 35.5644C31.0498 35.887 32.2812 36.2809 33.8323 36.7377C34.3991 35.3506 34.9569 34.0091 35.4891 32.6531C35.9923 31.3483 36.2339 29.8782 36.973 28.7241C42.2284 20.472 45.9028 20.0184 54.2734 25.7808C56.9387 27.6137 58.6053 28.2544 60.4921 25.3153C60.6574 25.0538 60.8794 24.8413 61.1013 24.6289C66.3411 19.4467 69.7639 19.6455 74.6156 25.4083C75.9 26.9318 77.21 28.4699 78.8313 30.3537C79.401 29.2896 80.0005 28.4116 80.3149 27.4395C82.4206 21.072 87.0153 16.7589 92.4818 13.4139C93.7205 12.6615 96.3956 13.0453 97.7254 13.9518C100.857 16.0661 103.565 18.8371 106.497 21.2442C107.116 21.7642 108.059 22.1298 108.862 22.1454C113.949 22.2732 119.078 21.8496 124.081 22.4539C128.73 23.0266 129.203 24.1914 129.871 28.7996C130.513 33.156 131.427 37.4806 132.2 41.8439C134.714 56.0247 130.26 67.7256 119.67 77.3001C112.947 83.3668 104.655 86.564 96.7158 90.5704C86.8267 95.5687 76.2436 97.585 65.619 99.764C55.8936 101.759 46.207 101.628 36.7518 98.5834C26.396 95.2476 19.3668 87.7762 13.769 78.7652C11.0885 74.4537 8.93504 70.0182 9.82291 64.6347C10.4533 60.8983 12.1949 58.2152 15.0494 57.0597ZM123.196 33.083C121.483 34.7001 120.402 35.7111 119.322 36.7221C112.263 43.2919 104.543 49.0296 95.927 53.2445C89.3668 56.4597 82.3123 58.6673 75.4378 61.2137C63.8856 65.5056 52.0639 68.9003 39.7538 69.6666C32.2374 70.1235 24.6548 69.3248 16.793 69.0783C17.616 70.7293 18.4752 72.8236 19.6275 74.729C26.0504 85.4768 34.9818 92.4876 47.9006 93.6905C57.4948 94.5812 66.6535 92.3322 75.9196 90.55C84.2409 88.9425 91.3555 84.4515 99.1416 81.61C105.652 79.229 111.071 75.4005 115.99 70.933C122.119 65.3756 126.035 58.2922 125.639 49.7444C125.377 44.4194 124.111 39.1341 123.196 33.083ZM64.1777 31.7024C59.5338 35.4463 58.5415 40.6859 57.8442 45.1964C59.7407 46.3565 61.8542 46.8954 62.6086 48.2199C63.9763 50.6703 61.7597 52.1029 60.0002 53.2366C60.4656 54.9215 60.8867 56.446 61.341 58.0908C62.9257 57.6532 64.3298 57.2653 65.8743 56.8387C65.3017 48.5123 64.7512 40.2661 64.1777 31.7024ZM84.5777 34.5093C87.7327 34.2855 90.0425 34.5974 90.4357 37.6625C90.8421 40.8534 88.3229 41.2685 85.7622 41.8463C86.8816 44.2574 87.8887 46.4188 89.1569 49.1342C90.9079 47.6574 93.3391 46.5325 93.2737 45.5143C92.9034 38.2331 92.0295 31.0045 91.3216 23.7518C91.0255 23.6177 90.7349 23.5036 90.4388 23.3695C88.5521 26.9347 86.6855 30.4944 84.5777 34.5093ZM72.2849 33.3061C71.9439 33.4003 71.5884 33.5201 71.2474 33.6142C71.7698 40.5081 72.3122 47.3963 72.8797 54.6879C76.1354 53.4216 78.8861 52.3596 81.6369 51.2976C79.2164 51.2105 76.5625 52.3106 75.3205 49.2209C74.0252 46.0164 76.648 44.8818 79.5231 43.3321C76.9784 39.825 74.6316 36.5656 72.2849 33.3061ZM43.7401 51.6611C43.5443 51.4993 43.3284 51.343 43.1326 51.1812C38.8345 54.6137 34.1627 57.6312 31.383 63.2782C34.3574 63.1043 37.0323 62.862 39.7115 62.7913C41.3212 62.7569 41.9705 62.0594 42.2045 60.4835C42.5764 57.531 43.1911 54.5978 43.7401 51.6611ZM105.705 38.7775C104.042 33.5374 103.578 27.7932 98.3012 23.2273C99.0131 30.0256 99.6126 35.9481 100.272 42.2429C102.126 41.0614 103.687 40.069 105.705 38.7775ZM24.1964 48.3587C23.9357 48.4308 23.6894 48.4772 23.4286 48.5492C23.1907 52.8464 22.9527 57.1437 22.7348 61.4354C22.9942 61.5148 23.2537 61.5943 23.493 61.6793C25.2244 59.1933 26.9813 56.7218 28.5073 54.5084C26.8955 52.1902 25.546 50.2744 24.1964 48.3587ZM51.7695 52.3579C51.4285 52.4521 51.082 52.5262 50.741 52.6204C50.25 55.4547 49.7591 58.2889 49.2378 61.3259C51.1835 60.7885 52.6679 60.3785 54.5133 59.8688C53.5447 57.2217 52.6571 54.7898 51.7695 52.3579ZM50.9414 41.2307C53.9757 33.6135 53.7977 32.7344 49.2865 31.7999C49.8124 34.7203 50.3107 37.5404 50.9414 41.2307ZM42.2662 34.9911C41.5149 36.8826 41.1827 38.5719 40.2485 39.8015C38.6692 41.9001 39.8054 42.7305 41.387 43.6106C44.3408 41.5641 44.4201 40.6787 42.2662 34.9911ZM110.68 28.9621C111.184 30.7874 111.583 32.2317 112.076 34.0169C113.948 32.1182 115.549 30.4886 117.554 28.4452C114.868 28.6474 112.877 28.787 110.68 28.9621ZM35.7535 48.3834C33.5399 46.2314 31.9671 44.6796 30.3742 43.1333C31.3523 45.3459 31.3734 48.4706 35.7535 48.3834Z" fill="#5A3000"/>
</g>
<defs>
<clipPath id="clip0_2_1493">
<rect width="126.858" height="81.409" fill="white" transform="translate(0 34.2299) rotate(-15.4405)"/>
</clipPath>
</defs>
</svg>
