<svg width="87" height="93" viewBox="0 0 87 93" fill="none" xmlns="http://www.w3.org/2000/svg">
<g clip-path="url(#clip0_64_29)">
<path d="M48.921 18.3733C49.8697 16.6925 50.7439 14.9812 51.7698 13.3671C53.1316 11.219 54.9149 10.9281 57.0804 12.2997C61.1027 14.8572 62.9711 18.9319 64.7097 23.0941C64.8014 23.3181 64.8708 23.541 64.9462 23.7329C66.31 23.1477 67.6193 22.5777 68.9449 22.0398C70.5082 21.4064 72.3915 21.9758 72.9208 23.5607C73.6291 25.6829 74.2511 27.9173 74.3856 30.1405C74.5281 32.4717 74.042 34.8383 73.8658 37.1848C73.838 37.5595 73.8776 38.0183 74.0678 38.3323C74.7422 39.4364 75.4809 40.5079 76.2294 41.562C77.1204 42.8113 76.9447 44.0787 76.3996 45.3901C73.7204 51.7437 69.5686 57.1054 65.2377 62.3774C63.2731 64.7593 61.6698 67.437 59.7139 69.8238C56.9656 73.1873 54.0067 76.3745 51.2111 79.6997C50.1584 80.9543 49.3125 82.3715 48.3844 83.7309C47.7801 84.6185 47.0441 85.0069 45.9266 84.7895C44.942 84.6012 43.9185 84.5631 42.914 84.5932C39.1513 84.7085 35.792 83.2142 32.3046 82.1299C27.8954 80.7664 24.4297 77.9144 20.6266 75.5381C15.9723 72.6353 12.1692 68.835 8.55712 64.798C8.04429 64.2215 7.61166 63.5639 7.22862 62.8998C6.30717 61.2773 6.11216 59.8122 7.11185 57.9191C11.3314 49.8742 15.306 41.714 19.3775 33.5856C21.4799 29.3523 23.5873 25.1103 25.7469 20.8979C26.9489 18.5448 28.6301 16.9904 31.5781 17.4028C33.2365 17.6384 34.9318 17.5849 36.6101 17.6021C36.9859 17.6075 37.4116 17.423 37.7404 17.2067C39.0692 16.3376 40.3443 15.3808 41.6981 14.5488C43.6713 13.3315 44.8243 13.4656 46.4086 15.1752C47.3516 16.1898 48.1305 17.3529 48.921 18.3733ZM28.5501 22.7672C28.437 22.9675 28.1553 23.4056 27.9258 23.8732C25.5254 28.7766 23.1736 33.6958 20.7471 38.5845C17.5634 44.9978 14.2974 51.3533 11.1224 57.7715C9.60294 60.8296 9.77896 61.5146 12.2228 63.939C12.3637 64.0759 12.5193 64.1868 12.6466 64.3275C15.7682 67.789 19.3324 70.731 23.254 73.2432C25.4145 74.6235 27.3346 76.5112 29.6516 77.4516C34.5752 79.4499 39.5126 81.7087 45.0658 81.249C45.5468 81.2105 46.1307 80.9085 46.4314 80.5386C47.3384 79.4199 48.061 78.1398 48.9768 77.0261C52.4683 72.7731 56.0758 68.62 59.5113 64.3239C62.5882 60.4799 65.5705 56.5596 68.4445 52.5666C69.884 50.5657 71.6441 48.6885 72.1698 46.0685C70.3139 45.7558 68.3827 45.7796 66.7468 45.0974C61.7248 43.009 56.6728 40.8922 51.8851 38.3275C46.9096 35.6683 42.1342 32.5938 37.4143 29.4818C34.3761 27.4797 31.59 25.0918 28.5501 22.7672ZM69.4399 37.8444C69.5471 37.9394 69.663 38.0392 69.7701 38.1342C71.4783 35.3319 70.5699 32.201 70.8991 29.2174C70.0991 30.1668 69.4145 31.1354 68.7686 32.1373C68.3848 32.7359 68.0358 33.3542 67.7526 33.9982C67.288 35.0451 66.959 36.1569 66.4547 37.1928C65.8656 38.3991 65.1547 39.5365 64.4272 40.8253C65.533 41.1854 66.5991 41.5346 67.6651 41.8837C67.765 41.7678 67.8698 41.6432 67.9609 41.5224C67.133 40.7106 66.0863 39.7983 67.0581 38.7277C67.565 38.1755 68.6289 38.1216 69.4399 37.8444ZM55.9893 27.232C55.2198 23.8349 54.4806 20.5469 53.7327 17.2539C53.5813 17.2374 53.4299 17.2208 53.2785 17.2042C52.7934 19.5486 50.9239 21.3756 50.6608 23.9371C53.1805 24.0503 53.6862 24.6803 53.2836 26.8989C54.1425 27.0048 54.9927 27.1057 55.9893 27.232ZM39.256 26.6056C39.9781 27.1165 40.6442 27.5844 41.5742 28.2356C41.7797 24.8608 41.9592 21.7353 42.1504 18.4672C39.6045 19.7632 38.1596 21.4279 37.8283 23.2964C39.6205 23.9865 39.8426 24.4678 39.256 26.6056ZM49.5445 33.1365C50.4676 33.6576 51.3226 34.1976 52.2278 34.6282C52.6083 34.8085 53.1894 34.9184 53.5508 34.7664C56.0903 33.685 58.5984 32.5171 61.3888 31.2558C58.9798 30.9869 56.7892 30.738 54.456 30.4774C54.8466 31.8807 54.6103 32.93 53.339 33.1885C52.7963 33.2955 51.9838 32.8024 51.5138 32.3534C51.0177 31.8897 50.7818 31.1479 50.4249 30.4986C50.1453 31.3398 49.8608 32.1897 49.5445 33.1365ZM57.1142 17.0613C57.9085 20.2312 58.667 23.4037 59.5295 26.5547C59.6547 27.0043 60.2888 27.3048 60.6778 27.6737C61.037 27.1186 61.757 26.5144 61.7022 26.0012C61.3365 22.4991 59.4128 19.7023 57.1142 17.0613ZM46.7494 31.375C47.188 27.282 48.3171 23.3491 45.5406 19.7034C45.3266 22.8898 45.2239 26.0011 44.8767 29.0778C44.7292 30.4988 45.3876 30.9394 46.7494 31.375ZM56.8101 36.8243C58.456 37.7534 59.7623 38.4907 61.2079 39.3067C62.1664 37.6086 63.0512 36.0411 64.1376 34.1165C61.5688 35.0665 59.3145 35.9069 56.8101 36.8243ZM68.5952 26.0567C68.5104 25.9629 68.4168 25.8642 68.332 25.7703C67.0244 26.6628 65.7205 27.569 64.2646 28.5615C66.8565 29.6456 66.3582 29.9384 67.6181 27.7674C67.96 27.2024 68.2757 26.6228 68.5952 26.0567ZM34.0434 22.9628C34.426 22.1223 34.6971 21.5404 35.0747 20.7086C33.94 20.7456 33.088 20.7699 31.8949 20.8084C32.7353 21.6388 33.2977 22.2089 34.0434 22.9628Z" fill="#5A3000"/>
<path d="M35.8038 60.714C30.7121 57.8743 27.3141 53.763 25.8158 48.1173C25.4388 46.7103 25.9951 45.1755 27.2283 44.5166C32.5617 41.6592 38.0853 41.2518 43.6364 43.6847C46.3615 44.8785 48.4611 46.9364 49.2596 49.9363C49.9795 52.6279 50.6711 55.3493 51.1012 58.1069C51.4119 60.1196 50.8904 60.962 48.831 61.5794C45.7758 62.496 42.8236 63.4133 39.6609 62.2826C38.3635 61.8144 37.0941 61.2356 35.8038 60.714ZM47.333 55.3024C46.2316 52.7171 46.4404 49.723 43.8632 47.9008C42.899 48.9986 42.591 51.0295 40.6809 50.1006C38.5046 49.0329 40.4058 47.5568 40.6404 46.185C37.6793 45.4092 34.7964 45.1254 31.5969 46.4199C36.9178 49.4233 42.0122 52.2989 47.333 55.3024ZM46.0609 58.6953C40.4875 55.5493 35.2276 52.5802 29.75 49.4883C31.1922 52.243 32.7314 54.5817 35.239 55.9168C36.1257 55.6479 37.194 55.2404 37.8074 55.5981C38.3946 55.9411 38.5073 57.0841 38.8302 57.875C38.7081 57.9898 38.5859 58.1045 38.4637 58.2193C40.7599 59.2168 43.0753 60.099 46.0609 58.6953Z" fill="#5A3000"/>
</g>
<defs>
<clipPath id="clip0_64_29">
<rect width="56.44" height="73.5" fill="white" transform="translate(36.995 0.950684) rotate(29.4433)"/>
</clipPath>
</defs>
</svg>
