<svg width="84" height="78" viewBox="0 0 84 78" fill="none" xmlns="http://www.w3.org/2000/svg">
<path d="M5.3271 48.3601C4.33404 48.3176 3.32551 48.3756 2.3479 48.2172C0.253581 47.8849 -0.248746 46.6793 0.102883 44.9173C0.721133 41.8492 2.07356 39.1405 4.81704 37.3167C6.94614 35.8985 9.24139 34.8475 11.6487 34.0361C13.7855 33.3173 15.2925 33.8583 16.1813 35.4464C16.7609 36.4859 16.3783 37.5369 16.2199 38.53C15.4123 43.6537 12.0892 46.5247 7.36734 48.024C6.72977 48.2288 6.01492 48.2017 5.33871 48.2829C5.33484 48.3138 5.33097 48.337 5.3271 48.3601ZM5.28074 46.7063C7.19345 46.4706 8.23289 46.146 10.1881 45.0023C13.376 43.1398 14.5931 40.1606 14.7902 36.652C14.8327 35.9179 14.3342 35.4619 13.6271 35.3923C13.1673 35.346 12.6572 35.4039 12.2206 35.5585C9.77851 36.4356 7.39824 37.4558 5.28074 38.9975C3.17869 40.5277 2.27064 42.765 1.66785 45.1568C1.42441 46.1229 1.71034 46.5054 2.76523 46.66C3.58827 46.7836 4.44224 46.6986 5.28074 46.7063Z" fill="white"/>
<path d="M64.7873 2.03393C67.2256 1.80982 69.061 1.59343 70.8384 2.36624C72.4188 3.05405 72.8053 3.66457 72.6932 5.40726C72.643 6.19553 72.67 7.00312 72.4961 7.76434C72.3145 8.57193 72.0865 9.44134 71.6151 10.0944C70.1854 12.0728 68.4466 13.7536 66.2673 14.9244C66.2209 14.9476 66.1707 14.967 66.1243 14.9901C63.9913 16.0528 58.7401 15.4422 56.866 13.9584C55.8768 13.1779 55.5213 12.1771 55.8072 11.0179C56.3289 8.90424 57.1597 6.92584 58.5623 5.21019C59.8529 3.62206 62.2911 2.20395 64.7873 2.03393ZM63.8986 14.0975C64.5941 13.8039 65.2394 13.657 65.7302 13.3015C66.7425 12.5712 67.6274 11.6593 68.6553 10.9483C70.738 9.50703 71.1089 7.40885 71.0973 5.11359C71.0935 4.50307 70.8578 4.09348 70.2936 3.90414C69.799 3.73799 69.2851 3.49841 68.7828 3.50614C67.3106 3.52933 65.819 3.53705 64.37 3.77276C61.7695 4.19781 59.7872 5.5966 58.628 8.01937C58.2223 8.87333 57.8629 9.75433 57.5731 10.6547C57.1094 12.1037 57.3799 12.7876 58.8367 13.1779C60.5021 13.6223 62.2371 13.8077 63.8986 14.0975Z" fill="white"/>
<path d="M70.3516 20.1448C73.7519 20.2414 77.1678 20.8055 80.0001 23.1549C82.2954 25.0599 83.4469 27.6411 83.9569 30.5352C84.1076 31.3853 83.868 32.1466 83.1571 32.6373C82.4731 33.1087 81.7467 33.6265 80.9623 33.8352C77.7667 34.6737 74.7373 34.4225 72.3106 31.8799C70.8925 30.3923 69.4937 28.866 68.3036 27.2006C67.5926 26.2036 67.1792 24.9401 66.8507 23.7384C66.3716 21.9763 67.2139 21.0799 68.8021 20.4809C69.2387 20.3109 69.7256 20.2762 70.3516 20.1448ZM70.452 21.8218C68.3113 22.042 67.9558 22.6062 68.7287 24.5769C68.8059 24.7739 68.8523 24.9864 68.9566 25.1681C70.367 27.6758 72.1213 29.9363 74.4784 31.5863C76.5804 33.0585 78.98 32.873 81.3023 32.0036C82.2567 31.6481 82.4113 31.1535 82.1988 30.1411C80.9816 24.3566 76.6925 21.8681 70.452 21.8218Z" fill="white"/>
<path d="M37.3408 4.90493C40.8571 4.62285 44.555 6.38873 47.3989 10.021C47.9786 10.7629 48.3843 11.64 48.9253 12.4167C49.8372 13.7266 49.8565 15.0404 49.0837 16.4005C48.3302 17.7298 47.1169 18.433 45.7065 18.8426C42.0472 19.913 36.993 17.4245 35.3083 14.3448C34.5239 12.9113 33.7936 11.4391 33.1908 9.92435C32.105 7.20791 33.3106 5.31839 37.3408 4.90493ZM36.765 6.6283C36.6066 6.6399 36.4482 6.64762 36.2898 6.66308C34.5703 6.87174 34.0679 7.60205 34.6707 9.23655C35.0687 10.3185 35.687 11.3154 36.1159 12.3896C37.1205 14.9167 39.1492 16.273 41.5604 17.1038C43.191 17.6641 44.8912 17.6757 46.4639 16.756C47.7815 15.9871 48.2297 14.7699 47.569 13.3981C47.1169 12.4592 46.5527 11.5434 45.8997 10.7319C43.5619 7.82616 40.5132 6.42737 36.765 6.6283Z" fill="white"/>
<path d="M50.8535 31.7061C50.4091 28.4332 51.0351 25.2879 52.0475 22.2005C52.7546 20.0366 55.1542 19.0435 57.1674 20.1255C57.8513 20.4926 58.4889 21.0181 59.026 21.5822C61.2787 23.9509 62.3259 26.8451 62.407 30.0677C62.4263 30.856 62.0476 31.6906 61.7115 32.4403C61.0507 33.9356 60.3668 35.431 59.5553 36.8492C58.5932 38.5339 57.1326 39.1521 55.4131 38.6807C54.8219 38.5184 54.192 38.2209 53.767 37.7958C52.3334 36.3739 50.9964 34.8592 50.9616 32.6528C50.9539 32.3359 50.8882 32.0229 50.8535 31.7061ZM52.4571 32.0191C52.2909 33.5492 53.2685 34.9751 54.4818 36.2734C55.7917 37.6722 57.2755 37.5215 58.23 35.8561C58.9332 34.6235 59.5669 33.3444 60.1311 32.0423C60.6759 30.7826 61.0121 29.4611 60.5793 28.0623C60.39 27.4595 60.332 26.8103 60.0924 26.2307C59.3621 24.4532 58.3459 22.8496 56.7346 21.7484C55.529 20.9215 54.0529 21.362 53.6163 22.6449C52.6155 25.5584 52.0475 28.5376 52.4571 32.0191Z" fill="white"/>
<path d="M38.1253 35.8443C35.8571 35.7361 33.5889 35.6627 31.3246 35.5043C29.095 35.3497 27.8778 33.835 26.9814 32.0111C26.6027 31.2383 26.8384 30.4578 27.2982 29.7545C28.4729 27.9577 29.9296 26.4314 31.8114 25.3881C32.4838 25.0133 33.2721 24.7467 34.0333 24.6501C37.1284 24.2598 40.154 24.5033 43.0134 25.8866C43.991 26.3619 45.3086 26.5628 45.5327 27.8186C45.8187 29.4338 45.7955 31.0529 44.5899 32.4555C42.8743 34.4571 40.7722 35.5893 38.1253 35.8443ZM28.3183 31.1688C29.0834 32.471 29.748 33.7848 31.3207 33.862C33.8401 33.9857 36.3749 34.0321 38.8943 33.9355C40.9229 33.8582 42.4338 32.6487 43.6046 31.0722C44.6401 29.6811 44.1301 28.1123 42.5265 27.4284C40.467 26.5512 38.361 26.1571 36.089 26.103C32.2133 26.0141 30.2272 28.406 28.3183 31.1688Z" fill="white"/>
<path d="M50.4633 45.064C50.8922 48.5958 50.1348 51.745 47.4223 54.2412C46.6456 54.956 45.8612 55.667 45.1 56.4012C42.9361 58.4916 40.2274 58.1361 38.6006 55.5627C37.735 54.1948 37.5419 52.6492 37.6655 51.1383C37.8819 48.476 39.1725 46.2155 40.9113 44.241C41.8503 43.1745 42.9284 42.2239 43.9717 41.254C46.0583 39.322 49.617 40.5894 50.2662 43.4913C50.3821 44.0053 50.4015 44.5424 50.4633 45.064ZM48.9872 45.5432C48.8288 44.8244 48.7438 44.0748 48.4926 43.3909C47.9826 41.9959 46.2128 41.455 45.1231 42.4635C43.1563 44.2873 41.0813 46.0339 39.9685 48.6074C39.1918 50.4041 39.1377 52.2087 39.6864 54.017C39.8719 54.6237 40.3781 55.2033 40.8843 55.6245C41.8735 56.4514 42.7351 56.3664 43.6934 55.4931C44.5899 54.6739 45.4632 53.8238 46.3674 53.0085C48.6008 50.9915 49.134 48.3987 48.9872 45.5432Z" fill="white"/>
<path d="M20.8529 49.3569C20.4472 46.4898 21.0075 43.7849 22.0701 41.1535C22.642 39.7354 23.7239 39.0398 25.2618 38.9857C25.9883 38.9587 26.6336 39.0785 27.1552 39.5885C29.01 41.4046 30.6599 43.3715 31.7998 45.7247C32.5456 47.2587 32.0819 48.8623 31.9042 50.3809C31.6491 52.5331 30.8802 54.5656 29.2727 56.177C28.4806 56.9691 27.6035 57.2512 26.5447 56.8995C25.6444 56.602 24.7363 56.3161 23.8708 55.9335C22.7541 55.4389 22.0044 54.5927 21.7417 53.3601C21.4635 52.027 21.1505 50.6939 20.8529 49.3569ZM22.4024 48.9241C22.7 50.2611 22.9357 51.6135 23.3221 52.9234C23.4728 53.4335 23.8592 54.0556 24.3074 54.2681C27.4102 55.7365 27.959 56.2311 29.6089 52.6645C30.2388 51.3082 30.4358 49.8785 30.4281 48.3638C30.4242 47.2935 30.5131 46.2618 29.833 45.3653C28.8129 44.0245 27.8237 42.6489 26.7109 41.3853C25.5671 40.087 24.1644 40.3459 23.4998 41.9533C22.584 44.179 22.1281 46.4898 22.4024 48.9241Z" fill="white"/>
<path d="M63.064 51.6948C62.751 51.7334 62.4341 51.7759 62.1212 51.8068C59.3815 52.0619 58.4542 50.3926 58.1837 48.449C57.8591 46.1035 58.4619 44.0285 60.251 42.2587C62.2641 40.2649 64.683 38.8622 66.9087 37.1775C69.0919 35.5237 72.6623 37.5137 72.6005 40.1103C72.5078 43.8314 71.2829 46.9922 68.3423 49.4072C66.789 50.6747 65.0965 51.5634 63.064 51.6948ZM63.0176 50.0564C63.1258 50.0448 63.3924 50.0332 63.6475 49.9791C68.2148 49.0208 71.1901 44.4149 70.9428 39.9596C70.8655 38.5956 69.1151 37.7687 67.9173 38.4797C67.0556 38.9897 66.2402 39.5848 65.452 40.1992C64.0416 41.2966 62.6467 42.421 61.2749 43.5725C60.1428 44.5231 59.6984 45.8368 59.737 47.2472C59.8027 49.8593 60.4673 50.4815 63.0176 50.0564Z" fill="white"/>
<path d="M16.9039 6.52387C16.9348 5.15986 16.8188 3.77652 17.0314 2.44342C17.3559 0.399333 18.3838 -0.24983 20.397 0.0824799C24.6938 0.789603 27.4025 3.35148 28.6738 7.4242C29.1413 8.92346 29.4659 10.5077 29.5896 12.0727C29.8523 15.3958 27.5068 16.9453 24.5238 16.3193C22.8584 15.9715 21.3939 15.0905 20.2347 13.7651C18.0283 11.2419 17.4873 10.044 16.9039 6.52387ZM18.9479 1.65515C18.7818 2.18453 18.5731 2.53616 18.5847 2.8762C18.6388 4.55706 18.5499 6.27657 18.8861 7.90721C19.5314 11.0294 21.2934 13.4405 24.3808 14.5573C26.5756 15.3494 28.2449 14.422 27.9899 11.864C27.8817 10.7705 27.53 9.70013 27.3252 8.61433C26.9234 6.49296 25.8066 4.79277 24.2031 3.4133C22.7386 2.15362 20.9843 1.6822 18.9479 1.65515Z" fill="white"/>
<path d="M29.7519 74.9023C29.323 72.0352 30.4127 69.6124 31.9003 67.4061C32.5765 66.3975 33.7164 65.6595 34.7443 64.9446C36.0426 64.0443 37.4453 63.2908 38.8054 62.4755C39.8333 61.8611 40.8881 61.6757 41.9353 62.3905C43.0443 63.1479 43.7514 64.1216 43.62 65.5745C43.2182 69.9718 41.1702 73.3722 37.4878 75.7795C36.5604 76.3861 35.606 76.9735 34.6013 77.4256C33.8942 77.7463 33.0866 77.9627 32.3176 77.9897C30.6445 78.0438 29.8176 77.1667 29.7596 75.4781C29.7519 75.2656 29.7519 75.053 29.7519 74.9023ZM31.6646 76.3243C32.3795 76.2393 33.1137 76.3166 33.6894 76.0538C36.5797 74.7362 39.1725 72.9626 40.664 70.0761C41.375 68.7005 41.6648 67.0931 42.0396 65.5668C42.2174 64.8403 41.7575 64.2453 41.1586 63.8279C40.5249 63.3874 39.9685 63.6695 39.4005 64.0173C38.1408 64.7901 36.9159 65.6518 35.5828 66.2739C32.4954 67.7152 30.4088 73.0244 31.6646 76.3243Z" fill="white"/>
<path d="M13.2717 18.0312C15.9263 17.6834 18.3336 18.5219 20.4704 19.9246C21.9929 20.9254 23.3375 22.2469 24.5895 23.5877C26.1506 25.257 25.6058 27.5484 23.4342 28.3753C19.7247 29.7857 16.1118 29.5384 13.0167 26.8722C11.6372 25.682 10.5282 24.1519 9.40761 22.6912C8.65025 21.7059 8.80869 20.6162 9.60855 19.6386C10.393 18.6803 11.4903 18.1973 13.2717 18.0312ZM23.9056 25.342C21.7765 22.3898 19.0369 20.2801 15.3544 19.6541C14.0097 19.4261 12.5955 19.4995 11.3628 20.2492C10.447 20.8056 10.3543 21.3427 11.0151 22.1812C11.8613 23.2554 12.6921 24.3682 13.6735 25.3072C16.0692 27.5986 18.9364 28.0005 22.0624 27.1542C23.0091 26.8992 23.6467 26.3814 23.9056 25.342Z" fill="white"/>
<path d="M56.3714 60.814C58.1064 60.8797 59.8413 60.9183 61.5724 61.0188C62.0361 61.0458 62.5037 61.2081 62.9403 61.3858C64.996 62.2166 65.6027 63.372 64.9419 65.4972C64.6135 66.5444 64.1923 67.6418 63.5161 68.4764C62.9249 69.2067 61.9898 69.8327 61.0894 70.1032C57.7007 71.1156 54.5051 70.2732 51.4718 68.6928C50.9308 68.4107 50.4671 67.9122 50.0885 67.4176C49.1302 66.1734 49.2152 64.8171 50.3319 63.6927C51.9896 62.0273 53.8907 60.8603 56.3714 60.814ZM59.0608 68.7662C61.4411 68.9285 62.5307 67.5181 63.2108 65.5629C63.7904 63.9013 63.3538 63.0474 61.6729 62.6648C61.4681 62.6185 61.2556 62.5876 61.0469 62.5914C59.312 62.6223 57.5809 62.7189 55.8459 62.6919C54.0414 62.661 52.7585 63.627 51.5607 64.7669C50.896 65.3967 50.8883 65.8488 51.4756 66.5521C51.7732 66.9076 52.1403 67.2824 52.5576 67.4408C54.6635 68.26 56.7385 69.2956 59.0608 68.7662Z" fill="white"/>
<path d="M37.5959 42.5755C37.2945 42.4094 36.9738 42.3398 36.8849 42.1544C36.7651 41.9071 36.6995 41.4627 36.8386 41.3004C37.5496 40.4696 38.3146 39.6852 39.1068 38.9279C39.5125 38.5376 40.0535 38.5646 40.2815 39.0979C40.4012 39.3761 40.2467 39.8823 40.0419 40.1605C39.613 40.7478 39.0836 41.2618 38.5697 41.7795C38.2799 42.0655 37.9398 42.2973 37.5959 42.5755Z" fill="white"/>
<path d="M69.1074 59.2566C68.7789 59.1175 68.4737 59.0403 68.2225 58.8818C67.4265 58.3834 66.6576 57.8424 65.8654 57.3401C65.4018 57.0503 65.1738 56.66 65.4018 56.1538C65.6607 55.5819 66.1514 55.6399 66.5919 55.9181C67.5193 56.4977 68.4505 57.0812 69.3238 57.7419C69.5479 57.912 69.6329 58.3679 69.6329 58.6925C69.629 58.8741 69.3122 59.048 69.1074 59.2566Z" fill="white"/>
<path d="M48.3186 24.8317C48.0829 24.7931 47.9167 24.7969 47.7776 24.739C46.9043 24.3873 46.0156 24.0589 45.1809 23.63C44.9298 23.5025 44.6748 23.0349 44.725 22.7838C44.7752 22.5403 45.2891 22.15 45.4708 22.2119C46.5952 22.5905 47.7003 23.0542 48.7745 23.5643C48.9175 23.6338 48.9445 24.1555 48.8634 24.4182C48.8054 24.6037 48.4809 24.7119 48.3186 24.8317Z" fill="white"/>
<path d="M64.6906 31.9417C64.8838 31.594 64.9572 31.2655 65.1427 31.1844C65.39 31.0723 65.8923 31.0298 65.9889 31.1651C66.6188 32.0461 67.2563 32.9387 67.7084 33.9163C67.948 34.4379 67.1172 35.0291 66.7424 34.6311C65.9735 33.8119 65.363 32.8421 64.6906 31.9417Z" fill="white"/>
<path d="M53.7322 43.8044C53.6433 43.7774 53.3805 43.7735 53.2646 43.6421C52.6734 42.9737 52.0822 42.2936 51.576 41.5633C51.464 41.4049 51.6185 40.8523 51.8001 40.7518C52.059 40.6089 52.6039 40.5664 52.77 40.7364C53.3612 41.3276 53.9022 41.9883 54.3504 42.6955C54.6634 43.1746 54.3504 43.7117 53.7322 43.8044Z" fill="white"/>
<path d="M55.4325 53.3139C55.2122 54.249 55.0461 55.1184 54.7756 55.9492C54.7099 56.154 54.2771 56.382 54.0414 56.3549C53.8134 56.3279 53.4618 55.9994 53.4386 55.7792C53.3497 54.7861 53.4425 53.7892 54.0723 52.9584C54.2153 52.7691 54.6287 52.6377 54.8529 52.6995C55.0886 52.7691 55.247 53.1053 55.4325 53.3139Z" fill="white"/>
<path d="M45.1193 75.9378C44.2383 76.0962 43.6626 75.4471 43.9717 74.9911C44.4972 74.2183 45.1502 73.5266 45.8149 72.8659C45.9578 72.7229 46.4292 72.7847 46.6688 72.9084C46.8311 72.9934 46.9972 73.4494 46.9161 73.5691C46.3017 74.4501 45.6216 75.2886 45.1193 75.9378Z" fill="white"/>
<path d="M14.6125 9.69625C14.7091 10.527 13.9556 11.9104 13.2755 12.1847C13.0398 12.2813 12.5916 12.2465 12.4564 12.0842C12.2709 11.8601 12.1395 11.4042 12.2477 11.1607C12.5143 10.5502 12.8853 9.97446 13.2987 9.44508C13.4494 9.25188 13.859 9.11664 14.0947 9.17846C14.3343 9.24029 14.5005 9.57646 14.6125 9.69625Z" fill="white"/>
<path d="M45.3201 60.5126C45.2235 59.8441 45.5558 59.4577 45.9886 59.5466C46.8542 59.7243 47.6927 60.0566 48.5157 60.3967C48.6819 60.4662 48.8519 60.8913 48.7862 61.0574C48.6857 61.3086 48.3341 61.6795 48.1602 61.6447C47.2908 61.4709 46.4369 61.2004 45.5945 60.9144C45.4399 60.8603 45.3665 60.5821 45.3201 60.5126Z" fill="white"/>
<path d="M24.4194 35.9488C24.4349 36.5052 23.7664 36.9805 23.3298 36.6289C22.6535 36.0802 22.043 35.4156 21.5484 34.7007C21.247 34.2602 21.8266 33.6304 22.3714 33.7077C22.8429 33.7772 24.4078 35.489 24.4194 35.9488Z" fill="white"/>
<path d="M72.8324 16.1647C71.9359 16.3308 71.3872 15.7512 71.7002 15.2566C72.16 14.5263 72.7744 13.8578 73.439 13.3014C73.8254 12.9768 74.6755 13.653 74.4282 14.0742C73.9491 14.8973 73.2729 15.6083 72.8324 16.1647Z" fill="white"/>
<path d="M50.27 7.80685C50.6873 7.00312 51.0544 6.21099 51.5142 5.47295C51.6031 5.32998 52.1286 5.31066 52.3334 5.43045C52.5459 5.55796 52.7778 5.98301 52.7121 6.18394C52.4841 6.87561 52.175 7.55182 51.7963 8.1778C51.6842 8.36327 51.2399 8.44055 50.9655 8.40964C50.7723 8.39032 50.6023 8.10824 50.27 7.80685Z" fill="white"/>
<path d="M75.3709 40.1568C75.5757 39.7974 75.68 39.3376 75.9235 39.2487C76.1746 39.156 76.6924 39.326 76.8508 39.554C77.2373 40.1027 77.5541 40.7325 77.7512 41.3739C77.8246 41.6174 77.5657 42.0733 77.3261 42.2588C77.1754 42.3747 76.6422 42.2743 76.5147 42.1004C76.0896 41.5208 75.7728 40.86 75.3709 40.1568Z" fill="white"/>
<path d="M30.8878 60.5474C30.5787 60.3504 30.2619 60.2383 30.1034 60.0142C29.9875 59.8519 29.9759 59.4307 30.0957 59.3186C30.656 58.797 31.2549 58.2985 31.9002 57.8889C32.0702 57.7808 32.5571 57.9237 32.7194 58.1092C32.8817 58.2947 32.9628 58.8202 32.8353 58.9477C32.248 59.5196 31.5718 59.9987 30.8878 60.5474Z" fill="white"/>
<path d="M23.8938 71.077C23.8513 70.7137 23.7045 70.3235 23.7934 69.995C23.8707 69.7013 24.1875 69.3072 24.4387 69.2724C24.6937 69.2377 25.1806 69.5507 25.2424 69.7941C25.4047 70.4433 25.482 71.1465 25.4163 71.8111C25.3854 72.1203 24.9951 72.5569 24.6898 72.638C24.1952 72.7694 23.9904 72.3135 23.9209 71.8652C23.8823 71.6063 23.8591 71.3474 23.8282 71.0847C23.8475 71.0808 23.8707 71.077 23.8938 71.077Z" fill="white"/>
<path d="M63.7981 19.5187C63.6165 19.7235 63.4387 20.0635 63.1644 20.1987C62.7355 20.4113 60.7841 19.4491 60.5561 18.9854C60.2934 18.4522 60.6875 17.7335 61.2208 17.9074C62.0477 18.1817 62.7973 18.6802 63.574 19.0975C63.6513 19.1439 63.6744 19.2791 63.7981 19.5187Z" fill="white"/>
<path d="M30.9419 20.3534C31.1622 20.0675 31.3168 19.6926 31.5911 19.5574C31.7843 19.4608 32.2634 19.5999 32.391 19.7892C32.7078 20.2529 32.959 20.7862 33.0981 21.3271C33.1522 21.5319 32.8817 21.9493 32.6537 22.0613C32.4489 22.1618 31.9814 22.0806 31.8461 21.9068C31.5022 21.4701 31.2704 20.9369 30.9419 20.3534Z" fill="white"/>
<path d="M13.3643 37.927C12.9393 39.2524 12.5877 40.4541 12.1549 41.6249C11.9926 42.0654 11.641 42.4673 11.0498 42.2006C10.4818 41.9456 10.5513 41.5013 10.6982 41.0028C11.0111 39.9518 11.328 38.8969 11.5598 37.8265C11.6796 37.2778 11.9308 36.8605 12.4524 36.9919C12.7925 37.0846 13.032 37.5676 13.3643 37.927Z" fill="white"/>
<path d="M3.89349 41.5517C3.91668 41.4435 3.90123 41.2387 3.99783 41.1498C4.60449 40.5934 5.20342 40.0138 5.87963 39.5539C6.04965 39.438 6.63699 39.6389 6.77996 39.8592C6.91907 40.0717 6.85339 40.605 6.66791 40.8098C6.21582 41.3044 5.66711 41.7294 5.11068 42.1081C4.60063 42.4481 3.96305 42.1467 3.89349 41.5517Z" fill="white"/>
<path d="M6.40906 45.2069C6.1463 44.9905 5.81015 44.8437 5.72514 44.608C5.64013 44.3646 5.69423 43.9125 5.87197 43.7618C6.38203 43.3213 6.94616 42.8962 7.56441 42.645C7.8233 42.5407 8.34496 42.8035 8.58453 43.0546C8.69659 43.1744 8.51498 43.7772 8.29472 43.9588C7.7383 44.4225 7.08527 44.7703 6.40906 45.2069Z" fill="white"/>
<path d="M70.1932 5.72018C69.9188 6.57801 69.8184 7.41651 69.4088 8.05021C68.8176 8.96213 68.0177 9.7504 67.2642 10.5503C66.9165 10.9212 66.418 11.0912 66.0161 10.643C65.6297 10.2141 65.8229 9.76199 66.1823 9.38332C66.3639 9.19398 66.5494 9.0085 66.7426 8.82689C67.6429 7.98066 68.3307 7.01851 68.52 5.7511C68.5896 5.28355 68.891 4.93192 69.3895 5.07102C69.6831 5.15989 69.9111 5.48061 70.1932 5.72018Z" fill="white"/>
<path d="M64.0532 5.80908C64.455 6.09889 64.9419 6.27663 65.0965 6.60894C65.3515 7.14605 64.9148 7.4204 64.4202 7.6136C63.5508 7.95364 62.7008 8.33618 61.8507 8.72645C61.3831 8.94284 60.9233 9.07808 60.6257 8.54484C60.3552 8.05797 60.5562 7.58269 61.0083 7.33539C61.9666 6.80987 62.9558 6.35391 64.0532 5.80908Z" fill="white"/>
<path d="M63.914 12.5826C62.8089 12.544 62.0129 12.5903 61.2517 12.4512C60.9542 12.3971 60.7262 11.9334 60.4673 11.6552C60.7494 11.4002 61.0121 10.9597 61.3213 10.9211C62.0902 10.8283 62.8824 10.8863 63.6629 10.9481C64.1729 10.9906 64.8607 11.0718 64.7062 11.7827C64.6289 12.1537 64.0841 12.4242 63.914 12.5826Z" fill="white"/>
<path d="M70.9235 26.7291C71.0935 26.4277 71.1862 26.0568 71.4026 25.9524C71.6267 25.8442 72.0904 25.8829 72.2527 26.0529C73.6245 27.4478 75.3401 28.2361 77.1021 28.978C77.3842 29.0939 77.6895 29.6465 77.6431 29.9401C77.5581 30.485 77.0789 30.6241 76.5264 30.4425C74.6948 29.8397 73.0564 28.8891 71.5765 27.6642C71.3099 27.444 71.1631 27.0807 70.9235 26.7291Z" fill="white"/>
<path d="M72.701 24.1479C72.9869 23.9276 73.3656 23.4485 73.5704 23.5142C74.3471 23.7615 75.0928 24.1479 75.7961 24.5768C75.9468 24.6695 75.9584 25.1757 75.8657 25.4308C75.8038 25.6046 75.3904 25.8249 75.2358 25.7631C74.4669 25.4617 73.7288 25.0869 72.9947 24.712C72.8865 24.6541 72.8556 24.4493 72.701 24.1479Z" fill="white"/>
<path d="M46.0156 15.2142C45.8417 15.106 45.5365 14.9978 45.3664 14.7814C45.181 14.5418 45.0921 14.2134 45.0148 13.9081C44.7521 12.9035 44.2381 12.0804 43.3765 11.4738C42.8934 11.1337 42.65 10.6468 43.0557 10.1368C43.4344 9.65765 43.8981 9.91268 44.3193 10.187C45.7451 11.1067 46.4059 12.5055 46.7614 14.0859C46.8773 14.6152 46.7111 15.021 46.0156 15.2142Z" fill="white"/>
<path d="M40.7567 10.2875C40.4437 10.1677 40.2042 10.0711 39.9569 9.98612C39.1686 9.71177 38.3919 9.39492 37.5843 9.1824C37.0047 9.02783 36.5565 8.79985 36.6917 8.15069C36.8115 7.57495 37.3525 7.4397 37.8201 7.58654C38.9136 7.92658 39.9955 8.32457 41.0388 8.79213C41.2591 8.89259 41.4136 9.40651 41.3827 9.70405C41.3673 9.91657 40.9809 10.0943 40.7567 10.2875Z" fill="white"/>
<path d="M39.5086 14.4104C39.3927 13.8347 39.8989 13.3555 40.4746 13.5951C41.3402 13.9545 42.1787 14.395 42.9824 14.8741C43.5002 15.1833 43.4268 15.8981 42.9167 16.1493C42.1555 16.5241 39.6786 15.2644 39.5086 14.4104Z" fill="white"/>
<path d="M59.7138 28.3018C59.7563 28.6689 59.8916 29.0553 59.8181 29.3954C59.7525 29.6968 59.5129 30.087 59.2501 30.1914C58.7826 30.3807 58.4619 30.0445 58.3266 29.5847C58.2687 29.3838 58.2764 29.1635 58.2146 28.9626C57.9016 27.9618 57.604 26.9572 57.2485 25.9757C57.0515 25.4231 56.6844 24.8319 57.3683 24.4494C58.06 24.0668 58.4387 24.5962 58.6744 25.1758C59.0878 26.1921 59.4743 27.216 59.8722 28.24C59.822 28.2632 59.7679 28.2825 59.7138 28.3018Z" fill="white"/>
<path d="M53.8867 31.0685C54.0181 30.4 54.1495 29.631 54.3272 28.8737C54.4547 28.3404 54.8527 27.9849 55.3628 28.2361C55.6333 28.3675 55.9269 28.9548 55.8419 29.2137C55.4787 30.3304 55.5676 31.3621 56.0081 32.4325C56.2129 32.9348 56.1858 33.5569 55.5212 33.7308C54.8721 33.8969 54.617 33.4294 54.474 32.8498C54.3349 32.2972 54.1185 31.7601 53.8867 31.0685Z" fill="white"/>
<path d="M36.9582 32.7802C36.8462 32.699 36.4211 32.5406 36.2704 32.2469C35.9961 31.7021 36.4443 31.3969 36.8771 31.1534C38.0093 30.5081 39.1453 29.8667 40.2697 29.2137C40.4939 29.0823 40.6832 28.8852 40.9073 28.75C41.3865 28.4602 41.8927 28.2592 42.2636 28.8775C42.5727 29.3953 42.2636 29.7624 41.8617 30.0676C40.432 31.1418 39.0526 32.2972 36.9582 32.7802Z" fill="white"/>
<path d="M31.0308 31.8179C31.3747 31.5822 31.6954 31.1765 31.9775 31.1997C32.8121 31.277 33.639 31.4818 34.4428 31.7368C34.6591 31.8063 34.8949 32.2198 34.8871 32.4671C34.8794 32.7028 34.5316 33.1472 34.3925 33.124C33.4188 32.9733 32.4566 32.7414 31.5022 32.4864C31.3515 32.4478 31.2665 32.1657 31.0308 31.8179Z" fill="white"/>
<path d="M35.1035 29.6464C34.0023 29.7469 33.5772 29.5576 33.5695 28.9123C33.5618 28.2863 34.1491 27.9501 35.146 28.039C35.687 28.0854 36.2859 28.1897 36.3014 28.862C36.3169 29.5769 35.7218 29.6271 35.1035 29.6464Z" fill="white"/>
<path d="M47.8318 46.2504C47.7198 46.8531 47.6154 47.7882 47.3449 48.6693C47.2638 48.9281 46.719 49.0441 46.3828 49.2257C46.2205 48.8818 45.8612 48.4876 45.9346 48.2017C46.1973 47.1545 46.2437 46.1383 45.9693 45.0911C45.8495 44.6352 45.9925 44.1483 46.4755 44.1213C46.7962 44.1019 47.2445 44.3995 47.4415 44.6893C47.6618 45.0177 47.6618 45.4891 47.8318 46.2504Z" fill="white"/>
<path d="M42.6926 51.6058C42.7351 51.969 42.851 52.3439 42.7969 52.6916C42.7582 52.9466 42.5071 53.3485 42.3255 53.364C42.0279 53.3872 41.4947 53.2094 41.4367 53.0085C41.2242 52.2666 41.0851 51.4822 41.089 50.7132C41.089 50.435 41.5217 50.0061 41.8386 49.9134C42.3641 49.7588 42.5264 50.2341 42.5921 50.6746C42.6385 50.9837 42.6694 51.2967 42.7041 51.6097C42.7003 51.6058 42.6964 51.6058 42.6926 51.6058Z" fill="white"/>
<path d="M28.6505 49.2371C28.1791 48.8198 27.7348 48.6189 27.7 48.3638C27.4952 46.8685 27.0508 45.5044 26.0964 44.2989C25.9534 44.1211 26.1814 43.5183 26.4017 43.244C26.4905 43.1319 27.1242 43.271 27.3329 43.4758C28.5965 44.7239 29.1451 46.2966 29.1799 48.0431C29.1799 48.3716 28.894 48.7039 28.6505 49.2371Z" fill="white"/>
<path d="M23.6466 47.4134C23.6814 47.1467 23.7007 46.5053 23.863 45.9025C23.9248 45.6745 24.3421 45.35 24.5276 45.3925C24.8252 45.4581 25.2618 45.7673 25.2889 46.0146C25.3816 46.7951 25.3661 47.6027 25.2695 48.3832C25.2347 48.6615 24.8715 49.0749 24.6204 49.102C24.3615 49.129 24.0021 48.8083 23.8012 48.5533C23.6659 48.3717 23.7239 48.0432 23.6466 47.4134Z" fill="white"/>
<path d="M26.9156 53.3794C26.5215 52.8423 26.1776 52.5757 26.1235 52.2589C26.0114 51.5981 26.9079 50.663 27.5725 50.636C28.1019 50.6166 28.4883 50.9953 28.3144 51.3972C28.0439 52.0309 27.5184 52.5564 26.9156 53.3794Z" fill="white"/>
<path d="M67.0748 46.2542C66.8584 46.1267 66.4952 46.0301 66.3831 45.8098C66.2672 45.5818 66.2749 45.0911 66.4372 44.952C67.4457 44.0594 67.8089 42.877 68.1567 41.6444C68.2378 41.3507 68.7131 41.0725 69.057 40.9875C69.1923 40.9527 69.6598 41.4859 69.6405 41.7332C69.5014 43.4064 68.9527 44.9134 67.5887 46.0107C67.465 46.1035 67.3066 46.146 67.0748 46.2542Z" fill="white"/>
<path d="M64.3353 44.4883C64.0068 44.326 63.6475 44.2642 63.5161 44.0555C63.3886 43.8507 63.3692 43.3638 63.5122 43.2363C64.0454 42.761 64.6405 42.336 65.2665 41.996C65.4365 41.9032 65.9041 42.0926 66.047 42.2858C66.1861 42.479 66.2016 42.9736 66.0586 43.1127C65.5447 43.6111 64.938 44.0207 64.3353 44.4883Z" fill="white"/>
<path d="M62.4302 45.6552C62.1984 46.3662 62.0361 47.0347 61.7463 47.6413C61.6535 47.8345 61.1898 47.9968 60.9541 47.935C60.73 47.877 60.4054 47.4906 60.4325 47.2858C60.5213 46.6212 60.703 45.9527 60.958 45.3345C61.0353 45.149 61.5106 44.9983 61.754 45.0524C62.0129 45.1104 62.2022 45.4388 62.4302 45.6552Z" fill="white"/>
<path d="M24.4193 12.5481C24.9565 10.7745 24.4696 9.22884 24.3073 7.66775C24.2841 7.45909 24.2145 7.20407 24.3034 7.0495C24.4425 6.80607 24.7169 6.44285 24.9024 6.46217C25.2038 6.48921 25.6906 6.74811 25.7292 6.97609C26.0384 8.77674 26.5716 10.5735 26.1079 12.4321C26.0963 12.4824 26.0886 12.5365 26.0732 12.5867C25.8993 13.0465 25.6713 13.5566 25.0917 13.3363C24.7826 13.2204 24.601 12.7722 24.4193 12.5481Z" fill="white"/>
<path d="M20.3003 8.23174C20.5669 7.88397 20.7678 7.38164 21.0151 7.35459C21.3243 7.32368 21.8112 7.60962 21.9773 7.89943C22.4449 8.71088 22.8428 9.57643 23.1442 10.4613C23.2408 10.7472 23.0438 11.2534 22.8119 11.4853C22.6883 11.6089 22.0237 11.466 21.9 11.2612C21.332 10.3338 20.8722 9.34072 20.3003 8.23174Z" fill="white"/>
<path d="M21.0576 4.2093C21.0654 4.80436 21.3783 5.53081 20.4857 5.75106C19.9061 5.89403 19.5313 5.32988 19.4656 4.31363C19.4541 4.10883 19.3806 3.84994 19.4734 3.7031C19.655 3.42489 19.9216 3.05008 20.1844 3.02303C20.4162 2.99985 20.7253 3.36307 20.934 3.61423C21.0499 3.75334 21.0229 4.00837 21.0576 4.2093Z" fill="white"/>
<path d="M33.4304 72.1821C33.7665 71.0499 34.01 70.0916 34.3423 69.1642C34.5201 68.6619 35.0224 68.3798 35.4745 68.6928C35.7179 68.8628 35.8184 69.427 35.7681 69.7825C35.6522 70.6017 35.4474 71.4209 35.1924 72.2091C35.0842 72.5492 34.7558 72.8197 34.5278 73.121C34.1723 72.8158 33.8168 72.5144 33.4304 72.1821Z" fill="white"/>
<path d="M39.4699 69.396C38.9714 69.5003 38.4884 69.0985 38.6275 68.5768C38.8091 67.8852 39.0873 67.2051 39.4235 66.5752C39.7056 66.0497 40.3973 66.1309 40.6832 66.6603C41.0967 67.4215 40.2968 69.226 39.4699 69.396Z" fill="white"/>
<path d="M21.3012 24.8627C21.1621 25.0791 21.0616 25.4385 20.8414 25.5312C20.6095 25.6278 20.2695 25.4887 19.9835 25.423C19.8985 25.4037 19.8135 25.2917 19.771 25.2028C19.2957 24.2329 18.5886 23.4987 17.638 22.9771C17.186 22.7259 16.9464 22.3202 17.298 21.7985C17.5994 21.3503 17.9897 21.4121 18.4031 21.6092C19.7981 22.2584 20.7525 23.3055 21.3012 24.8627Z" fill="white"/>
<path d="M13.4261 22.3048C13.6695 21.8913 13.7661 21.5281 13.9902 21.4122C14.2028 21.3001 14.6781 21.3272 14.821 21.4895C15.4431 22.185 16.0228 22.9308 16.5367 23.7113C16.6603 23.8968 16.5753 24.3721 16.413 24.5498C16.2546 24.7237 15.7175 24.8358 15.6016 24.7198C14.8442 23.9586 14.1526 23.1278 13.4261 22.3048Z" fill="white"/>
<path d="M58.315 67.5644C56.9432 67.2669 55.7144 67.0428 54.5089 66.7182C53.9872 66.5791 53.5467 66.2004 53.8172 65.5435C54.0452 64.9832 54.4818 65.045 54.9996 65.1687C56.0622 65.4199 57.1441 65.6053 58.2261 65.7638C58.7439 65.841 59.2501 65.9608 59.1187 66.5636C59.0375 66.923 58.6163 67.2089 58.315 67.5644Z" fill="white"/>
<path d="M59.2617 63.1865C60.0963 63.4493 60.7764 63.5729 61.3521 63.8898C61.6033 64.0289 61.7424 64.5737 61.7115 64.9176C61.696 65.0683 61.1319 65.2924 60.8305 65.2731C60.2663 65.2345 59.6828 65.1108 59.1689 64.8867C58.8521 64.7476 58.4038 64.2916 58.4541 64.0791C58.5313 63.7352 58.9757 63.4802 59.2617 63.1865Z" fill="white"/>
</svg>
