<svg width="110" height="129" viewBox="0 0 110 129" fill="none" xmlns="http://www.w3.org/2000/svg">
<path d="M31.4797 26.67C30.8228 23.7866 30.0498 20.9454 29.5491 18.0578C28.8789 14.2189 30.6007 12.0508 34.4694 11.3737C41.6655 10.1272 47.9836 12.821 54.2447 15.7477C54.5796 15.9072 54.888 16.0884 55.1713 16.2281C56.1142 14.1589 57.011 12.1631 57.9594 10.1869C59.0787 7.85751 61.8007 6.56166 64.0343 7.8129C67.0248 9.48892 70.033 11.3809 72.4771 13.7629C75.0414 16.2588 76.9297 19.4432 79.1486 22.285C79.5033 22.7385 80.0211 23.2177 80.5604 23.3777C82.463 23.9344 84.4049 24.3878 86.3399 24.8113C88.6377 25.3093 89.7449 26.9272 90.4787 28.9758C93.9903 38.9408 94.81 49.2989 95.3344 59.7401C95.5623 64.4656 96.5047 69.1541 96.7476 73.8762C97.0988 80.5223 97.0296 87.1856 97.2878 93.8371C97.3876 96.3446 97.8894 98.8232 98.2384 101.321C98.4681 102.95 98.0341 104.149 96.5432 105.055C95.2329 105.856 94.0334 106.868 92.9256 107.937C88.7789 111.947 83.4303 113.715 78.359 116.08C71.955 119.079 65.0864 119.418 58.3256 120.644C50.0572 122.151 41.8286 121.762 33.5726 120.909C32.397 120.784 31.2287 120.484 30.11 120.126C27.393 119.236 25.6618 117.776 24.8438 114.6C21.3351 101.13 17.4299 87.7813 13.6672 74.3691C11.6873 67.4026 9.70394 60.4211 7.81023 53.4192C6.74738 49.5125 7.05116 46.0174 10.8183 43.4462C12.9412 42.004 14.8079 40.1958 16.7283 38.4854C17.16 38.1041 17.4524 37.4561 17.6022 36.8719C18.2128 34.5169 18.672 32.1179 19.3493 29.7792C20.3315 26.3652 21.7769 25.3288 25.335 25.634C27.4499 25.8122 29.5318 26.328 31.4797 26.67ZM12.9149 52.6492C12.9932 52.9928 13.1253 53.7799 13.3471 54.5465C15.6801 62.5798 18.0844 70.5812 20.3725 78.6247C23.3737 89.1774 26.2221 99.7491 29.2382 110.298C30.6677 115.332 31.5733 115.927 36.8429 116.156C37.1437 116.166 37.4344 116.132 37.7237 116.16C44.8306 116.867 51.9036 116.528 58.9388 115.334C62.8109 114.672 66.9333 114.833 70.5293 113.511C78.1708 110.702 86.0964 108.173 91.918 101.928C92.4237 101.388 92.7743 100.444 92.7339 99.7149C92.6091 97.5117 92.1088 95.3156 91.999 93.109C91.5735 84.6883 91.3823 76.2614 90.8489 67.8495C90.3749 60.3199 89.715 52.8012 88.8574 45.3119C88.4269 41.5597 88.4873 37.6171 86.3828 34.1049C83.9564 35.6634 81.7917 37.681 79.2339 38.5937C71.388 41.4026 63.4789 44.2102 55.4077 46.2375C47.0263 48.3512 38.4434 49.7879 29.885 51.1247C24.377 51.9866 18.7572 52.1511 12.9149 52.6492ZM74.811 27.5949C75.0304 27.592 75.2647 27.5858 75.4841 27.583C74.532 22.6453 70.2752 20.032 67.573 16.3102C67.6446 18.2111 67.867 20.0148 68.1674 21.8165C68.3493 22.8908 68.591 23.9516 68.9338 24.9735C69.4861 26.6392 70.2591 28.239 70.7551 29.9332C71.3307 31.9079 71.6971 33.9303 72.2008 36.1414C73.8256 35.4098 75.3941 34.7067 76.9625 34.0037C76.9563 33.7694 76.9466 33.5201 76.9255 33.2892C75.1502 33.2222 73.0231 33.2668 73.0213 31.0513C73.0268 29.9029 74.1773 28.745 74.811 27.5949ZM48.6239 29.4276C44.25 26.3695 40.0229 23.4037 35.7808 20.4413C35.5921 20.5785 35.4033 20.7158 35.2146 20.8531C37.0812 24.011 36.8449 28.0093 39.1868 31.1846C42.1602 28.7157 43.3827 28.9086 45.2132 31.8389C46.296 31.0737 47.3639 30.3118 48.6239 29.4276ZM29.0082 45.9656C30.3535 45.8005 31.5908 45.6444 33.3164 45.4241C30.0707 41.3861 27.0527 37.6577 23.9009 33.7554C22.3505 37.8489 22.4283 41.2256 23.9787 43.6854C26.7219 42.6205 27.4698 42.9373 29.0082 45.9656ZM47.4037 42.7649C48.9872 42.4041 50.5131 42.1351 51.9832 41.6902C52.6004 41.5024 53.3723 41.028 53.6254 40.4831C55.3898 36.6396 57.0292 32.7302 58.8925 28.424C55.8844 30.6022 53.1445 32.5779 50.2307 34.6875C52.12 35.8758 52.9337 37.3091 51.759 38.9125C51.2541 39.5933 49.8246 39.8718 48.829 39.8472C47.7885 39.8327 46.7566 39.2349 45.6827 38.8667C46.2328 40.1086 46.7863 41.3654 47.4037 42.7649ZM39.4156 16.7373C43.5836 19.5123 47.7135 22.3274 51.9391 25.0106C52.5444 25.3914 53.5732 25.0784 54.3942 25.0957C54.2294 24.096 54.4229 22.669 53.8317 22.1436C49.8073 18.5502 44.7438 17.3622 39.4156 16.7373ZM42.4193 43.649C38.6977 38.5564 35.9238 32.9337 29.0184 31.6624C32.0602 35.4954 35.1508 39.1287 37.9285 42.9748C39.2259 44.7379 40.4265 44.5587 42.4193 43.649ZM59.4416 39.4567C62.2651 38.8135 64.506 38.303 66.9859 37.738C66.3222 34.8247 65.7096 32.1356 64.9574 28.8339C63.0245 32.5587 61.3352 35.8351 59.4416 39.4567ZM61.7033 15.1015C61.5104 15.0826 61.3026 15.0671 61.1097 15.0481C60.5473 17.4078 60.0032 19.7791 59.3756 22.405C63.4314 20.9625 63.1683 21.8082 62.3588 18.048C62.1641 17.0552 61.9245 16.0726 61.7033 15.1015ZM19.3441 47.2085C18.9115 45.8613 18.619 44.9222 18.1897 43.5899C16.9414 44.8015 16.0006 45.7072 14.6879 46.9807C16.4964 47.0558 17.7216 47.1224 19.3441 47.2085Z" fill="white"/>
<path d="M60.252 88.1935C51.5526 90.2225 43.4628 89.0639 35.945 84.2076C34.0672 83.001 33.1159 80.6876 33.8347 78.6694C36.9358 69.9325 42.7779 63.777 51.5786 60.8134C55.8985 59.3578 60.3999 59.5267 64.3973 62.1048C67.9878 64.4142 71.5769 66.7867 74.9067 69.4698C77.3336 71.4313 77.6108 72.924 75.9124 75.7468C73.3937 79.9351 70.9923 84.0181 66.2415 85.9961C64.288 86.8026 62.2523 87.455 60.252 88.1935ZM67.7443 70.1743C63.8308 68.3785 60.9813 64.7689 56.1815 65.3594C56.22 67.5979 57.9641 70.218 54.8412 71.1337C51.2736 72.1665 51.9073 68.5333 50.7593 66.7361C46.6028 68.9088 43.0421 71.5587 40.7491 76.3242C49.877 74.2447 58.6164 72.2538 67.7443 70.1743ZM69.7993 75.3322C60.2382 77.5103 51.2149 79.566 41.8182 81.7067C46.2925 83.3432 50.448 84.4081 54.6669 83.337C55.395 82.1182 56.1861 80.555 57.2501 80.3283C58.2694 80.1118 59.5753 81.2916 60.7566 81.8553C60.7364 82.1114 60.7162 82.3675 60.6959 82.6235C64.3273 81.3876 67.8615 80.001 69.7993 75.3322Z" fill="white"/>
</svg>
