<svg width="84" height="78" viewBox="0 0 84 78" fill="none" xmlns="http://www.w3.org/2000/svg">
<path d="M5.3271 48.3601C4.33404 48.3176 3.32551 48.3755 2.3479 48.2171C0.253581 47.8848 -0.248746 46.6792 0.102883 44.9172C0.721133 41.8491 2.07356 39.1404 4.81704 37.3166C6.94614 35.8985 9.24139 34.8475 11.6487 34.036C13.7855 33.3173 15.2925 33.8583 16.1813 35.4464C16.7609 36.4858 16.3783 37.5368 16.2199 38.5299C15.4123 43.6537 12.0892 46.5247 7.36734 48.0239C6.72977 48.2287 6.01492 48.2017 5.33871 48.2828C5.33484 48.3137 5.33097 48.3369 5.3271 48.3601ZM5.28074 46.7063C7.19345 46.4706 8.23289 46.146 10.1881 45.0022C13.376 43.1397 14.5931 40.1605 14.7902 36.652C14.8327 35.9178 14.3342 35.4618 13.6271 35.3923C13.1673 35.3459 12.6572 35.4039 12.2206 35.5584C9.77851 36.4356 7.39824 37.4557 5.28074 38.9975C3.17869 40.5276 2.27064 42.7649 1.66785 45.1568C1.42441 46.1228 1.71034 46.5053 2.76523 46.6599C3.58827 46.7835 4.44224 46.6985 5.28074 46.7063Z" fill="white"/>
<path d="M64.7872 2.03384C67.2254 1.80973 69.0608 1.59334 70.8383 2.36615C72.4187 3.05395 72.8051 3.66448 72.6931 5.40717C72.6428 6.19544 72.6699 7.00303 72.496 7.76425C72.3144 8.57184 72.0864 9.44125 71.615 10.0943C70.1853 12.0727 68.4465 13.7535 66.2671 14.9244C66.2208 14.9475 66.1705 14.9669 66.1242 14.99C63.9912 16.0527 58.7399 15.4421 56.8659 13.9583C55.8767 13.1778 55.5212 12.177 55.8071 11.0178C56.3288 8.90415 57.1595 6.92575 58.5622 5.2101C59.8528 3.62197 62.291 2.20386 64.7872 2.03384ZM63.8985 14.0974C64.594 13.8038 65.2393 13.6569 65.73 13.3014C66.7424 12.5711 67.6273 11.6592 68.6551 10.9482C70.7379 9.50694 71.1088 7.40875 71.0972 5.1135C71.0933 4.50298 70.8576 4.09339 70.2935 3.90405C69.7989 3.73789 69.285 3.49832 68.7826 3.50605C67.3104 3.52923 65.8189 3.53696 64.3699 3.77267C61.7694 4.19772 59.7871 5.59651 58.6279 8.01928C58.2221 8.87323 57.8628 9.75424 57.573 10.6546C57.1093 12.1036 57.3798 12.7875 58.8365 13.1778C60.5019 13.6222 62.2369 13.8076 63.8985 14.0974Z" fill="white"/>
<path d="M70.3516 20.1447C73.752 20.2413 77.1678 20.8054 80.0001 23.1548C82.2954 25.0598 83.4469 27.641 83.9569 30.5351C84.1076 31.3852 83.8681 32.1465 83.1571 32.6372C82.4731 33.1086 81.7467 33.6264 80.9623 33.8351C77.7667 34.6736 74.7373 34.4224 72.3106 31.8798C70.8925 30.3922 69.4937 28.8659 68.3036 27.2005C67.5926 26.2035 67.1792 24.94 66.8507 23.7383C66.3716 21.9762 67.214 21.0798 68.8021 20.4809C69.2387 20.3108 69.7256 20.2761 70.3516 20.1447ZM70.452 21.8217C68.3113 22.0419 67.9559 22.6061 68.7287 24.5768C68.806 24.7738 68.8523 24.9864 68.9566 25.168C70.367 27.6757 72.1213 29.9362 74.4784 31.5862C76.5804 33.0584 78.98 32.8729 81.3023 32.0035C82.2567 31.648 82.4113 31.1534 82.1988 30.141C80.9816 24.3565 76.6925 21.8681 70.452 21.8217Z" fill="white"/>
<path d="M37.3406 4.90484C40.8569 4.62276 44.5548 6.38864 47.3988 10.0209C47.9784 10.7628 48.3841 11.6399 48.9251 12.4166C49.837 13.7265 49.8563 15.0403 49.0835 16.4004C48.33 17.7297 47.1167 18.4329 45.7063 18.8425C42.047 19.9129 36.9929 17.4244 35.3081 14.3447C34.5237 12.9112 33.7934 11.439 33.1906 9.92426C32.1048 7.20782 33.3104 5.31829 37.3406 4.90484ZM36.7649 6.62821C36.6064 6.6398 36.448 6.64753 36.2896 6.66299C34.5701 6.87165 34.0677 7.60196 34.6705 9.23645C35.0685 10.3184 35.6868 11.3153 36.1157 12.3895C37.1204 14.9166 39.149 16.2729 41.5602 17.1037C43.1908 17.664 44.891 17.6756 46.4637 16.7559C47.7813 15.987 48.2295 14.7698 47.5688 13.3981C47.1167 12.4591 46.5525 11.5433 45.8995 10.7318C43.5617 7.82607 40.513 6.42728 36.7649 6.62821Z" fill="white"/>
<path d="M50.8537 31.706C50.4093 28.4331 51.0353 25.2878 52.0477 22.2004C52.7548 20.0365 55.1544 19.0434 57.1676 20.1254C57.8515 20.4924 58.4891 21.018 59.0262 21.5821C61.2789 23.9508 62.3261 26.845 62.4072 30.0676C62.4266 30.8559 62.0479 31.6905 61.7117 32.4401C61.0509 33.9355 60.367 35.4309 59.5556 36.849C58.5934 38.5338 57.1328 39.152 55.4133 38.6806C54.8221 38.5183 54.1922 38.2208 53.7672 37.7957C52.3336 36.3737 50.9966 34.859 50.9619 32.6527C50.9541 32.3358 50.8885 32.0228 50.8537 31.706ZM52.4573 32.019C52.2911 33.5491 53.2687 34.975 54.482 36.2733C55.792 37.6721 57.2758 37.5214 58.2302 35.856C58.9334 34.6233 59.5671 33.3443 60.1313 32.0421C60.6761 30.7824 61.0123 29.4609 60.5795 28.0621C60.3902 27.4594 60.3322 26.8102 60.0926 26.2306C59.3623 24.4531 58.3461 22.8495 56.7348 21.7483C55.5292 20.9214 54.0531 21.3619 53.6165 22.6447C52.6157 25.5582 52.0477 28.5374 52.4573 32.019Z" fill="white"/>
<path d="M38.1255 35.8444C35.8573 35.7362 33.5891 35.6628 31.3248 35.5044C29.0952 35.3498 27.878 33.8351 26.9815 32.0112C26.6029 31.2384 26.8386 30.4579 27.2984 29.7546C28.4731 27.9578 29.9298 26.4315 31.8116 25.3882C32.484 25.0134 33.2722 24.7468 34.0335 24.6502C37.1286 24.2599 40.1542 24.5034 43.0136 25.8867C43.9912 26.362 45.3088 26.5629 45.5329 27.8187C45.8189 29.4339 45.7957 31.053 44.5901 32.4556C42.8744 34.4572 40.7724 35.5894 38.1255 35.8444ZM28.3185 31.1689C29.0836 32.4711 29.7482 33.7848 31.3209 33.8621C33.8403 33.9858 36.3751 34.0321 38.8945 33.9355C40.9231 33.8583 42.4339 32.6488 43.6048 31.0723C44.6403 29.6812 44.1303 28.1124 42.5267 27.4285C40.4671 26.5513 38.3612 26.1572 36.0891 26.1031C32.2135 26.0142 30.2274 28.4061 28.3185 31.1689Z" fill="white"/>
<path d="M50.4635 45.064C50.8924 48.5958 50.1351 51.745 47.4225 54.2412C46.6458 54.956 45.8614 55.667 45.1002 56.4012C42.9363 58.4917 40.2276 58.1362 38.6008 55.5627C37.7353 54.1948 37.5421 52.6492 37.6657 51.1383C37.8821 48.476 39.1727 46.2155 40.9116 44.241C41.8505 43.1745 42.9286 42.2239 43.9719 41.2541C46.0585 39.322 49.6173 40.5894 50.2664 43.4914C50.3824 44.0053 50.4017 44.5424 50.4635 45.064ZM48.9874 45.5432C48.829 44.8245 48.744 44.0748 48.4929 43.3909C47.9828 41.996 46.213 41.455 45.1234 42.4635C43.1566 44.2874 41.0816 46.0339 39.9687 48.6074C39.1921 50.4042 39.1379 52.2087 39.6866 54.0171C39.8721 54.6237 40.3783 55.2033 40.8845 55.6245C41.8737 56.4514 42.7354 56.3664 43.6937 55.4931C44.5901 54.674 45.4634 53.8239 46.3676 53.0086C48.601 50.9915 49.1343 48.3987 48.9874 45.5432Z" fill="white"/>
<path d="M20.8532 49.357C20.4474 46.4899 21.0077 43.785 22.0704 41.1536C22.6422 39.7355 23.7242 39.04 25.2621 38.9859C25.9885 38.9588 26.6338 39.0786 27.1554 39.5887C29.0102 41.4048 30.6602 43.3716 31.8001 45.7248C32.5458 47.2588 32.0821 48.8624 31.9044 50.381C31.6494 52.5333 30.8804 54.5658 29.273 56.1771C28.4808 56.9692 27.6037 57.2513 26.5449 56.8997C25.6446 56.6021 24.7365 56.3162 23.871 55.9336C22.7543 55.439 22.0046 54.5928 21.7419 53.3602C21.4637 52.0271 21.1507 50.694 20.8532 49.357ZM22.4027 48.9242C22.7002 50.2612 22.9359 51.6136 23.3223 52.9235C23.473 53.4336 23.8594 54.0557 24.3076 54.2682C27.4105 55.7366 27.9592 56.2312 29.6091 52.6646C30.239 51.3084 30.436 49.8787 30.4283 48.3639C30.4245 47.2936 30.5133 46.2619 29.8332 45.3654C28.8131 44.0246 27.8239 42.649 26.7111 41.3854C25.5673 40.0871 24.1647 40.346 23.5001 41.9535C22.5843 44.1792 22.1283 46.4899 22.4027 48.9242Z" fill="white"/>
<path d="M63.0638 51.6948C62.7508 51.7334 62.4339 51.7759 62.121 51.8068C59.3813 52.0619 58.454 50.3926 58.1835 48.449C57.8589 46.1035 58.4617 44.0285 60.2508 42.2587C62.2639 40.2649 64.6828 38.8622 66.9085 37.1775C69.0917 35.5237 72.6621 37.5137 72.6003 40.1103C72.5076 43.8314 71.2827 46.9922 68.3421 49.4072C66.7888 50.6747 65.0963 51.5634 63.0638 51.6948ZM63.0174 50.0564C63.1256 50.0448 63.3922 50.0332 63.6473 49.9791C68.2146 49.0208 71.1899 44.4149 70.9426 39.9596C70.8653 38.5956 69.1149 37.7687 67.917 38.4797C67.0554 38.9897 66.24 39.5848 65.4518 40.1992C64.0414 41.2966 62.6465 42.421 61.2747 43.5725C60.1426 44.5231 59.6982 45.8368 59.7368 47.2472C59.8025 49.8593 60.4671 50.4815 63.0174 50.0564Z" fill="white"/>
<path d="M16.9038 6.52387C16.9348 5.15986 16.8188 3.77652 17.0313 2.44342C17.3559 0.399333 18.3838 -0.24983 20.3969 0.0824799C24.6938 0.789603 27.4025 3.35148 28.6738 7.4242C29.1413 8.92346 29.4659 10.5077 29.5895 12.0727C29.8523 15.3958 27.5068 16.9453 24.5238 16.3193C22.8584 15.9715 21.3939 15.0905 20.2347 13.7651C18.0283 11.2419 17.4873 10.044 16.9038 6.52387ZM18.9479 1.65515C18.7818 2.18453 18.5731 2.53616 18.5847 2.8762C18.6388 4.55707 18.5499 6.27657 18.8861 7.90721C19.5314 11.0294 21.2934 13.4405 24.3808 14.5573C26.5756 15.3494 28.2449 14.422 27.9898 11.864C27.8816 10.7705 27.53 9.70013 27.3252 8.61433C26.9233 6.49296 25.8066 4.79277 24.203 3.4133C22.7386 2.15362 20.9843 1.6822 18.9479 1.65515Z" fill="white"/>
<path d="M29.752 74.9023C29.3231 72.0352 30.4128 69.6124 31.9004 67.4061C32.5766 66.3975 33.7165 65.6595 34.7444 64.9446C36.0427 64.0443 37.4454 63.2908 38.8055 62.4755C39.8333 61.8611 40.8882 61.6757 41.9354 62.3905C43.0444 63.1479 43.7515 64.1216 43.6201 65.5745C43.2182 69.9718 41.1703 73.3722 37.4878 75.7795C36.5605 76.3861 35.6061 76.9735 34.6014 77.4256C33.8943 77.7463 33.0867 77.9627 32.3177 77.9897C30.6446 78.0438 29.8177 77.1667 29.7597 75.4781C29.752 75.2656 29.752 75.053 29.752 74.9023ZM31.6647 76.3243C32.3796 76.2393 33.1137 76.3166 33.6895 76.0538C36.5798 74.7362 39.1726 72.9626 40.6641 70.0761C41.3751 68.7005 41.6649 67.0931 42.0397 65.5668C42.2175 64.8403 41.7576 64.2453 41.1587 63.8279C40.525 63.3874 39.9686 63.6695 39.4006 64.0173C38.1409 64.7901 36.916 65.6518 35.5829 66.2739C32.4955 67.7152 30.4089 73.0244 31.6647 76.3243Z" fill="white"/>
<path d="M13.2718 18.0311C15.9264 17.6833 18.3337 18.5218 20.4705 19.9245C21.993 20.9252 23.3377 22.2468 24.5896 23.5876C26.1507 25.2569 25.6059 27.5482 23.4343 28.3752C19.7248 29.7855 16.1119 29.5382 13.0168 26.872C11.6373 25.6819 10.5283 24.1517 9.40771 22.6911C8.65036 21.7058 8.80879 20.6161 9.60865 19.6385C10.3931 18.6802 11.4904 18.1972 13.2718 18.0311ZM23.9057 25.3419C21.7766 22.3897 19.037 20.2799 15.3545 19.654C14.0098 19.426 12.5956 19.4994 11.3629 20.249C10.4471 20.8055 10.3544 21.3426 11.0152 22.1811C11.8614 23.2553 12.6922 24.3681 13.6736 25.3071C16.0694 27.5985 18.9365 28.0003 22.0625 27.1541C23.0092 26.8991 23.6468 26.3813 23.9057 25.3419Z" fill="white"/>
<path d="M56.3715 60.814C58.1064 60.8797 59.8414 60.9183 61.5725 61.0188C62.0362 61.0458 62.5037 61.2081 62.9404 61.3858C64.9961 62.2166 65.6027 63.372 64.942 65.4972C64.6135 66.5444 64.1924 67.6418 63.5161 68.4764C62.9249 69.2067 61.9898 69.8327 61.0895 70.1032C57.7007 71.1156 54.5051 70.2732 51.4718 68.6928C50.9309 68.4107 50.4672 67.9122 50.0885 67.4176C49.1302 66.1734 49.2152 64.8171 50.332 63.6927C51.9896 62.0273 53.8907 60.8603 56.3715 60.814ZM59.0609 68.7662C61.4411 68.9285 62.5308 67.5181 63.2109 65.5629C63.7905 63.9013 63.3538 63.0474 61.673 62.6648C61.4682 62.6185 61.2557 62.5876 61.047 62.5914C59.312 62.6223 57.5809 62.7189 55.846 62.6919C54.0414 62.661 52.7586 63.627 51.5607 64.7669C50.8961 65.3967 50.8884 65.8488 51.4757 66.5521C51.7732 66.9076 52.1403 67.2824 52.5576 67.4408C54.6636 68.26 56.7386 69.2956 59.0609 68.7662Z" fill="white"/>
<path d="M37.5959 42.5756C37.2945 42.4094 36.9738 42.3399 36.8849 42.1544C36.7651 41.9071 36.6994 41.4627 36.8385 41.3004C37.5495 40.4697 38.3146 39.6852 39.1067 38.9279C39.5125 38.5376 40.0534 38.5647 40.2814 39.0979C40.4012 39.3761 40.2466 39.8823 40.0419 40.1605C39.6129 40.7479 39.0836 41.2618 38.5696 41.7796C38.2798 42.0655 37.9398 42.2974 37.5959 42.5756Z" fill="white"/>
<path d="M69.1074 59.2567C68.779 59.1176 68.4737 59.0403 68.2226 58.8819C67.4266 58.3834 66.6576 57.8425 65.8655 57.3401C65.4018 57.0503 65.1738 56.6601 65.4018 56.1539C65.6607 55.582 66.1514 55.6399 66.5919 55.9182C67.5193 56.4978 68.4505 57.0812 69.3238 57.742C69.5479 57.912 69.6329 58.368 69.6329 58.6926C69.6291 58.8742 69.3122 59.0481 69.1074 59.2567Z" fill="white"/>
<path d="M48.3187 24.8318C48.083 24.7932 47.9168 24.797 47.7777 24.7391C46.9045 24.3874 46.0157 24.059 45.1811 23.6301C44.9299 23.5026 44.6749 23.035 44.7251 22.7838C44.7754 22.5404 45.2893 22.1501 45.4709 22.212C46.5953 22.5906 47.7005 23.0543 48.7747 23.5644C48.9176 23.6339 48.9447 24.1556 48.8635 24.4183C48.8056 24.6038 48.481 24.712 48.3187 24.8318Z" fill="white"/>
<path d="M64.6904 31.9417C64.8836 31.5939 64.957 31.2655 65.1425 31.1843C65.3898 31.0723 65.8921 31.0298 65.9887 31.165C66.6186 32.046 67.2562 32.9386 67.7083 33.9162C67.9478 34.4379 67.1171 35.0291 66.7422 34.6311C65.9733 33.8119 65.3628 32.842 64.6904 31.9417Z" fill="white"/>
<path d="M53.7322 43.8044C53.6433 43.7773 53.3805 43.7735 53.2646 43.6421C52.6734 42.9736 52.0822 42.2935 51.576 41.5632C51.464 41.4048 51.6185 40.8522 51.8001 40.7518C52.059 40.6088 52.6039 40.5663 52.77 40.7363C53.3612 41.3275 53.9022 41.9883 54.3504 42.6954C54.6634 43.1745 54.3504 43.7116 53.7322 43.8044Z" fill="white"/>
<path d="M55.4327 53.3138C55.2124 54.2489 55.0463 55.1183 54.7758 55.9491C54.7101 56.1539 54.2774 56.3819 54.0416 56.3548C53.8137 56.3278 53.462 55.9993 53.4389 55.7791C53.35 54.786 53.4427 53.7891 54.0726 52.9583C54.2155 52.769 54.629 52.6376 54.8531 52.6994C55.0888 52.769 55.2472 53.1052 55.4327 53.3138Z" fill="white"/>
<path d="M45.1192 75.9379C44.2382 76.0964 43.6625 75.4472 43.9716 74.9912C44.4971 74.2184 45.1501 73.5268 45.8148 72.866C45.9577 72.723 46.4291 72.7849 46.6687 72.9085C46.831 72.9935 46.9972 73.4495 46.916 73.5693C46.3016 74.4503 45.6215 75.2888 45.1192 75.9379Z" fill="white"/>
<path d="M14.6124 9.69628C14.709 10.5271 13.9555 11.9104 13.2755 12.1847C13.0397 12.2813 12.5915 12.2466 12.4563 12.0843C12.2708 11.8602 12.1394 11.4042 12.2476 11.1608C12.5142 10.5502 12.8852 9.97449 13.2986 9.44512C13.4493 9.25191 13.8589 9.11667 14.0946 9.17849C14.3342 9.24032 14.5004 9.57649 14.6124 9.69628Z" fill="white"/>
<path d="M45.32 60.5126C45.2234 59.8441 45.5557 59.4577 45.9885 59.5466C46.8541 59.7243 47.6926 60.0566 48.5156 60.3967C48.6818 60.4662 48.8518 60.8913 48.7861 61.0574C48.6857 61.3086 48.334 61.6795 48.1601 61.6447C47.2907 61.4709 46.4368 61.2004 45.5944 60.9144C45.4398 60.8603 45.3664 60.5821 45.32 60.5126Z" fill="white"/>
<path d="M24.4195 35.9487C24.435 36.5052 23.7665 36.9804 23.3298 36.6288C22.6536 36.0801 22.0431 35.4155 21.5485 34.7006C21.2471 34.2601 21.8267 33.6303 22.3715 33.7076C22.8429 33.7771 24.4079 35.4889 24.4195 35.9487Z" fill="white"/>
<path d="M72.8326 16.1647C71.9361 16.3309 71.3875 15.7513 71.7004 15.2567C72.1603 14.5263 72.7747 13.8579 73.4393 13.3014C73.8257 12.9769 74.6758 13.6531 74.4285 14.0743C73.9493 14.8973 73.2731 15.6083 72.8326 16.1647Z" fill="white"/>
<path d="M50.27 7.80676C50.6873 7.00303 51.0544 6.2109 51.5143 5.47286C51.6031 5.32989 52.1286 5.31057 52.3334 5.43036C52.546 5.55787 52.7778 5.98292 52.7121 6.18385C52.4841 6.87552 52.175 7.55173 51.7963 8.17771C51.6843 8.36318 51.2399 8.44046 50.9655 8.40955C50.7723 8.39023 50.6023 8.10815 50.27 7.80676Z" fill="white"/>
<path d="M75.3711 40.1567C75.5759 39.7973 75.6802 39.3375 75.9237 39.2486C76.1748 39.1559 76.6926 39.3259 76.851 39.5539C77.2374 40.1026 77.5543 40.7324 77.7513 41.3739C77.8248 41.6173 77.5659 42.0732 77.3263 42.2587C77.1756 42.3746 76.6424 42.2742 76.5148 42.1003C76.0898 41.5207 75.773 40.8599 75.3711 40.1567Z" fill="white"/>
<path d="M30.8881 60.5474C30.5789 60.3503 30.2621 60.2382 30.1036 60.0141C29.9877 59.8518 29.9761 59.4306 30.0959 59.3186C30.6562 58.7969 31.2551 58.2985 31.9004 57.8889C32.0705 57.7807 32.5573 57.9237 32.7196 58.1091C32.8819 58.2946 32.963 58.8201 32.8355 58.9476C32.2482 59.5195 31.572 59.9987 30.8881 60.5474Z" fill="white"/>
<path d="M23.8937 71.0769C23.8512 70.7137 23.7043 70.3234 23.7932 69.995C23.8705 69.7013 24.1874 69.3072 24.4385 69.2724C24.6935 69.2376 25.1804 69.5506 25.2422 69.794C25.4045 70.4432 25.4818 71.1465 25.4161 71.8111C25.3852 72.1202 24.9949 72.5568 24.6897 72.638C24.1951 72.7694 23.9903 72.3134 23.9207 71.8652C23.8821 71.6063 23.8589 71.3474 23.828 71.0846C23.8473 71.0808 23.8705 71.0769 23.8937 71.0769Z" fill="white"/>
<path d="M63.7982 19.5187C63.6166 19.7235 63.4388 20.0635 63.1645 20.1988C62.7355 20.4113 60.7842 19.4492 60.5562 18.9855C60.2935 18.4522 60.6876 17.7335 61.2208 17.9074C62.0477 18.1817 62.7974 18.6802 63.574 19.0975C63.6513 19.1439 63.6745 19.2791 63.7982 19.5187Z" fill="white"/>
<path d="M30.9419 20.3533C31.1621 20.0674 31.3167 19.6926 31.5911 19.5573C31.7843 19.4607 32.2634 19.5998 32.3909 19.7892C32.7078 20.2529 32.9589 20.7861 33.098 21.3271C33.1521 21.5319 32.8817 21.9492 32.6537 22.0613C32.4489 22.1617 31.9813 22.0806 31.8461 21.9067C31.5022 21.4701 31.2703 20.9368 30.9419 20.3533Z" fill="white"/>
<path d="M13.3642 37.9271C12.9392 39.2525 12.5875 40.4542 12.1548 41.625C11.9925 42.0655 11.6409 42.4674 11.0497 42.2008C10.4816 41.9457 10.5512 41.5014 10.698 41.0029C11.011 39.9519 11.3279 38.897 11.5597 37.8267C11.6795 37.278 11.9307 36.8606 12.4523 36.992C12.7923 37.0848 13.0319 37.5678 13.3642 37.9271Z" fill="white"/>
<path d="M3.89355 41.5516C3.91674 41.4434 3.90129 41.2386 3.99789 41.1497C4.60455 40.5933 5.20348 40.0137 5.87969 39.5539C6.04971 39.438 6.63705 39.6389 6.78002 39.8591C6.91913 40.0717 6.85345 40.6049 6.66797 40.8097C6.21588 41.3043 5.66717 41.7293 5.11074 42.108C4.60069 42.4481 3.96311 42.1467 3.89355 41.5516Z" fill="white"/>
<path d="M6.40888 45.207C6.14613 44.9906 5.80997 44.8438 5.72496 44.6081C5.63995 44.3646 5.69405 43.9126 5.8718 43.7619C6.38185 43.3214 6.94599 42.8963 7.56424 42.6451C7.82313 42.5408 8.34478 42.8036 8.58435 43.0547C8.69641 43.1745 8.5148 43.7773 8.29455 43.9589C7.73812 44.4226 7.0851 44.7704 6.40888 45.207Z" fill="white"/>
<path d="M70.1934 5.72015C69.9191 6.57798 69.8186 7.41648 69.409 8.05018C68.8178 8.9621 68.0179 9.75037 67.2644 10.5502C66.9167 10.9212 66.4182 11.0912 66.0164 10.643C65.63 10.2141 65.8232 9.76196 66.1825 9.38329C66.3641 9.19395 66.5496 9.00847 66.7428 8.82686C67.6431 7.98063 68.3309 7.01848 68.5203 5.75107C68.5898 5.28351 68.8912 4.93188 69.3897 5.07099C69.6833 5.15986 69.9113 5.48058 70.1934 5.72015Z" fill="white"/>
<path d="M64.053 5.80902C64.4549 6.09883 64.9418 6.27657 65.0963 6.60888C65.3514 7.14599 64.9147 7.42034 64.4201 7.61354C63.5507 7.95358 62.7006 8.33612 61.8505 8.72639C61.383 8.94278 60.9232 9.07802 60.6256 8.54478C60.3551 8.05791 60.5561 7.58263 61.0082 7.33533C61.9664 6.80981 62.9557 6.35385 64.053 5.80902Z" fill="white"/>
<path d="M63.914 12.5827C62.8089 12.5441 62.0129 12.5905 61.2517 12.4513C60.9541 12.3973 60.7262 11.9336 60.4673 11.6554C60.7494 11.4003 61.0121 10.9598 61.3213 10.9212C62.0902 10.8284 62.8823 10.8864 63.6629 10.9482C64.1729 10.9907 64.8607 11.0719 64.7062 11.7829C64.6289 12.1538 64.084 12.4243 63.914 12.5827Z" fill="white"/>
<path d="M70.9233 26.729C71.0934 26.4277 71.1861 26.0567 71.4025 25.9524C71.6266 25.8442 72.0903 25.8828 72.2526 26.0528C73.6243 27.4478 75.34 28.236 77.102 28.9779C77.384 29.0939 77.6893 29.6464 77.643 29.9401C77.5579 30.4849 77.0788 30.624 76.5262 30.4424C74.6947 29.8396 73.0563 28.8891 71.5764 27.6642C71.3097 27.4439 71.1629 27.0807 70.9233 26.729Z" fill="white"/>
<path d="M72.7012 24.1479C72.9871 23.9276 73.3658 23.4485 73.5706 23.5142C74.3473 23.7615 75.093 24.1479 75.7963 24.5768C75.947 24.6695 75.9586 25.1757 75.8658 25.4307C75.804 25.6046 75.3906 25.8249 75.236 25.763C74.467 25.4616 73.729 25.0868 72.9948 24.712C72.8867 24.6541 72.8557 24.4493 72.7012 24.1479Z" fill="white"/>
<path d="M46.0155 15.2141C45.8416 15.1059 45.5363 14.9978 45.3663 14.7814C45.1808 14.5418 45.092 14.2133 45.0147 13.9081C44.7519 12.9034 44.238 12.0804 43.3763 11.4737C42.8933 11.1337 42.6499 10.6468 43.0556 10.1368C43.4343 9.65762 43.898 9.91265 44.3192 10.187C45.745 11.1066 46.4057 12.5054 46.7612 14.0858C46.8771 14.6152 46.711 15.0209 46.0155 15.2141Z" fill="white"/>
<path d="M40.7567 10.2875C40.4438 10.1677 40.2042 10.0711 39.9569 9.98606C39.1686 9.71171 38.3919 9.39486 37.5843 9.18234C37.0047 9.02777 36.5565 8.79979 36.6917 8.15063C36.8115 7.57489 37.3525 7.43964 37.8201 7.58648C38.9136 7.92652 39.9955 8.32451 41.0388 8.79207C41.2591 8.89253 41.4136 9.40645 41.3827 9.70398C41.3673 9.91651 40.9809 10.0943 40.7567 10.2875Z" fill="white"/>
<path d="M39.5084 14.4104C39.3925 13.8347 39.8986 13.3555 40.4744 13.5951C41.3399 13.9545 42.1784 14.395 42.9822 14.8741C43.4999 15.1833 43.4265 15.8981 42.9165 16.1493C42.1553 16.5241 39.6784 15.2644 39.5084 14.4104Z" fill="white"/>
<path d="M59.7136 28.3017C59.7561 28.6688 59.8913 29.0552 59.8179 29.3953C59.7522 29.6967 59.5126 30.0869 59.2499 30.1913C58.7823 30.3806 58.4616 30.0444 58.3264 29.5846C58.2684 29.3837 58.2761 29.1634 58.2143 28.9625C57.9013 27.9617 57.6038 26.957 57.2483 25.9756C57.0512 25.423 56.6841 24.8318 57.3681 24.4493C58.0598 24.0667 58.4384 24.5961 58.6741 25.1757C59.0876 26.1919 59.474 27.2159 59.872 28.2399C59.8218 28.2631 59.7677 28.2824 59.7136 28.3017Z" fill="white"/>
<path d="M53.8867 31.0684C54.0181 30.3999 54.1495 29.631 54.3272 28.8736C54.4547 28.3404 54.8527 27.9849 55.3628 28.236C55.6333 28.3674 55.9269 28.9547 55.8419 29.2136C55.4787 30.3304 55.5676 31.3621 56.0081 32.4324C56.2129 32.9347 56.1859 33.5568 55.5212 33.7307C54.8721 33.8969 54.617 33.4293 54.4741 32.8497C54.335 32.2972 54.1186 31.7601 53.8867 31.0684Z" fill="white"/>
<path d="M36.9584 32.7802C36.8463 32.699 36.4213 32.5406 36.2706 32.2469C35.9963 31.7021 36.4445 31.3969 36.8773 31.1534C38.0094 30.5081 39.1455 29.8667 40.2699 29.2137C40.494 29.0823 40.6834 28.8852 40.9075 28.75C41.3866 28.4602 41.8928 28.2592 42.2638 28.8775C42.5729 29.3953 42.2638 29.7624 41.8619 30.0676C40.4322 31.1418 39.0527 32.2972 36.9584 32.7802Z" fill="white"/>
<path d="M31.0308 31.818C31.3747 31.5823 31.6954 31.1766 31.9775 31.1998C32.8121 31.2771 33.639 31.4819 34.4427 31.7369C34.6591 31.8064 34.8948 32.2199 34.8871 32.4672C34.8794 32.7029 34.5316 33.1473 34.3925 33.1241C33.4188 32.9734 32.4566 32.7415 31.5022 32.4865C31.3515 32.4479 31.2665 32.1658 31.0308 31.818Z" fill="white"/>
<path d="M35.1034 29.6464C34.0022 29.7469 33.5771 29.5575 33.5694 28.9122C33.5617 28.2863 34.149 27.9501 35.1459 28.039C35.6869 28.0853 36.2859 28.1897 36.3013 28.862C36.3168 29.5769 35.7217 29.6271 35.1034 29.6464Z" fill="white"/>
<path d="M47.8318 46.2503C47.7198 46.8531 47.6154 47.7882 47.3449 48.6692C47.2638 48.9281 46.719 49.044 46.3828 49.2256C46.2205 48.8817 45.8612 48.4876 45.9346 48.2016C46.1973 47.1545 46.2437 46.1382 45.9693 45.0911C45.8495 44.6351 45.9925 44.1482 46.4755 44.1212C46.7962 44.1019 47.2445 44.3994 47.4415 44.6892C47.6618 45.0177 47.6618 45.4891 47.8318 46.2503Z" fill="white"/>
<path d="M42.6925 51.6059C42.735 51.9691 42.851 52.3439 42.7969 52.6917C42.7582 52.9467 42.5071 53.3486 42.3255 53.3641C42.0279 53.3872 41.4947 53.2095 41.4367 53.0086C41.2242 52.2667 41.0851 51.4823 41.0889 50.7133C41.0889 50.4351 41.5217 50.0062 41.8386 49.9134C42.3641 49.7589 42.5264 50.2342 42.5921 50.6747C42.6384 50.9838 42.6693 51.2968 42.7041 51.6098C42.7003 51.6059 42.6964 51.6059 42.6925 51.6059Z" fill="white"/>
<path d="M28.6504 49.2372C28.179 48.8199 27.7347 48.619 27.6999 48.3639C27.4951 46.8685 27.0507 45.5045 26.0963 44.2989C25.9533 44.1212 26.1813 43.5184 26.4016 43.2441C26.4904 43.132 27.1241 43.2711 27.3328 43.4759C28.5964 44.724 29.145 46.2967 29.1798 48.0432C29.1798 48.3717 28.8939 48.704 28.6504 49.2372Z" fill="white"/>
<path d="M23.6465 47.4134C23.6813 47.1468 23.7006 46.5053 23.8629 45.9025C23.9247 45.6746 24.342 45.35 24.5275 45.3925C24.825 45.4582 25.2617 45.7673 25.2887 46.0146C25.3814 46.7951 25.366 47.6027 25.2694 48.3833C25.2346 48.6615 24.8714 49.0749 24.6202 49.102C24.3613 49.129 24.002 48.8083 23.801 48.5533C23.6658 48.3717 23.7238 48.0432 23.6465 47.4134Z" fill="white"/>
<path d="M26.9155 53.3795C26.5213 52.8424 26.1774 52.5758 26.1233 52.2589C26.0113 51.5982 26.9077 50.6631 27.5724 50.636C28.1017 50.6167 28.4881 50.9954 28.3142 51.3972C28.0438 52.031 27.5183 52.5565 26.9155 53.3795Z" fill="white"/>
<path d="M67.0749 46.2542C66.8585 46.1267 66.4953 46.0301 66.3833 45.8098C66.2673 45.5818 66.2751 45.0911 66.4374 44.952C67.4459 44.0594 67.8091 42.877 68.1569 41.6444C68.238 41.3507 68.7133 41.0725 69.0572 40.9875C69.1924 40.9527 69.66 41.4859 69.6407 41.7332C69.5016 43.4064 68.9529 44.9134 67.5888 46.0107C67.4652 46.1035 67.3068 46.146 67.0749 46.2542Z" fill="white"/>
<path d="M64.3353 44.4883C64.0069 44.326 63.6475 44.2642 63.5161 44.0555C63.3886 43.8507 63.3693 43.3638 63.5123 43.2363C64.0455 42.761 64.6406 42.336 65.2666 41.996C65.4366 41.9032 65.9041 42.0926 66.0471 42.2858C66.1862 42.479 66.2017 42.9736 66.0587 43.1127C65.5448 43.6111 64.9381 44.0207 64.3353 44.4883Z" fill="white"/>
<path d="M62.43 45.6552C62.1981 46.3662 62.0358 47.0347 61.746 47.6414C61.6533 47.8346 61.1896 47.9969 60.9539 47.935C60.7298 47.8771 60.4052 47.4907 60.4323 47.2859C60.5211 46.6212 60.7028 45.9528 60.9578 45.3345C61.0351 45.149 61.5103 44.9983 61.7538 45.0524C62.0127 45.1104 62.202 45.4388 62.43 45.6552Z" fill="white"/>
<path d="M24.4192 12.5479C24.9563 10.7743 24.4694 9.22871 24.3071 7.66763C24.2839 7.45897 24.2144 7.20394 24.3032 7.04938C24.4423 6.80595 24.7167 6.44272 24.9022 6.46204C25.2036 6.48909 25.6904 6.74798 25.7291 6.97596C26.0382 8.77662 26.5715 10.5734 26.1078 12.432C26.0962 12.4823 26.0884 12.5364 26.073 12.5866C25.8991 13.0464 25.6711 13.5565 25.0915 13.3362C24.7824 13.2203 24.6008 12.7721 24.4192 12.5479Z" fill="white"/>
<path d="M20.3003 8.2318C20.5669 7.88403 20.7678 7.3817 21.0151 7.35466C21.3243 7.32374 21.8112 7.60968 21.9773 7.89949C22.4449 8.71094 22.8428 9.57649 23.1442 10.4614C23.2408 10.7473 23.0438 11.2535 22.8119 11.4853C22.6883 11.609 22.0237 11.466 21.9 11.2612C21.332 10.3338 20.8722 9.34078 20.3003 8.2318Z" fill="white"/>
<path d="M21.0578 4.2093C21.0655 4.80436 21.3785 5.53081 20.4859 5.75106C19.9063 5.89403 19.5315 5.32988 19.4658 4.31363C19.4542 4.10883 19.3808 3.84994 19.4735 3.7031C19.6551 3.42489 19.9217 3.05008 20.1845 3.02303C20.4163 2.99985 20.7255 3.36307 20.9341 3.61423C21.05 3.75334 21.023 4.00837 21.0578 4.2093Z" fill="white"/>
<path d="M33.4302 72.182C33.7663 71.0498 34.0098 70.0916 34.3421 69.1642C34.5199 68.6619 35.0222 68.3798 35.4743 68.6928C35.7177 68.8628 35.8182 69.4269 35.768 69.7824C35.652 70.6016 35.4472 71.4208 35.1922 72.2091C35.084 72.5491 34.7556 72.8196 34.5276 73.121C34.1721 72.8157 33.8166 72.5143 33.4302 72.182Z" fill="white"/>
<path d="M39.4701 69.3961C38.9717 69.5004 38.4887 69.0985 38.6278 68.5769C38.8094 67.8852 39.0876 67.2052 39.4238 66.5753C39.7058 66.0498 40.3975 66.1309 40.6835 66.6603C41.0969 67.4215 40.297 69.2261 39.4701 69.3961Z" fill="white"/>
<path d="M21.3012 24.8627C21.1621 25.0791 21.0616 25.4385 20.8413 25.5312C20.6095 25.6278 20.2695 25.4887 19.9835 25.423C19.8985 25.4037 19.8135 25.2916 19.771 25.2027C19.2957 24.2329 18.5886 23.4987 17.638 22.977C17.1859 22.7259 16.9464 22.3202 17.298 21.7985C17.5994 21.3503 17.9897 21.4121 18.4031 21.6092C19.798 22.2583 20.7525 23.3055 21.3012 24.8627Z" fill="white"/>
<path d="M13.4263 22.3047C13.6697 21.8912 13.7663 21.528 13.9904 21.4121C14.2029 21.3 14.6782 21.3271 14.8212 21.4894C15.4433 22.1849 16.0229 22.9307 16.5368 23.7112C16.6605 23.8967 16.5755 24.372 16.4132 24.5497C16.2548 24.7236 15.7177 24.8357 15.6017 24.7197C14.8444 23.9585 14.1527 23.1277 13.4263 22.3047Z" fill="white"/>
<path d="M58.3148 67.5645C56.9431 67.2669 55.7143 67.0428 54.5087 66.7182C53.9871 66.5791 53.5466 66.2005 53.817 65.5436C54.045 64.9833 54.4817 65.0451 54.9994 65.1687C56.0621 65.4199 57.144 65.6054 58.2259 65.7638C58.7437 65.8411 59.2499 65.9609 59.1185 66.5637C59.0374 66.923 58.6162 67.209 58.3148 67.5645Z" fill="white"/>
<path d="M59.2617 63.1865C60.0963 63.4492 60.7764 63.5729 61.3521 63.8897C61.6033 64.0288 61.7424 64.5737 61.7115 64.9176C61.696 65.0683 61.1319 65.2924 60.8305 65.2731C60.2663 65.2344 59.6829 65.1108 59.1689 64.8866C58.8521 64.7475 58.4038 64.2916 58.4541 64.0791C58.5314 63.7352 58.9757 63.4801 59.2617 63.1865Z" fill="white"/>
</svg>
