<svg width="86" height="92" viewBox="0 0 86 92" fill="none" xmlns="http://www.w3.org/2000/svg">
<g clip-path="url(#clip0_64_25)">
<path d="M21.0872 26.3288C20.1509 24.6411 19.1495 23.001 18.3104 21.2823C17.1918 18.9982 17.8766 17.326 20.1782 16.1978C24.4619 14.1072 28.912 14.6459 33.3688 15.3411C33.6077 15.3801 33.834 15.4375 34.037 15.4736C34.2515 14.0051 34.4505 12.591 34.6854 11.1799C34.9632 9.51623 36.4335 8.20877 38.0612 8.58659C40.2404 9.09293 42.4701 9.73141 44.4354 10.7796C46.4968 11.8774 48.2597 13.5296 50.1674 14.9071C50.4723 15.1267 50.884 15.3329 51.2512 15.3351C52.5449 15.3378 53.8445 15.2686 55.1344 15.1819C56.6653 15.076 57.6535 15.8886 58.4862 17.039C62.5002 22.6457 64.8985 28.9887 67.1267 35.4374C68.1293 38.3576 69.5729 41.1247 70.5843 44.0401C72.0135 48.1417 73.1824 52.3306 74.5544 56.4526C75.0731 58.006 75.8386 59.4682 76.5118 60.9702C76.9522 61.9495 76.8983 62.7799 76.1285 63.6187C75.4531 64.3594 74.8853 65.2118 74.3856 66.0838C72.5159 69.351 69.4852 71.4327 66.737 73.8379C63.2687 76.8828 59.0253 78.345 55.0107 80.3435C50.1024 82.7921 44.8742 84.0459 39.5441 85.0131C38.7845 85.1486 37.9978 85.1734 37.2314 85.1526C35.3666 85.0893 34.0159 84.4892 32.9253 82.647C28.2754 74.8429 23.3992 67.1873 18.6007 59.4657C16.0923 55.4596 13.579 51.4448 11.1182 47.4008C9.74129 45.1457 9.29582 42.8998 11.1892 40.6029C12.2574 39.3126 13.0985 37.8397 13.9909 36.4183C14.1922 36.1008 14.2575 35.6414 14.2451 35.248C14.1994 33.6609 14.0508 32.0737 14.0498 30.4847C14.0443 28.1662 14.7617 27.2537 17.0474 26.7975C18.4054 26.5244 19.8041 26.4689 21.0872 26.3288ZM14.1776 45.9894C14.2892 46.1905 14.5152 46.6598 14.7937 47.1C17.7175 51.7104 20.6802 56.2879 23.5777 60.9129C27.3787 66.9808 31.0874 73.0885 34.8971 79.1516C36.7088 82.0461 37.3847 82.2543 40.7293 81.4395C40.9197 81.391 41.0955 81.3163 41.282 81.2815C45.8651 80.4314 50.2367 78.9323 54.429 76.9038C56.7355 75.7843 59.3486 75.1351 61.362 73.6521C65.6404 70.5009 70.148 67.4741 72.6607 62.5006C72.8795 62.0705 72.9275 61.4149 72.7694 60.9651C72.2904 59.607 71.5773 58.3215 71.107 56.9585C69.3083 51.7582 67.6554 46.5113 65.7906 41.3362C64.1237 36.7031 62.3421 32.1108 60.442 27.5728C59.4896 25.2995 58.8102 22.8174 56.8522 20.999C55.6149 22.4173 54.6251 24.0757 53.188 25.1132C48.7813 28.3012 44.3348 31.5 39.6448 34.2392C34.7761 37.089 29.6579 39.5511 24.5368 41.9462C21.2413 43.4886 17.7489 44.6142 14.1776 45.9894ZM48.4148 19.0243C48.5518 18.9826 48.6975 18.9361 48.8344 18.8944C47.3394 15.9728 44.1959 15.1095 41.8251 13.2685C42.2158 14.4469 42.6833 15.5369 43.1994 16.6115C43.5089 17.2517 43.8533 17.8726 44.2541 18.4507C44.9034 19.3942 45.6789 20.2562 46.298 21.2278C47.0181 22.3608 47.6157 23.5617 48.3337 24.8558C49.2189 24.1017 50.0741 23.3756 50.9293 22.6496C50.8827 22.5039 50.8313 22.3494 50.776 22.2086C49.6511 22.4896 48.3261 22.9045 47.9218 21.5163C47.7164 20.7955 48.2268 19.8604 48.4148 19.0243ZM32.3346 24.9377C29.0367 23.8169 25.8477 22.7272 22.6499 21.6423C22.5566 21.7627 22.4632 21.8831 22.3699 22.0035C24.1144 23.643 24.6937 26.192 26.7393 27.756C28.1537 25.6676 28.9551 25.5661 30.6355 27.0697C31.175 26.393 31.7057 25.7212 32.3346 24.9377ZM23.0487 38.8722C23.8618 38.524 24.609 38.201 25.6504 37.749C22.8815 35.8087 20.3115 34.021 17.626 32.1487C17.399 34.9964 18.0622 37.0986 19.4814 38.3582C21.007 37.1916 21.5334 37.2541 23.0487 38.8722ZM33.9963 33.5191C34.9232 33.0048 35.8306 32.5586 36.6711 32.0122C37.0238 31.7822 37.4213 31.3444 37.4808 30.9569C37.8874 28.2269 38.2037 25.4783 38.5882 22.4403C37.0991 24.3529 35.7412 26.0897 34.2987 27.9421C35.6991 28.3431 36.4698 29.0934 36.0252 30.3121C35.8326 30.8306 34.9873 31.2653 34.3588 31.431C33.7041 31.6113 32.9485 31.4243 32.2084 31.3889C32.7791 32.0672 33.3547 32.7543 33.9963 33.5191ZM24.2542 18.6595C27.3715 19.6403 30.4722 20.6533 33.6089 21.5662C34.0576 21.6947 34.6455 21.3113 35.1632 21.1728C34.878 20.5762 34.7397 19.6466 34.2736 19.4249C31.0974 17.9049 27.7075 18.0816 24.2542 18.6595ZM31.033 34.9801C27.7739 32.4654 25.0123 29.446 20.4528 29.9057C23.0567 31.7546 25.6549 33.4695 28.0956 35.3746C29.2295 36.2436 29.9495 35.9128 31.033 34.9801ZM40.9396 29.2553C42.5923 28.3384 43.9039 27.6107 45.3555 26.8054C44.4095 25.1002 43.5363 23.5262 42.4641 21.5937C41.9303 24.28 41.4676 26.6409 40.9396 29.2553ZM37.9261 13.5789C37.8018 13.6022 37.6687 13.6302 37.5444 13.6535C37.6212 15.2348 37.7115 16.82 37.796 18.58C40.0756 16.9379 40.0645 17.5158 38.8731 15.3064C38.5704 14.7196 38.2415 14.1473 37.9261 13.5789ZM17.2175 41.4097C16.7013 40.644 16.347 40.1086 15.8356 39.3517C15.2736 40.3382 14.8488 41.0771 14.2576 42.114C15.4049 41.8321 16.1849 41.6509 17.2175 41.4097Z" fill="#5A3000"/>
<path d="M50.3141 59.6543C45.2306 62.5089 39.9493 63.2546 34.3537 61.5788C32.9573 61.1642 31.9401 59.8873 32.0235 58.4916C32.3777 52.4514 34.9195 47.5304 39.8965 44.0717C42.3393 42.3734 45.1914 41.6602 48.1659 42.5487C50.8365 43.3429 53.5177 44.1768 56.0929 45.2526C57.9709 46.0404 58.4162 46.9255 57.8653 49.0037C57.0486 52.0871 56.2863 55.0831 53.6684 57.1873C52.5907 58.0482 51.4335 58.8274 50.3141 59.6543ZM51.7318 46.9974C48.9522 46.5839 46.5095 44.84 43.6085 46.0835C44.0399 47.4795 45.6097 48.8042 43.819 49.9464C41.7707 51.2428 41.507 48.8504 40.4605 47.9329C38.2505 50.0509 36.5008 52.3596 35.9306 55.7636C41.2735 52.7995 46.389 49.9615 51.7318 46.9974ZM53.9583 49.8562C48.3618 52.961 43.0802 55.8912 37.58 58.9427C40.6821 59.1543 43.4805 59.0656 45.9299 57.6266C46.1645 56.7303 46.3759 55.6066 47.0017 55.2709C47.6011 54.9498 48.6343 55.4515 49.4773 55.59C49.5112 55.7541 49.5451 55.9183 49.579 56.0825C51.6302 54.6471 53.5931 53.135 53.9583 49.8562Z" fill="#5A3000"/>
</g>
<defs>
<clipPath id="clip0_64_25">
<rect width="56.44" height="73.5" fill="white" transform="translate(0 27.3809) rotate(-29.021)"/>
</clipPath>
</defs>
</svg>
