<svg width="90" height="90" viewBox="0 0 90 90" fill="none" xmlns="http://www.w3.org/2000/svg">
<path d="M73.3575 57.874C71.8881 61.1539 70.6309 64.533 67.5029 66.4552C64.5945 68.2401 61.5347 69.7733 58.3689 71.5124C58.9521 73.0685 59.7019 74.8839 60.3153 76.7527C61.5574 80.5055 62.7541 84.2813 63.9281 88.057C64.1553 88.7893 64.1628 89.5978 63.254 89.9029C62.3603 90.2081 61.7922 89.7733 61.512 88.8885C60.3684 85.3339 59.2323 81.7794 58.0583 78.2325C57.4827 76.501 56.8162 74.7923 56.2028 73.0685C56.0361 72.5955 55.9074 72.0997 55.718 71.4895C52.5522 71.4895 49.303 71.5505 46.0538 71.4743C42.8122 71.398 39.6464 70.864 36.4729 69.2698C34.784 72.4582 33.1632 75.5246 31.5424 78.5986C31.3909 78.8885 31.2773 79.2012 31.141 79.5063C30.785 80.3301 30.1715 80.62 29.3687 80.2538C28.5962 79.9029 28.4447 79.2088 28.8007 78.4918C29.9746 76.1196 31.1637 73.7626 32.3907 71.4209C32.9133 70.4216 33.5343 69.4834 34.2084 68.3469C28.5129 66.0357 23.9534 62.504 21.0754 56.9968C19.4015 57.729 17.8868 58.4384 16.3342 59.0715C14.3422 59.8801 12.2443 60.4598 10.3357 61.4285C7.60153 62.8167 4.99614 64.4643 2.33773 65.9975C2.05749 66.1577 1.72425 66.4323 1.46674 66.3789C0.951716 66.2798 0.164038 66.0967 0.0504306 65.7534C-0.101046 65.3034 0.103447 64.3957 0.466991 64.1592C4.43567 61.6039 8.41193 59.0868 12.9638 57.6299C15.3193 56.8747 17.5384 55.7229 19.9241 54.7008C19.0304 51.4361 18.3942 48.1867 18.4472 44.8076C18.5003 41.4438 18.9698 38.2248 20.7345 35.2347C18.22 33.9151 15.8343 32.6718 13.4637 31.4056C12.6533 30.9708 12.267 30.0784 12.6684 29.4758C13.1759 28.713 13.8575 28.6215 14.6679 29.0715C16.5083 30.1089 18.3639 31.1234 20.2195 32.1379C20.6285 32.3591 21.0602 32.5421 21.5904 32.7939C22.8476 29.8114 23.9686 26.8595 26.2256 24.5406C28.4598 22.2447 31.0955 20.5894 34.1554 19.3995C33.8297 18.7054 33.5495 18.1638 33.3071 17.5994C31.6181 13.6177 29.914 9.65122 28.2781 5.65427C27.7933 4.47197 27.4752 3.22102 27.1117 1.99295C26.8845 1.21491 26.9451 0.44451 27.8085 0.147027C28.6795 -0.158084 29.2172 0.284327 29.5656 1.16152C30.9138 4.5635 32.3452 7.93498 33.7009 11.3293C34.678 13.7702 35.5868 16.234 36.5108 18.6444C38.6769 18.5147 40.7143 18.3545 42.7516 18.2859C45.198 18.2096 47.6443 18.1714 50.0831 18.1943C51.3934 18.2096 52.7112 18.4384 54.0215 18.4689C54.332 18.4765 54.7789 18.1257 54.9379 17.8206C56.3012 15.1737 57.6039 12.4964 58.9293 9.83429C59.4141 8.86556 60.1033 8.62147 60.8531 9.10965C61.6786 9.64359 61.4817 10.3759 61.1485 11.0624C59.9291 13.5719 58.6718 16.0662 57.4297 18.5681C57.3161 18.7969 57.2176 19.0334 57.0586 19.3919C58.7476 20.3301 60.3684 21.3904 62.1179 22.1608C65.0035 23.4346 66.594 25.967 68.4118 28.2935C69.1313 29.2164 69.6766 30.2691 70.3885 31.4056C75.107 28.6367 79.8407 25.8907 84.544 23.0761C85.3165 22.6108 85.9149 21.8633 86.6192 21.2759C87.4296 20.6047 88.2476 20.6199 88.755 21.2683C89.2701 21.9319 88.9898 22.5421 88.2097 23.3202C84.2638 27.2256 79.1817 29.247 74.4632 31.8785C73.4786 32.4277 72.5243 33.0456 71.7215 33.5414C72.7213 36.4933 73.8573 39.2775 74.5693 42.176C74.9858 43.8846 74.8344 45.7687 74.7586 47.5688C74.6602 49.9182 74.3648 52.2675 74.1982 54.6169C74.183 54.8686 74.3875 55.2653 74.6071 55.3949C75.7735 56.0662 76.9778 56.6688 78.1668 57.3095C78.7803 57.6375 79.4014 57.9502 79.9846 58.324C80.6056 58.7283 80.7344 59.3309 80.3557 59.964C79.9618 60.6276 79.3635 60.7801 78.6516 60.4369C76.8944 59.5902 75.16 58.7512 73.3575 57.874ZM48.6971 20.5284C44.6451 20.7801 41.4641 20.8564 38.3134 21.2073C33.3753 21.7565 29.2627 24.0524 26.6345 28.3164C24.9986 30.9785 23.9837 34.0296 22.734 36.9281C22.1963 38.1714 21.5374 39.4224 21.3404 40.7344C21.0602 42.5803 21.1132 44.4872 21.0905 46.3637C21.0602 49.2698 21.4919 52.1913 22.7492 54.7313C24.7259 58.7283 27.5283 62.115 31.6484 64.2126C35.8065 66.3255 39.9342 68.4766 44.7133 68.7969C46.6143 68.9266 48.5153 69.2317 50.4088 69.2164C53.2111 69.1859 56.0437 69.163 58.7248 68.1486C59.9518 67.6833 61.156 67.1646 62.3678 66.6535C67.5408 64.4567 70.2976 60.2538 71.4564 54.9754C72.0169 52.4049 72.0245 49.7122 72.1684 47.0654C72.2517 45.4865 72.441 43.8007 72.0245 42.3286C71.0777 38.9418 69.8887 35.5933 67.9952 32.6032C66.5032 30.2538 65.0717 27.7061 63.0419 25.9212C60.9818 24.1058 58.3234 22.7939 55.718 21.8556C53.2338 20.9632 50.4997 20.8412 48.6971 20.5284Z" fill="white"/>
<path d="M85.2938 1.1463C84.7485 1.90908 84.294 2.56507 83.8244 3.19817C81.7795 5.95942 79.7422 8.72067 77.6745 11.4667C76.8565 12.5498 75.9855 13.5872 75.1146 14.6322C74.5692 15.2882 73.933 15.3416 73.2968 14.7695C72.6455 14.1898 72.7591 13.5872 73.2438 12.9236C75.4705 9.88009 77.6442 6.79085 79.8936 3.77025C80.7646 2.59558 81.7568 1.49718 82.7944 0.459802C83.1201 0.131809 83.7942 -0.0741411 84.2334 0.0250198C84.6121 0.108925 84.8848 0.688635 85.2938 1.1463Z" fill="white"/>
<path d="M21.3859 74.0296C21.2193 74.411 21.136 74.6551 21.0224 74.8763C18.8563 79.1707 16.4327 83.3126 13.7288 87.279C13.547 87.5536 13.3274 87.9503 13.0775 87.996C12.5549 88.0876 11.8278 88.1791 11.5021 87.8969C11.1991 87.6375 11.0477 86.7375 11.2673 86.3866C12.5624 84.2661 14.0545 82.26 15.3344 80.1318C16.3342 78.469 17.0992 76.6612 18.0156 74.9373C18.3564 74.2966 18.7654 73.6558 19.288 73.1753C19.5531 72.9312 20.2044 72.8778 20.5604 73.0304C20.9164 73.1982 21.136 73.7092 21.3859 74.0296Z" fill="white"/>
<path d="M82.9611 88.5909C82.5748 88.385 82.234 88.2858 82.0295 88.0722C80.3254 86.295 78.6289 84.5253 76.9853 82.6947C76.69 82.3591 76.4855 81.7565 76.5461 81.3217C76.6824 80.3453 77.9548 80.0402 78.7122 80.8106C80.4314 82.5726 82.1204 84.3575 83.7412 86.2034C84.0517 86.5619 84.1426 87.2942 84.0366 87.79C83.9684 88.1104 83.3549 88.3163 82.9611 88.5909Z" fill="white"/>
<path d="M16.675 12.9617C16.5387 12.8778 16.1448 12.7634 15.9555 12.4964C14.6452 10.742 13.3501 8.97241 12.0928 7.18751C11.6081 6.50101 11.4642 5.73824 12.2519 5.13564C12.9335 4.61695 13.6076 4.88393 14.2589 5.784C15.2663 7.17226 16.3342 8.51474 17.3415 9.89537C17.6596 10.3378 17.9625 10.8183 18.1443 11.3294C18.4397 12.1684 17.7808 12.977 16.675 12.9617Z" fill="white"/>
</svg>
