<svg width="118" height="143" viewBox="0 0 118 143" fill="none" xmlns="http://www.w3.org/2000/svg">
<g clip-path="url(#clip0_2_1943)">
<path d="M18.9853 29.3384C18.9853 29.3384 18.3341 27.0828 16.5361 28.8706C16.1172 29.2877 15.0665 30.0682 14.0727 30.8492C14.0568 29.8482 14.0452 28.8462 14.0335 27.8442C14.1728 27.7828 14.3228 27.7102 14.4899 27.6162C15.91 26.491 17.6399 24.6525 18.684 23.1497C18.6486 21.0519 17.1592 22.0214 17.1592 22.0214C16.3526 23.1559 15.1838 24.3704 14.0015 25.4255C14.0011 25.2852 13.9965 25.1459 13.9971 25.0098C13.9791 23.6232 14.0707 22.2387 14.1063 21.0553C12.1329 18.0741 12.0756 22.9559 12.0756 22.9559C12.08 23.4111 12.0928 23.8645 12.1056 24.3178C12.0284 24.2252 11.9571 24.1401 11.8739 24.04C11.0751 23.0935 10.1892 22.2277 9.35983 21.3406C9.35983 21.3406 7.99498 21.9448 8.208 22.7706C8.42103 23.5965 8.65292 23.44 8.88096 23.7011C9.70708 24.6328 9.72755 24.3299 10.5282 25.2848C11.1203 25.9875 11.5818 26.8111 12.1951 27.4915C12.2336 28.6542 12.2688 29.822 12.2772 30.987C12.2799 31.118 12.2785 31.2499 12.277 31.3819C12.178 31.2897 12.0772 31.1891 11.9703 31.0811C11.9703 31.0811 9.48799 27.7737 8.89203 27.6071C8.29607 27.4404 7.86189 29.0541 7.86189 29.0541C9.6414 30.9201 10.5058 32.0846 12.2701 33.8618C12.2395 36.5312 12.1747 39.2038 12.3172 41.8657C12.5157 45.5329 12.9552 50.9234 13.4421 54.5708C14.0494 59.1391 14.5131 70.6304 14.2527 75.2456C14.1447 77.1294 13.2851 79.1309 13.4811 80.987C13.6771 82.8431 15.3504 81.3812 15.3504 81.3812C15.5856 79.8158 15.9851 78.144 16.0537 76.4576C16.1597 73.8724 16.3334 67.2234 16.089 64.6542C15.7295 60.8515 15.0947 54.2013 14.675 50.4031C14.3867 47.7735 14.3272 43.3912 14.2579 40.7439C14.1963 38.3888 14.1555 36.029 14.1156 33.6734C14.6715 33.362 15.232 33.032 15.7051 32.6029C16.8452 31.5746 18.0973 30.6181 18.9853 29.3384Z" fill="#4E2D12"/>
<path d="M37.43 70.9501C37.7549 72.0846 38.1353 73.2727 38.4408 74.4773C39.187 77.4401 39.6028 80.5285 40.6837 83.3647C44.0284 92.1579 48.0202 100.677 52.1504 109.129C52.9975 110.868 54.0608 112.497 55.0153 114.168C57.0359 113.31 58.9302 112.532 60.7931 111.69C61.055 111.571 61.3652 111.116 61.3316 110.865C60.7066 106.533 60.0733 102.203 59.3516 97.8881C59.026 95.9598 58.2808 94.089 58.1033 92.1586C57.6751 87.5903 57.4523 83.0029 57.187 78.4205C57.1001 76.9395 57.1418 75.4476 57.1224 74.035C53.7857 73.7808 50.5057 73.7246 47.2986 73.2267C44.0721 72.7201 40.9184 71.7718 37.43 70.9501ZM29.3433 117.374C30.1989 117.51 30.8605 117.618 31.5204 117.718C37.83 118.636 44.1783 117.672 50.5021 118.1C50.7903 118.12 51.1565 117.899 51.3888 117.685C51.8323 117.28 52.161 116.751 52.6184 116.369C53.1002 115.96 53.1105 115.611 52.7928 115.102C51.9113 113.683 50.941 112.296 50.2285 110.791C47.2021 104.388 44.1716 97.9867 41.3161 91.5069C39.2248 86.7664 37.1854 81.9838 36.377 76.8019C36.2754 76.1444 36.1489 75.4925 36.0306 74.8387C32.4277 88.8032 30.2037 102.959 29.3433 117.374ZM74.5238 68.094C72.729 68.9862 71.2021 69.6876 69.7284 70.4913C66.844 72.0672 63.7123 72.9389 60.5501 73.6726C59.7773 73.8521 59.5768 74.1113 59.596 74.8309C59.6877 78.3506 59.5865 81.8866 59.8628 85.3919C60.1203 88.6732 60.7063 91.9389 61.2544 95.1911C61.8635 98.7983 62.6202 102.382 63.251 105.989C63.5206 107.526 63.6302 109.089 63.788 110.397C66.2243 110.569 68.5666 110.732 71.0506 110.902C71.1895 96.7205 73.2233 82.5939 74.5238 68.094ZM93.4961 114.664C93.5475 114.521 93.5948 114.379 93.6462 114.236C92.1682 111.541 90.6431 108.868 89.2197 106.143C87.3395 102.536 85.0835 99.1256 83.9424 95.1271C83.0199 91.9006 81.6615 88.7967 80.6317 85.5983C80.0521 83.805 79.7959 81.9139 79.3052 80.0878C78.6642 77.7203 77.9566 75.3675 76.578 73.0226C75.136 85.992 73.7468 98.7261 73.4651 111.273C75.3378 112.473 77.1408 113.536 78.8423 114.752C80.1437 115.68 81.4179 116.109 83.0598 115.869C86.5246 115.358 90.017 115.051 93.4961 114.664ZM85.2807 124.301C83.744 122.644 82.1829 121.015 80.6898 119.318C80.2577 118.826 79.864 118.685 79.2346 118.723C75.3799 118.952 71.5196 119.076 67.6639 119.34C62.8957 119.665 58.1389 120.142 53.3651 120.442C52.043 120.528 51.5319 121.338 51.041 122.28C50.7016 122.938 50.3932 123.638 50.2189 124.352C49.3133 128.083 48.0027 133.422 47.5341 135.749C47.0654 138.077 45.1119 138.587 45.0556 137.126C45.9211 131.395 46.7672 125.852 49.0407 120.581C48.7483 120.562 48.51 120.532 48.2698 120.532C44.4892 120.543 40.7081 120.65 36.9316 120.541C34.2847 120.463 31.6458 120.125 29.0111 119.825C27.8779 119.699 27.0295 118.745 27.0614 117.624C27.1394 114.497 27.1895 111.363 27.4637 108.253C27.7397 105.113 28.3026 102.006 28.6726 98.8753C29.5847 91.1595 31.3917 83.619 33.0339 76.0446C33.4951 73.9205 34.1909 71.8499 34.7766 69.7553C32.9527 69.0528 31.1519 68.4154 29.3975 67.6712C26.9837 66.6516 24.5334 65.6839 22.233 64.4462C19.9827 63.237 17.8819 61.7359 15.7427 60.3179C15.0978 59.8901 14.4663 59.3847 14.001 58.7813C13.785 58.4956 13.8015 57.72 14.0325 57.4803C14.3241 57.179 14.9438 57.1167 15.4283 57.1149C15.6943 57.1132 15.9589 57.4407 16.2286 57.6136C18.676 59.2005 21.0006 61.0425 23.598 62.3199C27.3326 64.1575 31.2172 65.7251 35.1302 67.1637C40.0601 68.9741 44.9561 71.007 50.341 71.1202C52.5571 71.1658 54.7703 71.3568 57.0618 71.4866C56.9029 68.0783 56.7475 70.6173 56.5876 67.2838C56.1457 67.3595 55.9083 67.4119 55.6704 67.4425C54.1993 67.6447 52.7072 68.0884 51.2524 67.9886C48.3251 67.7887 45.4211 67.2985 42.506 66.916C42.1955 66.875 41.8586 66.8134 41.5861 66.6674C38.341 64.9103 35.0377 63.2449 31.888 61.3264C29.5553 59.9028 27.457 58.1555 26.3835 55.4317C25.2207 52.482 24.8887 49.4365 25.043 46.3186C25.0886 45.418 25.3879 44.5185 25.6575 43.643C26.466 41.0342 28.2062 39.0048 29.8266 36.8878C30.8969 35.4846 31.81 33.9625 32.7851 32.4837C34.0945 30.5012 35.3844 28.5099 36.6998 26.5349C38.0906 24.4466 39.6633 22.4893 40.2501 19.9252C40.835 17.3921 41.5416 14.9155 40.5754 12.3215C40.3193 11.6368 40.7114 11.0194 41.3514 10.9306C41.8003 10.8665 42.5846 11.1539 42.7501 11.5077C43.1468 12.3544 43.4625 13.3287 43.471 14.2568C43.5084 18.2622 42.7352 22.0783 40.4438 25.4489C39.6067 26.6823 38.6447 27.8247 37.7812 29.0376C37.2632 29.7574 36.8122 30.5238 36.3468 31.2846C35.1078 33.3085 33.9136 35.3577 32.6329 37.3514C32.0769 38.2155 31.3348 38.9497 30.7024 39.765C28.6307 42.4291 27.0438 45.2713 27.4789 48.8423C27.6016 49.8329 27.6526 50.8349 27.8503 51.809C28.3376 54.2324 29.2831 56.3571 31.3571 57.9344C34.1503 60.0589 37.2529 61.6063 40.2958 63.2984C42.387 64.4595 44.547 64.7456 46.8005 64.9803C47.681 65.0709 48.5635 65.1699 49.426 65.3566C51.6891 65.8524 53.8489 65.327 56.0596 64.7948C55.8963 63.4228 55.7913 62.0773 55.5562 60.7563C55.4509 60.161 55.2287 59.3723 54.791 59.0917C54.0489 58.6196 53.1097 58.3226 52.2272 58.2237C49.1506 57.8813 47.0865 56.0913 45.3539 53.7061C43.9108 51.722 43.4317 49.6126 44.6102 47.4134C45.5405 45.6725 46.567 43.9324 47.8415 42.4445C49.4975 40.5083 51.8128 39.9354 54.3133 40.3788C55.6279 40.6147 56.9322 40.9627 58.2107 41.3514C58.8381 41.5418 59.4812 41.8427 59.9803 42.2633C61.6966 43.7045 62.6626 45.6055 63.1773 47.7772C63.8297 50.5326 61.774 56.2156 58.7207 57.7586C58.2611 57.9917 57.8389 58.2956 57.5705 58.4645C57.92 60.4622 58.2322 62.2707 58.5605 64.1326C59.2737 63.94 59.9572 63.7714 60.6283 63.5662C60.931 63.473 61.2244 63.338 61.4928 63.169C66.4481 60.0916 70.8197 56.3491 74.2291 51.5734C75.7699 49.4126 77.4074 47.2743 77.9956 44.5782C78.3001 43.1686 78.277 41.8578 77.7092 40.4347C76.3597 37.0744 73.5492 35.2476 70.7345 33.5006C66.3292 30.7628 61.7628 28.2842 57.309 25.6229C51.989 22.4422 49.6804 17.2321 48.1295 11.5563C47.9202 10.7867 48.1689 10.1922 48.9875 10.0026C49.7895 9.81662 50.2619 10.2343 50.4934 10.9859C50.7975 11.9671 50.9883 13.0084 51.4424 13.917C52.5471 16.1295 53.5249 18.4796 55.0179 20.4133C57.5549 23.6911 61.4298 25.3135 64.8432 27.4765C67.9563 29.4471 71.2379 31.1523 74.3885 33.075C76.3075 34.2478 77.9113 35.7534 79.0971 37.7594C80.8595 40.7345 81.3429 43.7729 79.7948 46.8697C78.6098 49.237 77.1782 51.4966 75.6943 53.6975C73.1228 57.5204 69.5475 60.3588 65.9963 63.1874C63.9087 64.8505 61.5788 66.1285 59.0053 66.6005C59.1937 70.1822 59.3778 67.8518 59.5708 71.5333C61.9769 70.7781 64.2094 70.2059 66.3351 69.3679C68.3645 68.5686 70.2931 67.5109 72.2458 66.5224C74.1985 65.5339 76.228 64.6557 78.0354 63.4449C81.0644 61.4159 84.0536 59.2466 86.2726 56.2999C88.5152 53.3216 90.5622 50.1892 92.6586 47.1029C94.2369 44.7759 95.7542 42.4097 97.302 40.0631C97.7368 39.4012 98.3214 38.9825 99.0875 39.4449C99.8944 39.9334 99.821 40.6691 99.3834 41.3974C99.2168 41.6711 99.045 41.9415 98.869 42.2129C96.348 46.0466 93.9153 49.9441 91.2763 53.6986C89.4443 56.301 87.7422 59.037 85.145 61.0233C82.5626 62.9975 80.0353 65.0428 77.3011 67.1997C77.9256 68.9787 78.6259 71.0217 79.3577 73.0489C80.1029 75.1171 81.0253 77.1373 81.6099 79.2497C82.7269 83.2974 83.314 87.4973 85.2335 91.3019C85.4064 91.6497 85.5048 92.0359 85.6296 92.4032C86.2334 94.1472 86.6408 95.9917 87.4764 97.6188C90.2574 103.049 93.1999 108.4 96.067 113.785C96.903 115.355 96.5991 116.273 94.8956 116.61C91.8779 117.206 88.8213 117.627 85.7758 118.098C84.9557 118.222 84.1177 118.245 83.4661 118.301C84.9235 120.252 86.3601 122.207 87.8411 124.125C88.0062 124.339 89.9838 126.152 89.0543 126.928C88.1249 127.704 85.2371 124.42 85.2807 124.301ZM47.985 46.3169C47.8521 46.5261 47.5368 46.859 47.4104 47.2554C47.0573 48.3467 46.2832 49.6275 46.5799 50.5358C47.2737 52.6679 48.6368 54.5074 50.915 55.3289C51.7733 55.635 52.7525 55.6775 53.5288 56.1069C54.6734 56.7402 55.6646 56.6001 56.7463 56.0585C59.3252 54.7606 60.3302 52.3892 60.7925 49.7955C61.3076 46.9269 59.3239 44.1761 56.5292 43.4687C55.7426 43.2696 54.9741 42.9744 54.1768 42.8654C53.4601 42.7649 52.7053 42.7694 51.9843 42.8672C50.0055 43.1245 49.0073 44.6172 47.985 46.3169ZM76.503 116.383C74.2418 114.492 71.6183 113.571 68.594 113.169C66.4525 112.888 64.3789 112.854 62.3546 113.736C60.7407 114.439 59.064 115.016 57.4737 115.766C56.6068 116.172 55.8514 116.826 54.8595 117.497C62.271 117.114 69.3849 116.749 76.503 116.383Z" fill="#4E2D12"/>
<path d="M48.7755 20.1561C49.014 20.8009 49.2975 21.3524 49.4227 21.9388C49.9877 24.5556 50.5369 27.1803 51.0269 29.8137C51.1729 30.5929 51.1004 31.4117 51.1621 32.2052C51.2229 32.955 51.2772 33.7151 51.4306 34.4488C51.5673 35.1073 51.5139 35.6762 50.8789 35.9657C50.1884 36.2805 49.467 36.0802 49.2096 35.3694C48.9086 34.541 48.6396 33.6003 48.7265 32.7476C48.9262 30.7252 48.2494 28.8876 47.8549 26.9832C47.4595 25.0747 47.1215 23.149 46.8445 21.2231C46.7997 20.9215 47.1535 20.4267 47.4552 20.2503C47.7612 20.0731 48.2262 20.1809 48.7755 20.1561Z" fill="#4E2D12"/>
<path d="M31.7859 47.0223C31.7268 46.5967 31.4808 46.0369 31.6207 45.6025C31.8468 44.9252 32.5179 44.7594 33.1892 44.9708C34.7105 45.4506 36.2161 45.9778 37.7342 46.4627C38.5944 46.7377 39.4568 47.0034 40.3346 47.1999C41.2082 47.3973 41.5078 48.0022 41.3451 48.7488C41.1773 49.5316 40.454 49.7572 39.7696 49.5662C38.1645 49.1225 36.59 48.5798 35.0053 48.0701C34.0179 47.7531 33.0287 47.4277 31.7859 47.0223Z" fill="#4E2D12"/>
<path d="M72.0584 44.8721C70.9712 45.4281 70.0247 46.0276 68.9931 46.4003C67.8976 46.8002 66.7286 47.0453 65.5745 47.2388C64.8997 47.3484 64.4622 46.8704 64.3819 46.1907C64.2998 45.5026 64.6655 45.1016 65.3153 44.8791C66.9448 44.3261 68.5734 43.7689 70.1867 43.1625C70.9249 42.8853 71.5807 42.8282 71.958 43.6266C72.117 43.9511 72.0308 44.3913 72.0584 44.8721Z" fill="#4E2D12"/>
<path d="M40.2004 39.6714C39.2224 38.8829 38.2348 38.1098 37.2749 37.3041C36.6906 36.8147 36.4928 36.1565 36.9974 35.5538C37.5052 34.9459 38.1378 34.9027 38.8313 35.4513C40.0295 36.4061 41.2799 37.3011 42.5286 38.1877C43.1971 38.6629 43.6203 39.2142 43.228 40.029C42.8927 40.726 42.1514 40.7713 41.2303 40.2203C40.9023 40.0208 40.5798 39.8069 40.2583 39.5972C40.2388 39.6278 40.2175 39.6501 40.2004 39.6714Z" fill="#4E2D12"/>
<path d="M63.0439 35.1513C62.5577 35.9167 62.091 36.691 61.5836 37.4391C61.1655 38.0579 60.5463 38.1815 59.9421 37.8193C59.3582 37.4701 59.2053 36.8372 59.5456 36.2619C60.3605 34.8887 61.1963 33.5109 62.1514 32.2384C62.3639 31.9546 63.1862 31.9001 63.6022 32.0627C64.2087 32.2971 64.37 32.9283 64.0426 33.5621C63.7546 34.117 63.4379 34.6607 63.1355 35.21C63.105 35.1905 63.0744 35.1709 63.0439 35.1513Z" fill="#4E2D12"/>
</g>
<defs>
<clipPath id="clip0_2_1943">
<rect width="93" height="125" fill="white" transform="translate(0 20.0613) rotate(-12.4574)"/>
</clipPath>
</defs>
</svg>
