<svg width="86" height="92" viewBox="0 0 86 92" fill="none" xmlns="http://www.w3.org/2000/svg">
<g clip-path="url(#clip0_2_1935)">
<path d="M21.0873 26.3286C20.151 24.6409 19.1495 23.0008 18.3104 21.2821C17.1918 18.9979 17.8766 17.3258 20.1782 16.1975C24.4619 14.1069 28.912 14.6457 33.3688 15.3408C33.6077 15.3798 33.834 15.4373 34.037 15.4733C34.2515 14.0049 34.4505 12.5908 34.6854 11.1796C34.9632 9.516 36.4335 8.20854 38.0612 8.58635C40.2404 9.0927 42.4701 9.73117 44.4354 10.7794C46.4968 11.8772 48.2597 13.5294 50.1675 14.9068C50.4723 15.1265 50.884 15.3327 51.2512 15.3348C52.5449 15.3375 53.8445 15.2683 55.1345 15.1817C56.6653 15.0757 57.6536 15.8883 58.4862 17.0388C62.5002 22.6455 64.8985 28.9884 67.1267 35.4371C68.1293 38.3574 69.5729 41.1245 70.5843 44.0399C72.0135 48.1415 73.1825 52.3304 74.5544 56.4523C75.0731 58.0057 75.8386 59.468 76.5118 60.97C76.9522 61.9493 76.8983 62.7797 76.1286 63.6184C75.4531 64.3591 74.8853 65.2116 74.3856 66.0835C72.5159 69.3508 69.4852 71.4324 66.737 73.8377C63.2687 76.8826 59.0253 78.3448 55.0107 80.3433C50.1024 82.7919 44.8742 84.0457 39.5442 85.0129C38.7845 85.1484 37.9978 85.1732 37.2314 85.1523C35.3666 85.0891 34.0159 84.489 32.9253 82.6468C28.2754 74.8427 23.3992 67.1871 18.6007 59.4655C16.0923 55.4594 13.579 51.4445 11.1182 47.4006C9.74131 45.1454 9.29583 42.8996 11.1892 40.6026C12.2574 39.3124 13.0985 37.8395 13.9909 36.418C14.1922 36.1005 14.2575 35.6412 14.2451 35.2478C14.1994 33.6607 14.0508 32.0735 14.0498 30.4845C14.0444 28.166 14.7617 27.2534 17.0474 26.7973C18.4054 26.5242 19.8041 26.4687 21.0873 26.3286ZM14.1776 45.9892C14.2892 46.1903 14.5153 46.6596 14.7938 47.0997C17.7175 51.7102 20.6802 56.2877 23.5777 60.9127C27.3787 66.9806 31.0874 73.0883 34.8971 79.1513C36.7088 82.0459 37.3847 82.2541 40.7293 81.4392C40.9197 81.3908 41.0955 81.3161 41.282 81.2812C45.8651 80.4311 50.2367 78.9321 54.429 76.9036C56.7355 75.7841 59.3487 75.1349 61.362 73.6519C65.6404 70.5007 70.148 67.4738 72.6607 62.5004C72.8795 62.0702 72.9275 61.4147 72.7695 60.9649C72.2904 59.6067 71.5773 58.3213 71.107 56.9583C69.3083 51.758 67.6554 46.5111 65.7906 41.3359C64.1237 36.7029 62.3421 32.1106 60.4421 27.5726C59.4896 25.2992 58.8102 22.8172 56.8522 20.9988C55.6149 22.4171 54.6251 24.0755 53.188 25.1129C48.7813 28.301 44.3349 31.4998 39.6449 34.2389C34.7761 37.0888 29.6579 39.5509 24.5368 41.946C21.2413 43.4884 17.7489 44.614 14.1776 45.9892ZM48.4148 19.024C48.5518 18.9824 48.6975 18.9358 48.8345 18.8941C47.3394 15.9726 44.1959 15.1092 41.8251 13.2682C42.2158 14.4466 42.6833 15.5367 43.1994 16.6112C43.5089 17.2515 43.8533 17.8723 44.2541 18.4505C44.9034 19.394 45.6789 20.256 46.298 21.2276C47.0181 22.3606 47.6157 23.5614 48.3337 24.8556C49.219 24.1014 50.0741 23.3754 50.9293 22.6494C50.8827 22.5037 50.8313 22.3492 50.7761 22.2083C49.6511 22.4893 48.3261 22.9043 47.9219 21.5161C47.7164 20.7953 48.2268 19.8602 48.4148 19.024ZM32.3346 24.9375C29.0368 23.8166 25.8477 22.7269 22.6499 21.6421C22.5566 21.7625 22.4633 21.8828 22.3699 22.0032C24.1144 23.6428 24.6937 26.1918 26.7393 27.7558C28.1537 25.6674 28.9551 25.5659 30.6355 27.0695C31.175 26.3928 31.7057 25.721 32.3346 24.9375ZM23.0487 38.872C23.8619 38.5237 24.609 38.2007 25.6505 37.7487C22.8815 35.8084 20.3115 34.0207 17.6261 32.1484C17.3991 34.9961 18.0622 37.0984 19.4815 38.358C21.0071 37.1914 21.5335 37.2539 23.0487 38.872ZM33.9963 33.5188C34.9232 33.0046 35.8306 32.5583 36.6711 32.012C37.0238 31.782 37.4213 31.3442 37.4808 30.9567C37.8874 28.2266 38.2038 25.4781 38.5882 22.4401C37.0991 24.3527 35.7412 26.0895 34.2987 27.9419C35.6991 28.3429 36.4698 29.0931 36.0252 30.3119C35.8326 30.8304 34.9873 31.265 34.3588 31.4308C33.7041 31.611 32.9485 31.4241 32.2084 31.3887C32.7791 32.067 33.3547 32.754 33.9963 33.5188ZM24.2543 18.6592C27.3715 19.6401 30.4722 20.653 33.609 21.5659C34.0576 21.6944 34.6455 21.3111 35.1632 21.1725C34.878 20.576 34.7397 19.6464 34.2736 19.4246C31.0974 17.9047 27.7075 18.0814 24.2543 18.6592ZM31.033 34.9798C27.7739 32.4652 25.0123 29.4458 20.4528 29.9055C23.0568 31.7544 25.6549 33.4692 28.0956 35.3744C29.2296 36.2434 29.9495 35.9126 31.033 34.9798ZM40.9396 29.2551C42.5923 28.3382 43.904 27.6105 45.3555 26.8052C44.4095 25.1 43.5363 23.526 42.4642 21.5935C41.9303 24.2797 41.4676 26.6407 40.9396 29.2551ZM37.9262 13.5787C37.8018 13.6019 37.6687 13.63 37.5444 13.6532C37.6212 15.2345 37.7115 16.8197 37.796 18.5798C40.0756 16.9377 40.0646 17.5156 38.8731 15.3062C38.5704 14.7193 38.2415 14.1471 37.9262 13.5787ZM17.2175 41.4094C16.7013 40.6437 16.3471 40.1083 15.8356 39.3514C15.2737 40.3379 14.8488 41.0768 14.2576 42.1138C15.4049 41.8318 16.1849 41.6507 17.2175 41.4094Z" fill="#5A3000"/>
<path d="M50.3141 59.654C45.2306 62.5086 39.9493 63.2543 34.3537 61.5785C32.9573 61.1639 31.9401 59.8871 32.0235 58.4914C32.3777 52.4511 34.9195 47.5302 39.8965 44.0714C42.3393 42.3731 45.1914 41.6599 48.1659 42.5484C50.8365 43.3426 53.5177 44.1765 56.0929 45.2523C57.9709 46.0401 58.4162 46.9252 57.8653 49.0035C57.0486 52.0868 56.2863 55.0828 53.6684 57.187C52.5907 58.0479 51.4335 58.8272 50.3141 59.654ZM51.7318 46.9971C48.9522 46.5836 46.5095 44.8397 43.6085 46.0832C44.0399 47.4792 45.6097 48.804 43.819 49.9461C41.7707 51.2426 41.507 48.8501 40.4605 47.9326C38.2505 50.0507 36.5008 52.3594 35.9306 55.7634C41.2735 52.7992 46.389 49.9612 51.7318 46.9971ZM53.9583 49.8559C48.3618 52.9607 43.0802 55.8909 37.58 58.9424C40.6821 59.154 43.4805 59.0653 45.9299 57.6263C46.1645 56.73 46.3759 55.6063 47.0017 55.2706C47.6011 54.9495 48.6343 55.4513 49.4773 55.5897C49.5112 55.7539 49.5451 55.918 49.579 56.0822C51.6302 54.6469 53.5931 53.1348 53.9583 49.8559Z" fill="#5A3000"/>
</g>
<defs>
<clipPath id="clip0_2_1935">
<rect width="56.44" height="73.5" fill="white" transform="translate(0 27.3807) rotate(-29.021)"/>
</clipPath>
</defs>
</svg>
