<svg width="40" height="44" viewBox="0 0 40 44" fill="none" xmlns="http://www.w3.org/2000/svg">
<g clip-path="url(#clip0_2_1927)">
<path d="M30.4225 13.9748C35.0024 22.7293 33.7839 29.2428 29.4506 35.4906C28.6099 36.7038 27.4838 37.3553 26.0701 37.548C20.3935 38.3416 15.5194 36.8225 11.5767 32.5494C6.52921 27.0843 5.25908 20.5057 6.71811 13.5484C7.60344 9.33716 10.4537 5.97654 14.7569 4.57397C17.5723 3.65205 20.4596 4.34337 22.7516 6.22001C26.0916 8.94546 29.3529 11.7577 30.4225 13.9748ZM12.1698 21.0846C13.1261 20.8395 13.7116 20.6206 14.3137 20.54C16.1111 20.3029 17.2518 20.8992 17.5984 22.1976C17.9456 23.5184 17.316 24.7671 15.8608 25.502C15.1664 25.8575 14.4295 26.1111 13.5387 26.48C15.4549 29.5504 17.8144 31.6403 21.1638 32.3928C24.0143 33.0357 25.9323 32.1921 27.0709 29.7018C28.2178 27.1845 28.2607 24.5041 28.1058 21.3852C26.8865 21.6675 26.0088 21.8258 25.1466 22.0777C23.3328 22.5836 21.9457 22.1629 21.4113 20.8731C20.8396 19.5126 21.6899 17.9324 23.4347 17.1463C24.1212 16.8402 24.8316 16.6006 25.803 16.2344C24.0458 14.471 22.581 12.9829 21.1079 11.5218C20.815 11.2242 20.4872 10.9676 20.1416 10.7204C17.4275 8.7727 15.4886 9.08452 13.5669 11.7623C13.2026 12.2715 12.7795 12.7551 12.4832 13.3075C11.2085 15.7113 11.0223 18.1847 12.1698 21.0846Z" fill="#4E2D12"/>
</g>
<defs>
<clipPath id="clip0_2_1927">
<rect width="26.07" height="34.94" fill="white" transform="translate(0 12.178) rotate(-27.848)"/>
</clipPath>
</defs>
</svg>
