<svg width="338" height="147" viewBox="0 0 338 147" fill="none" xmlns="http://www.w3.org/2000/svg">
<g clip-path="url(#clip0_2_1836)">
<path d="M203.027 115.821C203.412 116.109 203.788 116.323 204.088 116.619C205.419 117.94 206.743 119.269 208.033 120.627C208.417 121.028 208.683 121.534 209.027 121.978C209.35 122.395 209.666 122.82 210.04 123.19C210.374 123.525 210.559 123.879 210.296 124.291C210.007 124.738 209.506 124.897 209.086 124.579C208.591 124.207 208.077 123.758 207.804 123.227C207.151 121.963 206.053 121.144 205.093 120.179C204.134 119.209 203.199 118.213 202.302 117.183C202.163 117.022 202.179 116.6 202.293 116.376C202.397 116.162 202.717 116.045 203.027 115.821Z" fill="#4E2D12"/>
<path d="M128.264 106.99C128.541 107.102 128.97 107.148 129.181 107.387C129.515 107.762 129.375 108.23 129.016 108.56C128.195 109.319 127.349 110.049 126.519 110.801C126.053 111.229 125.586 111.661 125.159 112.124C124.732 112.586 124.262 112.554 123.866 112.2C123.45 111.824 123.566 111.309 123.919 110.958C124.749 110.137 125.63 109.368 126.494 108.581C127.037 108.091 127.58 107.606 128.264 106.99Z" fill="#4E2D12"/>
<path d="M238.942 31.6453C239.198 31.8083 239.606 31.9293 239.773 32.2019C240.031 32.6288 239.813 33.0668 239.395 33.3254C238.446 33.9192 213.692 48.5041 212.743 49.0931C212.207 49.4277 212.636 49.0878 212.128 49.4655C211.625 49.8438 211.167 49.7256 210.845 49.3043C210.507 48.8611 210.712 48.3725 211.129 48.0893C212.097 47.4346 212.138 47.5187 213.134 46.907C213.746 46.5243 238.16 32.126 238.942 31.6453Z" fill="#4E2D12"/>
<path d="M111.703 110.18C112.342 109.606 122.021 104.26 122.651 103.816C123.324 103.345 124.067 102.966 124.814 102.622C125.254 102.42 125.635 102.664 125.817 103.11C125.998 103.56 125.823 103.897 125.423 104.168C124.419 104.842 114.266 110.287 113.287 110.989C112.835 111.311 112.402 111.469 111.998 111.002C111.835 110.809 111.81 110.497 111.703 110.18Z" fill="#4E2D12"/>
<path d="M214.327 53.9646C215.182 53.758 275.268 37.1622 276.127 36.9706C276.647 36.8535 277.098 37.0243 277.217 37.5637C277.337 38.103 277.093 38.4788 276.49 38.6283C275.446 38.8865 215.181 55.5742 214.153 55.8885C213.607 56.0556 213.118 56.0551 212.83 55.4921C212.585 55.0084 212.881 54.5764 213.58 54.2989C213.829 54.2021 214.085 54.1161 214.342 54.0254C214.336 54.0049 214.333 53.9851 214.327 53.9646Z" fill="#4E2D12"/>
<path d="M148.148 32.6611C147.86 32.0981 142.288 19.9216 142.017 19.3463C141.794 18.8755 141.937 18.4561 142.371 18.2194C142.79 17.9903 143.225 18.1249 143.451 18.5376C143.987 19.5213 149.793 32.131 150.22 33.1628C150.315 33.391 150.055 33.9112 149.809 34.101C149.451 34.3827 149.014 34.2576 148.746 33.8341C148.515 33.4598 148.299 33.0779 148.074 32.6995C148.101 32.6837 148.122 32.6721 148.148 32.6611Z" fill="#4E2D12"/>
<path d="M252.794 129.71C252.266 129.362 211.23 106.37 210.709 106.009C210.281 105.709 210.201 105.273 210.461 104.851C210.709 104.446 211.154 104.343 211.554 104.595C212.508 105.183 253.957 128.433 254.838 129.119C255.032 129.273 255.063 129.849 254.949 130.14C254.777 130.561 254.336 130.669 253.895 130.431C253.509 130.221 253.13 129.997 252.75 129.777C252.768 129.755 252.781 129.733 252.794 129.71Z" fill="#4E2D12"/>
<path d="M71.1566 8.01338C71.5872 8.22051 71.9971 8.36614 72.3456 8.60076C73.8999 9.64977 124.939 45.6227 126.462 46.7162C126.911 47.0382 127.273 47.4895 127.69 47.8608C128.086 48.2096 128.476 48.5672 128.914 48.8632C129.302 49.1278 129.551 49.4413 129.369 49.8991C129.168 50.3931 128.707 50.6408 128.236 50.4084C127.683 50.1352 127.09 49.7929 126.721 49.3211C125.838 48.1957 75.1162 12.6824 73.9967 11.9144C72.8731 11.1409 71.7686 10.3359 70.6942 9.49122C70.5268 9.36022 70.4642 8.93636 70.5315 8.7017C70.5988 8.46703 70.8922 8.29352 71.1566 8.01338Z" fill="#4E2D12"/>
<path d="M332.72 74.4191C332.852 74.6917 333.135 75.0099 333.135 75.3272C333.133 75.825 332.715 76.0835 332.221 76.0871C331.099 76.1 221.753 76.9394 220.633 76.9427C220.001 76.9465 219.364 76.9545 218.735 77.0123C218.106 77.0702 217.777 76.7309 217.724 76.201C217.67 75.6465 218.1 75.336 218.602 75.314C219.769 75.2634 220.94 75.2819 222.11 75.2757C222.843 75.2813 331.8 74.4166 332.72 74.4191Z" fill="#4E2D12"/>
<path d="M4.59491 69.4394C5.44394 69.3148 117 71.57 117.769 71.5564C118.588 71.5399 119.421 71.6376 120.233 71.7716C120.707 71.848 120.893 72.2648 120.792 72.7341C120.691 73.2082 120.358 73.3906 119.878 73.3915C118.671 73.3874 6.66602 70.9518 5.45723 70.9915C4.9018 71.011 4.45293 70.8989 4.38241 70.2884C4.35445 70.0354 4.51001 69.7644 4.59491 69.4394Z" fill="#4E2D12"/>
<path d="M132.654 45.4007C132.269 45.1121 131.893 44.898 131.598 44.5977C130.273 43.2734 128.954 41.9402 127.664 40.5816C127.28 40.1809 127.014 39.6699 126.676 39.2267C126.358 38.8108 126.036 38.3846 125.668 38.0106C125.339 37.6761 125.149 37.3222 125.417 36.9107C125.705 36.463 126.206 36.309 126.626 36.6269C127.117 36.9987 127.631 37.4471 127.907 37.9841C128.556 39.2473 129.653 40.0708 130.612 41.0408C131.571 42.0109 132.5 43.0158 133.392 44.0448C133.531 44.2059 133.511 44.6279 133.401 44.8517C133.289 45.0604 132.969 45.1765 132.654 45.4007Z" fill="#4E2D12"/>
<path d="M136.175 41.17C135.761 40.3939 135.341 39.6219 134.943 38.8383C134.701 38.3648 134.759 37.8847 135.248 37.6411C135.743 37.3934 136.167 37.541 136.457 38.0848C136.965 39.0303 137.525 39.9539 138.081 40.8672C138.378 41.3583 138.498 41.8292 138.019 42.2452C137.607 42.5973 137.118 42.4211 136.676 41.8119C136.521 41.5947 136.372 41.3638 136.222 41.1426C136.207 41.1501 136.191 41.1576 136.175 41.17Z" fill="#4E2D12"/>
<path d="M207.178 57.1765C206.3 55.6368 205.502 54.0401 204.483 52.5976C202.635 49.9839 200.468 47.623 198.194 45.369C195.906 43.0986 193.379 41.146 190.496 39.6363C189.004 39.1137 187.522 38.5583 186.015 38.0727C185.15 37.7945 184.231 37.6847 183.371 37.4024C181.696 36.8589 180.053 36.232 178.388 35.6605C176.461 34.9985 174.5 34.4049 172.457 34.2929C170.636 34.1976 168.806 34.2377 166.979 34.2586C165.377 34.2723 163.777 34.3838 162.248 34.9253C159.798 35.7912 157.347 36.6618 154.897 37.5277C153.605 37.9853 152.343 38.5742 151.019 38.8808C148.632 39.4334 146.521 40.3958 144.794 42.1691C142.775 43.7892 143.928 40.8119 143.928 40.8119C145.707 39.0166 147.869 38.0124 150.304 37.4276C151.564 37.1266 152.775 36.6233 154.001 36.1808C155.99 35.4648 157.968 34.718 159.962 34.0027C160.863 33.6805 161.763 33.2994 162.7 33.1432C164.237 32.8862 165.801 32.6913 167.357 32.6517C169.374 32.5989 171.411 32.6173 173.419 32.8073C174.862 32.9471 176.284 33.372 177.692 33.7607C179.104 34.15 180.487 34.6475 181.878 35.1169C182.766 35.4128 183.639 35.7751 184.535 36.0478C185.651 36.3857 186.803 36.6114 187.907 36.9719C189.019 37.3385 190.092 37.8167 191.18 38.2484C194.87 40.0766 197.964 42.6561 200.7 45.6683C202.36 47.4939 203.995 49.3552 205.495 51.3144C206.515 52.6495 207.3 54.1614 208.151 55.6192C208.794 59.113 207.178 57.1765 207.178 57.1765ZM212.766 64.8385C213.974 68.0996 214.572 71.4991 214.895 74.9675C215.101 77.1889 215.105 79.4113 215.04 81.6139C214.982 83.5198 214.728 85.4568 214.138 87.3219C213.761 88.5042 213.628 89.7599 213.308 90.9599C212.935 92.3575 211.104 92.8565 211.648 90.9703C212.019 89.6943 212.173 88.3538 212.548 87.0785C213.147 85.0192 213.379 82.9181 213.482 80.7988C213.517 80.1006 213.434 79.4005 213.435 78.6975C213.435 78.1799 213.534 77.6518 213.489 77.1377C213.323 75.4004 213.122 73.6632 212.936 71.928C212.755 70.2618 212.189 68.688 211.796 67.0701C211.796 67.0701 210.593 62.384 212.766 64.8385ZM131.43 104.613C130.289 103.203 129.487 101.605 128.754 99.964C128.271 98.8851 127.865 97.7684 127.408 96.6786C127.242 96.2891 127.026 95.9168 126.814 95.5452C125.798 93.7273 125.121 91.8008 124.78 89.7411C124.663 89.041 124.296 88.3839 124.014 87.7142C123.42 86.3073 123.187 84.8341 123.19 83.3208C123.187 80.7715 123.179 78.2216 123.24 75.6716C123.278 74.0851 123.38 72.493 123.591 70.9212C123.691 70.1784 124.193 69.4972 124.39 68.7583C124.699 67.6055 124.9 66.4229 125.148 65.2518C125.245 64.8064 125.264 64.3209 125.448 63.9171C126.117 62.4342 126.646 60.829 127.592 59.5316C129.521 56.8784 131.02 53.9792 132.795 51.2409C133.039 50.8651 133.435 50.584 133.764 50.2641C134.648 49.4023 135.532 48.5453 136.421 47.6842C138.261 45.9072 137.582 48.7804 137.582 48.7804C136.722 49.5772 135.913 50.4252 135.074 51.2445C134.75 51.5603 134.333 51.814 134.091 52.1803C133.356 53.2975 132.698 54.4645 131.994 55.6057C131.233 56.8413 130.468 58.0714 129.698 59.3009C129.137 60.1983 128.543 61.0767 128.013 61.9932C127.755 62.4402 127.614 62.9526 127.438 63.4405C127.18 64.1562 126.833 64.8543 126.714 65.5944C126.443 67.2702 126.209 68.9364 125.364 70.4532C125.181 70.779 125.127 71.1962 125.083 71.5806C124.671 75.3067 124.813 79.0571 124.761 82.7949C124.737 84.525 125.014 86.2047 125.759 87.7939C126.017 88.3528 126.272 88.9405 126.368 89.5448C126.655 91.3578 127.263 93.0498 128.128 94.656C128.434 95.2264 128.812 95.768 129.066 96.3652C129.474 97.3212 129.758 98.3279 130.187 99.277C130.884 100.821 131.622 102.35 132.713 103.671C133.067 106.538 131.43 104.613 131.43 104.613ZM138.657 110.675C139.816 111.678 140.975 112.686 142.13 113.694C142.636 114.131 143.093 114.635 143.647 115.006C145.194 116.039 146.777 117.019 148.343 118.021C149.21 118.573 150.032 119.226 150.961 119.649C151.994 120.122 153.106 120.425 154.207 120.732C155.177 121 156.163 121.29 157.156 121.362C158.734 121.481 160.287 121.603 161.818 122.053C165.162 123.031 168.573 123.575 172.077 123.493C173.481 123.456 174.833 123.197 176.167 122.789C176.98 122.538 177.777 122.225 178.605 122.044C180.165 121.702 181.643 121.139 183.066 120.441C184.185 119.895 185.322 119.43 186.558 119.194C187.483 119.017 188.401 118.751 189.296 118.442C190.807 117.923 192.084 116.979 193.381 116.073C194.129 115.554 194.944 115.117 195.624 114.524C197.675 112.738 202.235 107.799 204.24 105.962C204.24 105.962 206.213 104.624 205.806 106.72C204.404 108.021 200.459 112.422 199.028 113.69C197.916 114.671 196.793 115.636 195.615 116.53C194.651 117.263 193.604 117.892 192.582 118.549C191.216 119.426 189.764 120.149 188.169 120.466C186.428 120.812 184.792 121.382 183.175 122.136C181.662 122.841 180.004 123.257 178.396 123.738C176.91 124.183 175.423 124.701 173.9 124.926C171.682 125.253 169.441 125.123 167.205 124.813C165.046 124.514 162.936 124.041 160.854 123.44C159.689 123.105 158.505 122.968 157.301 122.969C156.014 122.973 154.799 122.607 153.593 122.212C151.932 121.676 150.215 121.263 148.746 120.265C147.764 119.599 146.821 118.866 145.832 118.209C144.87 117.571 143.859 117.008 142.897 116.375C142.417 116.063 141.977 115.684 141.546 115.306C140.217 114.147 138.906 112.966 137.572 111.816C137.1 109.538 138.657 110.675 138.657 110.675Z" fill="#4E2D12"/>
<path d="M180.098 76.8537C180.776 77.7695 181.161 78.7515 181.295 79.8542C181.371 80.49 181.271 81.1009 180.782 81.5154C179.147 82.9112 177.371 84.1649 175.251 84.5987C172.708 85.1194 170.099 85.4112 167.513 84.9151C165.889 84.6034 164.499 83.6703 163.197 82.6715C161.52 81.3806 159.868 80.0589 158.209 78.7462C157.698 78.3422 157.632 77.7324 157.842 77.1125C158.407 75.4587 159.828 74.7458 161.145 73.8375C163.437 72.2511 165.957 71.3072 168.686 71.0324C170.765 70.8223 172.717 71.4391 174.488 72.5821C175.538 73.2572 176.66 73.8352 177.65 74.5849C178.539 75.2474 179.286 76.0899 180.098 76.8537ZM179.528 79.166C178.73 76.988 173.199 72.9132 170.841 72.8154C170.825 73.1061 170.808 73.3967 170.787 73.6819C170.747 74.1743 170.486 74.5037 169.98 74.4861C169.513 74.4691 169.26 74.1454 169.242 73.6839C169.225 73.3154 169.248 72.9426 169.256 72.5727C166.351 72.4663 160.229 75.4809 159.534 77.3557C160.46 77.3445 161.377 77.293 162.292 77.3243C164.868 77.4087 167.439 77.5266 170.015 77.6357C170.905 77.6731 171.813 77.6155 172.686 77.7726C174.971 78.1871 177.246 78.6981 179.528 79.166ZM179.077 80.8065C178.68 80.6725 178.37 80.5506 178.054 80.4671C177.227 80.2579 176.405 80.0152 175.564 79.8772C173.905 79.6045 172.242 79.1895 170.578 79.1945C167.839 79.1992 165.116 79.221 162.392 78.8764C161.916 78.8143 161.43 78.863 160.946 78.8583C163.132 80.5969 165.109 82.5745 167.902 83.4367C167.891 82.8931 167.873 82.4268 167.87 81.9625C167.868 81.4592 168.107 81.1169 168.624 81.1262C169.112 81.1363 169.395 81.4497 169.422 81.9516C169.448 82.463 169.474 82.9745 169.497 83.4661C172.151 84.1084 177.044 82.7712 179.077 80.8065Z" fill="#4E2D12"/>
<path d="M172.423 39.7764C172.916 39.4015 173.532 39.5761 173.648 40.0758C173.728 40.4388 173.717 40.8327 173.679 41.2034C173.541 42.5364 171.242 64.7225 171.093 66.0589C171.048 66.4823 171.047 66.9069 171.002 67.3303C170.947 67.8255 170.658 68.107 170.154 68.0751C169.62 68.0438 169.422 67.6838 169.471 67.1928C169.663 65.169 171.986 42.2881 172.197 40.2671C172.216 40.0646 172.375 39.8722 172.423 39.7764Z" fill="#4E2D12"/>
<path d="M167.667 89.4485C168.16 89.0736 168.776 89.2483 168.891 89.7479C168.972 90.1109 168.961 90.5048 168.923 90.8755C168.785 92.2085 166.657 112.973 166.508 114.31C166.463 114.733 166.462 115.158 166.417 115.581C166.362 116.076 166.073 116.358 165.569 116.326C165.035 116.295 164.836 115.935 164.886 115.444C165.078 113.42 167.23 91.9602 167.441 89.9392C167.461 89.732 167.619 89.5443 167.667 89.4485Z" fill="#4E2D12"/>
<path d="M207.719 84.9041C206.477 84.6608 186.516 82.3329 185.347 82.0559C185.238 82.0308 185.119 81.5598 185.191 81.36C185.271 81.137 185.575 80.8185 185.76 80.8298C186.795 80.9121 206.609 83.1657 207.627 83.3725C207.827 83.4105 208.028 83.8245 208.073 84.0898C208.108 84.2949 207.893 84.538 207.719 84.9041Z" fill="#4E2D12"/>
<path d="M153.444 77.5332C152.205 77.2707 132.317 74.533 131.155 74.2376C131.047 74.2077 130.937 73.7381 131.009 73.5383C131.094 73.3159 131.402 73.0029 131.586 73.019C132.618 73.1204 152.361 75.779 153.376 76.0002C153.576 76.0429 153.772 76.4563 153.813 76.7208C153.847 76.9307 153.623 77.1677 153.444 77.5332Z" fill="#4E2D12"/>
<path d="M175.39 88.7834C175.303 88.6783 175.209 88.582 175.131 88.4734C174.849 88.0773 174.797 87.65 175.189 87.3341C175.576 87.0175 175.984 87.1385 176.318 87.5079C176.72 87.9551 183.667 96.1405 184.063 96.5918C184.468 97.0493 184.503 97.6353 184.123 97.904C183.641 98.2365 183.247 98.0443 182.9 97.6292C182.586 97.2529 175.71 89.1555 175.374 88.7957C175.38 88.7916 175.385 88.7875 175.39 88.7834Z" fill="#4E2D12"/>
<path d="M178.375 71.4108C177.945 71.7213 177.56 71.8868 177.171 71.4218C176.814 71.0005 176.967 70.646 177.298 70.307C177.658 69.9425 185.796 63.9697 186.155 63.6101C186.52 63.2415 186.954 63.1464 187.351 63.4856C187.784 63.8493 187.653 64.2995 187.318 64.6625C186.947 65.0741 178.744 71.0478 178.375 71.4108Z" fill="#4E2D12"/>
<path d="M152.318 94.0348C151.939 94.2939 151.721 94.5562 151.495 94.5682C151.184 94.5879 150.756 94.5032 150.574 94.297C150.432 94.1304 150.461 93.612 150.624 93.425C151.01 92.9717 159.024 85.2136 159.532 84.9091C159.766 84.7713 160.235 84.8128 160.482 84.9649C160.857 85.1885 160.851 85.6125 160.558 85.957C160.3 86.2576 152.467 93.88 152.318 94.0348Z" fill="#4E2D12"/>
<path d="M154.496 61.5534C154.36 61.3731 154.135 61.2046 154.112 61.0159C154.073 60.7028 154.063 60.2911 154.236 60.0713C154.492 59.7461 154.926 59.7535 155.242 60.0812C155.613 60.4655 161.822 69.4113 162.081 69.8629C162.219 70.102 162.19 70.6156 162.018 70.7964C161.845 70.982 161.349 71.0294 161.086 70.919C160.763 70.7856 154.727 61.8593 154.461 61.5972C154.468 61.5787 154.48 61.5657 154.496 61.5534Z" fill="#4E2D12"/>
</g>
<defs>
<clipPath id="clip0_2_1836">
<rect width="326.266" height="102.263" fill="white" transform="translate(14.2627) rotate(8.01718)"/>
</clipPath>
</defs>
</svg>
