<svg width="105" height="44" viewBox="0 0 105 44" fill="none" xmlns="http://www.w3.org/2000/svg">
<g clip-path="url(#clip0_2_1941)">
<path d="M41.8599 10.5101C42.1499 7.67005 43.0799 4.67005 44.5799 1.81005C45.3399 0.360055 46.5199 -0.109945 47.8899 0.0200548C51.4099 0.350055 54.5199 1.60005 57.4499 3.75005C60.3499 5.88005 62.4499 8.45005 63.8999 11.7501C64.7399 11.2201 65.4199 10.7801 66.1099 10.3601C67.7199 9.37005 69.1899 9.49005 70.5099 10.8601C71.9399 12.3401 73.2799 13.9201 74.7099 15.5201C75.0999 14.8101 75.5399 13.9901 76.0099 13.1701C77.5699 10.4201 79.5099 9.84005 82.2699 11.4201C85.9299 13.5101 89.3399 16.6801 90.9099 22.4801C94.4499 22.7401 97.1299 24.5901 99.4599 27.0801C101.47 29.2201 103.57 31.2601 104.42 34.2501C105.49 37.9901 105.06 39.3701 101.74 41.3301C96.9999 44.1401 92.3499 44.1401 87.7599 40.9201C87.5099 40.7401 86.7799 40.9001 86.5099 41.1501C84.6499 42.8901 83.6799 43.0601 81.5299 41.7001C79.6399 40.5101 77.7999 39.2401 75.8099 37.9201C70.6199 41.5101 64.6299 41.7701 58.2999 39.9701C57.6899 42.0701 56.0899 42.8901 54.1399 43.2501C48.0999 44.3701 42.1199 44.1901 36.2699 42.2401C34.0599 41.5001 32.3499 40.0101 31.1899 38.2001C29.2899 39.2901 27.5099 40.5301 25.5499 41.3501C23.9399 42.0301 22.1499 42.4101 20.4099 42.5701C18.1399 42.7801 17.5699 42.2201 16.9199 40.0001C16.8399 39.7301 16.7899 39.4501 16.6799 39.0101C16.1299 39.2601 15.6699 39.4901 15.1899 39.6701C10.6999 41.3501 6.42992 41.0201 2.35992 38.3601C-0.230084 36.6701 -0.580084 35.6501 0.779916 32.8301C0.969916 32.4401 1.14992 32.0401 1.29992 31.6301C4.04992 24.5101 9.58992 21.2801 16.8599 20.6201C18.2699 20.4901 19.1099 20.0701 19.7299 18.8101C21.3799 15.4601 24.3799 13.6201 27.5699 11.9901C29.9399 10.7801 30.6799 10.8801 32.2899 12.4701C35.5399 11.8201 38.6099 11.1801 41.8599 10.5101ZM33.4799 24.2801C33.1199 21.3401 32.6099 18.3801 30.5799 15.8501C26.4499 22.9401 25.3599 30.7601 23.5799 38.5101C24.1099 38.2701 24.5099 38.1001 24.8999 37.9101C25.7199 37.5001 26.5599 37.1301 27.3499 36.6601C28.9999 35.6801 29.2399 34.8501 28.5099 33.0001C28.3499 32.6001 28.1899 32.1901 28.0299 31.7901C27.0399 29.4001 27.5699 27.6501 29.7899 26.2601C30.8999 25.5601 32.1299 25.0001 33.4799 24.2801ZM37.1499 23.9801C38.2499 24.0401 39.3499 24.1401 40.4599 24.1501C40.7899 24.1501 41.3199 24.0101 41.4299 23.7701C42.8599 20.8401 44.2999 17.9201 46.9499 15.7901C46.9199 15.6101 46.8899 15.4301 46.8599 15.2501C45.3499 14.8801 43.8499 14.5201 42.3299 14.1501C42.0999 15.3401 41.9999 16.1501 41.7899 16.9401C41.4899 18.0801 40.6599 18.5001 39.5799 18.2201C38.5399 17.9601 38.3299 17.1201 38.4899 16.1601C38.5799 15.6201 38.6999 15.0901 38.8999 14.1401C37.2099 14.7201 35.8899 15.1801 34.8499 15.5301C35.6499 18.4801 36.3899 21.1901 37.1499 23.9801ZM40.4099 39.9201C44.6099 40.43 48.5899 40.9701 52.8299 39.9801C45.5799 37.1001 38.5999 34.3201 31.4799 31.4901C32.8999 34.0701 33.6299 37.1101 36.5899 38.6201C37.8599 37.8601 38.5299 35.7201 40.4399 36.9301C41.6799 37.7001 41.1999 38.8301 40.4099 39.9201ZM84.9499 37.5001C87.3499 34.3901 88.5899 30.9601 87.9199 26.9501C86.5999 26.8101 84.8499 27.1901 84.6999 25.3001C84.5499 23.4901 86.1499 23.4701 87.5199 23.3801C86.8699 20.0301 85.0599 17.5801 82.3099 15.5401C83.1999 22.9501 84.0699 30.1601 84.9499 37.5001ZM43.4499 28.4501C40.1499 26.8801 36.9299 27.4901 33.6699 28.0901C39.8199 31.6801 46.4799 33.8701 53.2199 36.2701C52.1699 32.7401 49.9399 30.7701 46.6299 29.8001C46.1599 30.9201 45.5499 31.9501 44.1599 31.3901C42.8099 30.8501 42.9499 29.7301 43.4499 28.4501ZM74.0999 30.3301C71.6499 28.1001 69.2199 26.1201 65.7099 26.5901C65.6299 27.7901 65.4899 28.9001 64.1099 29.0801C62.6299 29.2701 62.3699 28.0801 61.9199 26.6701C59.2699 27.9801 56.7599 29.2201 54.2499 30.4601C54.2399 30.6501 54.2299 30.8501 54.2199 31.0401C54.7599 31.3201 55.3099 31.8701 55.8299 31.8301C59.2499 31.6201 62.6499 31.2801 66.0599 30.9901C68.7499 30.7601 71.4199 30.5501 74.0999 30.3301ZM80.8599 37.5001C81.0799 37.4101 81.2999 37.3301 81.5199 37.2401C80.6399 30.0801 79.7699 22.9101 78.8899 15.7501C78.7299 15.7401 78.5699 15.7401 78.4099 15.7301C77.3299 18.5601 75.2299 21.0101 75.1899 23.7501C76.4099 24.4101 77.5599 24.6901 77.9999 25.4001C78.3099 25.9001 77.6499 27.0001 77.3599 28.0601C77.4899 28.1701 77.9599 28.5001 78.3699 28.8901C79.8299 30.2601 80.1799 32.2501 79.0299 33.8501C78.4699 34.6301 78.6099 35.1901 79.0499 35.7501C79.5799 36.3901 80.2499 36.9201 80.8599 37.5001ZM54.4699 14.8601C51.1099 16.6601 48.2799 18.4201 46.4899 21.6201C47.1699 21.7101 47.5999 21.7401 48.0299 21.8201C49.1199 22.0301 49.8599 22.6401 49.6499 23.8101C49.4399 24.9701 48.5499 25.3301 47.4499 25.1401C46.7499 25.0201 46.0599 24.7901 45.3599 24.6801C45.0899 24.6401 44.7899 24.7801 44.1099 24.9301C46.3099 25.8701 48.0699 26.6101 49.9999 27.4301C51.4699 23.3201 52.9099 19.2601 54.4699 14.8601ZM19.7099 37.7601C19.8699 37.7801 20.0299 37.8001 20.1999 37.8101C21.9399 30.8301 22.8399 23.6101 25.9899 17.0101C23.0299 19.0001 21.6299 21.9801 20.5399 24.9901C21.0699 25.7701 21.8099 26.6701 21.6399 27.3601C21.4799 28.0201 20.3899 28.4601 19.7199 29.0001C19.5199 28.9101 19.3199 28.8201 19.1099 28.7301C19.3199 31.7601 19.5199 34.7601 19.7099 37.7601ZM66.9299 37.1401C66.8999 37.2601 66.8699 37.3801 66.8299 37.5101C71.1999 37.0901 73.8299 35.8001 74.6199 33.7101C68.6499 34.1601 62.6799 34.6201 56.5899 35.0801C57.1599 36.1801 60.4499 37.2601 62.8599 37.2401C63.4699 36.5901 64.1699 35.6601 64.8599 35.6701C65.5599 35.6701 66.2399 36.6101 66.9299 37.1401ZM4.60992 32.8701C8.30992 31.2401 11.7799 29.7301 15.2199 28.1801C15.5299 28.0401 15.8899 27.7401 15.9899 27.4301C16.3499 26.3501 16.6099 25.2401 16.9699 23.8901C15.4999 24.1601 14.1899 24.4101 12.8199 24.6601C13.8699 26.7601 13.8499 27.6101 12.7499 28.1601C11.0099 29.0301 10.5299 27.5401 9.87992 26.4801C7.37992 27.4601 5.96992 29.1301 4.60992 32.8701ZM100.25 38.2001C100.26 38.0401 100.28 37.8801 100.29 37.7201C97.0399 36.6501 93.7899 35.5901 90.5299 34.5201C89.0699 37.7101 89.0699 37.7101 89.9099 38.2401C90.9699 37.8001 91.9899 37.0001 92.4899 37.2401C93.2699 37.6201 93.6899 38.7201 94.2599 39.5201C94.1599 39.6601 94.0699 39.7901 93.9699 39.9301C96.2799 40.1801 98.3599 39.5401 100.25 38.2001ZM59.6499 10.9301C59.5499 11.0401 59.4499 11.1401 59.3399 11.2501C58.5799 11.0301 57.4899 11.0301 57.1599 10.5301C56.7499 9.91005 56.9799 8.87005 56.9299 8.00005C57.0699 7.94005 57.2099 7.88005 57.3499 7.83005C55.3899 6.55005 53.4199 5.27005 51.4599 3.99005C51.3299 4.13005 51.1999 4.26006 51.0699 4.40005C51.9699 6.06005 52.8699 7.73005 53.7799 9.38005C54.3199 10.3601 54.6799 11.4501 56.2699 11.2401C56.8499 11.1601 57.6399 11.8801 58.1799 12.4001C59.0899 13.2701 59.8899 14.2801 60.7999 15.3101C61.0499 14.9601 61.3199 14.5901 61.5299 14.3101C60.8599 13.1001 60.2599 12.0101 59.6499 10.9301ZM47.2399 4.39005C47.1099 4.37005 46.9699 4.35006 46.8399 4.32006C46.3399 6.26006 45.8199 8.19005 45.3799 10.1401C45.3099 10.4601 45.5399 11.0401 45.7999 11.2001C47.1399 12.0001 48.5499 12.7101 49.9999 13.4801C51.6299 12.5301 51.6099 12.5401 50.6999 10.8701C49.5299 8.73005 48.3899 6.56005 47.2399 4.39005ZM96.1299 28.3501C95.7999 28.8601 95.6399 29.4101 95.3099 29.5301C94.6199 29.7901 93.6599 30.1401 93.1699 29.8501C92.6999 29.5801 92.4299 28.4801 92.5399 27.8301C92.8299 26.0401 92.8999 26.0101 91.4299 26.2601C91.4299 27.5501 91.3699 28.8601 91.4699 30.1501C91.4999 30.5401 91.8799 31.1101 92.2399 31.2501C94.9999 32.3001 97.7899 33.2601 100.57 34.2501C100.68 34.1301 100.79 34.0001 100.91 33.8801C99.3199 32.0501 97.7499 30.2301 96.1299 28.3501ZM5.34992 36.2001C7.99992 37.3901 10.0799 37.6501 12.2299 37.1201C12.6299 37.0201 13.2899 36.6301 13.2799 36.4001C13.2199 34.4801 14.2799 33.9901 15.8399 34.2201C15.8399 33.3901 15.8399 32.6501 15.8399 31.8201C12.3699 33.2601 9.03992 34.6501 5.34992 36.2001ZM62.0799 18.7901C62.2299 20.3101 62.3799 21.8201 62.5299 23.4201C63.6299 23.3001 64.7499 23.1801 65.7999 23.0701C65.7999 20.3201 65.7999 17.6901 65.7999 14.6801C64.3799 16.2501 63.1999 17.5501 62.0799 18.7901ZM53.8599 26.8301C55.1599 26.1201 56.2299 25.3601 57.4199 24.9501C58.5999 24.5401 58.9399 23.7601 59.0099 22.6901C59.1499 20.6301 58.3699 18.8301 57.3999 16.8901C57.1299 17.5601 56.9199 18.0401 56.7499 18.5301C55.7999 21.2401 54.8599 23.9501 53.8599 26.8301ZM71.9799 24.4601C71.1599 22.3801 73.1699 20.9501 72.1599 19.0101C71.3599 17.4601 70.8799 15.7701 69.2699 14.4301C69.2699 17.5901 69.2699 20.4701 69.2699 23.3301C70.0699 23.6601 70.8199 23.9801 71.9799 24.4601Z" fill="#5A3000"/>
</g>
<defs>
<clipPath id="clip0_2_1941">
<rect width="104.94" height="43.94" fill="white"/>
</clipPath>
</defs>
</svg>
