<svg width="74" height="86" viewBox="0 0 74 86" fill="none" xmlns="http://www.w3.org/2000/svg">
<g clip-path="url(#clip0_2_1931)">
<path d="M34.7045 13.8378C35.197 11.9717 35.6096 10.0949 36.1938 8.27366C36.9677 5.85094 38.6194 5.1182 41.0614 5.89721C45.6 7.3537 48.4386 10.823 51.1738 14.4098C51.3193 14.6033 51.4428 14.8014 51.5643 14.9679C52.7357 14.0567 53.8581 13.1739 55.0045 12.3181C56.3566 11.3098 58.3227 11.384 59.2358 12.7834C60.4581 14.6574 61.6252 16.6616 62.3179 18.7785C63.0457 20.9977 63.1742 23.4104 63.5975 25.725C63.6655 26.0946 63.8199 26.5284 64.0833 26.7841C65.0151 27.6816 66.0009 28.5313 66.9918 29.3617C68.1699 30.3449 68.3207 31.6155 68.1252 33.0221C67.1409 39.8469 64.4809 46.0847 61.6251 52.281C60.3271 55.0825 59.4535 58.0788 58.1653 60.8829C56.3575 64.8323 54.3014 68.6645 52.4382 72.5889C51.7373 74.0691 51.2775 75.6542 50.7236 77.2042C50.3635 78.2158 49.7498 78.7778 48.6137 78.8502C47.6135 78.9172 46.6136 79.1394 45.6494 79.4227C42.0384 80.4864 38.4103 79.8907 34.762 79.7242C30.1512 79.5208 26.0766 77.6386 21.796 76.3019C16.5587 74.6713 11.9177 71.9571 7.40164 68.9655C6.75962 68.5375 6.17467 68.0107 5.63605 67.4652C4.33403 66.1287 3.77464 64.7606 4.26276 62.6762C6.30928 53.8254 8.08963 44.925 9.97177 36.0308C10.9346 31.4033 11.9 26.7661 12.9234 22.1443C13.4908 19.5636 14.7239 17.6345 17.6804 17.2875C19.3444 17.0958 20.971 16.615 22.599 16.2069C22.964 16.1171 23.3292 15.8308 23.5925 15.5383C24.6582 14.3613 25.6496 13.113 26.7488 11.9655C28.3498 10.2886 29.4992 10.1265 31.4645 11.3796C32.6336 12.1225 33.6815 13.0507 34.7045 13.8378ZM16.1083 23.2435C16.0496 23.4659 15.8879 23.961 15.7842 24.4714C14.7028 29.8226 13.6722 35.1769 12.5618 40.5205C11.1045 47.5307 9.55306 54.5057 8.10544 61.5185C7.40924 64.8615 7.75286 65.4797 10.7307 67.2068C10.9016 67.3037 11.0802 67.3715 11.239 67.4754C15.1349 70.0344 19.3275 71.9788 23.7572 73.4169C26.1967 74.2056 28.532 75.5459 31.0115 75.8694C36.2806 76.5568 41.6288 77.4927 46.885 75.6428C47.3406 75.4839 47.8291 75.044 48.0264 74.6099C48.6208 73.2982 48.9959 71.8769 49.6001 70.5677C51.9018 65.5696 54.3409 60.6388 56.5775 55.6132C58.5817 51.1157 60.4749 46.5683 62.2449 41.978C63.1312 39.6781 64.359 37.4165 64.2047 34.7488C62.33 34.9159 60.4678 35.4276 58.7125 35.1815C53.3254 34.4319 47.9022 33.6624 42.6214 32.3926C37.1349 31.079 31.7369 29.3129 26.3832 27.4965C22.9372 26.3284 19.6376 24.7232 16.1083 23.2435ZM59.4826 27.4831C59.6103 27.5479 59.7477 27.6151 59.8754 27.6799C60.8188 24.5366 59.1478 21.7374 58.7113 18.7677C58.1775 19.8886 57.7604 20.9989 57.389 22.1316C57.1691 22.8079 56.9879 23.4944 56.877 24.1891C56.6924 25.3194 56.6554 26.4783 56.4296 27.6081C56.165 28.9242 55.765 30.2045 55.3873 31.6355C56.5483 31.704 57.668 31.772 58.7877 31.84C58.855 31.7027 58.9248 31.5556 58.9824 31.4157C57.9761 30.8398 56.7326 30.222 57.4018 28.9403C57.7525 28.2779 58.7682 27.9565 59.4826 27.4831ZM43.7844 20.6196C42.1803 17.5279 40.6331 14.5339 39.0763 11.5374C38.9256 11.5596 38.775 11.5819 38.6243 11.6042C38.7482 13.995 37.4019 16.2356 37.7955 18.7803C40.2619 18.2523 40.9105 18.7337 41.0824 20.9821C41.9401 20.8672 42.7882 20.7497 43.7844 20.6196ZM27.4371 24.2479C28.265 24.5595 29.0278 24.8436 30.0923 25.2383C29.4371 21.9213 28.8199 18.8521 28.1779 15.642C26.0429 17.5399 25.0662 19.5161 25.2185 21.4076C27.1271 21.6218 27.4637 22.0313 27.4371 24.2479ZM39.0434 27.9628C40.0683 28.2334 41.0321 28.5395 42.0168 28.727C42.4306 28.8052 43.0205 28.7644 43.3317 28.5259C45.515 26.8371 47.6459 25.0725 50.0263 23.1462C47.6277 23.4957 45.4454 23.8091 43.1221 24.1474C43.8552 25.4062 43.8921 26.4812 42.7276 27.0529C42.2296 27.2938 41.3187 27.0224 40.7504 26.7069C40.1531 26.3838 39.7372 25.7259 39.2276 25.188C39.17 26.0726 39.1098 26.9668 39.0434 27.9628ZM42.299 10.4953C43.8696 13.361 45.4062 16.2384 47.0379 19.0686C47.2728 19.4719 47.9624 19.6022 48.432 19.8606C48.6391 19.2326 49.1828 18.466 48.9999 17.9833C47.7599 14.6877 45.1911 12.4687 42.299 10.4953ZM35.8935 26.966C35.2821 22.8952 35.3793 18.8045 31.7706 15.98C32.3699 19.1169 33.0579 22.153 33.5005 25.2174C33.7173 26.6295 34.4658 26.8891 35.8935 26.966ZM47.0057 29.6921C48.8331 30.1745 50.2835 30.5573 51.8885 30.9809C52.3861 29.0955 52.8455 27.3551 53.4095 25.2182C51.1647 26.7873 49.1965 28.1708 47.0057 29.6921ZM55.6826 16.2928C55.5768 16.2235 55.4613 16.1516 55.3555 16.0823C54.3162 17.2767 53.2842 18.4832 52.1268 19.8119C54.9086 20.2048 54.5006 20.6142 55.1702 18.195C55.3579 17.562 55.5167 16.9213 55.6826 16.2928ZM21.4724 22.0427C21.6299 21.1327 21.7448 20.5011 21.8997 19.6008C20.8113 19.9238 19.9932 20.1629 18.8487 20.5021C19.8718 21.0927 20.5602 21.5019 21.4724 22.0427Z" fill="#5A3000"/>
<path d="M32.7281 58.1197C27.0835 56.6609 22.7558 53.5432 19.8776 48.4604C19.1568 47.1945 19.3066 45.5689 20.3329 44.6194C24.7697 40.5055 30.0106 38.7136 35.9966 39.6627C38.9351 40.128 41.4871 41.5876 43.0187 44.2879C44.3963 46.7097 45.754 49.1675 46.8678 51.7265C47.6778 53.5951 47.3865 54.5421 45.5502 55.6605C42.8264 57.3204 40.2024 58.9548 36.8566 58.6612C35.4829 58.5365 34.1083 58.2978 32.7281 58.1197ZM42.5127 49.9668C40.7929 47.7443 40.2373 44.7948 37.2829 43.6841C36.6279 44.9902 36.8437 47.0329 34.7607 46.6176C32.3851 46.1354 33.8509 44.2262 33.7308 42.8396C30.6697 42.8384 27.8089 43.2934 25.041 45.3553C30.9487 46.9146 36.605 48.4075 42.5127 49.9668ZM42.1405 53.5712C35.9524 51.9379 30.1124 50.3964 24.0307 48.7912C26.123 51.0913 28.2039 52.9644 30.9677 53.6215C31.7575 53.137 32.6879 52.4725 33.3719 52.6633C34.0268 52.8465 34.425 53.9238 34.9376 54.6073C34.8484 54.7492 34.7593 54.8912 34.6701 55.0331C37.144 55.4172 39.6073 55.6847 42.1405 53.5712Z" fill="#5A3000"/>
</g>
<defs>
<clipPath id="clip0_2_1931">
<rect width="56.44" height="73.5" fill="white" transform="translate(18.7578) rotate(14.7856)"/>
</clipPath>
</defs>
</svg>
