<svg width="125" height="120" viewBox="0 0 125 120" fill="none" xmlns="http://www.w3.org/2000/svg">
<g clip-path="url(#clip0_2_1862)">
<path d="M25.4865 85.109C24.3767 85.4659 23.2907 85.9395 22.1509 86.1627C19.7119 86.6487 18.6699 85.5283 18.3417 83.4495C17.7766 79.8273 18.1652 76.3016 20.4433 73.1828C22.2101 70.7594 24.3087 68.6718 26.6278 66.802C28.687 65.1439 30.5645 65.1258 32.1868 66.5095C33.2464 67.416 33.2521 68.7262 33.4808 69.8817C34.6719 75.8394 32.1811 80.3443 27.5947 83.9105C26.9764 84.3946 26.1789 84.6554 25.4679 85.0194C25.4762 85.055 25.4814 85.082 25.4865 85.109ZM24.7643 83.3108C26.773 82.2745 27.7848 81.4955 29.4716 79.4442C32.2229 76.1023 32.3529 72.3344 31.1457 68.3994C30.8945 67.5755 30.161 67.2771 29.3549 67.4881C28.8302 67.624 28.2925 67.895 27.8749 68.2423C25.5442 70.1985 23.3395 72.2866 21.6356 74.8411C19.944 77.3766 19.853 80.2038 20.1606 83.0767C20.2848 84.237 20.7547 84.5411 21.978 84.2822C22.9337 84.0836 23.8387 83.6431 24.7643 83.3108Z" fill="#4E2D12"/>
<path d="M72.101 10.0452C74.6925 8.80806 76.624 7.82439 78.8932 7.95111C80.911 8.06453 81.5839 8.57827 82.1679 10.5385C82.4326 11.425 82.7901 12.3013 82.9078 13.2083C83.0358 14.1695 83.1378 15.2173 82.8842 16.1264C82.1142 18.8811 80.8834 21.4346 78.961 23.6066C78.9194 23.651 78.8719 23.6926 78.8303 23.7369C76.915 25.7713 70.8899 27.2346 68.2259 26.366C66.8208 25.9104 66.0235 24.9553 65.8676 23.5655C65.5836 21.0312 65.6947 18.5199 66.5415 16.0649C67.3169 13.7955 69.428 11.2449 72.101 10.0452ZM76.0236 23.6592C76.6697 23.0539 77.32 22.6303 77.7156 22.0403C78.533 20.8264 79.1364 19.4649 79.9787 18.266C81.6851 15.836 81.2416 13.38 80.2973 10.8629C80.0452 10.1936 79.6197 9.83942 78.9222 9.86066C78.3106 9.87912 77.648 9.82476 77.0984 10.0374C75.4882 10.6612 73.8504 11.2758 72.3519 12.1237C69.6633 13.6476 68.0502 15.99 67.7582 19.123C67.6584 20.2262 67.6206 21.3402 67.6672 22.4472C67.7452 24.2277 68.3203 24.8692 70.0814 24.7059C72.094 24.5173 74.078 24.016 76.0236 23.6592Z" fill="#4E2D12"/>
<path d="M85.5775 27.6808C89.3577 26.405 93.3447 25.6367 97.4143 27.0668C100.713 28.227 103.027 30.595 104.763 33.5676C105.274 34.4404 105.319 35.3741 104.736 36.2022C104.175 36.9981 103.586 37.8622 102.808 38.4103C99.6322 40.6302 96.1973 41.5855 92.4957 39.7781C90.3317 38.72 88.1734 37.6115 86.1881 36.2654C85.0013 35.459 84.0336 34.2387 83.1845 33.0519C81.9422 31.3107 82.5051 29.9834 84.0092 28.6799C84.4164 28.3172 84.9379 28.0811 85.5775 27.6808ZM86.3644 29.4841C84.0987 30.5961 83.9365 31.3604 85.5866 33.2115C85.7516 33.3966 85.8889 33.6113 86.0774 33.7684C88.6468 35.9505 91.4943 37.7212 94.7572 38.5761C97.6673 39.3393 100.232 38.1603 102.434 36.2613C103.34 35.4828 103.309 34.8766 102.664 33.8507C98.9818 27.9883 93.2531 26.9973 86.3644 29.4841Z" fill="#4E2D12"/>
<path d="M43.0705 24.354C46.8245 22.615 51.6096 23.0523 56.2126 25.8873C57.1514 26.4669 57.9538 27.2657 58.8642 27.8992C60.3991 28.9678 60.9535 30.4034 60.6553 32.2119C60.3659 33.9785 59.3164 35.2443 57.931 36.2675C54.3396 38.9307 47.7691 38.2506 44.6657 35.5517C43.2209 34.2954 41.8199 32.9747 40.542 31.5554C38.2491 29.0105 38.8086 26.4446 43.0705 24.354ZM43.1365 26.4814C42.9669 26.5585 42.7958 26.6314 42.6277 26.7128C40.8207 27.6409 40.5644 28.6474 41.891 30.1983C42.768 31.2252 43.8528 32.0693 44.7606 33.0752C46.8916 35.4435 49.6739 36.1092 52.6638 36.0421C54.6852 35.995 56.5604 35.3167 57.9173 33.6672C59.0549 32.2868 59.054 30.7673 57.7703 29.5287C56.8919 28.6808 55.8995 27.9039 54.8517 27.2778C51.1047 25.0337 47.1828 24.7358 43.1365 26.4814Z" fill="#4E2D12"/>
<path d="M68.8141 48.3089C66.9969 44.8936 66.409 41.1834 66.2697 37.3798C66.1695 34.715 68.4064 32.6487 71.0603 33.0193C71.9618 33.1446 72.8765 33.4629 73.6964 33.8645C77.1361 35.5514 79.4628 38.3057 80.8601 41.8134C81.2012 42.6717 81.1234 43.7426 81.0578 44.7028C80.9378 46.6144 80.7922 48.5353 80.475 50.4232C80.1003 52.6652 78.7443 53.9381 76.6612 54.119C75.9449 54.1809 75.1312 54.11 74.4911 53.8157C72.3368 52.836 70.2511 51.7151 69.3174 49.3051C69.1845 48.9585 68.9852 48.6414 68.8141 48.3089ZM70.7096 47.9995C71.1478 49.7483 72.8021 50.9175 74.6639 51.8509C76.6727 52.8554 78.244 52.0868 78.6181 49.8692C78.8915 48.229 79.0696 46.5663 79.1618 44.9063C79.2499 43.3008 79.0834 41.7122 78.0396 40.3513C77.5866 39.7659 77.2594 39.0762 76.7606 38.5368C75.2357 36.8807 73.4668 35.5318 71.2471 34.9767C69.5852 34.5581 68.14 35.642 68.1803 37.2289C68.2617 40.8367 68.846 44.3408 70.7096 47.9995Z" fill="#4E2D12"/>
<path d="M56.4949 58.0271C53.9556 58.83 51.4303 59.6711 48.8749 60.4173C46.3592 61.1536 44.4054 59.984 42.6789 58.3445C41.9486 57.6493 41.8911 56.6959 42.1116 55.7364C42.6747 53.2848 43.6579 51.0159 45.3048 49.1048C45.8923 48.4198 46.6514 47.8065 47.4496 47.391C50.6964 45.7043 54.1239 44.7422 57.8311 45.1C59.0996 45.2249 60.6308 44.9101 61.387 46.1988C62.3571 47.8572 62.9887 49.6455 62.2317 51.6766C61.1523 54.5745 59.2992 56.6727 56.4949 58.0271ZM43.8036 56.8772C45.1739 57.997 46.4383 59.1704 48.1998 58.6161C51.0218 57.7281 53.8293 56.7489 56.5619 55.6189C58.7624 54.7095 59.9337 52.7667 60.5819 50.5587C61.1567 48.6095 59.9588 47.0931 57.917 46.9933C55.2951 46.8666 52.8183 47.2894 50.2967 48.1534C45.9967 49.6308 44.7866 53.0644 43.8036 56.8772Z" fill="#4E2D12"/>
<path d="M73.8064 63.1442C75.7117 66.8502 76.1566 70.6181 74.1854 74.463C73.621 75.5641 73.0466 76.664 72.5071 77.78C70.9749 80.9562 67.8506 81.6665 65.0164 79.5001C63.5089 78.349 62.6691 76.7293 62.1919 75.0191C61.3494 72.006 61.8519 68.9979 62.9635 66.1218C63.5637 64.5685 64.364 63.086 65.1181 61.5963C66.6296 58.6256 71.0593 58.5718 72.9513 61.4963C73.2874 62.0139 73.5266 62.5961 73.8064 63.1442ZM72.3769 64.2705C71.9109 63.5452 71.5131 62.7561 70.9592 62.1068C69.8319 60.7814 67.6654 60.9063 66.8758 62.4572C65.4522 65.2604 63.8782 68.0226 63.6984 71.3024C63.5731 73.5922 64.246 75.5968 65.5836 77.3607C66.0339 77.9518 66.826 78.3829 67.5539 78.64C68.9778 79.1465 69.8913 78.7029 70.5911 77.354C71.2449 76.0896 71.8607 74.8007 72.5245 73.5374C74.1631 70.4136 73.6974 67.3482 72.3769 64.2705Z" fill="#4E2D12"/>
<path d="M42.9721 79.8946C41.3621 76.9094 40.8807 73.7098 40.9818 70.3868C41.0354 68.5963 41.9435 67.3924 43.6135 66.708C44.4017 66.383 45.1602 66.2524 45.9412 66.6008C48.7188 67.8424 51.3323 69.3328 53.5415 71.455C54.9845 72.8374 55.1252 74.7877 55.546 76.5284C56.139 78.9968 56.1179 81.5424 55.0034 83.966C54.4534 85.1583 53.6029 85.8247 52.2954 85.8686C51.1841 85.9076 50.069 85.9625 48.9615 85.8939C47.5322 85.8043 46.364 85.1792 45.5746 83.9317C44.7275 82.5801 43.8464 81.241 42.9721 79.8946ZM44.5012 78.7894C45.3712 80.1374 46.1794 81.5275 47.1361 82.8097C47.509 83.3089 48.1866 83.8353 48.7659 83.8867C52.7756 84.239 53.58 84.5594 53.9477 79.9703C54.0902 78.2241 53.7267 76.5732 53.1034 74.9121C52.6648 73.7377 52.3438 72.5681 51.2318 71.8595C49.5653 70.8009 47.9187 69.6915 46.1815 68.7555C44.3963 67.7939 42.9582 68.6484 42.8794 70.6846C42.7752 73.5022 43.2114 76.2262 44.5012 78.7894Z" fill="#4E2D12"/>
<path d="M90.3606 65.3084C90.032 65.478 89.7006 65.6535 89.3688 65.8147C86.4583 67.2083 84.7605 65.7511 83.6741 63.7256C82.365 61.2805 82.1861 58.7557 83.4361 56.0842C84.8417 53.0753 86.9336 50.5512 88.6985 47.7956C90.4292 45.0913 95.1649 45.8267 96.1508 48.7048C97.559 52.8308 97.4942 56.8015 95.2393 60.6499C94.049 62.6722 92.5434 64.338 90.3606 65.3084ZM89.6447 63.5271C89.759 63.4704 90.0476 63.3493 90.3062 63.1863C94.9422 60.2772 96.3461 54.0074 94.2659 49.2129C93.6272 47.7456 91.3658 47.5485 90.3366 48.8165C89.5956 49.7271 88.9401 50.7122 88.3222 51.7076C87.2159 53.4865 86.1376 55.2888 85.0958 57.1115C84.236 58.616 84.2804 60.24 84.8953 61.7739C86.032 64.6156 87.0114 65.0306 89.6447 63.5271Z" fill="#4E2D12"/>
<path d="M21.2432 34.4385C20.7236 32.9273 20.0347 31.4545 19.7274 29.9034C19.2549 27.5257 20.1222 26.3947 22.4719 25.9417C27.4862 24.9723 31.506 26.6863 34.5576 30.6443C35.6805 32.1016 36.6806 33.7103 37.4518 35.3794C39.0896 38.9238 37.138 41.5794 33.6021 42.104C31.6287 42.3987 29.6599 42.0259 27.8467 41.0408C24.3994 39.1637 23.3138 38.069 21.2432 34.4385ZM21.5203 28.2569C21.5524 28.9061 21.4655 29.3772 21.6163 29.7461C22.358 31.5709 22.9581 33.4962 23.9898 35.1512C25.9669 38.3193 28.884 40.2524 32.7339 40.2246C35.47 40.2029 36.9301 38.5056 35.6114 35.7988C35.0485 34.6413 34.2272 33.6082 33.5613 32.4984C32.2582 30.331 30.3395 28.9168 28.0154 28.0529C25.893 27.264 23.7716 27.459 21.5203 28.2569Z" fill="#4E2D12"/>
<path d="M63.1348 104.343C61.4993 101.367 61.7148 98.2627 62.456 95.2339C62.7906 93.851 63.7452 92.5769 64.5858 91.3738C65.6488 89.8569 66.8862 88.459 68.0517 87.0104C68.9331 85.9177 70.0184 85.2852 71.4606 85.645C72.988 86.0265 74.1612 86.8089 74.6063 88.4586C75.9489 93.4533 75.0759 98.0216 72.0016 102.163C71.2275 103.207 70.4159 104.24 69.4941 105.145C68.8463 105.784 68.0456 106.35 67.2106 106.693C65.3918 107.432 64.1261 106.804 63.377 104.973C63.278 104.744 63.196 104.509 63.1348 104.343ZM65.8162 105.128C66.5682 104.744 67.4073 104.531 67.9341 104.008C70.5791 101.386 72.7118 98.3835 73.1813 94.6059C73.4052 92.8056 73.0716 90.9217 72.8645 89.0924C72.7652 88.222 72.0178 87.7551 71.1895 87.54C70.3135 87.3136 69.8159 87.8496 69.3321 88.4625C68.2599 89.8236 67.262 91.2681 66.0478 92.4934C63.2361 95.3317 63.0911 102.015 65.8162 105.128Z" fill="#4E2D12"/>
<path d="M21.9174 48.5576C24.6968 47.0967 27.6856 47.0396 30.6058 47.7123C32.6869 48.1932 34.7027 49.0986 36.6242 50.063C39.0192 51.2626 39.3498 54.0016 37.2962 55.7927C33.7875 58.8498 29.7124 60.0464 25.2251 58.3749C23.2244 57.6279 21.3833 56.3974 19.5576 55.248C18.3245 54.4732 18.0565 53.2116 18.5398 51.8125C19.0181 50.4392 20.0293 49.4626 21.9174 48.5576ZM36.5838 52.2684C33.0432 49.8901 29.1729 48.6855 24.8675 49.4943C23.2956 49.7903 21.7694 50.4457 20.7176 51.7703C19.9359 52.7538 20.0518 53.3816 21.1191 54.0344C22.4861 54.8707 23.8517 55.7558 25.3126 56.3885C28.8783 57.9325 32.1958 57.2088 35.2915 55.0086C36.2295 54.3436 36.7208 53.5156 36.5838 52.2684Z" fill="#4E2D12"/>
<path d="M86.7029 78.046C88.6383 77.4131 90.5627 76.7504 92.508 76.1573C93.0292 75.9986 93.6094 75.9868 94.1619 76.0047C96.7607 76.082 97.8971 77.1049 98.0327 79.7084C98.0963 80.9924 98.0783 82.3693 97.6731 83.5611C97.3191 84.6038 96.5444 85.6716 95.6637 86.3347C92.3463 88.8242 88.4887 89.1974 84.5101 88.6937C83.8005 88.6037 83.088 88.2444 82.4707 87.8549C80.9114 86.8773 80.4545 85.3526 81.2267 83.6634C82.3703 81.1614 83.9882 79.1067 86.7029 78.046ZM92.8849 85.6918C95.5695 84.9027 96.1959 82.9103 96.1506 80.4857C96.1139 78.4246 95.2869 77.6638 93.2824 77.9266C93.0383 77.9589 92.7919 78.0113 92.5639 78.1003C90.6677 78.8394 88.8024 79.6491 86.8827 80.3244C84.8848 81.0238 83.8655 82.6066 83.0103 84.3458C82.5347 85.3079 82.7097 85.8078 83.6413 86.3417C84.1129 86.6114 84.6689 86.874 85.1923 86.8785C87.8417 86.9227 90.5448 87.2172 92.8849 85.6918Z" fill="#4E2D12"/>
<path d="M58.6444 65.6378C58.2454 65.5777 57.8643 65.6316 57.6913 65.464C57.4591 65.241 57.2065 64.7794 57.2937 64.5446C57.7387 63.3429 58.2621 62.1701 58.8262 61.016C59.1141 60.4224 59.7203 60.2322 60.1875 60.7255C60.4322 60.9825 60.4676 61.6014 60.3552 61.9903C60.1217 62.8099 59.7479 63.5897 59.3926 64.3675C59.1899 64.7994 58.9056 65.1939 58.6444 65.6378Z" fill="#4E2D12"/>
<path d="M100.083 71.1591C99.665 71.1398 99.2978 71.1789 98.9572 71.1069C97.8791 70.8828 96.8136 70.6009 95.7382 70.3709C95.1105 70.2409 94.7012 69.9048 94.7466 69.256C94.7993 68.5225 95.3628 68.3867 95.9603 68.5134C97.2158 68.7733 98.4772 69.0359 99.7061 69.407C100.022 69.5027 100.3 69.9691 100.432 70.3257C100.497 70.5284 100.223 70.8466 100.083 71.1591Z" fill="#4E2D12"/>
<path d="M63.2355 41.7864C62.9605 41.8397 62.7793 41.9115 62.6027 41.9044C61.4992 41.8729 60.3882 41.8733 59.2959 41.7412C58.9678 41.7032 58.4974 41.2931 58.4508 40.9968C58.4072 40.7089 58.8142 40.0712 59.0391 40.0653C60.4299 40.0244 61.8339 40.0848 63.2228 40.2086C63.4083 40.2269 63.6498 40.7891 63.6671 41.1107C63.6786 41.3381 63.3697 41.5873 63.2355 41.7864Z" fill="#4E2D12"/>
<path d="M84.1332 42.9444C84.2046 42.4838 84.1521 42.0931 84.3232 41.9286C84.5498 41.7049 85.0852 41.4541 85.2464 41.5634C86.2969 42.2754 87.3606 42.997 88.2547 43.8874C88.73 44.3632 88.056 45.3503 87.4821 45.0654C86.3036 44.4779 85.2383 43.6604 84.1332 42.9444Z" fill="#4E2D12"/>
<path d="M76.8959 60.43C76.7871 60.4364 76.4965 60.5389 76.3156 60.4417C75.3939 59.9475 74.4675 59.4406 73.6141 58.8439C73.4266 58.7154 73.3723 58.0455 73.5314 57.8613C73.7582 57.599 74.3403 57.3308 74.5921 57.4501C75.4825 57.8594 76.3458 58.3655 77.126 58.9603C77.6605 59.3611 77.5384 60.0768 76.8959 60.43Z" fill="#4E2D12"/>
<path d="M82.6258 70.1872C82.763 71.3041 82.9331 72.3268 82.9727 73.3495C82.9835 73.6012 82.5999 74.0276 82.3296 74.0937C82.0678 74.1566 81.5477 73.9387 81.4328 73.7061C80.932 72.6511 80.6294 71.5181 80.9851 70.3493C81.0656 70.0832 81.4671 69.7708 81.7388 69.7477C82.0263 69.7283 82.3371 70.0333 82.6258 70.1872Z" fill="#4E2D12"/>
<path d="M80.4618 99.2357C79.5569 99.7678 78.66 99.2885 78.815 98.6619C79.0795 97.5992 79.5172 96.5739 79.9803 95.5778C80.0795 95.3627 80.6233 95.239 80.937 95.2775C81.1501 95.3049 81.5179 95.7384 81.4773 95.903C81.1546 97.1222 80.751 98.3183 80.4618 99.2357Z" fill="#4E2D12"/>
<path d="M20.0141 38.8537C20.4576 39.7272 20.19 41.5533 19.5532 42.1311C19.3331 42.333 18.8258 42.477 18.6112 42.3536C18.3162 42.1828 17.9866 41.7352 18.0068 41.4238C18.0523 40.6446 18.2268 39.8613 18.4668 39.1116C18.5542 38.8381 18.9499 38.5231 19.2343 38.4952C19.523 38.4658 19.8422 38.7676 20.0141 38.8537Z" fill="#4E2D12"/>
<path d="M74.4181 82.2077C74.0405 81.5125 74.2493 80.9529 74.7615 80.8746C75.7859 80.7182 76.8433 80.7425 77.8868 80.7816C78.0978 80.7905 78.4574 81.1884 78.4525 81.3977C78.444 81.7145 78.2076 82.2649 78.0022 82.2974C76.9752 82.4597 75.9259 82.5095 74.8831 82.5377C74.6953 82.5395 74.4974 82.2653 74.4181 82.2077Z" fill="#4E2D12"/>
<path d="M41.4584 63.7118C41.7012 64.3169 41.1587 65.1107 40.5356 64.9019C39.569 64.5738 38.6275 64.0917 37.7933 63.5073C37.2829 63.1458 37.6649 62.2182 38.2957 62.0817C38.8426 61.9666 41.259 63.2113 41.4584 63.7118Z" fill="#4E2D12"/>
<path d="M86.6914 22.2998C85.7726 22.8467 84.9337 22.4329 85.0773 21.7622C85.2868 20.773 85.6914 19.7888 86.1968 18.9074C86.4901 18.3937 87.6998 18.7912 87.5987 19.3544C87.4056 20.4534 86.946 21.511 86.6914 22.2998Z" fill="#4E2D12"/>
<path d="M58.4769 22.2862C58.6098 21.2336 58.6922 20.2141 58.8985 19.2163C58.9383 19.0231 59.5086 18.7883 59.7825 18.8367C60.0681 18.8904 60.4956 19.2632 60.5049 19.5107C60.5348 20.3633 60.4692 21.2318 60.3066 22.0735C60.2586 22.3228 59.8011 22.5883 59.4867 22.6659C59.2621 22.7247 58.9605 22.4839 58.4769 22.2862Z" fill="#4E2D12"/>
<path d="M99.2218 47.6282C99.3013 47.1502 99.2294 46.6025 99.4612 46.406C99.6999 46.202 100.339 46.1784 100.605 46.3645C101.253 46.8103 101.857 47.3735 102.335 47.9982C102.514 48.2358 102.414 48.842 102.226 49.1431C102.107 49.3318 101.48 49.4381 101.269 49.2989C100.566 48.8348 99.9451 48.2391 99.2218 47.6282Z" fill="#4E2D12"/>
<path d="M58.5541 88.1112C58.1341 88.0203 57.74 88.026 57.4747 87.8441C57.2813 87.7129 57.0976 87.2549 57.184 87.0831C57.5887 86.2823 58.0453 85.4912 58.589 84.7789C58.7321 84.5909 59.3258 84.5502 59.5796 84.688C59.8334 84.8258 60.136 85.3702 60.0475 85.5621C59.6334 86.4292 59.0882 87.2288 58.5541 88.1112Z" fill="#4E2D12"/>
<path d="M55.1332 102.522C54.939 102.141 54.6191 101.772 54.5835 101.375C54.5494 101.021 54.738 100.459 55.0002 100.318C55.2667 100.177 55.9293 100.323 56.0962 100.565C56.5382 101.212 56.9086 101.953 57.1061 102.71C57.1975 103.063 56.9454 103.701 56.6425 103.914C56.1517 104.26 55.7413 103.842 55.4829 103.378C55.3353 103.109 55.2047 102.834 55.064 102.558C55.0837 102.546 55.1077 102.532 55.1332 102.522Z" fill="#4E2D12"/>
<path d="M78.1092 29.658C77.9926 29.9568 77.935 30.4027 77.6881 30.6627C77.3025 31.0706 74.7651 30.8065 74.3261 30.3897C73.8206 29.9106 73.9625 28.9607 74.6198 28.9351C75.6409 28.9004 76.6679 29.1435 77.6917 29.2863C77.7956 29.3059 77.876 29.445 78.1092 29.658Z" fill="#4E2D12"/>
<path d="M42.3046 43.9263C42.4309 43.5226 42.4488 43.048 42.6957 42.7879C42.8691 42.6032 43.4527 42.5614 43.6698 42.7176C44.2066 43.0982 44.6994 43.582 45.072 44.1199C45.2146 44.3229 45.0864 44.8913 44.881 45.1071C44.6965 45.3007 44.1492 45.4016 43.9298 45.2655C43.37 44.9271 42.8985 44.4354 42.3046 43.9263Z" fill="#4E2D12"/>
<path d="M30.0946 70.3799C30.1648 72.0088 30.2657 73.472 30.2648 74.9343C30.265 75.4842 30.0413 76.0687 29.2826 76.016C28.5542 75.9667 28.4504 75.4502 28.4096 74.8428C28.3274 73.5608 28.2478 72.2731 28.0685 71.0028C27.9776 70.3513 28.0845 69.7907 28.7118 69.7231C29.1278 69.6852 29.5831 70.1201 30.0946 70.3799Z" fill="#4E2D12"/>
<path d="M21.1502 78.2095C21.1318 78.0812 21.0317 77.8625 21.1019 77.7256C21.5435 76.8677 21.9672 75.9875 22.5245 75.2074C22.6645 75.011 23.3923 74.9931 23.6389 75.1769C23.8782 75.3539 24.0224 75.9665 23.9015 76.2669C23.6048 76.994 23.1737 77.684 22.7152 78.3262C22.2878 78.9087 21.464 78.8366 21.1502 78.2095Z" fill="#4E2D12"/>
<path d="M25.3971 81.205C25.0202 81.074 24.5908 81.0493 24.4016 80.8249C24.2092 80.592 24.0853 80.0733 24.2197 79.8355C24.602 79.1442 25.0502 78.4479 25.6284 77.9207C25.8709 77.7009 26.5515 77.7776 26.917 77.9562C27.0889 78.0422 27.1337 78.7783 26.9651 79.0674C26.5411 79.803 25.9681 80.4489 25.3971 81.205Z" fill="#4E2D12"/>
<path d="M79.5487 11.8969C79.595 12.9509 79.8248 13.913 79.6314 14.7757C79.3511 16.0179 78.791 17.209 78.2867 18.394C78.0546 18.9429 77.5752 19.3323 76.9512 19.0032C76.352 18.689 76.3811 18.1137 76.6227 17.5516C76.7457 17.2698 76.8745 16.9906 77.0133 16.7126C77.6604 15.4169 78.0266 14.0803 77.7205 12.6108C77.6073 12.0688 77.7961 11.56 78.401 11.5103C78.7559 11.4901 79.1369 11.7499 79.5487 11.8969Z" fill="#4E2D12"/>
<path d="M72.8298 14.4898C73.3895 14.6449 73.9973 14.6424 74.3022 14.9447C74.8008 15.4311 74.4317 15.91 73.966 16.3233C73.1475 17.0502 72.3675 17.816 71.5907 18.5903C71.1641 19.0181 70.7131 19.3535 70.1693 18.8886C69.6742 18.4636 69.7023 17.8597 70.0993 17.4043C70.9361 16.439 71.8393 15.536 72.8298 14.4898Z" fill="#4E2D12"/>
<path d="M75.426 21.9887C74.1945 22.3954 73.3376 22.7698 72.4436 22.9263C72.0943 22.9878 71.6553 22.571 71.2576 22.3705C71.4644 21.9757 71.5747 21.3849 71.8991 21.2169C72.7075 20.8025 73.6025 20.5442 74.4863 20.2949C75.0647 20.1343 75.8543 19.944 75.9729 20.7879C76.0384 21.2269 75.5488 21.7455 75.426 21.9887Z" fill="#4E2D12"/>
<path d="M88.8789 34.6827C88.9436 34.2824 88.8951 33.8372 89.0908 33.6346C89.2934 33.4246 89.8193 33.2787 90.0668 33.3995C92.1421 34.3746 94.3496 34.5435 96.5892 34.6425C96.9466 34.6552 97.5067 35.1383 97.5749 35.4798C97.7025 36.1129 97.2318 36.4605 96.5501 36.4855C94.2905 36.5676 92.1022 36.189 89.9768 35.4447C89.5941 35.311 89.2852 34.9716 88.8789 34.6827Z" fill="#4E2D12"/>
<path d="M89.7868 31.1243C90.012 30.7661 90.2341 30.0858 90.4861 30.0747C91.4409 30.0308 92.4182 30.1523 93.366 30.3377C93.5695 30.3783 93.7877 30.9298 93.7891 31.2477C93.7917 31.4638 93.4262 31.8739 93.2311 31.8688C92.2628 31.8501 91.2987 31.7382 90.3388 31.6248C90.1963 31.6051 90.0749 31.3942 89.7868 31.1243Z" fill="#4E2D12"/>
<path d="M56.7983 32.1554C56.5631 32.1072 56.1833 32.1124 55.9085 31.9437C55.6072 31.7559 55.3761 31.4311 55.1672 31.1271C54.4703 30.1301 53.5709 29.4347 52.3767 29.1183C51.7073 28.941 51.2418 28.505 51.4812 27.7797C51.7033 27.0994 52.317 27.1912 52.8917 27.3214C54.8336 27.7524 56.1283 29.0207 57.1608 30.6126C57.5032 31.1471 57.4893 31.6589 56.7983 32.1554Z" fill="#4E2D12"/>
<path d="M49.0173 28.8781C48.6243 28.8737 48.3215 28.8649 48.015 28.872C47.0364 28.891 46.0533 28.8585 45.0786 28.9532C44.3781 29.0189 43.7925 28.9506 43.6778 28.1824C43.5759 27.5011 44.1162 27.1327 44.6902 27.104C46.0313 27.0332 47.3831 27.0308 48.7207 27.1205C49.0038 27.1413 49.3824 27.6432 49.4691 27.9826C49.5341 28.224 49.1854 28.5748 49.0173 28.8781Z" fill="#4E2D12"/>
<path d="M49.3134 33.9168C48.9521 33.3314 49.3146 32.5992 50.0452 32.6284C51.1433 32.6715 52.2446 32.8147 53.3233 33.0145C54.0184 33.1437 54.2278 33.959 53.7686 34.4422C53.0875 35.1618 49.8512 34.7844 49.3134 33.9168Z" fill="#4E2D12"/>
<path d="M77.1846 40.9662C77.3803 41.3523 77.6859 41.7219 77.7432 42.1253C77.7932 42.4831 77.6881 43.0093 77.4413 43.2307C77.0038 43.6287 76.5145 43.3897 76.1791 42.9395C76.0338 42.7423 75.9529 42.4971 75.8033 42.3015C75.0528 41.3291 74.3177 40.3462 73.5282 39.4123C73.0872 38.8853 72.4434 38.385 73.0406 37.6867C73.6463 36.9853 74.2777 37.413 74.7723 37.9541C75.6396 38.9026 76.4803 39.8706 77.3338 40.8339C77.2837 40.8814 77.2362 40.923 77.1846 40.9662Z" fill="#4E2D12"/>
<path d="M71.8927 46.3757C71.7659 45.5878 71.5983 44.6896 71.4865 43.7852C71.4104 43.1475 71.704 42.5952 72.3671 42.6639C72.718 42.6983 73.2794 43.2242 73.291 43.5432C73.3446 44.9178 73.8611 46.0152 74.7801 47.0122C75.2093 47.4809 75.4321 48.1754 74.7714 48.6365C74.1247 49.0829 73.6543 48.6729 73.2618 48.0941C72.8888 47.542 72.4284 47.0414 71.8927 46.3757Z" fill="#4E2D12"/>
<path d="M53.963 55.1362C53.8067 55.0926 53.2748 55.0913 52.9898 54.8299C52.4669 54.3428 52.8361 53.8252 53.2134 53.3819C54.1971 52.2128 55.1866 51.0463 56.1587 49.8719C56.3519 49.6364 56.4802 49.343 56.6719 49.1033C57.0814 48.5902 57.5568 48.1637 58.2158 48.6922C58.7661 49.1355 58.575 49.6644 58.2567 50.1631C57.124 51.9228 56.0753 53.7528 53.963 55.1362Z" fill="#4E2D12"/>
<path d="M47.0555 56.4865C47.3382 56.0877 47.5264 55.5116 47.8461 55.4225C48.7957 55.1682 49.7886 55.0571 50.7763 55.0107C51.0426 54.9992 51.4698 55.3576 51.5616 55.6325C51.6488 55.8946 51.4465 56.5242 51.2841 56.5552C50.1516 56.7854 48.999 56.9217 47.8455 57.0294C47.664 57.0481 47.456 56.7728 47.0555 56.4865Z" fill="#4E2D12"/>
<path d="M50.6506 52.447C49.4798 53.0049 48.9353 52.9696 48.6649 52.2638C48.4024 51.5791 48.9121 50.9711 50.045 50.6636C50.6589 50.4947 51.3602 50.3659 51.6501 51.0983C51.9615 51.8759 51.3229 52.1745 50.6506 52.447Z" fill="#4E2D12"/>
<path d="M71.3971 65.5153C71.5185 66.2232 71.7832 67.293 71.8432 68.3709C71.859 68.6883 71.3066 69.0371 71.0105 69.3732C70.6924 69.0614 70.1371 68.7744 70.1018 68.4304C69.9659 67.1731 69.6044 66.0376 68.8776 64.9986C68.5607 64.5463 68.5204 63.9533 69.0408 63.7273C69.3858 63.5757 69.9997 63.7205 70.3342 63.9588C70.7098 64.2301 70.8969 64.7497 71.3971 65.5153Z" fill="#4E2D12"/>
<path d="M67.9167 73.4882C68.1109 73.87 68.3905 74.2347 68.4722 74.6387C68.5331 74.9346 68.4199 75.4782 68.2264 75.569C67.9085 75.7154 67.2497 75.7368 67.1043 75.5396C66.5694 74.8109 66.098 74.0056 65.7902 73.1592C65.6773 72.8535 65.9793 72.2064 66.2903 71.9757C66.8057 71.5923 67.1772 72.0485 67.4282 72.5058C67.6047 72.8266 67.7657 73.1579 67.931 73.4877C67.9252 73.485 67.9209 73.4866 67.9167 73.4882Z" fill="#4E2D12"/>
<path d="M51.5066 76.5924C50.8185 76.3255 50.2481 76.2853 50.1063 76.0193C49.2741 74.4595 48.2316 73.1414 46.6923 72.2047C46.4629 72.0675 46.469 71.3126 46.6 70.9217C46.6523 70.7624 47.4059 70.6577 47.7186 70.7979C49.6153 71.6557 50.8572 73.1606 51.6044 75.0654C51.7377 75.4263 51.558 75.9076 51.5066 76.5924Z" fill="#4E2D12"/>
<path d="M45.2612 76.6222C45.1912 76.3151 44.9522 75.6025 44.8861 74.8743C44.8616 74.5987 45.1889 74.0724 45.4103 74.0438C45.7642 73.995 46.3701 74.1572 46.5002 74.4179C46.919 75.2378 47.2298 76.1314 47.4403 77.0282C47.515 77.348 47.2832 77.9499 47.0178 78.0817C46.744 78.2167 46.2184 78.0103 45.8939 77.8118C45.6714 77.6672 45.5976 77.2844 45.2612 76.6222Z" fill="#4E2D12"/>
<path d="M51.279 81.8487C50.6274 81.4187 50.1408 81.2656 49.9527 80.9394C49.5612 80.259 50.168 78.8672 50.8882 78.5674C51.4628 78.3311 52.0416 78.5901 52.0134 79.1023C51.9687 79.91 51.6081 80.6994 51.279 81.8487Z" fill="#4E2D12"/>
<path d="M92.565 57.7007C92.2752 57.6486 91.8363 57.69 91.6237 57.4936C91.4036 57.2902 91.2129 56.7479 91.335 56.5291C92.0823 55.1385 92.002 53.6918 91.8843 52.1962C91.8544 51.8405 92.2644 51.3417 92.6082 51.1086C92.7429 51.0154 93.4737 51.4112 93.5528 51.6908C94.0789 53.5856 94.0868 55.4644 93.0316 57.2244C92.9374 57.375 92.7761 57.4876 92.565 57.7007Z" fill="#4E2D12"/>
<path d="M88.8386 56.8724C88.4113 56.8275 87.9909 56.9057 87.7617 56.7298C87.5383 56.5566 87.3194 56.0295 87.4249 55.8313C87.8187 55.0924 88.3009 54.3836 88.8515 53.7556C89.001 53.5846 89.5922 53.6026 89.8236 53.7583C90.0551 53.9141 90.2728 54.4512 90.172 54.6622C89.8089 55.4187 89.312 56.1137 88.8386 56.8724Z" fill="#4E2D12"/>
<path d="M87.2122 58.9303C87.2457 59.8056 87.3384 60.6061 87.2658 61.3904C87.2422 61.6403 86.7979 62.0071 86.5135 62.035C86.2434 62.0624 85.7295 61.7697 85.6762 61.5337C85.5042 60.7674 85.4327 59.9591 85.4623 59.1762C85.4721 58.941 85.9338 58.5823 86.2236 58.5428C86.5319 58.5012 86.8778 58.7836 87.2122 58.9303Z" fill="#4E2D12"/>
<path d="M31.9565 38.0028C31.8276 35.8359 30.6646 34.3355 29.8525 32.6863C29.7423 32.4665 29.5623 32.2146 29.5973 32.0086C29.6516 31.6846 29.806 31.1741 30.0179 31.1199C30.3605 31.0271 31.0012 31.1137 31.1362 31.3485C32.2071 33.2013 33.523 34.9587 33.7672 37.1892C33.7749 37.2491 33.7883 37.3117 33.7917 37.3732C33.787 37.949 33.7432 38.6021 33.0162 38.5957C32.6333 38.5923 32.2473 38.1753 31.9565 38.0028Z" fill="#4E2D12"/>
<path d="M25.6775 34.933C25.8297 34.4426 25.8469 33.809 26.108 33.6788C26.4355 33.5192 27.0872 33.6355 27.3876 33.8864C28.2313 34.5879 29.0205 35.3772 29.7112 36.2269C29.9336 36.5018 29.9222 37.138 29.7612 37.487C29.6754 37.6731 28.8861 37.7861 28.667 37.6114C27.6657 36.8233 26.7525 35.9206 25.6775 34.933Z" fill="#4E2D12"/>
<path d="M24.878 30.2057C25.1281 30.8564 25.7672 31.5273 24.8746 32.1321C24.295 32.5247 23.6536 32.0572 23.1689 30.9673C23.073 30.747 22.8872 30.4924 22.9296 30.2934C23.0165 29.9139 23.1577 29.3938 23.4358 29.2573C23.6815 29.1376 24.169 29.411 24.5005 29.6022C24.6845 29.7079 24.7582 29.9991 24.878 30.2057Z" fill="#4E2D12"/>
<path d="M66.0734 99.861C65.9838 98.4805 65.8627 97.3287 65.8519 96.1747C65.8436 95.5506 66.2817 95.0365 66.9062 95.1967C67.243 95.2845 67.5825 95.8635 67.6715 96.2745C67.8764 97.2217 67.9836 98.205 68.0229 99.1747C68.0419 99.5922 67.7904 100.023 67.6619 100.447C67.1469 100.256 66.6377 100.068 66.0734 99.861Z" fill="#4E2D12"/>
<path d="M71.5914 94.344C71.0854 94.6612 70.3909 94.4159 70.3322 93.7863C70.2513 92.9525 70.2814 92.0923 70.3956 91.2636C70.4926 90.5716 71.2865 90.3797 71.816 90.8451C72.5798 91.5134 72.4322 93.8211 71.5914 94.344Z" fill="#4E2D12"/>
<path d="M33.5241 52.8004C33.4589 53.0947 33.4942 53.5304 33.2896 53.7218C33.0737 53.9221 32.6431 53.9075 32.3019 53.9515C32.2005 53.9648 32.0615 53.8763 31.9787 53.7959C31.0622 52.9234 29.9862 52.4042 28.7287 52.2173C28.1294 52.1251 27.7012 51.7767 27.8763 51.0607C28.026 50.4457 28.4804 50.355 29.0153 50.4035C30.8134 50.5499 32.2927 51.3109 33.5241 52.8004Z" fill="#4E2D12"/>
<path d="M23.8264 53.1887C23.9264 52.6355 23.8853 52.1972 24.0848 51.9788C24.2731 51.7693 24.807 51.6058 25.0301 51.726C25.9969 52.2374 26.9372 52.8212 27.8194 53.4699C28.0307 53.6235 28.1301 54.1802 28.0237 54.4415C27.92 54.6969 27.3745 55.0383 27.1999 54.958C26.0535 54.431 24.9596 53.7978 23.8264 53.1887Z" fill="#4E2D12"/>
<path d="M91.5811 84.6729C89.9512 84.9035 88.5083 85.1566 87.0503 85.29C86.4199 85.3491 85.7816 85.1121 85.8125 84.2804C85.836 83.5722 86.3414 83.4627 86.9613 83.3881C88.2323 83.2322 89.4979 82.9963 90.7525 82.7306C91.3535 82.6051 91.959 82.531 92.0591 83.2467C92.1157 83.6745 91.7641 84.1614 91.5811 84.6729Z" fill="#4E2D12"/>
<path d="M90.8456 79.4781C91.8705 79.4276 92.6689 79.287 93.4309 79.4012C93.7637 79.4519 94.1379 79.994 94.2435 80.3844C94.2876 80.5563 93.7579 81.0318 93.4185 81.1331C92.7821 81.3199 92.09 81.4211 91.4337 81.3838C91.0286 81.3597 90.3504 81.0409 90.3194 80.787C90.2649 80.3777 90.646 79.9185 90.8456 79.4781Z" fill="#4E2D12"/>
</g>
<defs>
<clipPath id="clip0_2_1862">
<rect width="98.5149" height="91.3502" fill="white" transform="translate(0 34.1367) rotate(-20.2742)"/>
</clipPath>
</defs>
</svg>
