<svg width="70" height="54" viewBox="0 0 70 54" fill="none" xmlns="http://www.w3.org/2000/svg">
<g clip-path="url(#clip0_2_1939)">
<path d="M7.23173 27.2004C7.85915 24.5891 8.33272 22.1345 9.03634 19.7615C9.90832 16.8337 11.375 16.0966 14.3174 16.8711C14.9205 17.0262 15.5122 17.2155 16.2576 17.435C16.5299 16.7684 16.798 16.1238 17.0537 15.4721C17.2955 14.8451 17.4116 14.1387 17.7668 13.5842C20.2922 9.61868 22.0579 9.40072 26.0803 12.1697C27.361 13.0506 28.1619 13.3585 29.0686 11.9461C29.148 11.8204 29.2547 11.7183 29.3613 11.6162C31.8792 9.126 33.524 9.22154 35.8555 11.9908C36.4726 12.7229 37.1021 13.462 37.8813 14.3672C38.155 13.8559 38.4431 13.4339 38.5942 12.9669C39.606 9.90702 41.8139 7.8344 44.4408 6.22702C45.036 5.8655 46.3215 6.0499 46.9606 6.48549C48.4654 7.50152 49.7669 8.83308 51.1757 9.98975C51.4729 10.2396 51.926 10.4153 52.312 10.4229C54.7565 10.4842 57.2213 10.2807 59.6254 10.5711C61.8593 10.8463 62.0865 11.406 62.4077 13.6204C62.7161 15.7138 63.1553 17.7919 63.5269 19.8887C64.7347 26.703 62.5945 32.3258 57.5057 36.9267C54.2753 39.842 50.2905 41.3783 46.4754 43.3035C41.7233 45.7054 36.6377 46.6743 31.5322 47.7214C26.8588 48.6802 22.2041 48.6172 17.6605 47.1541C12.6842 45.5511 9.30637 41.9608 6.61645 37.6307C5.32835 35.5589 4.29354 33.4274 4.7202 30.8405C5.02311 29.045 5.86005 27.7557 7.23173 27.2004ZM59.1999 15.6787C58.3771 16.4558 57.8577 16.9417 57.3383 17.4275C53.9464 20.5845 50.2365 23.3417 46.0963 25.3671C42.9439 26.9121 39.554 27.9729 36.2505 29.1966C30.6993 31.259 25.0185 32.8903 19.1031 33.2585C15.4912 33.478 11.8475 33.0943 8.06959 32.9758C8.46508 33.7691 8.87792 34.7756 9.43168 35.6912C12.5181 40.8559 16.8099 44.2248 23.0179 44.8029C27.6283 45.2309 32.0294 44.1501 36.4821 43.2937C40.4807 42.5213 43.8996 40.3632 47.6411 38.9978C50.7694 37.8536 53.3736 36.0139 55.7373 33.8671C58.6826 31.1965 60.5643 27.7927 60.3739 23.6851C60.2481 21.1263 59.6399 18.5865 59.1999 15.6787ZM30.8397 15.0153C28.6081 16.8144 28.1312 19.3322 27.7962 21.4997C28.7075 22.0571 29.7231 22.3161 30.0856 22.9526C30.7429 24.1301 29.6777 24.8185 28.8322 25.3633C29.0559 26.173 29.2582 26.9055 29.4765 27.6959C30.238 27.4856 30.9127 27.2992 31.6549 27.0942C31.3798 23.0931 31.1152 19.1305 30.8397 15.0153ZM40.6426 16.3641C42.1587 16.2566 43.2686 16.4065 43.4576 17.8793C43.6529 19.4127 42.4423 19.6122 41.2118 19.8898C41.7497 21.0484 42.2337 22.0871 42.8431 23.3919C43.6845 22.6823 44.8527 22.1417 44.8213 21.6524C44.6434 18.1535 44.2234 14.68 43.8833 11.1947C43.741 11.1303 43.6013 11.0755 43.459 11.0111C42.5524 12.7243 41.6555 14.4348 40.6426 16.3641ZM34.7354 15.7859C34.5716 15.8312 34.4007 15.8888 34.2369 15.934C34.4879 19.2468 34.7486 22.5568 35.0213 26.0607C36.5857 25.4522 37.9076 24.9419 39.2294 24.4315C38.0663 24.3897 36.791 24.9183 36.1942 23.4336C35.5718 21.8937 36.8321 21.3485 38.2137 20.6038C36.9909 18.9185 35.8631 17.3522 34.7354 15.7859ZM21.0187 24.6062C20.9246 24.5285 20.8208 24.4534 20.7267 24.3756C18.6613 26.025 16.4163 27.4751 15.0806 30.1886C16.5099 30.1051 17.7953 29.9886 19.0827 29.9547C19.8563 29.9381 20.1683 29.603 20.2807 28.8457C20.4594 27.4269 20.7548 26.0174 21.0187 24.6062ZM50.7951 18.4152C49.9958 15.8971 49.7729 13.1368 47.2372 10.9427C47.5793 14.2095 47.8674 17.0555 48.1842 20.0804C49.0752 19.5127 49.8253 19.0358 50.7951 18.4152ZM11.6272 23.0193C11.5019 23.0539 11.3836 23.0762 11.2582 23.1108C11.1439 25.1758 11.0295 27.2408 10.9248 29.3031C11.0495 29.3413 11.1742 29.3795 11.2892 29.4203C12.1212 28.2257 12.9654 27.038 13.6987 25.9744C12.9242 24.8604 12.2757 23.9399 11.6272 23.0193ZM24.8771 24.941C24.7132 24.9863 24.5467 25.0219 24.3828 25.0672C24.1469 26.4291 23.911 27.7911 23.6605 29.2505C24.5955 28.9922 25.3088 28.7952 26.1956 28.5503C25.7301 27.2783 25.3036 26.1097 24.8771 24.941ZM24.4791 19.594C25.9372 15.9337 25.8517 15.5112 23.6839 15.0622C23.9366 16.4655 24.1761 17.8207 24.4791 19.594ZM20.3104 16.5957C19.9493 17.5046 19.7897 18.3164 19.3408 18.9072C18.5819 19.9157 19.1279 20.3147 19.8879 20.7376C21.3073 19.7542 21.3454 19.3287 20.3104 16.5957ZM53.1856 13.6985C53.4279 14.5756 53.6196 15.2697 53.8565 16.1275C54.7561 15.2151 55.5253 14.432 56.4887 13.4501C55.198 13.5473 54.2413 13.6144 53.1856 13.6985ZM17.1808 23.0311C16.1171 21.997 15.3613 21.2513 14.5958 20.5083C15.0659 21.5715 15.076 23.073 17.1808 23.0311Z" fill="#5A3000"/>
</g>
<defs>
<clipPath id="clip0_2_1939">
<rect width="60.96" height="39.12" fill="white" transform="translate(0 16.2299) rotate(-15.4405)"/>
</clipPath>
</defs>
</svg>
