<svg width="138" height="171" viewBox="0 0 138 171" fill="none" xmlns="http://www.w3.org/2000/svg">
<g clip-path="url(#clip0_2_1954)">
<path d="M68.42 120.612C68.6936 121.276 69.0035 121.97 69.2723 122.682C69.9243 124.429 70.3841 126.268 71.2332 127.913C73.8576 133.013 76.8571 137.902 79.9333 142.74C80.5641 143.733 81.3191 144.65 82.0113 145.596C83.1825 144.938 84.2783 144.337 85.3533 143.699C85.503 143.609 85.6641 143.313 85.6243 143.159C84.9546 140.58 84.2759 137.999 83.5471 135.435C83.2211 134.29 82.641 133.207 82.4009 132.05C81.8316 129.312 81.3867 126.548 80.9174 123.788C80.7629 122.895 80.6906 121.99 80.5839 121.137C78.5394 121.211 76.5471 121.4 74.5644 121.315C72.5727 121.229 70.5956 120.872 68.42 120.612ZM66.6397 149.288C67.1669 149.311 67.5784 149.334 67.986 149.345C71.8804 149.47 75.6686 148.453 79.539 148.28C79.7163 148.271 79.9208 148.116 80.0508 147.968C80.2917 147.692 80.4588 147.351 80.7075 147.086C80.9727 146.806 80.9557 146.593 80.7286 146.305C80.0992 145.505 79.4147 144.732 78.88 143.869C76.6133 140.196 74.3389 136.525 72.1682 132.794C70.5809 130.067 69.0203 127.305 68.1784 124.221C68.0714 123.832 67.9515 123.443 67.8368 123.056C66.5883 131.769 66.1909 140.497 66.6397 149.288ZM90.7517 116.352C89.7206 117.017 88.8402 117.546 88.0014 118.133C86.3544 119.284 84.5167 120.027 82.6424 120.688C82.186 120.848 82.0818 121.021 82.1404 121.457C82.4327 123.585 82.6107 125.73 83.0159 127.837C83.3919 129.807 83.972 131.746 84.5199 133.68C85.1311 135.823 85.8334 137.945 86.46 140.083C86.7277 140.994 86.8993 141.937 87.0838 142.717C88.5744 142.656 90.0085 142.592 91.5287 142.53C90.657 133.921 90.9441 125.222 90.7517 116.352ZM105.414 143.266C105.435 143.178 105.455 143.085 105.476 142.996C104.395 141.464 103.29 139.949 102.244 138.392C100.859 136.336 99.2575 134.422 98.2952 132.08C97.5163 130.187 96.4823 128.403 95.6417 126.531C95.1686 125.484 94.8863 124.354 94.4657 123.285C93.918 121.894 93.328 120.517 92.3347 119.192C92.3313 127.148 92.346 134.957 93.0227 142.579C94.2406 143.178 95.4103 143.699 96.523 144.317C97.3762 144.792 98.1783 144.965 99.1597 144.708C101.224 144.163 103.326 143.742 105.414 143.266ZM101.075 149.667C100.029 148.768 98.9689 147.887 97.9529 146.96C97.6591 146.691 97.4118 146.633 97.0306 146.699C94.707 147.1 92.3662 147.439 90.0467 147.865C87.1726 148.389 84.3145 148.999 81.439 149.507C80.6418 149.65 80.3836 150.177 80.1516 150.78C79.9902 151.201 79.8495 151.645 79.7925 152.094C79.4936 154.415 79.0609 157.741 78.9303 159.183C78.7997 160.625 77.65 161.069 77.52 160.184C77.6594 156.654 77.7997 153.239 78.8248 149.887C78.6474 149.896 78.497 149.896 78.3519 149.911C76.0594 150.177 73.7687 150.498 71.4679 150.69C69.8558 150.823 68.2282 150.798 66.6099 150.799C65.9145 150.8 65.3335 150.28 65.277 149.598C65.1136 147.697 64.9336 145.798 64.8898 143.895C64.8445 141.975 64.978 140.05 64.9932 138.131C65.0258 133.394 65.6154 128.703 66.1034 124.004C66.2375 122.686 66.5234 121.384 66.7386 120.076C65.5833 119.774 64.4463 119.512 63.3319 119.179C61.7989 118.726 60.2468 118.305 58.7655 117.714C57.3176 117.133 55.9404 116.368 54.5468 115.657C54.1261 115.443 53.709 115.177 53.3851 114.845C53.2323 114.686 53.1914 114.214 53.3175 114.055C53.4754 113.851 53.8489 113.775 54.1404 113.736C54.3009 113.715 54.4835 113.898 54.659 113.984C56.2524 114.778 57.7892 115.733 59.4493 116.332C61.8427 117.193 64.3042 117.875 66.778 118.48C69.8931 119.241 73.0041 120.14 76.2809 119.84C77.6297 119.715 78.9881 119.681 80.3874 119.604C80.0596 117.548 80.1381 119.1 79.8171 117.089C79.5554 117.166 79.4131 117.214 79.2707 117.25C78.3893 117.473 77.5154 117.844 76.6262 117.881C74.8362 117.959 73.0372 117.859 71.2438 117.825C71.0497 117.823 70.8464 117.806 70.6685 117.738C68.5811 116.893 66.4595 116.112 64.4228 115.164C62.9123 114.463 61.5172 113.545 60.6827 111.968C59.7778 110.26 59.3709 108.438 59.2513 106.539C59.2189 105.991 59.3393 105.425 59.4445 104.878C59.7587 103.244 60.6806 101.893 61.5198 100.501C62.0772 99.58 62.5261 98.5926 63.019 97.6332C63.679 96.3458 64.3313 95.0481 64.9952 93.7594C65.6984 92.3971 66.5204 91.106 66.7064 89.5116C66.89 87.9353 67.1522 86.388 66.3941 84.8835C66.1932 84.4833 66.3882 84.0856 66.7718 83.9891C67.0399 83.9192 67.537 84.042 67.6619 84.2445C67.9612 84.7315 68.2148 85.2987 68.2858 85.8593C68.5804 88.2831 68.3654 90.6486 67.2006 92.8478C66.7747 93.6511 66.2701 94.4124 65.8236 95.2055C65.5597 95.6783 65.3333 96.1727 65.1056 96.6632C64.492 97.9734 63.9042 99.2964 63.2596 100.591C62.9823 101.15 62.5773 101.65 62.2484 102.184C61.1728 103.94 60.3972 105.77 60.9016 107.902C61.0436 108.495 61.142 109.098 61.3262 109.676C61.7856 111.11 62.503 112.332 63.8678 113.147C65.7103 114.243 67.6965 114.968 69.659 115.786C71.0065 116.35 72.3409 116.372 73.7201 116.361C74.2599 116.358 74.8049 116.357 75.3388 116.411C76.7461 116.559 78.0216 116.093 79.3317 115.616C79.1418 114.795 78.9866 113.988 78.7532 113.203C78.649 112.848 78.4618 112.387 78.1779 112.247C77.6942 112.012 77.1046 111.895 76.5596 111.896C74.6675 111.901 73.2927 110.955 72.0796 109.628C71.0713 108.522 70.6378 107.277 71.2044 105.867C71.6524 104.75 72.1568 103.624 72.8294 102.637C73.7041 101.35 75.0731 100.844 76.619 100.944C77.4356 100.997 78.2463 101.12 79.0521 101.267C79.446 101.339 79.8583 101.478 80.1865 101.697C81.3246 102.452 82.0422 103.536 82.5017 104.82C83.082 106.446 82.2181 110.03 80.4682 111.169C80.2047 111.341 79.9685 111.555 79.8164 111.675C80.1608 112.861 80.476 113.936 80.798 115.043C81.2183 114.878 81.6221 114.727 82.0155 114.559C82.191 114.482 82.3625 114.38 82.5145 114.26C85.3182 112.056 87.7195 109.491 89.4661 106.366C90.255 104.953 91.1057 103.545 91.2821 101.872C91.3746 100.997 91.2709 100.203 90.8277 99.3821C89.7823 97.4381 87.9502 96.5236 86.1248 95.6542C83.2649 94.2948 80.3266 93.1085 77.44 91.7969C73.995 90.233 72.2424 87.2358 70.9166 83.9038C70.7371 83.4533 70.8487 83.0755 71.3307 82.9024C71.8063 82.7359 72.1216 82.9551 72.3113 83.3978C72.5624 83.9701 72.7483 84.5905 73.0838 85.1082C73.9056 86.3716 74.6537 87.7333 75.6912 88.7984C77.4517 90.6103 79.9173 91.3301 82.135 92.4054C84.1579 93.3881 86.2669 94.1952 88.3088 95.1456C89.5535 95.7229 90.6264 96.5265 91.4858 97.661C92.7556 99.3436 93.2563 101.151 92.5243 103.134C91.9636 104.65 91.2445 106.116 90.4968 107.55C89.1915 110.042 87.2126 112.007 85.2464 113.96C84.0917 115.106 82.7618 116.042 81.2318 116.503C81.5899 118.66 81.5419 117.236 81.9068 119.451C83.3174 118.828 84.6338 118.331 85.8706 117.677C87.0498 117.056 88.1508 116.28 89.2675 115.551C90.388 114.82 91.5578 114.146 92.5759 113.291C94.2799 111.854 95.9486 110.338 97.0948 108.399C98.2563 106.442 99.2873 104.404 100.352 102.39C101.153 100.873 101.917 99.3358 102.697 97.8095C102.919 97.3769 103.244 97.0852 103.738 97.3123C104.262 97.5508 104.265 98.0011 104.049 98.4749C103.968 98.653 103.882 98.8286 103.791 99.0016C102.516 101.496 101.305 104.025 99.952 106.478C99.0161 108.178 98.1669 109.956 96.7221 111.334C95.2876 112.705 93.8894 114.12 92.376 115.612C92.8748 116.646 93.439 117.834 94.0186 119.017C94.6099 120.221 95.3063 121.382 95.8053 122.617C96.7575 124.993 97.3971 127.497 98.8171 129.67C98.9445 129.868 99.0311 130.096 99.1342 130.31C99.6187 131.328 99.9893 132.414 100.607 133.343C102.661 136.444 104.81 139.482 106.913 142.549C107.527 143.444 107.402 144.02 106.39 144.34C104.596 144.909 102.77 145.373 100.954 145.863C100.466 145.995 99.9578 146.066 99.5638 146.144C100.577 147.226 101.583 148.311 102.615 149.373C102.728 149.49 104.054 150.456 103.54 150.989C103.031 151.523 101.057 149.741 101.075 149.667ZM73.1695 104.968C73.1011 105.108 72.9357 105.328 72.8822 105.574C72.7421 106.258 72.3588 107.085 72.6006 107.618C73.1665 108.861 74.1163 109.883 75.556 110.226C76.0981 110.355 76.6929 110.311 77.1971 110.518C77.9359 110.82 78.5248 110.671 79.1478 110.269C80.6278 109.308 81.0754 107.801 81.1817 106.2C81.2982 104.427 79.9126 102.895 78.1653 102.657C77.675 102.592 77.1857 102.467 76.6958 102.453C76.2535 102.441 75.7964 102.498 75.364 102.603C74.181 102.899 73.6741 103.867 73.1695 104.968ZM95.2102 145.466C93.7092 144.478 92.0545 144.096 90.1917 144.061C88.8727 144.033 87.6101 144.159 86.4403 144.833C85.5072 145.371 84.5312 145.833 83.6112 146.396C83.1109 146.705 82.6965 147.151 82.1396 147.621C86.6163 146.885 90.9132 146.176 95.2102 145.466Z" fill="#4E2D12"/>
<path d="M71.8872 89.0643C72.0752 89.4388 72.2857 89.754 72.4002 90.102C72.9195 91.6492 73.4286 93.2043 73.9056 94.766C74.0466 95.2296 74.0581 95.7289 74.1478 96.2057C74.2334 96.6581 74.3191 97.1105 74.4637 97.5471C74.5926 97.9375 74.5991 98.2836 74.2318 98.5035C73.8312 98.7391 73.3821 98.6687 73.1772 98.257C72.9396 97.7747 72.7132 97.2241 72.7067 96.7017C72.6923 95.4638 72.156 94.3954 71.7889 93.2692C71.4205 92.1392 71.0829 90.9986 70.7889 89.8475C70.74 89.6664 70.9227 89.346 71.0927 89.2149C71.2627 89.0838 71.5573 89.1166 71.8872 89.0643Z" fill="#4E2D12"/>
<path d="M63.3823 106.501C63.3174 106.248 63.1299 105.925 63.187 105.652C63.2777 105.225 63.675 105.081 64.0973 105.161C65.0537 105.346 66.004 105.564 66.9579 105.754C67.4973 105.863 68.0392 105.966 68.5872 106.024C69.1314 106.084 69.3525 106.43 69.3046 106.893C69.2555 107.379 68.834 107.566 68.4029 107.498C67.3991 107.337 66.4051 107.117 65.4087 106.915C64.783 106.793 64.1625 106.661 63.3823 106.501Z" fill="#4E2D12"/>
<path d="M87.6911 102.448C87.0669 102.858 86.5341 103.285 85.936 103.584C85.297 103.901 84.6058 104.128 83.917 104.324C83.513 104.436 83.2179 104.176 83.1223 103.77C83.0254 103.36 83.2214 103.091 83.6031 102.914C84.5548 102.468 85.5091 102.018 86.4451 101.54C86.8728 101.321 87.2669 101.242 87.5518 101.7C87.6624 101.885 87.6401 102.16 87.6911 102.448Z" fill="#4E2D12"/>
<path d="M67.9966 101.474C67.3495 101.062 66.6974 100.661 66.0592 100.238C65.6717 99.9835 65.5094 99.5959 65.7725 99.1965C66.0394 98.7958 66.418 98.7225 66.8765 99.0091C67.6682 99.5044 68.4853 99.961 69.3062 100.416C69.745 100.658 70.0378 100.962 69.8553 101.485C69.698 101.93 69.2526 102.009 68.6566 101.735C68.4425 101.636 68.2348 101.53 68.0232 101.426C68.0118 101.443 68.0042 101.458 67.9966 101.474Z" fill="#4E2D12"/>
<path d="M81.564 97.1759C81.3209 97.6717 81.0882 98.1725 80.8296 98.6607C80.6192 99.0636 80.2512 99.1805 79.8591 99.0004C79.4825 98.8279 79.3473 98.4568 79.5154 98.0813C79.9163 97.1919 80.3299 96.3025 80.8263 95.4666C80.9341 95.2793 81.4322 95.1911 81.6962 95.2601C82.0787 95.3618 82.2216 95.7302 82.064 96.1366C81.9278 96.4927 81.7723 96.8425 81.6233 97.1987C81.6002 97.1937 81.5795 97.1835 81.564 97.1759Z" fill="#4E2D12"/>
<path d="M17.1539 36.9456C16.7433 36.875 16.3666 36.853 16.0186 36.7395C14.4672 36.2324 12.9195 35.7112 11.387 35.1589C10.9321 34.9959 10.5276 34.7039 10.0864 34.4932C9.67483 34.2939 9.25682 34.0882 8.82512 33.943C8.43724 33.8131 8.15292 33.609 8.19731 33.1854C8.24526 32.7218 8.57066 32.4043 9.02374 32.4863C9.55019 32.5819 10.1284 32.7286 10.5511 33.036C11.5514 33.7654 12.7266 33.9751 13.8516 34.3525C14.9766 34.7298 16.0928 35.1445 17.1914 35.5954C17.3616 35.6663 17.5158 36.0051 17.5161 36.22C17.5113 36.4323 17.3098 36.6473 17.1539 36.9456Z" fill="#4E2D12"/>
<path d="M36.4576 94.7319C36.1951 94.7053 35.8306 94.7695 35.5955 94.6218C35.2287 94.39 35.2255 93.9654 35.4477 93.5971C35.9492 92.7638 36.4817 91.9456 36.9845 91.1161C37.2702 90.6445 37.5507 90.1704 37.7951 89.6785C38.0395 89.1865 38.4386 89.0977 38.8566 89.3034C39.294 89.5154 39.3232 89.9785 39.1139 90.3595C38.618 91.2469 38.0691 92.105 37.5409 92.9733C37.2146 93.5147 36.8779 94.0509 36.4576 94.7319Z" fill="#4E2D12"/>
<path d="M85.0299 12.9271C84.7614 13.6251 84.5735 14.2826 84.2591 14.8715C83.9245 15.5017 83.4944 16.0914 83.0448 16.649C82.7825 16.9751 82.3876 16.9378 82.0783 16.6606C81.7639 16.3808 81.7627 16.0501 81.9682 15.6833C82.4845 14.7674 82.9981 13.8439 83.4835 12.9129C83.7065 12.4841 83.9807 12.1928 84.4758 12.398C84.6808 12.4828 84.8214 12.7187 85.0299 12.9271Z" fill="#4E2D12"/>
<path d="M32.5998 89.5545C32.0173 90.05 31.4414 90.5518 30.8473 91.0383C30.4883 91.3328 30.0734 91.3755 29.7698 91.0017C29.4662 90.628 29.5109 90.2429 29.9183 89.8889C30.6246 89.2781 31.3062 88.6327 31.9787 87.9861C32.3373 87.6401 32.719 87.4497 33.1623 87.7801C33.541 88.0594 33.4815 88.514 33.0468 89.0021C32.8913 89.1756 32.7254 89.3439 32.5647 89.5149C32.5777 89.5277 32.5906 89.5404 32.5998 89.5545Z" fill="#4E2D12"/>
<path d="M92.3249 80.2721C92.7683 80.6025 93.2206 80.9212 93.6576 81.258C94.0157 81.5401 94.0687 81.9219 93.8207 82.2775C93.5855 82.6201 93.1965 82.6883 92.8593 82.455C92.0556 81.8992 91.2531 81.3344 90.5195 80.6946C90.3552 80.5528 90.3553 80.0496 90.4717 79.7992C90.6412 79.4403 91.0289 79.3683 91.4021 79.5936C91.7275 79.7922 92.0453 80.0063 92.3656 80.2152C92.3517 80.2372 92.3364 80.2553 92.3249 80.2721Z" fill="#4E2D12"/>
<path d="M109.658 61.5258C109.239 61.5311 108.866 61.5812 108.502 61.5334C106.884 61.3241 105.267 61.1018 103.656 60.8474C103.179 60.7733 102.725 60.5627 102.257 60.4346C101.812 60.3152 101.367 60.1921 100.916 60.1307C100.511 60.0755 100.195 59.9296 100.157 59.5039C100.119 59.0396 100.378 58.6672 100.837 58.6655C101.373 58.6632 101.965 58.6979 102.441 58.9225C103.562 59.4518 104.751 59.4375 105.927 59.5995C107.103 59.7616 108.274 59.9598 109.436 60.1953C109.617 60.2327 109.828 60.5389 109.87 60.7484C109.91 60.954 109.755 61.2047 109.658 61.5258Z" fill="#4E2D12"/>
<path d="M16.3644 76.9204C16.1563 76.7635 15.8082 76.6243 15.688 76.3728C15.4949 75.9829 15.7184 75.6185 16.0987 75.4242C16.9643 74.9784 17.8429 74.5582 18.7098 74.1162C19.2003 73.8672 19.6881 73.6104 20.1551 73.3178C20.6182 73.0265 21.0074 73.1603 21.2572 73.5524C21.5186 73.9664 21.3006 74.3719 20.923 74.5867C20.0359 75.0829 19.1214 75.5239 18.2148 75.9881C17.6437 76.2775 17.079 76.5605 16.3644 76.9204Z" fill="#4E2D12"/>
<path d="M78.6591 14.5933C78.3996 14.613 78.0496 14.7453 77.7918 14.6441C77.3896 14.4846 77.3106 14.0643 77.4618 13.6644C77.8033 12.7523 78.1745 11.8516 78.5212 10.942C78.7153 10.4285 78.9081 9.91121 79.0571 9.37874C79.2074 8.85012 79.5828 8.69193 80.0323 8.81378C80.5025 8.94579 80.6164 9.39288 80.4781 9.8056C80.1536 10.7678 79.7725 11.7149 79.4094 12.6644C79.1812 13.254 78.9491 13.845 78.6591 14.5933Z" fill="#4E2D12"/>
<path d="M18.2164 32.2697C17.5922 31.8247 16.9591 31.3913 16.3452 30.9386C15.9716 30.6618 15.826 30.2728 16.1111 29.8874C16.3987 29.4969 16.7814 29.448 17.2258 29.7565C17.9921 30.2906 18.7851 30.7899 19.5806 31.2839C20.0055 31.5475 20.2829 31.8699 20.0747 32.3796C19.8967 32.8145 19.4447 32.8741 18.8639 32.5691C18.6549 32.4598 18.4522 32.3441 18.2495 32.2283C18.2368 32.2412 18.224 32.2542 18.2164 32.2697Z" fill="#4E2D12"/>
<path d="M81.1571 31.9704C81.8887 31.6606 82.5993 31.2763 83.3573 31.0563C84.9824 30.5836 85.7575 31.2824 86.1048 32.6777C86.7065 35.1085 86.6552 37.5256 85.298 39.7777C84.2468 41.5296 82.9485 43.0735 81.4872 44.4794C80.1906 45.726 78.919 45.8502 77.7378 45.0061C76.965 44.4527 76.8837 43.5602 76.6556 42.7908C75.4908 38.8104 76.909 35.6044 79.8054 32.9047C80.196 32.5392 80.72 32.3131 81.1845 32.0256C81.1689 32.0051 81.1636 31.9897 81.1571 31.9704ZM81.7572 33.1504C80.4574 33.9723 79.8178 34.5647 78.7981 36.0565C77.1337 38.4907 77.2712 41.0585 78.3267 43.6613C78.5467 44.2055 79.0608 44.3655 79.5967 44.1741C79.9454 44.0508 80.2934 43.8375 80.5563 43.5758C82.0222 42.108 83.3873 40.5586 84.3929 38.7232C85.3857 36.9009 85.2774 34.9725 84.8966 33.0383C84.7417 32.2569 84.4061 32.0789 83.593 32.3262C82.9505 32.5197 82.3657 32.8697 81.7572 33.1504Z" fill="#4E2D12"/>
<path d="M54.0544 85.7437C52.3716 86.7393 51.1177 87.5197 49.5717 87.5698C48.1954 87.6137 47.7072 87.3029 47.1949 86.0027C46.9642 85.4148 46.6656 84.8416 46.5312 84.2337C46.3888 83.5899 46.2537 82.8792 46.3698 82.2504C46.7295 80.3344 47.4088 78.5244 48.5833 76.9325C48.6101 76.8976 48.6394 76.8703 48.6661 76.8354C49.8427 75.3374 53.8443 73.9893 55.7011 74.4223C56.681 74.6513 57.2807 75.2509 57.4715 76.1878C57.8172 77.8932 57.8917 79.6094 57.4688 81.3276C57.0719 82.908 55.7953 84.767 54.0544 85.7437ZM50.5754 76.7173C50.1713 77.1691 49.7585 77.4948 49.5252 77.9185C49.042 78.7929 48.7163 79.7512 48.2176 80.618C47.2049 82.3697 47.6543 84.014 48.4469 85.6701C48.6572 86.1101 48.9673 86.3268 49.4412 86.2684C49.8534 86.218 50.3084 86.2176 50.6683 86.0389C51.7236 85.5197 52.7982 85.0069 53.7598 84.3391C55.49 83.1424 56.4441 81.458 56.455 79.3126C56.4596 78.5585 56.4141 77.7957 56.3172 77.046C56.1591 75.84 55.7293 75.4362 54.5458 75.6551C53.1915 75.9021 51.8748 76.3599 50.5754 76.7173Z" fill="#4E2D12"/>
<path d="M43.8571 74.5457C41.3689 75.6354 38.7126 76.3955 35.8637 75.6602C33.5571 75.0668 31.8429 73.5918 30.4892 71.6755C30.0903 71.1107 30.0033 70.4781 30.3498 69.8825C30.6823 69.309 31.0324 68.6864 31.5254 68.2687C33.5449 66.5734 35.8176 65.7206 38.4384 66.7315C39.9673 67.3236 41.5029 67.9479 42.9306 68.7466C43.7851 69.2248 44.5158 69.9947 45.1616 70.7549C46.107 71.8643 45.8081 72.8006 44.8655 73.7759C44.6053 74.0453 44.2635 74.2393 43.8571 74.5457ZM43.2107 73.3686C44.681 72.4799 44.7451 71.9506 43.5153 70.7876C43.3936 70.67 43.2872 70.5343 43.1515 70.4387C41.2764 69.1089 39.239 68.071 36.9763 67.6819C34.9556 67.3349 33.2878 68.2867 31.9089 69.7075C31.3439 70.2916 31.3984 70.7031 31.8969 71.3587C34.7453 75.1259 38.6915 75.4652 43.2107 73.3686Z" fill="#4E2D12"/>
<path d="M72.8848 74.3048C70.4427 75.7056 67.1699 75.6912 63.8785 74.0362C63.2049 73.6983 62.6151 73.2029 61.958 72.8251C60.8529 72.1915 60.3934 71.2474 60.483 69.9998C60.5742 68.7818 61.2087 67.86 62.086 67.0834C64.364 65.0633 68.8583 65.134 71.1279 66.7893C72.1838 67.5558 73.2144 68.3739 74.1658 69.2619C75.8771 70.8541 75.65 72.6302 72.8848 74.3048ZM72.7107 72.8633C72.8221 72.7995 72.9322 72.7447 73.0409 72.6732C74.2116 71.9384 74.3246 71.2376 73.3301 70.261C72.6761 69.6154 71.8869 69.102 71.2125 68.472C69.6242 66.9885 67.6965 66.7001 65.6723 66.9219C64.3019 67.0713 63.0722 67.6457 62.2496 68.8466C61.5617 69.8511 61.6517 70.8826 62.6009 71.651C63.2488 72.1782 63.967 72.647 64.714 73.0114C67.3961 74.3153 70.0734 74.2835 72.7107 72.8633Z" fill="#4E2D12"/>
<path d="M53.9855 59.5391C55.4237 61.7534 56.0439 64.2381 56.3704 66.8188C56.5999 68.624 55.2052 70.1621 53.3856 70.0647C52.7645 70.0315 52.1296 69.8697 51.5469 69.6471C49.113 68.7057 47.3685 66.9658 46.2099 64.6648C45.928 64.103 45.9187 63.3708 45.9009 62.7146C45.8667 61.4061 45.8517 60.091 45.9538 58.7918C46.0746 57.2455 46.9159 56.3005 48.3177 56.0544C48.8004 55.9714 49.3545 55.9716 49.8081 56.1308C51.3276 56.6702 52.8119 57.3077 53.5886 58.8919C53.6957 59.1177 53.8476 59.3239 53.9855 59.5391ZM52.7205 59.8589C52.3197 58.697 51.1281 57.9983 49.8066 57.473C48.3858 56.9085 47.3634 57.5239 47.245 59.0522C47.1584 60.1827 47.1361 61.3256 47.1741 62.4565C47.2093 63.554 47.4204 64.6259 48.2084 65.4881C48.5506 65.8616 48.8148 66.3089 49.1837 66.6475C50.3188 67.6837 51.6 68.4937 53.1405 68.7422C54.2936 68.925 55.2078 68.1056 55.0853 67.0293C54.8099 64.586 54.2011 62.235 52.7205 59.8589Z" fill="#4E2D12"/>
<path d="M61.7562 52.2091C63.4298 51.5134 65.0954 50.7945 66.7808 50.1335C68.4405 49.4855 69.8351 50.1622 71.105 51.1782C71.6417 51.6057 71.7378 52.2524 71.6463 52.9158C71.4148 54.616 70.8831 56.2165 69.8781 57.613C69.5206 58.1134 69.042 58.5734 68.5239 58.905C66.4259 60.2444 64.1584 61.0998 61.6195 61.0715C60.7492 61.0631 59.7321 61.3671 59.1423 60.532C58.3862 59.4611 57.8478 58.2859 58.2407 56.8574C58.8027 54.8294 59.9365 53.2944 61.7562 52.2091ZM70.433 52.2417C69.4355 51.5586 68.5072 50.8389 67.345 51.3214C65.4817 52.0905 63.6395 52.9211 61.8521 53.8492C60.4116 54.5987 59.7381 55.9853 59.4296 57.5226C59.1582 58.8795 60.0613 59.84 61.4479 59.7883C63.2328 59.7212 64.8878 59.2856 66.5482 58.5513C69.3795 57.2972 69.9965 54.8892 70.433 52.2417Z" fill="#4E2D12"/>
<path d="M49.7051 49.7497C48.1882 47.343 47.6628 44.8087 48.7671 42.0796C49.0839 41.2964 49.4058 40.5157 49.7033 39.7261C50.5502 37.4762 52.6289 36.81 54.6799 38.1142C55.7713 38.8083 56.4398 39.8617 56.8648 40.994C57.615 42.9914 57.4557 45.0669 56.8744 47.0886C56.56 48.1807 56.1077 49.2338 55.6824 50.2906C54.8344 52.399 51.8352 52.6955 50.375 50.8199C50.1245 50.4882 49.9301 50.1073 49.7051 49.7497ZM50.6088 48.8996C50.9696 49.3656 51.2858 49.877 51.7002 50.286C52.5432 51.1208 54.0083 50.9091 54.4487 49.8084C55.2474 47.82 56.1466 45.849 56.0694 43.609C56.0179 42.0484 55.4411 40.7228 54.4237 39.6035C54.0854 39.2287 53.5205 38.9828 53.0118 38.851C52.0124 38.59 51.4212 38.9465 51.0312 39.9052C50.6638 40.8046 50.3223 41.7167 49.9498 42.6136C49.0268 44.8293 49.5255 46.8824 50.6088 48.8996Z" fill="#4E2D12"/>
<path d="M69.6123 36.5458C70.8826 38.4819 71.4038 40.6263 71.5365 42.8903C71.6086 44.1085 71.065 44.9821 69.9727 45.5439C69.458 45.8099 68.95 45.9445 68.3997 45.7538C66.4421 45.0757 64.5808 44.2142 62.9513 42.8995C61.8909 42.0443 61.6741 40.7292 61.2875 39.571C60.7353 37.9275 60.5964 36.1988 61.2096 34.4845C61.5105 33.6421 62.0479 33.1405 62.9301 33.033C63.6801 32.9406 64.4352 32.8378 65.1883 32.8173C66.1637 32.7942 66.989 33.149 67.6031 33.9544C68.26 34.8226 68.94 35.6829 69.6123 36.5458ZM68.6404 37.3849C67.9719 36.5206 67.3392 35.6227 66.6146 34.8077C66.3307 34.4918 65.8398 34.1733 65.4439 34.1707C62.7034 34.1683 62.1391 33.9996 62.1626 37.1394C62.1716 38.3362 62.5166 39.4355 63.0389 40.5259C63.4098 41.2981 63.6958 42.0735 64.4946 42.4891C65.6895 43.1092 66.8719 43.768 68.106 44.3016C69.3749 44.8491 70.298 44.1815 70.2285 42.7947C70.1293 40.8805 69.6696 39.0549 68.6404 37.3849Z" fill="#4E2D12"/>
<path d="M38.3461 49.2561C38.5623 49.1221 38.7721 48.9817 38.9896 48.8516C40.8798 47.7336 42.1192 48.6224 42.9761 49.9384C44.0099 51.5209 44.2836 53.2293 43.5972 55.1192C42.8239 57.2451 41.5587 59.0873 40.5284 61.0643C39.5159 63.0052 36.2622 62.7822 35.4214 60.8845C34.2172 58.1604 34.0222 55.4618 35.3204 52.7095C36.0075 51.2624 36.9265 50.0415 38.3461 49.2561ZM38.941 50.4206C38.8668 50.4675 38.6811 50.5652 38.5098 50.6924C35.5419 52.9436 34.9664 57.2855 36.6648 60.4258C37.1849 61.3837 38.7312 61.3851 39.3529 60.4634C39.8004 59.799 40.1859 59.0912 40.5482 58.3784C41.1903 57.1015 41.8157 55.813 42.4114 54.5132C42.9046 53.4418 42.7768 52.3372 42.2654 51.3291C41.326 49.4693 40.6353 49.2448 38.941 50.4206Z" fill="#4E2D12"/>
<path d="M87.0817 66.1625C87.525 67.1595 88.081 68.1223 88.3832 69.1588C88.8475 70.7464 88.3292 71.5682 86.7592 72.0136C83.4179 72.9687 80.5895 72.0416 78.2762 69.5281C77.4234 68.602 76.6548 67.5699 76.0296 66.4802C74.7037 64.1674 75.8694 62.2474 78.2354 61.6809C79.557 61.3633 80.9142 61.5023 82.2051 62.0639C84.6579 63.1364 85.4613 63.817 87.0817 66.1625ZM87.2663 70.3785C87.2064 69.9388 87.2374 69.6142 87.1109 69.3693C86.4965 68.1727 85.9754 66.897 85.1756 65.8367C83.6436 63.8007 81.5488 62.6576 78.94 62.9027C77.0852 63.0797 76.1934 64.3171 77.2542 66.0796C77.7084 66.832 78.3226 67.4868 78.846 68.2027C79.859 69.5987 81.2447 70.4505 82.8754 70.9004C84.3644 71.3127 85.788 71.0549 87.2663 70.3785Z" fill="#4E2D12"/>
<path d="M54.4666 21.1145C55.7549 23.0402 55.7965 25.1633 55.4741 27.2643C55.3283 28.2214 54.7594 29.1466 54.262 30.0173C53.6314 31.114 52.8768 32.1369 52.1751 33.1891C51.6438 33.9854 50.9444 34.4777 49.9457 34.3196C48.8878 34.1516 48.0424 33.6875 47.6435 32.5937C46.4309 29.2789 46.7492 26.1214 48.5868 23.1249C49.0503 22.369 49.5383 21.622 50.1079 20.9503C50.5092 20.4779 51.0189 20.046 51.5631 19.7657C52.7539 19.153 53.6473 19.5061 54.2682 20.7091C54.3439 20.8553 54.417 21.0067 54.4666 21.1145ZM52.6038 20.7395C52.1151 21.0438 51.5587 21.238 51.2351 21.6236C49.5991 23.5622 48.3325 25.7274 48.2401 28.3262C48.1979 29.5619 48.5339 30.8235 48.7873 32.0572C48.9061 32.6445 49.4416 32.9177 50.0195 33.0129C50.6257 33.1157 50.9338 32.7225 51.2235 32.2753C51.8691 31.2853 52.459 30.2454 53.2081 29.3448C54.9406 27.2485 54.6366 22.695 52.6038 20.7395Z" fill="#4E2D12"/>
<path d="M85.7749 56.6057C83.9763 57.7655 81.9534 57.9784 79.9319 57.6919C78.4933 57.4904 77.0692 56.9915 75.7077 56.4497C74.0123 55.7724 73.6206 53.9322 74.9076 52.5943C77.104 50.3097 79.7967 49.2534 82.9384 50.1295C84.3424 50.5192 85.6641 51.2466 86.9726 51.9225C87.8578 52.3774 88.1147 53.2186 87.8688 54.197C87.633 55.1547 87.0035 55.8769 85.7749 56.6057ZM75.6078 54.9486C78.1531 56.355 80.8492 56.9446 83.7186 56.1419C84.7692 55.848 85.7627 55.3112 86.3969 54.3508C86.8672 53.6399 86.7522 53.2147 85.9909 52.8337C85.0129 52.346 84.036 51.8236 83.0038 51.4791C80.4935 50.6412 78.289 51.3288 76.3195 53.0071C75.7205 53.5168 75.437 54.1081 75.6078 54.9486Z" fill="#4E2D12"/>
<path d="M40.0626 40.3793C38.7889 40.9256 37.5206 41.4874 36.2365 42.0029C35.893 42.1416 35.4987 42.1815 35.1248 42.2059C33.3556 42.3064 32.5231 41.6787 32.2785 39.9173C32.1576 39.0469 32.0876 38.1118 32.2883 37.2778C32.4641 36.547 32.9262 35.7744 33.4855 35.2739C35.5858 33.3876 38.1788 32.9072 40.9072 33.0127C41.3907 33.0326 41.9012 33.2326 42.3399 33.4613C43.4548 34.0356 43.8544 35.0432 43.4327 36.2364C42.8123 38.0048 41.8414 39.5014 40.0626 40.3793ZM35.4079 35.5469C33.6354 36.242 33.3283 37.6326 33.5039 39.2799C33.6545 40.6778 34.257 41.1474 35.6031 40.8515C35.7674 40.8169 35.9303 40.7657 36.0801 40.6888C37.321 40.0718 38.5385 39.4113 39.8004 38.8432C41.1135 38.249 41.7091 37.1126 42.1871 35.883C42.4519 35.1992 42.3016 34.872 41.6373 34.5611C41.3007 34.4051 40.9075 34.2597 40.5517 34.2865C38.7569 34.4129 36.9056 34.3737 35.4079 35.5469Z" fill="#4E2D12"/>
<path d="M59.8404 47.1604C60.113 47.1792 60.3709 47.117 60.4964 47.2204C60.6632 47.357 60.8686 47.6568 60.8223 47.8231C60.5908 48.6675 60.3065 49.4956 59.9964 50.311C59.835 50.7316 59.4365 50.8976 59.091 50.5898C58.9111 50.4275 58.8501 50.0097 58.8995 49.7391C59.0096 49.1683 59.2163 48.6161 59.4101 48.0641C59.521 47.7596 59.6898 47.4741 59.8404 47.1604Z" fill="#4E2D12"/>
<path d="M31.4039 45.8493C31.6879 45.8384 31.9343 45.793 32.171 45.8197C32.9147 45.91 33.6535 46.0364 34.3984 46.1306C34.8333 46.1843 35.1305 46.3883 35.1389 46.8283C35.1478 47.3327 34.7734 47.4562 34.3604 47.4036C33.492 47.2999 32.6197 47.1976 31.7674 47.0153C31.546 46.9705 31.3303 46.6656 31.2206 46.4321C31.1592 46.3026 31.3284 46.0685 31.4039 45.8493Z" fill="#4E2D12"/>
<path d="M58.1605 63.645C58.3439 63.591 58.4617 63.5336 58.5838 63.5264C59.3342 63.4854 60.0882 63.4173 60.8352 63.442C61.0615 63.4508 61.404 63.6995 61.4543 63.8973C61.5033 64.0913 61.2638 64.5472 61.111 64.5649C60.1696 64.6754 59.2174 64.7164 58.2675 64.7137C58.1389 64.7146 57.9446 64.3465 57.9121 64.1254C57.8866 63.975 58.0831 63.7832 58.1605 63.645Z" fill="#4E2D12"/>
<path d="M43.9175 64.088C43.8967 64.4047 43.9527 64.6694 43.8482 64.7911C43.7067 64.9555 43.3599 65.1598 43.2425 65.0924C42.4886 64.6701 41.7193 64.2402 41.0635 63.6899C40.7142 63.3963 41.1112 62.6845 41.5135 62.844C42.3514 63.1731 43.1251 63.666 43.9175 64.088Z" fill="#4E2D12"/>
<path d="M47.7766 51.7752C47.8511 51.767 48.0394 51.677 48.1697 51.7314C48.8248 52.0154 49.4812 52.3031 50.097 52.6607C50.2313 52.7396 50.3079 53.1908 50.2112 53.3227C50.0713 53.5166 49.6937 53.7315 49.5158 53.6632C48.8856 53.4396 48.2728 53.1412 47.7058 52.7885C47.3184 52.5465 47.361 52.0546 47.7766 51.7752Z" fill="#4E2D12"/>
<path d="M43.3014 45.4797C43.1428 44.7253 42.9629 44.047 42.8754 43.3501C42.8548 43.1765 43.0877 42.8649 43.2685 42.8032C43.4416 42.7441 43.8075 42.8601 43.8986 43.0139C44.3048 43.701 44.5753 44.4559 44.4014 45.2678C44.3616 45.4534 44.1115 45.6892 43.9253 45.7227C43.7354 45.7574 43.5077 45.5684 43.3014 45.4797Z" fill="#4E2D12"/>
<path d="M43.0239 25.6119C43.6083 25.1975 44.2414 25.4675 44.1753 25.9029C44.0612 26.6384 43.8276 27.3632 43.5693 28.0663C43.5139 28.2185 43.1536 28.3328 42.9401 28.324C42.7923 28.3185 42.5177 28.0424 42.5361 27.9328C42.6763 27.0851 42.8809 26.2499 43.0239 25.6119Z" fill="#4E2D12"/>
<path d="M87.6511 63.087C87.2985 62.5192 87.3727 61.264 87.7667 60.8329C87.9044 60.6827 88.2389 60.5557 88.3911 60.6241C88.6 60.7206 88.849 61.0098 88.857 61.222C88.8751 61.7534 88.8034 62.2982 88.6852 62.8202C88.6429 63.011 88.3927 63.2468 88.2002 63.2867C88.0102 63.3214 87.7749 63.1351 87.6511 63.087Z" fill="#4E2D12"/>
<path d="M48.1429 36.8268C48.4381 37.2765 48.3318 37.6697 47.9905 37.7518C47.3053 37.921 46.5858 37.9644 45.8766 38C45.7326 38.0061 45.4634 37.7582 45.4572 37.6141C45.444 37.3993 45.5735 37.0111 45.7082 36.978C46.3972 36.8075 47.1035 36.7127 47.8098 36.6308C47.9383 36.6171 48.0874 36.7898 48.1429 36.8268Z" fill="#4E2D12"/>
<path d="M71.6131 47.457C71.4135 47.0606 71.7331 46.4871 72.1683 46.5924C72.8431 46.7578 73.511 47.0287 74.1113 47.3787C74.4806 47.5924 74.2747 48.2475 73.8553 48.3777C73.4937 48.4882 71.7801 47.7827 71.6131 47.457Z" fill="#4E2D12"/>
<path d="M43.4233 78.2716C44.0165 77.8455 44.607 78.0784 44.5513 78.5446C44.4678 79.2311 44.2532 79.9236 43.9648 80.5509C43.7979 80.9175 42.9531 80.7198 42.9875 80.3296C43.0499 79.5686 43.2976 78.8219 43.4233 78.2716Z" fill="#4E2D12"/>
<path d="M62.561 76.6187C62.5368 77.3408 62.5395 78.0408 62.4611 78.7299C62.4467 78.8638 62.074 79.0554 61.8837 79.0387C61.6881 79.0194 61.3741 78.7911 61.3561 78.6252C61.2837 78.0479 61.2779 77.4521 61.3379 76.8726C61.3558 76.6987 61.6499 76.4909 61.8576 76.42C62.0025 76.3663 62.2195 76.5116 62.561 76.6187Z" fill="#4E2D12"/>
<path d="M33.4036 61.7922C33.3791 62.1231 33.4615 62.4906 33.3135 62.6357C33.163 62.786 32.7315 62.8429 32.5391 62.7322C32.0705 62.4664 31.6296 62.118 31.268 61.7253C31.1307 61.5743 31.1648 61.1584 31.2712 60.9415C31.3409 60.806 31.7591 60.6977 31.9114 60.779C32.4173 61.0536 32.8738 61.4225 33.4036 61.7922Z" fill="#4E2D12"/>
<path d="M58.5511 31.878C58.8432 31.916 59.1091 31.8898 59.3001 31.9966C59.4383 32.0742 59.5922 32.3743 59.5429 32.4943C59.3158 33.062 59.0527 33.6249 58.7275 34.1444C58.6411 34.2813 58.2418 34.3445 58.06 34.2646C57.8781 34.1847 57.6416 33.8311 57.6907 33.6982C57.9201 33.0867 58.2422 32.5081 58.5511 31.878Z" fill="#4E2D12"/>
<path d="M60.0021 21.8834C60.1557 22.1321 60.3939 22.3647 60.4422 22.6321C60.4851 22.8711 60.3955 23.263 60.2228 23.3735C60.0501 23.484 59.592 23.4253 59.4662 23.2704C59.1276 22.857 58.8335 22.3725 58.6536 21.8705C58.5696 21.6368 58.6999 21.1881 58.8928 21.0234C59.2019 20.7588 59.5098 21.0193 59.7113 21.3204C59.827 21.4959 59.935 21.6741 60.0469 21.851C60.0341 21.8639 60.02 21.873 60.0021 21.8834Z" fill="#4E2D12"/>
<path d="M48.8014 72.7641C48.8628 72.5539 48.8746 72.2488 49.0274 72.0548C49.2643 71.7547 51.0011 71.7856 51.3244 72.0409C51.6968 72.3395 51.6567 72.9897 51.2123 73.0467C50.524 73.131 49.8098 73.0264 49.109 72.986C49.0357 72.9852 48.9707 72.8955 48.8014 72.7641Z" fill="#4E2D12"/>
<path d="M72.2282 60.9524C72.1699 61.2346 72.1813 61.5576 72.0324 61.7503C71.928 61.8848 71.5325 61.9467 71.3763 61.8537C70.9903 61.6285 70.6255 61.3272 70.3402 60.9817C70.2312 60.8511 70.2861 60.4582 70.4083 60.3004C70.5229 60.1581 70.8872 60.0553 71.0434 60.1354C71.4434 60.3386 71.7927 60.6452 72.2282 60.9524Z" fill="#4E2D12"/>
<path d="M78.9202 42.2546C78.7757 41.1514 78.6192 40.1641 78.5281 39.1674C78.4958 38.7957 78.6084 38.3831 79.1289 38.3733C79.6237 38.3635 79.7278 38.7065 79.7913 39.1191C79.9238 39.9856 80.0537 40.8573 80.2542 41.7092C80.3565 42.1473 80.3169 42.5349 79.8933 42.6149C79.6161 42.6708 79.2786 42.3989 78.9202 42.2546Z" fill="#4E2D12"/>
<path d="M84.5169 36.406C84.5382 36.4934 84.6177 36.6382 84.5811 36.7324C84.3337 37.3415 84.0993 37.9633 83.768 38.5279C83.6843 38.6726 83.191 38.7247 83.0115 38.614C82.8385 38.5096 82.7069 38.0986 82.7683 37.8885C82.9239 37.3753 83.1773 36.8846 83.4489 36.4221C83.6989 35.997 84.2619 35.9984 84.5169 36.406Z" fill="#4E2D12"/>
<path d="M81.4546 34.6168C81.7173 34.682 82.0116 34.6762 82.154 34.8168C82.2991 34.9652 82.4122 35.3093 82.3377 35.4809C82.119 35.9727 81.8553 36.4712 81.4958 36.8648C81.3454 37.0279 80.8787 37.0194 80.6208 36.9182C80.5009 36.8688 80.4252 36.37 80.5227 36.1647C80.7604 35.6407 81.1142 35.1673 81.4546 34.6168Z" fill="#4E2D12"/>
<path d="M48.8912 84.9208C48.7971 84.2046 48.5803 83.569 48.6632 82.9688C48.7776 82.1084 49.0875 81.2673 49.3563 80.4316C49.482 80.0447 49.7818 79.7531 50.2267 79.9368C50.6522 80.1141 50.6667 80.5091 50.5399 80.905C50.4745 81.1037 50.4001 81.301 50.3258 81.4984C49.965 82.4171 49.7972 83.3473 50.0924 84.326C50.2031 84.6882 50.1055 85.044 49.6999 85.1136C49.4559 85.1538 49.1784 84.9948 48.8912 84.9208Z" fill="#4E2D12"/>
<path d="M53.2955 82.7644C52.9055 82.691 52.497 82.7272 52.2707 82.5421C51.9059 82.2408 52.1232 81.8958 52.4165 81.585C52.9279 81.045 53.4121 80.4755 53.8911 79.9036C54.1536 79.5904 54.4396 79.3337 54.8376 79.6193C55.2008 79.8782 55.2167 80.2899 54.975 80.626C54.4622 81.3257 53.9003 81.9947 53.2955 82.7644Z" fill="#4E2D12"/>
<path d="M51.0837 77.8168C51.8921 77.4678 52.4542 77.1643 53.0481 77.0046C53.2841 76.9413 53.6049 77.2017 53.8834 77.3131C53.7646 77.5944 53.7278 78.0026 53.5193 78.134C52.996 78.463 52.4039 78.6909 51.8181 78.9122C51.4336 79.0563 50.913 79.2296 50.7802 78.6643C50.715 78.3726 51.0143 77.991 51.0837 77.8168Z" fill="#4E2D12"/>
<path d="M41.1966 69.9832C41.1742 70.2575 41.2382 70.5582 41.1172 70.707C40.9937 70.8609 40.6424 70.9894 40.4697 70.9236C39.0016 70.3838 37.4952 70.3989 35.9712 70.4631C35.7296 70.4724 35.3212 70.1817 35.2514 69.9518C35.1287 69.5292 35.4249 69.2647 35.8872 69.2102C37.4154 69.0199 38.9242 69.1502 40.4066 69.5303C40.6744 69.598 40.9023 69.8127 41.1966 69.9832Z" fill="#4E2D12"/>
<path d="M40.7949 72.4554C40.6631 72.7111 40.5549 73.1867 40.3828 73.211C39.7382 73.2976 39.0683 73.2724 38.4135 73.2034C38.2707 73.1876 38.0919 72.8272 38.0736 72.6098C38.0583 72.4645 38.2823 72.1645 38.4121 72.1546C39.0673 72.1117 39.7307 72.1304 40.3903 72.1505C40.4854 72.1525 40.579 72.2883 40.7949 72.4554Z" fill="#4E2D12"/>
<path d="M63.1064 69.8099C63.2685 69.832 63.5292 69.8033 63.7215 69.9011C63.9382 70.0078 64.1134 70.219 64.2729 70.4096C64.8072 71.0444 65.4582 71.4673 66.2884 71.6099C66.7543 71.6917 67.0944 71.9584 66.9761 72.4675C66.8678 72.9431 66.446 72.915 66.0458 72.8623C64.7051 72.6833 63.7506 71.8995 62.9511 70.8778C62.6889 70.5372 62.6683 70.1873 63.1064 69.8099Z" fill="#4E2D12"/>
<path d="M68.5802 71.5806C68.8474 71.5582 69.0543 71.5478 69.261 71.5246C69.9238 71.4533 70.5945 71.418 71.2491 71.2978C71.7177 71.2111 72.1214 71.2238 72.2461 71.7403C72.3549 72.1978 72.0125 72.478 71.6235 72.5333C70.7169 72.6577 69.801 72.7423 68.8885 72.7612C68.697 72.7663 68.408 72.4478 68.3292 72.2167C68.2701 72.0562 68.4867 71.7974 68.5802 71.5806Z" fill="#4E2D12"/>
<path d="M68.0739 68.1711C68.3531 68.5489 68.1526 69.0688 67.6527 69.0888C66.9049 69.1247 66.1514 69.0936 65.4053 69.0213C64.9255 68.9743 64.7363 68.4325 65.0191 68.078C65.4431 67.5463 67.661 67.6153 68.0739 68.1711Z" fill="#4E2D12"/>
<path d="M48.7486 65.0199C48.5899 64.7687 48.3645 64.536 48.3021 64.2649C48.2463 64.0259 48.2899 63.6627 48.4428 63.4944C48.7157 63.1992 49.0612 63.3307 49.3178 63.6173C49.4293 63.7427 49.4974 63.9044 49.6127 64.0284C50.179 64.6437 50.7365 65.2706 51.3283 65.8599C51.6598 66.1897 52.1249 66.4955 51.761 67.0024C51.3947 67.5144 50.939 67.2613 50.5702 66.9228C49.9256 66.3299 49.2963 65.7189 48.6581 65.1196C48.6862 65.0885 48.718 65.0561 48.7486 65.0199Z" fill="#4E2D12"/>
<path d="M52.0133 61.0334C52.1457 61.5601 52.3161 62.16 52.4427 62.7704C52.5334 63.1996 52.3666 63.592 51.9128 63.5834C51.6711 63.5798 51.2599 63.2557 51.2326 63.0371C51.1125 62.1062 50.6958 61.3883 50.015 60.7648C49.6966 60.4735 49.5003 60.0115 49.9258 59.6599C50.3371 59.3175 50.6809 59.57 50.9832 59.9399C51.2686 60.2983 51.6078 60.6127 52.0133 61.0334Z" fill="#4E2D12"/>
<path d="M63.6451 54.0201C63.7507 54.04 64.1142 54.0106 64.3237 54.1713C64.709 54.4699 64.4881 54.842 64.2604 55.1691C63.6627 56.0224 63.0636 56.8718 62.471 57.7277C62.3541 57.9009 62.2862 58.1047 62.1692 58.2779C61.9226 58.6501 61.6229 58.9674 61.145 58.6489C60.7445 58.3813 60.842 58.0126 61.0321 57.651C61.6975 56.3919 62.2957 55.0868 63.6451 54.0201Z" fill="#4E2D12"/>
<path d="M68.2526 52.6976C68.085 52.9869 67.9904 53.3891 67.7801 53.4651C67.1533 53.6919 66.482 53.8263 65.8181 53.9195C65.6384 53.9464 65.327 53.7258 65.2472 53.5423C65.1713 53.3704 65.2709 52.9322 65.3799 52.8993C66.1328 52.6768 66.9105 52.5147 67.682 52.3719C67.8039 52.3518 67.9621 52.5257 68.2526 52.6976Z" fill="#4E2D12"/>
<path d="M66.0533 55.6539C66.8147 55.2049 67.1862 55.1986 67.4081 55.6604C67.6262 56.1107 67.3171 56.5515 66.5711 56.8319C66.1635 56.9839 65.6966 57.1131 65.4538 56.6282C65.1994 56.1216 65.614 55.8769 66.0533 55.6539Z" fill="#4E2D12"/>
<path d="M51.1972 47.9935C51.0703 47.5208 50.8272 46.8082 50.724 46.0779C50.6941 45.8645 51.0482 45.5932 51.2263 45.3475C51.4604 45.5428 51.8536 45.7011 51.8991 45.935C52.0674 46.7807 52.3802 47.534 52.9328 48.197C53.1727 48.4849 53.2361 48.8847 52.8956 49.0697C52.6716 49.1935 52.2469 49.1319 52.0055 48.9907C51.7447 48.8302 51.584 48.4851 51.1972 47.9935Z" fill="#4E2D12"/>
<path d="M53.0793 42.3715C52.9258 42.1229 52.7107 41.8952 52.6302 41.6217C52.5709 41.4226 52.6143 41.0465 52.7436 40.9723C52.9522 40.8538 53.3979 40.8007 53.5055 40.9274C53.9126 41.3906 54.279 41.9106 54.5415 42.4661C54.6369 42.6701 54.4706 43.1267 54.2727 43.3018C53.9471 43.5935 53.6686 43.3058 53.4684 43.0085C53.328 42.7984 53.1991 42.5844 53.0664 42.3716C53.0754 42.3728 53.0754 42.3728 53.0793 42.3715Z" fill="#4E2D12"/>
<path d="M64.0233 39.2955C64.5089 39.4352 64.8932 39.4288 65.0076 39.6004C65.6656 40.6102 66.4534 41.4466 67.5539 41.9914C67.719 42.0726 67.7601 42.5833 67.694 42.8552C67.6679 42.9674 67.1623 43.084 66.9432 43.0082C65.6068 42.5396 64.6715 41.5858 64.0516 40.3351C63.9367 40.0991 64.028 39.7626 64.0233 39.2955Z" fill="#4E2D12"/>
<path d="M68.2573 38.9046C68.3231 39.1101 68.5258 39.5785 68.6156 40.0682C68.6491 40.2546 68.4591 40.629 68.3116 40.6622C68.0729 40.7178 67.652 40.6421 67.5466 40.4716C67.2148 39.9398 66.9495 39.3508 66.751 38.7563C66.6787 38.5444 66.804 38.1189 66.9742 38.0136C67.1521 37.9056 67.5192 38.0125 67.7527 38.1307C67.9153 38.2171 67.9906 38.4753 68.2573 38.9046Z" fill="#4E2D12"/>
<path d="M63.8642 35.7074C64.3327 35.9604 64.6727 36.038 64.8208 36.2455C65.1248 36.6836 64.7993 37.6676 64.3281 37.9101C63.9516 38.103 63.5431 37.9629 63.5315 37.6142C63.5081 37.0675 63.7083 36.5089 63.8642 35.7074Z" fill="#4E2D12"/>
<path d="M37.311 54.5546C37.5104 54.5726 37.8057 54.5192 37.9634 54.6417C38.1263 54.7667 38.2871 55.1247 38.2201 55.2809C37.7982 56.272 37.9379 57.2478 38.1113 58.2595C38.1517 58.5037 37.905 58.8631 37.6865 59.0408C37.6035 59.1122 37.08 58.8866 37.0117 58.6991C36.5409 57.4449 36.422 56.1653 37.0322 54.9078C37.0763 54.7981 37.1798 54.7112 37.311 54.5546Z" fill="#4E2D12"/>
<path d="M39.8883 54.8966C40.1814 54.8999 40.461 54.8259 40.6302 54.9316C40.7942 55.0348 40.973 55.3823 40.9136 55.523C40.6939 56.0495 40.4072 56.5559 40.0713 57.0188C39.981 57.1442 39.5775 57.1701 39.411 57.0721C39.2457 56.9779 39.0632 56.6317 39.1186 56.4795C39.3177 55.9428 39.6147 55.4415 39.8883 54.8966Z" fill="#4E2D12"/>
<path d="M40.8643 53.4025C40.7905 52.8084 40.6759 52.2713 40.677 51.7334C40.6783 51.5609 40.9577 51.2849 41.1477 51.2502C41.3287 51.2143 41.6963 51.3856 41.745 51.541C41.907 52.0534 42.0062 52.5958 42.0308 53.1335C42.0384 53.2944 41.7448 53.5665 41.5523 53.6064C41.3534 53.6528 41.1066 53.4833 40.8643 53.4025Z" fill="#4E2D12"/>
<path d="M79.6038 64.3705C79.8205 65.8361 80.7029 66.7864 81.3486 67.8606C81.4357 68.0028 81.5757 68.1615 81.5653 68.307C81.5477 68.5323 81.4745 68.8841 81.3335 68.9365C81.1078 69.0178 80.6668 68.9963 80.5603 68.8477C79.7222 67.65 78.7228 66.5331 78.4224 65.0359C78.4131 64.9961 78.3986 64.9537 78.397 64.9112C78.3671 64.5215 78.356 64.0737 78.8494 64.0344C79.1075 64.0109 79.3936 64.2702 79.6038 64.3705Z" fill="#4E2D12"/>
<path d="M84.0463 66.0887C83.9743 66.4315 84.0006 66.8611 83.8304 66.9665C83.6167 67.0953 83.1691 67.0545 82.9495 66.9016C82.3357 66.4745 81.7523 65.9855 81.2341 65.4484C81.067 65.2732 81.0368 64.8449 81.1236 64.5959C81.1689 64.4644 81.6989 64.3438 81.8591 64.4482C82.5863 64.9183 83.2589 65.4801 84.0463 66.0887Z" fill="#4E2D12"/>
<path d="M84.8721 69.2516C84.6658 68.8231 84.1884 68.4054 84.7595 67.9397C85.1287 67.6374 85.5935 67.9174 85.9871 68.6303C86.0666 68.7752 86.2079 68.9377 86.1896 69.073C86.1543 69.3344 86.0889 69.6965 85.9085 69.8096C85.7524 69.9059 85.4029 69.7499 85.1668 69.637C85.0352 69.5786 84.9657 69.3873 84.8721 69.2516Z" fill="#4E2D12"/>
<path d="M52.7452 24.3379C52.8909 25.2687 53.0407 26.0475 53.1186 26.8295C53.1603 27.2539 52.897 27.6275 52.4608 27.557C52.2278 27.5161 51.9628 27.1421 51.8785 26.8698C51.6796 26.2367 51.55 25.58 51.4667 24.9203C51.4298 24.6362 51.5754 24.3328 51.6374 24.0364C51.9916 24.1306 52.3471 24.2286 52.7452 24.3379Z" fill="#4E2D12"/>
<path d="M49.3333 28.4091C49.658 28.165 50.1422 28.2879 50.2225 28.7121C50.3283 29.2737 50.3609 29.8603 50.3331 30.4332C50.3109 30.9095 49.784 31.0893 49.3949 30.8049C48.834 30.3942 48.7939 28.8167 49.3333 28.4091Z" fill="#4E2D12"/>
<path d="M77.6474 54.4075C77.6729 54.2052 77.6231 53.9083 77.7506 53.7659C77.8844 53.617 78.18 53.6022 78.4084 53.5544C78.4764 53.5398 78.5758 53.5919 78.6404 53.6429C79.3142 54.1828 80.0734 54.4699 80.939 54.5272C81.3518 54.5541 81.6606 54.767 81.5859 55.2655C81.521 55.6919 81.2195 55.7775 80.8506 55.7787C79.6218 55.7765 78.5774 55.3459 77.6474 54.4075Z" fill="#4E2D12"/>
<path d="M84.202 53.5688C84.165 53.9513 84.2225 54.2456 84.1016 54.4072C83.9871 54.5624 83.6346 54.6999 83.4747 54.634C82.7874 54.3439 82.1164 54.0008 81.4772 53.6126C81.3262 53.5222 81.2244 53.1484 81.2808 52.9614C81.3361 52.7835 81.6837 52.5186 81.8062 52.5629C82.6195 52.8573 83.4012 53.2228 84.202 53.5688Z" fill="#4E2D12"/>
<path d="M36.3558 36.1609C37.4465 35.9092 38.4113 35.6532 39.3932 35.4729C39.8181 35.3968 40.2638 35.52 40.2938 36.086C40.3205 36.5671 39.9832 36.6736 39.5713 36.7625C38.7191 36.9458 37.8751 37.1778 37.0389 37.433C36.6388 37.5566 36.2332 37.6391 36.1217 37.1611C36.054 36.8746 36.2647 36.5232 36.3558 36.1609Z" fill="#4E2D12"/>
<path d="M37.1687 39.6508C36.4792 39.7441 35.9442 39.888 35.4183 39.8567C35.1906 39.844 34.904 39.4946 34.8082 39.2392C34.7649 39.1249 35.0991 38.7701 35.322 38.6811C35.7424 38.5162 36.2069 38.405 36.6542 38.3943C36.9305 38.3861 37.4074 38.5631 37.4447 38.7353C37.5071 39.0064 37.2769 39.3386 37.1687 39.6508Z" fill="#4E2D12"/>
<path d="M95.1407 62.8624C95.5473 61.3733 96.0453 59.9004 96.3052 58.384C96.7808 55.6372 96.9039 52.8516 96.901 50.0616C96.8954 47.2511 96.5483 44.4968 95.7053 41.7871C95.1137 40.544 94.5439 39.2892 93.9203 38.0656C93.5603 37.3628 93.0645 36.7278 92.7083 36.0236C92.0181 34.6551 91.3906 33.2565 90.7196 31.8814C89.9429 30.2843 89.1058 28.7121 87.9185 27.3842C86.8582 26.2021 85.7098 25.1017 84.578 23.987C83.5822 23.0066 82.5354 22.0908 81.2621 21.4802C79.2225 20.4989 77.1818 19.5267 75.1397 18.5506C74.0625 18.0365 72.9282 17.6193 71.9234 16.9903C70.1167 15.8607 68.2244 15.1475 66.0741 15.1758C63.8344 14.9294 66.3801 13.8071 66.3801 13.8071C68.5806 13.8003 70.5295 14.5158 72.3826 15.6553C73.3434 16.2435 74.3994 16.683 75.4198 17.1692C77.0839 17.956 78.7606 18.7171 80.4247 19.5039C81.178 19.8619 81.9658 20.1822 82.6365 20.663C83.7389 21.4523 84.8211 22.2957 85.8025 23.2338C87.0751 24.4467 88.3134 25.7099 89.429 27.0666C90.2294 28.0407 90.8421 29.182 91.4648 30.2897C92.0927 31.4 92.6335 32.5572 93.1999 33.7014C93.5615 34.4338 93.8757 35.191 94.259 35.9117C94.7361 36.8068 95.3042 37.6537 95.7596 38.5605C96.2163 39.4711 96.5808 40.4262 96.9863 41.3629C98.1249 44.7631 98.4364 48.2562 98.2572 51.7964C98.1486 53.9449 98.0066 56.0963 97.7192 58.2241C97.5218 59.6719 97.0735 61.0891 96.696 62.5124C94.9424 65.0501 95.1407 62.8624 95.1407 62.8624ZM93.8534 71.0208C92.5847 73.7716 90.8562 76.232 88.9173 78.5663C87.6752 80.0609 86.3088 81.4302 84.9111 82.7457C83.7024 83.8848 82.3502 84.9181 80.8392 85.7003C79.8789 86.1956 79.0228 86.8834 78.0872 87.4262C76.9968 88.0563 75.5613 87.2344 77.0616 86.4086C78.078 85.8511 78.9981 85.1243 80.0145 84.5668C81.6493 83.6693 83.0867 82.5209 84.4618 81.2777C84.9112 80.8707 85.2958 80.3868 85.7245 79.9567C86.0447 79.6367 86.4284 79.3768 86.7176 79.0287C87.6935 77.8615 88.6358 76.6713 89.5884 75.4862C90.5067 74.3516 91.1305 73.0335 91.8848 71.7957C91.8771 71.7983 94.0313 68.1692 93.8534 71.0208ZM19.3645 45.3511C19.5327 43.78 20.0243 42.3006 20.5866 40.8402C20.9548 39.8803 21.3951 38.9431 21.7826 37.9895C21.9227 37.645 22.019 37.2853 22.1204 36.9281C22.6164 35.185 23.3872 33.5803 24.4507 32.1036C24.812 31.6019 24.9911 30.9689 25.2297 30.3843C25.7333 29.1546 26.4993 28.102 27.432 27.1731C29.0013 25.6056 30.5667 24.0265 32.18 22.4999C33.1819 21.5474 34.2252 20.6281 35.327 19.792C35.8484 19.3948 36.5726 19.2896 37.1537 18.9537C38.0547 18.4356 38.9088 17.8303 39.7813 17.266C40.1151 17.0489 40.4267 16.7663 40.792 16.6287C42.1199 16.1283 43.4312 15.4659 44.8088 15.2496C47.6296 14.8076 50.3379 13.948 53.1164 13.357C53.4963 13.2747 53.912 13.3478 54.3131 13.3529C55.3878 13.369 56.4625 13.385 57.5347 13.4062C59.7614 13.4507 57.5747 14.7945 57.5747 14.7945C56.5564 14.7549 55.5333 14.7771 54.5152 14.7633C54.1193 14.7608 53.7097 14.6554 53.3337 14.7364C52.1953 14.9742 51.0677 15.2816 49.9322 15.5529C48.7055 15.8467 47.4749 16.1289 46.2443 16.4112C45.3487 16.6179 44.4412 16.7899 43.5522 17.0287C43.1199 17.1461 42.7154 17.3701 42.3055 17.5658C41.706 17.8478 41.0624 18.0631 40.5356 18.4449C39.3249 19.3139 38.1527 20.1954 36.6994 20.6053C36.3865 20.6948 36.0976 20.9181 35.8344 21.1283C33.284 23.1682 31.0602 25.5611 28.7248 27.8286C27.6439 28.8768 26.7802 30.0832 26.2562 31.5177C26.0723 32.0234 25.8628 32.5421 25.5537 32.9701C24.6121 34.2632 23.944 35.6781 23.4837 37.1984C23.3206 37.74 23.2169 38.3043 23.0087 38.8269C22.6718 39.6643 22.2227 40.4626 21.9051 41.3063C21.3794 42.6855 20.8937 44.0811 20.748 45.5671C19.1856 47.5451 19.3645 45.3511 19.3645 45.3511ZM20.066 53.5362C20.1595 54.8675 20.2491 56.2002 20.3388 57.5328C20.3779 58.1129 20.3527 58.7064 20.465 59.2744C20.7751 60.863 21.1468 62.4434 21.4929 64.024C21.6845 64.9004 21.7877 65.8069 22.0973 66.6388C22.4397 67.567 22.9386 68.4375 23.4271 69.3029C23.8544 70.0645 24.2857 70.8505 24.8498 71.5095C25.7433 72.555 26.6238 73.5877 27.2885 74.8058C28.7391 77.4717 30.4978 79.9077 32.7026 82.0152C33.5882 82.8613 34.5778 83.5342 35.6477 84.1024C36.3033 84.4506 36.9855 84.7511 37.6068 85.1498C38.7783 85.9026 40.0306 86.4644 41.3348 86.9139C42.362 87.2688 43.3445 87.6818 44.2477 88.3025C44.926 88.7678 45.6539 89.1644 46.3919 89.5276C47.6395 90.1384 49.0074 90.3468 50.3615 90.5901C51.1389 90.7291 51.9106 90.9646 52.6939 91.0199C55.0564 91.1857 60.8994 90.9553 63.2628 91.0606C63.2628 91.0606 65.3031 91.4525 63.7556 92.4923C62.0944 92.4312 56.9535 92.7059 55.2945 92.601C54.0085 92.5194 52.7211 92.4211 51.4498 92.2442C50.4049 92.1019 49.376 91.8423 48.3408 91.6149C46.958 91.3127 45.6242 90.8646 44.4448 90.0758C43.1593 89.2157 41.8047 88.5555 40.3469 88.0208C38.9819 87.5189 37.7088 86.7578 36.4233 86.061C35.2347 85.4216 34.0039 84.8223 32.931 84.0187C31.3656 82.8541 30.0719 81.3905 28.8878 79.8206C27.7479 78.3044 26.7424 76.7166 25.8302 75.0626C25.3207 74.1355 24.6796 73.3264 23.9362 72.5824C23.1423 71.791 22.6247 70.8151 22.1263 69.8327C21.4414 68.4795 20.6372 67.1671 20.3507 65.6479C20.158 64.6299 20.0308 63.6025 19.8265 62.5885C19.6276 61.6028 19.3568 60.633 19.1541 59.6486C19.0514 59.1589 19.013 58.656 18.981 58.1595C18.8795 56.6288 18.8025 55.094 18.692 53.562C19.8093 51.8778 20.066 53.5362 20.066 53.5362Z" fill="#4E2D12"/>
</g>
<defs>
<clipPath id="clip0_2_1954">
<rect width="94.1982" height="148.433" fill="white" transform="translate(0 30.4174) rotate(-18.8389)"/>
</clipPath>
</defs>
</svg>
