<svg width="106" height="85" viewBox="0 0 106 85" fill="none" xmlns="http://www.w3.org/2000/svg">
<path d="M5.02186 39.291C7.39175 36.3509 9.73559 33.4031 12.1921 30.5389C13.8208 28.6428 15.4276 26.6507 17.3753 25.122C22.2983 21.2323 27.813 18.3606 33.9235 16.7745C35.0928 16.4752 36.3657 16.3573 37.5748 16.4409C40.6214 16.6504 43.5617 17.5095 46.542 18.1664C52.0301 19.3817 56.0902 22.7077 59.8087 26.5347C62.6961 29.5127 64.9466 32.9807 65.9174 37.13C66.1428 38.1114 66.7783 38.7365 67.6059 39.2941C68.6099 39.963 69.7756 40.7714 70.7993 41.5291C71.2323 40.636 71.4613 39.6955 71.8557 38.8302C71.9779 38.5631 71.9853 38.2051 71.97 37.9016C71.854 35.7717 71.6521 33.6447 71.6147 31.5142C71.6073 30.8288 71.8895 30.0852 72.2263 29.467C72.6944 28.6105 72.9748 27.8359 72.7648 26.8022C72.5503 25.7542 72.5473 24.6248 72.6906 23.5607C72.9051 21.937 73.5295 20.3127 74.8383 19.3694C78.7697 16.5302 82.9022 17.1382 85.9425 21.1438C88.2093 20.4411 90.4203 20.6014 92.3271 21.765C96.341 24.2041 98.1821 29.5064 93.9766 33.8535C93.6429 34.202 93.5151 34.8582 93.4949 35.3782C93.421 37.3535 93.3027 39.2873 91.9703 40.9177C90.6771 42.4964 89.0049 43.4891 87.1302 44.1335C86.3813 44.3894 86.1685 44.7716 86.0153 45.4988C85.0134 50.3071 83.9949 55.1127 82.8721 59.8873C82.5117 61.4218 82.1549 62.2044 81.6143 63.692C81.5895 63.7392 80.974 64.5782 80.5703 64.8535C78.24 66.4455 74.4031 65.9514 72.5078 64.1123C71.5962 63.2329 70.7189 62.3113 69.8682 61.3736C67.7471 59.0353 65.6575 56.6715 63.5836 54.3582C62.9735 54.9347 62.5483 55.4459 62.0263 55.7975C60.0033 57.1597 57.9692 58.486 55.914 59.795C55.3029 60.19 54.6657 60.5772 53.991 60.818C47.9497 62.9835 41.7575 63.6701 35.4429 62.3078C33.8364 61.9601 32.1817 61.406 30.776 60.5613C26.3543 57.9008 22.5691 54.4185 19.1343 50.5905C16.6336 47.8166 13.8383 45.6953 10.1415 44.7625C8.55039 44.3626 7.00207 43.6174 5.57708 42.7866C4.10491 41.9308 3.96553 40.5907 5.02186 39.291ZM11.2189 42.4366C15.114 43.3474 18.0924 45.6016 20.7071 48.5141C24.0908 52.2789 27.7888 55.7092 32.1125 58.3842C34.7957 60.0423 37.8811 60.4532 40.9309 60.393C43.8471 60.3347 46.7863 59.9689 49.6575 59.4345C51.9666 58.9952 54.2148 58.156 56.1032 56.6141C56.4426 56.335 56.8398 56.1407 57.221 55.9197C59.0397 54.8658 60.7898 53.7936 61.9164 51.8555C62.6625 50.5729 63.446 50.6067 64.4367 51.6907C67.2951 54.8043 70.1634 57.8989 72.9466 61.0753C74.2649 62.5795 75.4523 63.2547 77.1463 63.1722C79.4391 63.0621 79.7029 61.4706 79.7029 61.4706C81.3321 56.8789 81.9052 54.148 82.7233 49.3572C82.9948 47.7395 83.3733 46.1361 83.5472 44.5092C83.6994 43.0155 84.5457 42.3105 85.8452 41.8206C86.8564 41.4439 87.8457 40.9712 88.7655 40.4015C90.7882 39.1657 91.0887 37.1834 90.8153 35.0549C90.6822 33.9895 90.9205 33.1805 91.725 32.4173C93.2757 30.9564 94.2899 29.2666 93.5169 26.9768C92.5614 24.1744 89.3393 22.4068 86.4972 23.8491C85.0062 24.6117 84.447 24.3345 83.84 22.7837C83.19 21.1198 80.5789 19.8978 78.8619 20.2878C74.9728 21.1774 74.8724 23.983 75.402 27.2177C75.584 28.3391 75.3214 29.1714 74.8375 30.104C74.4853 30.7744 74.2332 31.564 74.1915 32.32C74.0586 34.3847 73.9994 36.4582 74.6802 38.4762C74.7702 38.7408 74.6405 39.1367 74.4944 39.4034C74.2761 39.8188 73.9284 41.3178 73.7528 41.7438C73.2653 42.9699 72.6139 44.8634 71.9985 45.1175C71.3734 45.2638 69.1285 43.6201 68.2763 42.9832C67.1777 42.1618 66.0542 41.3877 65.0042 40.5196C64.0852 39.769 63.5882 38.3185 63.2247 37.0953C61.8035 32.3584 58.6778 28.9168 55.1624 25.6433C50.3863 21.2035 44.4237 20.1116 38.3747 19.0465C35.3299 18.5122 32.7129 19.79 30.0612 20.778C25.9539 22.3122 22.1571 24.5169 18.7446 27.2744C17.2443 28.4904 16.0342 30.0829 14.7523 31.5711C12.1814 34.5498 9.64998 37.5795 7.10465 40.5898C7.11562 40.7524 7.12659 40.915 7.13756 41.0776C8.49395 41.5345 9.8335 42.1152 11.2189 42.4366Z" fill="white"/>
<path d="M12.7007 37.0132C14.5403 34.8304 16.212 32.4625 18.8382 31.0871C19.1829 30.9012 19.4657 30.5922 19.7942 30.3796C21.9007 29.0073 23.8869 27.3481 26.1596 26.359C29.0792 25.0902 32.2272 24.3039 35.3085 23.404C36.3708 23.0905 37.5265 22.8745 38.6242 22.9294C42.0579 23.09 45.4426 23.5505 48.4473 25.4567C49.772 26.2949 51.1536 27.0364 52.5229 27.7897C57.1489 30.371 59.4306 34.5249 60.3451 39.5612C60.4908 40.3618 60.7622 40.9574 61.4362 41.452C66.3441 45.0446 70.8278 49.1008 74.8287 53.6861C76.149 49.0399 77.4433 44.386 78.7542 39.7348C79.1449 38.349 79.3374 37.2143 78.2676 35.7991C76.7385 33.7674 76.5971 31.4794 78.4933 30.1406C79.7922 29.2162 80.2895 28.3269 79.5304 26.8707C79.4797 26.7836 79.4894 26.6621 79.4797 26.5544C79.4062 25.8342 79.7074 25.3298 80.4116 25.1589C81.1159 24.988 81.6202 25.2663 81.8537 25.9686C82.0537 26.5627 82.1817 27.1791 82.4419 27.7387C82.5673 28.016 82.8694 28.278 83.1529 28.4036C83.9273 28.7642 84.7414 29.0493 85.6659 29.4109C85.7947 29.2919 86.0594 29.0517 86.3219 28.8044C86.5844 28.557 86.8541 28.3074 87.1071 28.055C87.7398 27.4242 88.4605 27.3825 89.0317 28.0038C89.5774 28.5935 89.4319 29.2946 88.8767 29.8699C88.4457 30.3118 87.9515 30.7021 87.5627 31.1784C87.3601 31.4151 87.1917 31.8388 87.26 32.1101C88.1021 35.5642 86.2746 38.0911 82.7384 38.1598C81.8537 38.1811 81.6791 38.5593 81.4882 39.2667C80.1585 44.1371 78.8121 49.0047 77.4469 53.8624C77.3054 54.3727 77.1638 54.8829 77.0223 55.3932C76.6858 56.5725 76.6329 57.8773 75.8629 58.1161C75.0929 58.3548 74.7665 57.5311 74.2268 56.8843C74.1384 56.7773 74.0406 56.6653 73.9522 56.5584C69.9942 51.857 65.5363 47.7059 60.5993 44.0195C60.1519 45.7313 59.9805 47.4681 59.257 48.9255C57.6657 52.138 54.8607 53.9799 51.423 54.8243C50.0815 55.1532 48.7087 55.3812 47.3401 55.521C39.5254 56.2917 32.9248 53.8798 27.5868 48.0096C25.4352 45.6492 23.1454 43.4028 20.7723 41.2692C19.9603 40.5329 18.7526 40.1485 17.6647 39.8455C16.3163 39.4652 14.8933 39.353 13.5136 39.101C12.4876 38.9211 12.0242 37.8079 12.7007 37.0132ZM83.3029 35.5027C84.6005 35.1084 85.2552 34.2177 84.9605 33.2419C84.5328 31.7857 82.8292 30.5907 81.7205 30.9581C80.1966 31.4622 79.5859 32.4183 79.9843 33.678C80.4638 35.1735 81.8637 35.9489 83.3029 35.5027ZM28.9565 28.0529C26.0067 28.8172 23.9353 30.9138 21.4905 32.3911C24.4111 31.8888 27.3317 31.3865 30.3215 30.8785C29.9053 30.0194 29.4551 29.0761 28.9565 28.0529ZM37.6144 25.4478L31.4471 27.3598C32.0888 28.6153 32.7049 29.8392 33.3569 31.052C33.4349 31.2017 33.6901 31.3123 33.873 31.3425C35.8373 31.6742 37.795 31.9842 39.736 32.2914L37.6144 25.4478ZM46.0311 27.0515C44.2256 26.2912 42.4233 25.8461 40.7009 25.6845C41.432 28.0426 42.1375 30.3691 42.8934 32.6801C42.9739 32.9397 43.2805 33.2161 43.5433 33.3006C45.646 33.9767 47.7591 34.61 49.936 35.271C49.5569 33.7681 49.0906 32.2132 48.7893 30.6309C48.4739 28.9264 47.7444 27.7693 46.0311 27.0515ZM51.5206 30.1793C51.4077 30.2222 51.2876 30.2674 51.1675 30.3125C51.6347 31.8197 52.3169 33.3077 52.5117 34.8519C52.7296 36.5471 53.6783 37.241 55.0742 37.7489C55.85 38.038 56.5803 38.4597 57.4512 38.8774C56.8051 34.9358 54.736 32.1546 51.5206 30.1793ZM49.1856 52.696C51.6384 52.3387 53.8412 51.5056 55.5426 49.666C56.1812 48.9779 56.7939 48.1556 57.0979 47.2788C57.5455 46.0255 57.683 44.6628 57.9698 43.3487C58.1324 42.6264 57.9691 42.1 57.2446 41.7476C55.5809 40.9354 53.9474 40.0427 52.2638 39.2683C51.997 39.1455 51.4074 39.3046 51.2047 39.5414C48.5383 42.6445 45.9047 45.777 43.2921 48.9267C42.3269 50.0876 41.4293 51.3144 40.3936 52.6552C43.5032 53.3985 46.3335 53.1139 49.1856 52.696ZM37.7181 51.7852C41.4457 47.1436 45.1612 42.5137 49.0235 37.696C47.0767 37.0902 45.1182 36.4722 43.142 35.8992C42.943 35.8423 42.606 36.0021 42.4286 36.1678C39.4837 38.9067 36.5504 41.6579 33.6382 44.4262C32.6706 45.3506 31.7636 46.3432 30.8116 47.3181C32.6396 49.6524 34.922 51.2134 37.7181 51.7852ZM28.9001 45.4524C32.575 41.9892 36.1891 38.5844 39.9369 35.0511C39.2777 34.8839 38.7664 34.7105 38.251 34.6252C36.6762 34.3546 35.1092 34.0579 33.5199 33.9182C33.0084 33.8713 32.3098 34.1116 31.9496 34.4762C29.6418 36.8279 27.4018 39.2455 25.075 41.7138C26.3509 42.9545 27.6103 44.1924 28.9001 45.4524ZM22.6894 39.4892C22.846 39.6383 23.3692 39.6974 23.4885 39.5734C25.3212 37.7247 27.1189 35.8395 28.8309 33.8305C24.9529 34.2977 21.1873 34.975 17.8252 37.1319C19.7065 37.4498 21.3218 38.1821 22.6894 39.4892Z" fill="white"/>
</svg>
