<svg width="457" height="73" viewBox="0 0 457 73" fill="none" xmlns="http://www.w3.org/2000/svg">
<path d="M238.73 32.4872C238.73 33.574 238.73 32.8636 238.73 33.8573C233.974 34.314 229.208 34.648 224.488 35.2569C219.777 35.8616 215.116 36.7581 210.449 38.145C210.718 36.2506 210.921 34.5127 211.215 32.7832C211.587 30.5633 211.96 28.3433 212.467 26.1444C212.755 24.897 213.277 23.6834 213.759 22.4741C213.948 22.0005 213.868 21.6664 213.386 21.4339C212.869 21.1886 212.432 21.4127 212.273 21.8102C211.722 23.2141 211.081 24.6137 210.767 26.0641C210.136 28.948 209.649 31.853 209.202 34.7622C208.864 36.9483 208.705 39.1556 208.437 41.3502C208.124 43.9085 207.781 46.4583 207.453 49.0166C207.388 49.5029 207.304 49.9891 207.264 50.4754C207.234 50.8729 207.031 51.042 206.568 50.9279C204.988 50.5304 203.388 50.4585 201.743 50.5515C198.891 50.708 196.029 50.7334 193.176 50.911C191.969 50.9871 190.741 51.2196 189.598 51.5537C189.096 51.7017 188.659 52.2345 188.396 52.6827C188.152 53.0971 188.098 53.6257 188.093 54.1035C188.038 56.9282 188.043 59.7528 187.983 62.5775C187.948 64.3746 187.834 66.1675 187.755 68.0111C186.825 68.0661 185.921 68.1211 185.022 68.1718C184.261 68.2141 183.968 68.4425 184.003 68.9541C184.043 69.5292 184.495 69.656 185.056 69.6222C185.966 69.5672 186.875 69.4954 187.869 69.4277C187.934 69.6603 187.998 69.9309 188.078 70.2015C188.361 71.1149 189.002 71.6688 190.135 71.8549C191.636 72.0959 193.107 72.5272 194.622 72.6794C197.251 72.9416 199.89 72.8993 202.523 72.5568C206.066 72.0959 209.361 71.136 212.268 69.3135C212.358 69.2543 212.477 69.1824 212.576 69.1909C213.391 69.229 214.211 69.2247 215.011 69.3474C217.531 69.7406 220.055 69.8167 222.609 69.6814C224.214 69.5968 225.839 69.7279 227.444 69.6264C230.247 69.4531 233.035 69.1486 235.833 68.9456C238.536 68.7469 241.244 68.5609 243.957 68.4509C247.292 68.3156 250.646 68.0619 253.97 68.2141C259.74 68.4805 265.509 68.3325 271.274 68.4044C271.442 68.4044 271.611 68.4044 271.78 68.4044C272.307 68.4002 272.575 68.1465 272.615 67.7194C272.66 67.2542 272.317 67.0597 271.83 67.0048C271.616 66.9836 271.398 66.9921 271.179 66.9921C267.184 66.9921 263.188 67.0005 259.193 66.9836C258.095 66.9794 256.992 66.899 256.102 66.8652C255.471 65.5924 254.915 64.4634 254.318 63.2583C255.307 63.1145 256.361 62.958 257.414 62.81C258.527 62.6536 259.645 62.5141 260.758 62.3576C262.006 62.18 262.478 61.6387 262.289 60.552C262.195 60.0065 262.046 59.4695 261.887 58.9325C261.067 56.1205 260.281 53.2958 259.397 50.5008C258.497 47.6592 257.494 44.8472 256.53 42.0184C256.465 41.8238 256.386 41.6251 256.271 41.4475C256.043 41.0923 255.68 40.8809 255.203 41.0373C254.701 41.2022 254.542 41.5448 254.721 41.9888C254.875 42.3736 255.064 42.7541 255.193 43.1431C256.256 46.3907 257.335 49.6297 258.348 52.8857C259.109 55.3298 259.78 57.795 260.485 60.256C260.54 60.4505 260.56 60.6493 260.609 60.9157C258.865 61.1609 257.166 61.3977 255.466 61.6345C255.417 61.643 255.372 61.6345 255.322 61.643C254.497 61.7698 253.598 62.125 252.872 61.9559C252.177 61.791 251.655 61.0806 251.063 60.607C250.248 59.9516 249.369 59.4188 248.221 59.2538C248.077 59.2327 247.868 58.9283 247.893 58.7845C248.673 54.4967 249.478 50.2132 250.268 45.9297C250.343 45.528 250.353 45.1136 250.363 44.7077C250.373 44.2679 250.079 43.9888 249.583 43.9804C249.106 43.9719 248.787 44.213 248.713 44.6485C248.141 48.0144 247.575 51.3846 246.984 54.7462C246.75 56.074 246.462 57.3975 246.189 58.7507C244.762 58.7507 243.311 58.7507 241.701 58.7507C241.701 57.8965 241.681 57.0846 241.706 56.2727C241.796 53.5242 241.517 50.7968 241.15 48.0736C241.065 47.4647 241.04 46.8516 240.966 46.2427C240.911 45.7944 240.613 45.5027 240.056 45.5619C239.54 45.6168 239.251 45.8959 239.306 46.378C239.485 47.9214 239.674 49.469 239.838 51.0167C239.922 51.8285 240.002 52.6447 240.012 53.4608C240.037 55.3044 240.022 57.1438 240.022 59.0001C238.864 59.3004 237.711 59.6006 236.533 59.905C235.38 57.7485 234.396 55.5116 233.636 53.1817C232.901 50.9279 231.797 48.7629 230.848 46.5598C230.769 46.3695 230.63 46.1961 230.496 46.0312C230.197 45.6549 229.805 45.5365 229.323 45.7817C228.816 46.0397 228.881 46.378 229.079 46.7839C229.869 48.4034 230.704 50.0061 231.375 51.6636C232.041 53.3043 232.463 55.0126 233.109 56.6575C233.572 57.8331 234.218 58.9579 234.774 60.108C234.854 60.2729 234.913 60.4421 234.993 60.6493C232.98 61.3047 231.619 62.6113 230.192 63.846C230.073 63.9475 229.874 64.0236 229.7 64.0363C226.565 64.2266 223.424 64.4042 220.284 64.5818C220.244 64.586 220.199 64.5522 220.11 64.5141C220.209 63.2921 220.269 62.0531 220.428 60.8184C220.612 59.3596 220.815 57.8965 221.133 56.4546C221.432 55.1183 221.998 53.8244 222.261 52.484C222.56 50.9786 222.639 49.4437 222.838 47.9214C222.888 47.5408 223.032 47.1687 223.121 46.7924C223.23 46.3315 223.191 45.8917 222.57 45.7479C222.008 45.6168 221.63 45.8875 221.521 46.3484C221.337 47.1645 221.123 47.9806 221.059 48.8051C220.875 51.1139 220.383 53.3593 219.658 55.5962C219.185 57.0381 219.041 58.5604 218.828 60.0573C218.634 61.3935 218.554 62.7424 218.395 64.0828C218.216 65.584 218.952 66.1929 220.746 66.0026C220.84 65.9941 220.935 65.9772 221.034 65.9688C223.573 65.8335 226.118 65.6981 228.657 65.5628C228.816 65.5544 228.975 65.5628 229.069 65.5628C228.801 66.4254 228.548 67.2627 228.274 68.1465C225.824 68.2099 223.33 68.3663 220.835 68.3114C218.351 68.2564 215.876 67.9942 213.297 67.8166C213.361 67.4276 213.441 67.1189 213.461 66.8102C213.62 64.4634 213.809 62.1208 213.903 59.7697C213.973 57.9937 213.973 56.2135 213.898 54.4376C213.863 53.5496 213.024 52.9787 212.323 52.4205C211.379 51.6721 210.156 51.4226 208.844 51.2704C209.222 48.7417 209.595 46.2427 209.957 43.7774C216.537 44.843 223.171 44.5893 229.78 44.5047C233.904 44.454 238.024 44.0438 242.134 43.6632C244.201 43.473 246.293 43.1474 248.266 42.6019C250.248 42.0522 252.117 41.1853 254 40.3946C254.875 40.0267 255.685 39.5447 256.485 39.0668C256.778 38.8892 257.032 38.6017 257.171 38.3142C258.279 36.0096 256.758 33.908 253.737 33.6036C250.502 33.278 247.262 33.316 244.017 33.5359C242.869 33.612 241.721 33.6712 240.474 33.7431C240.474 32.7198 240.474 33.4217 240.474 32.3815C240.663 32.3646 240.916 32.3308 241.175 32.3181C244.479 32.149 247.466 31.1341 250.318 29.7852C251.362 29.2905 252.44 28.8296 253.419 28.2502C256.346 26.5166 257.379 24.0809 257.036 21.1083C256.689 18.0849 255.029 15.6661 252.529 13.5941C251.878 13.0529 251.312 12.4144 250.591 11.9535C248.986 10.9259 247.336 9.9407 245.642 9.01465C243.863 8.04209 242.596 6.78621 242.158 4.99754C242.039 4.49857 241.98 3.98692 241.95 3.4795C241.92 3.00167 241.696 2.65916 241.13 2.64225C240.553 2.62533 240.265 2.96362 240.28 3.44144C240.355 5.80942 241.175 7.91946 243.49 9.39099C244.931 10.3044 246.512 11.057 247.963 11.9535C248.907 12.5412 249.781 13.2263 250.606 13.9367C252.022 15.1545 253.409 16.4019 254.318 17.9622C255.337 19.7086 255.6 21.5988 255.307 23.472C255.049 25.1042 253.851 26.3981 252.186 27.2777C249.384 28.7577 246.452 30.0135 243.217 30.6563C242.312 30.8339 241.363 30.8508 240.35 30.9523C240.071 29.7471 240.131 30.0558 239.873 28.9353C240.618 28.6646 241.339 28.449 242.009 28.1572C244.047 27.2777 245.13 25.9034 245.085 23.8949C245.041 21.9709 244.648 20.1611 242.834 18.8629C242.312 18.4908 241.512 18.3512 240.807 18.2371C240.042 18.1102 239.237 18.0933 238.451 18.1018C236.856 18.1187 235.341 18.4654 234.044 19.2519C232.091 20.4359 231.365 22.1569 231.609 24.1317C231.882 26.322 233.204 27.9754 235.644 28.8169C236.364 29.0664 237.234 28.9902 238.168 29.0748C238.417 30.1193 238.362 29.8063 238.65 31.0411C237.388 31.0791 236.2 31.1679 235.013 31.1426C233.119 31.1003 231.176 31.1849 229.353 30.8339C227.395 30.4575 225.402 29.8106 223.956 28.542C223.265 27.9331 222.833 27.0071 222.589 26.1614C222.073 24.3642 221.993 22.5079 222.57 20.7108C223.121 18.9813 224.224 17.4675 225.457 16.0129C227.574 13.5096 229.641 10.9767 231.693 8.43534C232.329 7.64883 232.916 6.82004 233.427 5.9701C234.203 4.67617 234.709 3.3019 234.705 1.82191C234.705 1.47517 234.834 1.10729 234.729 0.785923C234.64 0.502611 234.372 0.155871 234.078 0.0459294C233.676 -0.102069 233.283 0.122043 233.139 0.511068C233.06 0.722495 232.98 0.955064 233 1.17072C233.199 3.50487 232.081 5.47537 230.595 7.31478C228.175 10.3128 225.66 13.2559 223.235 16.2539C222.132 17.6197 221.188 19.0955 220.825 20.7319C220.194 23.5862 220.289 26.4235 222.187 28.9564C222.763 29.726 223.772 30.3222 224.706 30.8254C225.626 31.3159 226.709 31.5866 227.718 31.9587C229 32.4323 230.356 32.5211 231.723 32.5295C233.666 32.538 235.614 32.5042 237.562 32.4915C237.925 32.4872 238.282 32.4872 238.73 32.4872ZM212.338 55.926C212.338 56.2051 212.348 56.425 212.338 56.6491C212.243 59.0171 212.179 61.3893 212.04 63.753C211.97 64.9751 211.811 66.1929 211.592 67.4022C211.528 67.7574 211.21 68.1676 210.862 68.379C207.716 70.2861 204.104 71.0726 200.332 71.3221C197.186 71.5293 194.066 71.2883 191.015 70.5271C189.797 70.2227 189.727 70.248 189.534 69.1994C189.499 69.0175 189.499 68.8315 189.504 68.6497C189.549 67.1781 189.623 65.7066 189.643 64.2351C189.673 62.0447 189.648 59.8543 189.673 57.6639C189.678 57.0254 189.772 56.3911 189.827 55.7103C190.055 55.7949 190.2 55.8583 190.354 55.9049C191.387 56.2178 192.396 56.6744 193.459 56.8098C196.6 57.2157 199.77 57.3552 202.941 57.0719C206.066 56.7971 209.292 57.1438 212.338 55.926ZM254.224 35.1681C254.994 35.4768 255.74 35.6925 255.784 36.424C255.829 37.2232 255.769 38.0139 254.671 38.3987C254.144 38.5806 253.702 38.9188 253.19 39.1429C251.635 39.8153 250.139 40.7117 248.484 41.0754C245.567 41.7181 242.571 42.1833 239.574 42.4497C234.173 42.9359 228.751 43.2827 223.31 43.0924C220.239 42.9867 217.163 42.9444 214.087 42.826C213.113 42.7879 212.129 42.6526 211.18 42.4581C210.097 42.234 210.102 42.1833 210.151 41.2657C210.176 40.8174 210.191 40.3608 210.3 39.9252C210.345 39.7476 210.589 39.5108 210.792 39.4643C213.545 38.8385 216.308 38.2296 219.071 37.6418C220.338 37.3712 221.62 37.1555 222.893 36.9145C222.689 38.2846 222.495 39.5573 222.311 40.8344C222.242 41.3122 222.296 41.7604 223.007 41.8577C223.583 41.938 223.931 41.6209 224.016 40.9739C224.115 40.162 224.199 39.3501 224.329 38.5425C224.393 38.1408 224.532 37.7518 224.642 37.3543C225.422 38.496 226.043 39.6123 226.654 40.7371C226.878 41.1473 227.176 41.4644 227.752 41.2784C228.274 41.1092 228.473 40.7413 228.254 40.2847C228.026 39.8153 227.752 39.3628 227.504 38.8977C227.087 38.1281 226.674 37.3543 226.192 36.4621C230.471 36.073 234.61 35.6967 238.809 35.3161C238.849 35.7305 238.894 36.073 238.909 36.4198C238.968 37.811 239.008 39.1979 239.082 40.5891C239.107 41.05 239.311 41.4729 239.967 41.4433C240.593 41.4137 240.802 41.0331 240.782 40.5426C240.742 39.5616 240.683 38.5806 240.658 37.5995C240.638 36.8088 240.653 36.0223 240.653 35.1047C244.007 34.9905 247.446 34.8721 250.969 34.7495C250.755 35.3838 250.601 35.8489 250.447 36.3183C250.159 37.1767 249.846 38.0308 249.593 38.8935C249.473 39.3036 249.692 39.6377 250.199 39.7307C250.721 39.828 251.123 39.5954 251.272 39.1937C251.575 38.3818 251.804 37.553 252.067 36.7327C252.182 36.369 252.301 36.0096 252.42 35.6502C252.48 35.6502 252.539 35.6502 252.599 35.6502C252.713 35.9885 252.818 36.331 252.947 36.6693C253.101 37.0752 253.399 37.3754 253.951 37.2528C254.487 37.1302 254.736 36.813 254.577 36.3183C254.452 35.9673 254.358 35.6164 254.224 35.1681ZM243.386 23.8526C243.56 25.1465 242.829 26.0049 241.627 26.7068C240.399 27.4257 239.028 27.4891 237.636 27.5356C237.12 27.5525 236.538 27.5906 236.091 27.4172C233.736 26.5208 232.886 24.4826 233.388 22.5206C233.984 20.1822 236.608 19.5395 238.67 19.5606C239.212 19.5648 239.748 19.6663 240.29 19.6706C241.662 19.679 242.273 19.9792 242.72 21.0787C243.078 21.9666 243.455 23.8399 243.386 23.8526ZM229.909 68.0407C230.341 67.1358 230.689 66.3662 231.087 65.622C231.161 65.4867 231.44 65.3599 231.633 65.3472C234.675 65.14 237.716 64.9751 240.757 64.7552C244.489 64.4888 248.246 64.4253 251.923 63.7276C252.082 63.698 252.336 63.7403 252.44 63.8334C253.324 64.6368 253.806 65.6093 254.149 66.7384C246.074 66.62 238.143 67.2796 229.909 68.0407ZM250.929 62.5775C244.782 63.0257 238.75 63.4655 232.622 63.9095C233.05 63.5078 233.348 63.2118 233.666 62.9411C233.815 62.8143 234.004 62.717 234.188 62.624C237.537 60.9368 241.075 59.8205 245.046 60.1884C247.227 60.3829 249.384 60.7169 250.929 62.5775ZM206.191 55.4355C202.369 55.8287 197.33 55.8964 194.006 55.4397C192.828 55.279 191.685 54.8181 190.602 54.3657C190.259 54.2219 190.1 53.6849 189.961 53.2958C189.921 53.1817 190.2 52.873 190.388 52.8307C191.362 52.6193 192.346 52.3698 193.34 52.3148C196.456 52.1415 199.577 52.0273 202.692 51.9258C204.084 51.8835 205.46 52.0315 206.812 52.4501C206.598 53.4819 206.394 54.4714 206.191 55.4355ZM211.93 54.2811C210.782 55.2367 209.371 55.2283 207.995 55.3636C208.154 54.4249 208.303 53.5707 208.452 52.67C209.898 52.8688 211.235 53.0548 211.93 54.2811Z" fill="white"/>
<path d="M236.767 9.26405C237.015 10.8413 237.278 12.5031 237.532 14.1649C237.582 14.4905 237.592 14.8161 237.636 15.1417C237.691 15.5688 237.9 15.9113 238.476 15.8944C239.112 15.8775 239.366 15.5011 239.331 15.0233C239.271 14.2283 239.147 13.4376 239.033 12.6469C238.854 11.4502 238.665 10.2578 238.471 9.06108C238.402 8.61286 238.173 8.27035 237.567 8.27457C237.04 8.2788 236.737 8.634 236.767 9.26405Z" fill="white"/>
<path d="M206.822 29.0494C206.822 29.1931 206.822 29.3369 206.822 29.4807C206.817 29.9331 207.115 30.1826 207.607 30.1995C208.089 30.2122 208.402 30.0093 208.472 29.5483C208.606 28.6012 208.77 27.654 208.944 26.7068C209.048 26.1444 209.212 25.5947 209.316 25.0323C209.406 24.5502 209.162 24.2035 208.586 24.157C208.059 24.1147 207.776 24.3726 207.676 24.842C207.378 26.2416 207.035 27.637 206.707 29.0325C206.742 29.0367 206.782 29.0451 206.822 29.0494Z" fill="white"/>
<path d="M251.287 18.0892C250.82 18.3091 250.452 18.4825 250.08 18.6516C249.493 18.9223 248.887 19.1717 248.321 19.4677C247.893 19.6918 247.451 19.9498 247.62 20.4826C247.749 20.8928 248.311 21.1211 248.763 20.9139C249.747 20.4572 250.736 20.0005 251.66 19.4677C251.893 19.3324 252.023 18.9011 251.978 18.6347C251.948 18.4402 251.556 18.288 251.287 18.0892Z" fill="white"/>
<path d="M227.956 21.9073C228.23 21.7466 228.607 21.6409 228.672 21.4506C228.761 21.2011 228.722 20.7275 228.538 20.6345C227.559 20.1482 226.53 19.7254 225.482 19.3533C225.298 19.2898 224.831 19.5266 224.691 19.7254C224.567 19.8945 224.617 20.3597 224.771 20.4358C225.785 20.9559 226.843 21.4041 227.956 21.9073Z" fill="white"/>
<path d="M244.618 16.2792C244.713 16.2496 244.951 16.2285 245.105 16.1227C245.672 15.721 246.268 15.3278 246.735 14.85C246.909 14.6724 246.904 14.1861 246.735 14C246.566 13.8182 245.96 13.6787 245.776 13.7928C245.071 14.2284 244.395 14.7273 243.828 15.2897C243.436 15.683 243.873 16.2581 244.618 16.2792Z" fill="white"/>
<path d="M229.651 14.8035C229.805 15.0488 229.884 15.2475 230.028 15.3998C230.356 15.7507 230.704 16.0848 231.067 16.4104C231.425 16.7317 231.852 16.8163 232.285 16.533C232.727 16.2412 232.717 15.8649 232.389 15.5224C231.981 15.0953 231.574 14.6598 231.087 14.3088C230.888 14.165 230.446 14.1397 230.187 14.2242C229.954 14.3003 229.825 14.6006 229.651 14.8035Z" fill="white"/>
<path d="M205.659 46.4244C205.659 46.6104 205.58 46.8346 205.674 46.9699C205.853 47.2193 206.116 47.5661 206.375 47.5872C206.648 47.6126 207.13 47.3504 207.219 47.1263C207.393 46.695 207.378 46.2045 207.388 45.7394C207.398 45.3207 207.055 45.0966 206.618 45.0586C206.121 45.0205 205.798 45.2742 205.714 45.6886C205.664 45.9254 205.704 46.1791 205.704 46.4244C205.694 46.4244 205.679 46.4244 205.659 46.4244Z" fill="white"/>
<path d="M212.308 33.7305C212.283 34.1871 212.526 34.4958 213.043 34.5719C213.59 34.6523 213.898 34.3394 213.992 33.9292C214.072 33.574 214.127 33.185 214.022 32.8467C213.953 32.6141 213.6 32.2928 213.361 32.2843C213.068 32.2758 212.646 32.4957 212.502 32.7198C212.323 33.0031 212.363 33.3879 212.308 33.7305Z" fill="white"/>
<path d="M199.144 60.4802C198.687 60.2603 198.299 60.0616 197.897 59.884C197.41 59.6726 196.928 59.6979 196.655 60.1335C196.401 60.5309 196.58 60.8861 197.037 61.1187C197.201 61.2033 197.365 61.2879 197.534 61.3682C198.533 61.8502 198.533 61.846 198.24 62.8017C197.142 62.6579 196.794 62.8778 196.858 63.8038C196.958 65.2542 197.529 66.5989 198.384 67.8378C198.603 68.155 199.159 68.4045 199.611 68.4806C200.426 68.6201 201.276 68.6201 202.116 68.6497C204.208 68.7301 204.809 68.1635 205.381 66.3156C205.644 65.4614 205.927 64.6073 206.225 63.7615C206.375 63.3387 206.116 62.8566 205.594 62.7552C205.296 62.696 204.983 62.696 204.615 62.6621C204.307 61.3386 203.219 60.3956 202.22 59.4104C201.515 58.7127 200.496 58.7634 199.9 59.5203C199.656 59.8206 199.423 60.125 199.144 60.4802ZM204.049 64.3451C203.994 64.6326 203.979 64.8356 203.92 65.0301C203.716 65.694 203.572 66.379 203.259 67.0048C203.065 67.3896 199.959 67.322 199.711 66.9329C199.189 66.1253 198.767 65.2711 198.692 64.3451C200.516 64.3451 202.26 64.3451 204.049 64.3451ZM200.819 60.958C200.849 60.92 200.988 60.7508 201.152 60.5479C201.848 61.2709 202.667 61.8756 202.901 62.8862C201.902 62.8017 200.963 63.0765 200.049 62.7425C200.59 62.641 201.321 62.7932 201.375 62.1209C201.4 61.7995 201.072 61.4528 200.819 60.958Z" fill="white"/>
<path d="M195.676 55.1988C196.804 55.0127 197.668 54.8605 198.543 54.7252C200.645 54.3954 202.742 54.4842 204.839 54.7928C205.048 54.8224 205.316 54.8986 205.465 54.8224C205.748 54.6744 206.146 54.4419 206.161 54.2304C206.176 53.9937 205.873 53.6046 205.604 53.5201C204.988 53.3213 204.312 53.1902 203.651 53.1649C200.988 53.0634 198.324 53.0465 195.74 53.7653C195.273 53.8964 194.915 54.1459 195.045 54.5476C195.134 54.8351 195.522 55.0508 195.676 55.1988Z" fill="white"/>
<g clip-path="url(#clip0_669_9)">
<path d="M104.487 64.1334C104.373 64.0095 104.151 63.9991 103.933 63.901L101.991 64.1076H100.039C97.3613 64.1076 94.6839 64.0869 92.0116 64.1179C90.4217 64.1334 88.8266 64.2574 87.2368 64.2832C86.8328 64.2884 86.4237 64.1076 85.9887 63.9991L84.1502 64.1903C83.4511 64.2316 82.8918 64.2884 82.3273 64.3039C79.3184 64.3659 76.3095 64.4175 73.3006 64.4795C72.327 64.4847 71.3482 64.495 70.3746 64.5415C70.3435 64.5415 70.3176 64.5415 70.2866 64.5415C70.1623 64.5415 70.038 64.5518 69.9085 64.5621C69.1628 64.6035 68.417 64.6706 67.6713 64.7636C66.5164 64.9082 65.2839 65.0838 64.0617 64.6138C64.0617 64.6138 62.161 64.5983 62.1196 64.7687C60.3536 65.3162 47.1374 65.5228 44.5842 65.0322L42.6111 65.2491C37.3028 65.2543 32.0619 65.3472 26.8106 64.8256L24.8996 64.9134C19.8089 65.1716 14.9046 64.6603 9.93811 64.34L7.77855 64.1438C7.36425 64.1438 6.92405 64.1593 6.48903 64.1438C5.34452 64.1024 4.19483 64.0405 3.05032 64.0043C2.41333 63.9836 1.77633 63.9785 1.13934 63.994C0.605927 64.0043 0.103584 64.1334 8.29529e-06 64.7636C-0.0724948 65.1974 0.362524 65.5074 1.08238 65.5538C1.84366 65.6003 2.61012 65.6003 3.3714 65.652C8.77288 65.9877 14.1692 66.4784 19.5758 66.6437C27.4062 66.8813 35.2417 66.8916 43.0772 66.9794C46.2 67.0156 49.3228 67.0362 52.4456 66.9742C56.713 66.8864 60.9751 66.716 65.2373 66.5765C68.8624 66.4526 72.4927 66.3131 76.1179 66.2098C77.3919 66.1685 78.6659 66.2305 79.9398 66.1891C80.5768 66.1685 81.2242 66.1013 81.8353 65.9412C85.5796 65.8844 89.3238 65.8534 93.0681 65.8792L103.296 65.466C103.307 65.4505 106.129 65.8483 104.487 64.1334Z" fill="white"/>
<path d="M94.4819 65.9929C93.8397 66.122 93.7206 64.8256 93.7206 64.8256C93.4151 61.7058 93.0991 58.6946 92.8298 55.6833C92.3586 50.4097 91.9909 45.1362 92.3793 39.8368C92.4984 38.1788 92.7573 36.5259 92.8816 34.8679C92.9904 33.4578 92.9852 32.0426 93.0525 30.6325C93.0991 29.6925 93.2027 28.7524 93.2286 27.8072C93.2442 27.3423 93.0681 27.0531 92.4725 27.0273C91.9391 27.0066 91.3953 26.7897 90.8982 26.5676C89.0545 25.7463 88.9924 24.7495 89.1995 22.7454C89.386 20.9531 92.053 16.196 93.8604 15.3954C95.585 14.6362 95.3519 14.8428 96.7813 15.695C97.2836 15.9946 97.7756 18.2621 98.0138 18.7992C98.4644 19.8271 98.6456 22.8745 98.3349 24.0263C98.2935 24.1813 98.3245 24.3672 98.3712 24.5274C97.8015 26.8155 96.9315 26.6141 95.7352 27.0118C95.4814 27.0944 95.2173 27.1616 94.9428 27.2339C94.9532 27.6884 94.9998 28.1171 94.9687 28.5355C94.7149 31.8567 94.3472 35.1675 94.2126 38.4938C94.0624 42.1352 93.9951 45.7921 94.1245 49.4387C94.2488 52.8838 94.6631 56.3186 94.9687 59.7534C95.1033 61.2513 95.2846 62.7492 95.4296 64.1025C95.4244 64.0973 95.1241 65.8638 94.4819 65.9929ZM93.0991 25.4519C93.819 25.5087 94.6476 25.7412 95.3675 25.7515C96.2634 25.1988 96.5793 24.0315 96.6155 23.7784C96.9107 21.6659 97.2991 17.916 95.3778 17.1154C93.2752 16.2322 91.0691 21.263 90.9551 23.0398C90.8567 24.5067 91.3125 24.9561 93.0991 25.4519Z" fill="white"/>
<path d="M24.33 65.7397C24.5371 65.6623 24.3869 65.1044 24.3921 64.8823C24.4284 62.0983 24.418 59.3195 24.4335 56.5355C24.4491 54.1286 24.5268 51.7164 24.5009 49.3095C24.4646 46.0555 24.2678 42.8066 24.2834 39.5578C24.2989 35.56 24.4698 31.557 24.5475 27.5592C24.5527 27.2855 24.3921 26.7844 24.2471 26.7586C23.1337 26.5778 22.6365 25.7308 22.1186 24.9095C21.29 23.5924 20.477 22.2546 21.1606 20.5915C21.2538 20.3642 21.2589 20.1008 21.3315 19.8632C21.6836 18.6287 22.0306 17.575 22.6935 16.2269C23.7862 14.8789 24.4905 13.4636 25.5159 13.8407C27.8567 14.6877 30.2856 19.7134 30.0266 21.8982C29.7884 23.8868 28.8873 25.612 26.8469 26.4435C26.531 26.5727 26.2254 26.6295 26.2202 27.1253C26.2151 28.7627 26.1218 30.4 26.1011 32.0374C26.0442 36.1178 25.9665 40.1982 25.9716 44.2735C25.9768 46.1588 26.2047 48.0389 26.2358 49.9242C26.2565 51.3394 26.07 52.7546 26.07 54.1699C26.07 56.5303 26.1633 58.8856 26.184 61.2461C26.1943 62.3772 26.127 63.5084 26.0959 64.748C25.6661 66.7728 24.33 65.7397 24.33 65.7397ZM22.9213 20.8032C22.5485 21.6813 22.6313 22.4974 23.1958 23.2722C23.3823 23.5304 23.5014 23.8403 23.6515 24.1244C24.1228 25.0386 24.8479 25.2556 25.8163 24.9973C26.852 24.7236 27.3647 23.9849 27.8567 23.1585C28.4782 22.1152 28.5403 21.0098 27.8153 20.0646C27.0229 19.0316 26.6138 16.01 25.3864 15.7724C25.2259 15.7414 24.9566 15.8706 24.8582 16.01C24.4077 16.6402 22.854 20.7671 22.9213 20.8032Z" fill="white"/>
<path d="M72.0318 65.6571C71.5347 64.717 71.7263 64.4794 71.6745 63.9939C71.5139 62.5167 71.3741 61.0343 71.2602 59.5519C71.2032 58.7875 71.1929 58.0179 71.2136 57.2534C71.2395 56.2101 71.3845 55.1667 71.3586 54.1234C71.2912 51.2774 71.0841 48.4314 71.0737 45.5803C71.0634 42.476 71.0996 39.3666 71.3171 36.2676C71.5347 33.1582 71.6382 30.0643 71.2705 26.9652C71.2291 26.614 71.2602 26.2782 70.7578 26.0975C69.3647 25.5913 68.417 24.6151 68.0234 23.1533C67.5677 21.454 68.4429 19.1297 69.5512 17.575C70.7527 15.7001 71.1618 14.6929 72.1665 14.4605C73.5544 14.1402 75.4757 18.5771 76.0972 19.7392C77.2986 21.9964 75.7657 24.956 73.5388 25.519C72.9795 25.6584 72.8811 25.8909 72.9536 26.459C73.2851 29.15 73.3317 31.8462 73.1919 34.5579C72.9951 38.4059 72.7724 42.2694 72.907 46.1174C73.021 49.418 73.197 52.703 73.0417 56.0035C72.9951 57.0417 72.9019 58.085 72.9588 59.1232C73.0313 60.4351 73.2385 61.7368 73.3835 63.0435C73.4197 63.3793 73.4353 63.7202 73.456 63.9629C73.0572 67.1498 72.0318 65.6571 72.0318 65.6571ZM72.6481 16.6711C71.6745 16.4077 70.5559 19.7909 69.9551 20.6121C69.2922 21.516 69.5564 22.5025 70.0017 23.36C70.2348 23.799 70.8303 24.2948 71.2861 24.3155C71.9386 24.3465 72.6274 24.0056 73.2695 23.7577C74.238 23.3806 74.8491 22.3424 74.7766 21.3197C74.7093 20.3539 73.8651 17.0017 72.6481 16.6711Z" fill="white"/>
<path d="M46.2466 65.1768C46.2466 64.2884 46.1948 63.4206 46.2518 62.5632C46.3813 60.5643 46.6816 58.5706 46.6972 56.5769C46.7282 51.9386 46.5832 47.3003 46.5988 42.662C46.6091 40.4101 46.7748 38.1581 46.9509 35.9112C47.0804 34.2791 47.4533 32.6624 47.5154 31.0302C47.6242 28.3547 47.5776 25.674 47.562 22.9933C47.562 22.766 47.3549 22.4613 47.1529 22.3322C45.9307 21.5522 45.0348 20.514 44.5376 19.1556C44.2062 18.2465 44.2372 17.2962 44.693 16.4646C45.563 14.8841 46.5159 10.8604 48.3544 10.5609C48.5978 10.5195 48.8567 10.4834 49.0898 10.535C51.5393 11.0825 54.3825 16.5989 53.4555 19.7238C53.0205 21.201 52.0831 22.2443 50.6123 22.766C50.2084 22.9106 49.6076 22.8797 49.416 23.1482C49.1778 23.484 49.2555 24.0521 49.2348 24.5222C49.2141 24.9664 49.24 25.4157 49.2348 25.8599C49.1933 28.3185 49.2296 30.7771 49.0742 33.2254C48.9655 34.9299 48.4062 36.6137 48.3803 38.313C48.3026 43.5711 48.3699 48.8344 48.4217 54.0924C48.4424 56.298 48.5564 58.4931 48.1731 60.6986C47.909 62.212 47.997 63.7874 47.9194 65.5022C46.6402 66.7883 46.2466 65.1768 46.2466 65.1768ZM46.0602 17.4356C46.1327 17.9056 46.1171 18.4118 46.288 18.8405C46.6816 19.8219 47.4326 20.5244 48.3647 21.0047C49.1674 21.4179 50.0064 21.2888 50.7004 20.8033C52.1556 19.7858 52.0572 16.7952 51.3063 14.4554C51.0732 13.7219 49.3798 12.3532 48.6755 12.3377C47.3445 12.317 46.7645 16.1702 46.0602 17.4356Z" fill="white"/>
<path d="M86.8276 17.7507C87.3041 17.3891 87.6821 16.6505 87.7494 16.041C87.8737 14.8892 87.91 13.6702 87.6511 12.5597C87.4853 11.8366 86.838 8.40698 86.3046 7.80783C84.4661 5.74695 83.9482 5.44737 82.4257 6.9091C81.711 7.59089 80.3593 10.8914 79.857 11.7385C78.2671 14.414 78.4846 16.6143 80.9704 19.1349C81.0585 19.2227 81.1465 19.3519 81.2552 19.3725C82.3014 19.5636 82.0839 20.3332 82.1097 21.0615C82.2081 23.453 82.4049 25.8444 82.4982 28.241C82.6224 31.4847 82.5396 34.7387 82.8089 37.9669C83.0834 41.2416 83.6116 44.5008 84.145 47.7497C84.8079 51.8198 85.5174 55.8847 85.3983 60.022C85.3517 61.711 84.6266 63.5239 84.8493 65.1768C85.072 66.8296 86.5428 65.4763 86.5428 65.4763C86.7137 64.0714 87.0296 62.5632 87.0503 61.055C87.0814 58.741 87.0659 56.4064 86.781 54.1131C86.3615 50.7248 85.621 47.3726 85.1445 43.9895C84.8183 41.6445 84.6525 39.2737 84.5231 36.9132C84.2693 32.2285 84.0777 27.5386 83.8861 22.8486C83.8343 21.609 83.8809 20.3642 83.8861 19.3105C85.0047 18.7424 86.0146 18.3705 86.8276 17.7507ZM83.8654 17.5699C83.5909 17.668 82.1719 17.4511 81.8974 17.5699C80.2195 16.4026 80.1418 14.3572 81.3485 12.6165C81.6178 12.2292 82.2392 9.0991 82.5914 8.78403C83.1403 8.28818 83.5339 7.53924 84.2123 7.83365C85.8385 8.54127 86.7551 14.4966 85.9887 16.0978C85.8799 16.3199 85.6313 16.5317 85.3931 16.6247C84.6163 16.9397 84.6525 17.291 83.8654 17.5699Z" fill="white"/>
<path d="M10.8392 17.7094C10.6321 18.2465 10.4871 19.1918 10.2178 19.7083C9.51345 21.046 8.88163 22.4354 9.17165 24.0315C9.38915 25.2194 10.7771 26.4281 12.3048 26.7225C12.4964 26.7586 12.6932 26.7741 12.9677 26.8051C12.8589 29.0984 12.7916 31.3608 12.6311 33.6179C12.3514 37.5692 11.818 41.5154 11.7559 45.4667C11.6782 50.5233 11.9527 55.5852 12.0925 60.647C12.1339 62.1655 12.2375 63.684 12.3152 65.2801C12.9418 66.9019 14.0967 65.3007 14.0967 65.3007C13.9102 62.2275 13.6668 59.1697 13.5633 56.1017C13.4649 53.0387 13.5529 49.9707 13.4856 46.9026C13.4183 43.6537 13.6409 40.4307 13.962 37.2025C14.2624 34.1551 14.4178 31.087 14.6353 28.0293C14.6612 27.6625 14.6974 27.2907 14.8631 27.084C15.7021 26.6398 16.6705 26.3351 17.3541 25.7153C18.5763 24.6048 18.4986 21.9809 17.8409 20.3849C14.0345 11.2065 12.1132 14.4398 10.8392 17.7094ZM16.3805 24.1089C16.1527 24.9405 13.3924 25.705 11.5021 24.5067C10.8185 24.0728 10.7512 23.3497 10.9014 22.6472C11.036 22.0274 11.2483 21.4128 11.5384 20.8446C11.9941 19.9459 12.3618 16.9501 13.5374 17.0379C14.8528 17.136 15.9869 20.7568 16.655 21.9396C16.5929 22.5129 16.5929 23.3393 16.3805 24.1089Z" fill="white"/>
<path d="M60.654 15.2766C60.2397 15.1423 59.639 15.447 59.1677 15.6536C58.6861 15.8654 57.7746 17.1412 57.4639 17.5699C56.076 19.5017 55.5477 21.015 55.8222 23.1017C56.0086 24.5222 56.9201 25.5707 58.0543 26.4332C58.2821 26.6037 58.4841 26.9859 58.4737 27.2648C58.2821 33.9227 58.1423 40.5702 58.5929 47.228C58.857 51.107 58.857 55.0015 59.0745 58.8857C59.1936 61.024 59.4059 63.8545 59.7736 65.3679C60.1413 66.8813 61.5551 65.2078 61.5551 65.2078C61.4567 64.5415 61.3376 63.7667 61.234 62.9816C60.597 58.1264 60.4624 53.2402 60.3588 48.3488C60.2967 45.5803 60.017 42.8222 60.0015 40.0536C59.9808 36.0145 60.1206 31.9754 60.1776 27.9363C60.1879 27.3888 60.3226 27.0892 60.9492 26.8878C62.2594 26.4746 63.2745 25.519 63.8649 24.3362C64.3776 23.3032 64.217 22.0997 63.7613 20.9944C63.0932 19.3674 62.2594 15.7879 60.654 15.2766ZM60.6437 25.1678C60.4158 25.2608 60.074 25.0955 59.7943 25.0232C57.9559 24.5738 57.1221 23.0346 57.5933 21.2991C57.7021 20.9014 58.7379 17.9315 59.1781 17.7094C60.7731 16.9036 61.2651 19.7909 62.0834 21.5832C62.7514 23.0656 62.1714 24.5686 60.6437 25.1678Z" fill="white"/>
<path d="M39.4572 18.5667C38.582 17.575 38.4836 17.0017 37.3909 17.0379C35.6974 17.0947 32.932 22.3528 32.6627 24.2277C32.4141 25.9684 32.7714 27.5747 34.149 28.7885C34.584 29.1707 35.1329 29.4238 35.5524 29.6924C35.3246 33.8555 34.7652 38.0186 35.3453 42.2126C35.8683 45.9883 35.7078 49.7899 35.6456 53.5862C35.6197 55.0789 35.8683 56.5717 35.9201 58.0695C35.9823 59.9393 35.9615 61.8142 35.9978 63.684C36.0082 64.2005 35.7596 64.2728 36.1273 65.3937C36.495 66.5145 37.7638 65.7656 37.7638 65.7656C37.7638 63.9423 37.8104 62.0828 37.7482 60.2286C37.6602 57.5582 37.2873 54.8827 37.4168 52.2278C37.6395 47.6825 37.1786 43.1992 36.7953 38.6952C36.728 37.9049 36.8471 37.0992 36.8886 36.3037C36.9818 34.5579 37.0595 32.8173 37.1837 31.0766C37.2148 30.617 37.4013 30.1676 37.5359 29.6356C39.0895 29.6459 40.3221 28.9331 41.2491 27.7348C42.3004 26.3764 42.5283 24.8165 42.0466 23.1998C41.6893 21.9912 40.2133 19.4242 39.4572 18.5667ZM39.9026 26.6553C39.0274 27.7142 37.2045 28.3288 35.9098 27.8226C35.3919 27.6212 34.8895 27.084 34.6202 26.5727C33.9107 25.2349 34.2733 23.861 35.2883 22.1255C35.4281 21.8827 36.8678 19.5688 37.2355 19.4396C38.4733 19.4965 38.2143 20.3487 39.2242 21.2578C39.9181 21.8724 40.6432 25.7566 39.9026 26.6553Z" fill="white"/>
</g>
<g clip-path="url(#clip1_669_9)">
<path d="M456.487 64.1334C456.373 64.0095 456.151 63.9991 455.933 63.901L453.991 64.1076H452.039C449.361 64.1076 446.684 64.0869 444.012 64.1179C442.422 64.1334 440.827 64.2574 439.237 64.2832C438.833 64.2884 438.424 64.1076 437.989 63.9991L436.15 64.1903C435.451 64.2316 434.892 64.2884 434.327 64.3039C431.318 64.3659 428.31 64.4175 425.301 64.4795C424.327 64.4847 423.348 64.495 422.375 64.5415C422.344 64.5415 422.318 64.5415 422.287 64.5415C422.162 64.5415 422.038 64.5518 421.909 64.5621C421.163 64.6035 420.417 64.6706 419.671 64.7636C418.516 64.9082 417.284 65.0838 416.062 64.6138C416.062 64.6138 414.161 64.5983 414.12 64.7687C412.354 65.3162 399.137 65.5228 396.584 65.0322L394.611 65.2491C389.303 65.2543 384.062 65.3472 378.811 64.8256L376.9 64.9134C371.809 65.1716 366.905 64.6603 361.938 64.34L359.779 64.1438C359.364 64.1438 358.924 64.1593 358.489 64.1438C357.345 64.1024 356.195 64.0405 355.05 64.0043C354.413 63.9836 353.776 63.9785 353.139 63.994C352.606 64.0043 352.104 64.1334 352 64.7636C351.927 65.1974 352.363 65.5074 353.082 65.5538C353.844 65.6003 354.61 65.6003 355.371 65.652C360.773 65.9877 366.169 66.4784 371.576 66.6437C379.406 66.8813 387.242 66.8916 395.077 66.9794C398.2 67.0156 401.323 67.0362 404.446 66.9742C408.713 66.8864 412.975 66.716 417.237 66.5765C420.862 66.4526 424.493 66.3131 428.118 66.2098C429.392 66.1685 430.666 66.2305 431.94 66.1891C432.577 66.1685 433.224 66.1013 433.835 65.9412C437.58 65.8844 441.324 65.8534 445.068 65.8792L455.296 65.466C455.307 65.4505 458.129 65.8483 456.487 64.1334Z" fill="white"/>
<path d="M446.482 65.9929C445.84 66.122 445.721 64.8256 445.721 64.8256C445.415 61.7058 445.099 58.6946 444.83 55.6833C444.359 50.4097 443.991 45.1362 444.379 39.8368C444.498 38.1788 444.757 36.5259 444.882 34.8679C444.99 33.4578 444.985 32.0426 445.053 30.6325C445.099 29.6925 445.203 28.7524 445.229 27.8072C445.244 27.3423 445.068 27.0531 444.472 27.0273C443.939 27.0066 443.395 26.7897 442.898 26.5676C441.054 25.7463 440.992 24.7495 441.2 22.7454C441.386 20.9531 444.053 16.196 445.86 15.3954C447.585 14.6362 447.352 14.8428 448.781 15.695C449.284 15.9946 449.776 18.2621 450.014 18.7992C450.464 19.8271 450.646 22.8745 450.335 24.0263C450.293 24.1813 450.325 24.3672 450.371 24.5274C449.801 26.8155 448.931 26.6141 447.735 27.0118C447.481 27.0944 447.217 27.1616 446.943 27.2339C446.953 27.6884 447 28.1171 446.969 28.5355C446.715 31.8567 446.347 35.1675 446.213 38.4938C446.062 42.1352 445.995 45.7921 446.125 49.4387C446.249 52.8838 446.663 56.3186 446.969 59.7534C447.103 61.2513 447.285 62.7492 447.43 64.1025C447.424 64.0973 447.124 65.8638 446.482 65.9929ZM445.099 25.4519C445.819 25.5087 446.648 25.7412 447.367 25.7515C448.263 25.1988 448.579 24.0315 448.616 23.7784C448.911 21.6659 449.299 17.916 447.378 17.1154C445.275 16.2322 443.069 21.263 442.955 23.0398C442.857 24.5067 443.312 24.9561 445.099 25.4519Z" fill="white"/>
<path d="M376.33 65.7397C376.537 65.6623 376.387 65.1044 376.392 64.8823C376.428 62.0983 376.418 59.3195 376.434 56.5355C376.449 54.1286 376.527 51.7164 376.501 49.3095C376.465 46.0555 376.268 42.8066 376.283 39.5578C376.299 35.56 376.47 31.557 376.547 27.5592C376.553 27.2855 376.392 26.7844 376.247 26.7586C375.134 26.5778 374.636 25.7308 374.119 24.9095C373.29 23.5924 372.477 22.2546 373.161 20.5915C373.254 20.3642 373.259 20.1008 373.331 19.8632C373.684 18.6287 374.031 17.575 374.693 16.2269C375.786 14.8789 376.49 13.4636 377.516 13.8407C379.857 14.6877 382.286 19.7134 382.027 21.8982C381.788 23.8868 380.887 25.612 378.847 26.4435C378.531 26.5727 378.225 26.6295 378.22 27.1253C378.215 28.7627 378.122 30.4 378.101 32.0374C378.044 36.1178 377.966 40.1982 377.972 44.2735C377.977 46.1588 378.205 48.0389 378.236 49.9242C378.256 51.3394 378.07 52.7546 378.07 54.1699C378.07 56.5303 378.163 58.8856 378.184 61.2461C378.194 62.3772 378.127 63.5084 378.096 64.748C377.666 66.7728 376.33 65.7397 376.33 65.7397ZM374.921 20.8032C374.548 21.6813 374.631 22.4974 375.196 23.2722C375.382 23.5304 375.501 23.8403 375.652 24.1244C376.123 25.0386 376.848 25.2556 377.816 24.9973C378.852 24.7236 379.365 23.9849 379.857 23.1585C380.478 22.1152 380.54 21.0098 379.815 20.0646C379.023 19.0316 378.614 16.01 377.386 15.7724C377.226 15.7414 376.957 15.8706 376.858 16.01C376.408 16.6402 374.854 20.7671 374.921 20.8032Z" fill="white"/>
<path d="M424.032 65.6571C423.535 64.717 423.726 64.4794 423.674 63.9939C423.514 62.5167 423.374 61.0343 423.26 59.5519C423.203 58.7875 423.193 58.0179 423.214 57.2534C423.239 56.2101 423.384 55.1667 423.359 54.1234C423.291 51.2774 423.084 48.4314 423.074 45.5803C423.063 42.476 423.1 39.3666 423.317 36.2676C423.535 33.1582 423.638 30.0643 423.271 26.9652C423.229 26.614 423.26 26.2782 422.758 26.0975C421.365 25.5913 420.417 24.6151 420.023 23.1533C419.568 21.454 420.443 19.1297 421.551 17.575C422.753 15.7001 423.162 14.6929 424.166 14.4605C425.554 14.1402 427.476 18.5771 428.097 19.7392C429.299 21.9964 427.766 24.956 425.539 25.519C424.98 25.6584 424.881 25.8909 424.954 26.459C425.285 29.15 425.332 31.8462 425.192 34.5579C424.995 38.4059 424.772 42.2694 424.907 46.1174C425.021 49.418 425.197 52.703 425.042 56.0035C424.995 57.0417 424.902 58.085 424.959 59.1232C425.031 60.4351 425.238 61.7368 425.383 63.0435C425.42 63.3793 425.435 63.7202 425.456 63.9629C425.057 67.1498 424.032 65.6571 424.032 65.6571ZM424.648 16.6711C423.674 16.4077 422.556 19.7909 421.955 20.6121C421.292 21.516 421.556 22.5025 422.002 23.36C422.235 23.799 422.83 24.2948 423.286 24.3155C423.939 24.3465 424.627 24.0056 425.27 23.7577C426.238 23.3806 426.849 22.3424 426.777 21.3197C426.709 20.3539 425.865 17.0017 424.648 16.6711Z" fill="white"/>
<path d="M398.247 65.1768C398.247 64.2884 398.195 63.4206 398.252 62.5632C398.381 60.5643 398.682 58.5706 398.697 56.5769C398.728 51.9386 398.583 47.3003 398.599 42.662C398.609 40.4101 398.775 38.1581 398.951 35.9112C399.08 34.2791 399.453 32.6624 399.515 31.0302C399.624 28.3547 399.578 25.674 399.562 22.9933C399.562 22.766 399.355 22.4613 399.153 22.3322C397.931 21.5522 397.035 20.514 396.538 19.1556C396.206 18.2465 396.237 17.2962 396.693 16.4646C397.563 14.8841 398.516 10.8604 400.354 10.5609C400.598 10.5195 400.857 10.4834 401.09 10.535C403.539 11.0825 406.382 16.5989 405.455 19.7238C405.02 21.201 404.083 22.2443 402.612 22.766C402.208 22.9106 401.608 22.8797 401.416 23.1482C401.178 23.484 401.255 24.0521 401.235 24.5222C401.214 24.9664 401.24 25.4157 401.235 25.8599C401.193 28.3185 401.23 30.7771 401.074 33.2254C400.965 34.9299 400.406 36.6137 400.38 38.313C400.303 43.5711 400.37 48.8344 400.422 54.0924C400.442 56.298 400.556 58.4931 400.173 60.6986C399.909 62.212 399.997 63.7874 399.919 65.5022C398.64 66.7883 398.247 65.1768 398.247 65.1768ZM398.06 17.4356C398.133 17.9056 398.117 18.4118 398.288 18.8405C398.682 19.8219 399.433 20.5244 400.365 21.0047C401.167 21.4179 402.006 21.2888 402.7 20.8033C404.156 19.7858 404.057 16.7952 403.306 14.4554C403.073 13.7219 401.38 12.3532 400.675 12.3377C399.345 12.317 398.764 16.1702 398.06 17.4356Z" fill="white"/>
<path d="M438.828 17.7507C439.304 17.3891 439.682 16.6505 439.749 16.041C439.874 14.8892 439.91 13.6702 439.651 12.5597C439.485 11.8366 438.838 8.40698 438.305 7.80783C436.466 5.74695 435.948 5.44737 434.426 6.9091C433.711 7.59089 432.359 10.8914 431.857 11.7385C430.267 14.414 430.485 16.6143 432.97 19.1349C433.058 19.2227 433.146 19.3519 433.255 19.3725C434.301 19.5636 434.084 20.3332 434.11 21.0615C434.208 23.453 434.405 25.8444 434.498 28.241C434.622 31.4847 434.54 34.7387 434.809 37.9669C435.083 41.2416 435.612 44.5008 436.145 47.7497C436.808 51.8198 437.517 55.8847 437.398 60.022C437.352 61.711 436.627 63.5239 436.849 65.1768C437.072 66.8296 438.543 65.4763 438.543 65.4763C438.714 64.0714 439.03 62.5632 439.05 61.055C439.081 58.741 439.066 56.4064 438.781 54.1131C438.362 50.7248 437.621 47.3726 437.145 43.9895C436.818 41.6445 436.653 39.2737 436.523 36.9132C436.269 32.2285 436.078 27.5386 435.886 22.8486C435.834 21.609 435.881 20.3642 435.886 19.3105C437.005 18.7424 438.015 18.3705 438.828 17.7507ZM435.865 17.5699C435.591 17.668 434.172 17.4511 433.897 17.5699C432.219 16.4026 432.142 14.3572 433.348 12.6165C433.618 12.2292 434.239 9.0991 434.591 8.78403C435.14 8.28818 435.534 7.53924 436.212 7.83365C437.838 8.54127 438.755 14.4966 437.989 16.0978C437.88 16.3199 437.631 16.5317 437.393 16.6247C436.616 16.9397 436.653 17.291 435.865 17.5699Z" fill="white"/>
<path d="M362.839 17.7094C362.632 18.2465 362.487 19.1918 362.218 19.7083C361.513 21.046 360.882 22.4354 361.172 24.0315C361.389 25.2194 362.777 26.4281 364.305 26.7225C364.496 26.7586 364.693 26.7741 364.968 26.8051C364.859 29.0984 364.792 31.3608 364.631 33.6179C364.351 37.5692 363.818 41.5154 363.756 45.4667C363.678 50.5233 363.953 55.5852 364.092 60.647C364.134 62.1655 364.237 63.684 364.315 65.2801C364.942 66.9019 366.097 65.3007 366.097 65.3007C365.91 62.2275 365.667 59.1697 365.563 56.1017C365.465 53.0387 365.553 49.9707 365.486 46.9026C365.418 43.6537 365.641 40.4307 365.962 37.2025C366.262 34.1551 366.418 31.087 366.635 28.0293C366.661 27.6625 366.697 27.2907 366.863 27.084C367.702 26.6398 368.671 26.3351 369.354 25.7153C370.576 24.6048 370.499 21.9809 369.841 20.3849C366.035 11.2065 364.113 14.4398 362.839 17.7094ZM368.381 24.1089C368.153 24.9405 365.392 25.705 363.502 24.5067C362.818 24.0728 362.751 23.3497 362.901 22.6472C363.036 22.0274 363.248 21.4128 363.538 20.8446C363.994 19.9459 364.362 16.9501 365.537 17.0379C366.853 17.136 367.987 20.7568 368.655 21.9396C368.593 22.5129 368.593 23.3393 368.381 24.1089Z" fill="white"/>
<path d="M412.654 15.2766C412.24 15.1423 411.639 15.447 411.168 15.6536C410.686 15.8654 409.775 17.1412 409.464 17.5699C408.076 19.5017 407.548 21.015 407.822 23.1017C408.009 24.5222 408.92 25.5707 410.054 26.4332C410.282 26.6037 410.484 26.9859 410.474 27.2648C410.282 33.9227 410.142 40.5702 410.593 47.228C410.857 51.107 410.857 55.0015 411.074 58.8857C411.194 61.024 411.406 63.8545 411.774 65.3679C412.141 66.8813 413.555 65.2078 413.555 65.2078C413.457 64.5415 413.338 63.7667 413.234 62.9816C412.597 58.1264 412.462 53.2402 412.359 48.3488C412.297 45.5803 412.017 42.8222 412.001 40.0536C411.981 36.0145 412.121 31.9754 412.178 27.9363C412.188 27.3888 412.323 27.0892 412.949 26.8878C414.259 26.4746 415.274 25.519 415.865 24.3362C416.378 23.3032 416.217 22.0997 415.761 20.9944C415.093 19.3674 414.259 15.7879 412.654 15.2766ZM412.644 25.1678C412.416 25.2608 412.074 25.0955 411.794 25.0232C409.956 24.5738 409.122 23.0346 409.593 21.2991C409.702 20.9014 410.738 17.9315 411.178 17.7094C412.773 16.9036 413.265 19.7909 414.083 21.5832C414.751 23.0656 414.171 24.5686 412.644 25.1678Z" fill="white"/>
<path d="M391.457 18.5667C390.582 17.575 390.484 17.0017 389.391 17.0379C387.697 17.0947 384.932 22.3528 384.663 24.2277C384.414 25.9684 384.771 27.5747 386.149 28.7885C386.584 29.1707 387.133 29.4238 387.552 29.6924C387.325 33.8555 386.765 38.0186 387.345 42.2126C387.868 45.9883 387.708 49.7899 387.646 53.5862C387.62 55.0789 387.868 56.5717 387.92 58.0695C387.982 59.9393 387.962 61.8142 387.998 63.684C388.008 64.2005 387.76 64.2728 388.127 65.3937C388.495 66.5145 389.764 65.7656 389.764 65.7656C389.764 63.9423 389.81 62.0828 389.748 60.2286C389.66 57.5582 389.287 54.8827 389.417 52.2278C389.639 47.6825 389.179 43.1992 388.795 38.6952C388.728 37.9049 388.847 37.0992 388.889 36.3037C388.982 34.5579 389.059 32.8173 389.184 31.0766C389.215 30.617 389.401 30.1676 389.536 29.6356C391.09 29.6459 392.322 28.9331 393.249 27.7348C394.3 26.3764 394.528 24.8165 394.047 23.1998C393.689 21.9912 392.213 19.4242 391.457 18.5667ZM391.903 26.6553C391.027 27.7142 389.204 28.3288 387.91 27.8226C387.392 27.6212 386.89 27.084 386.62 26.5727C385.911 25.2349 386.273 23.861 387.288 22.1255C387.428 21.8827 388.868 19.5688 389.236 19.4396C390.473 19.4965 390.214 20.3487 391.224 21.2578C391.918 21.8724 392.643 25.7566 391.903 26.6553Z" fill="white"/>
</g>
<defs>
<clipPath id="clip0_669_9">
<rect width="105" height="61" fill="white" transform="translate(0 6)"/>
</clipPath>
<clipPath id="clip1_669_9">
<rect width="105" height="61" fill="white" transform="translate(352 6)"/>
</clipPath>
</defs>
</svg>
